<svg width="28" height="28" viewBox="0 0 28 28" fill="none" xmlns="http://www.w3.org/2000/svg">
<path d="M13.9393 17.3005L12.2897 18.9502L7.33832 14L12.2885 9.04987L13.9382 10.7007L11.8067 12.8334H20.5998V15.1667H11.8067L13.9393 17.3005Z" fill="#181945"/>
<path fill-rule="evenodd" clip-rule="evenodd" d="M4.92566 23.0744C-0.0863432 18.0624 -0.0863432 9.93769 4.92566 4.92569C9.93766 -0.0863127 18.0623 -0.0863127 23.0743 4.92569C28.0863 9.93769 28.0863 18.0624 23.0743 23.0744C18.0623 28.0863 9.93766 28.0863 4.92566 23.0744ZM6.57532 21.4247C4.60618 19.4555 3.49993 16.7848 3.49993 14C3.49993 11.2152 4.60618 8.5445 6.57532 6.57535C8.54447 4.60621 11.2152 3.49996 14 3.49996C16.7848 3.49996 19.4555 4.60621 21.4247 6.57535C23.3938 8.5445 24.5001 11.2152 24.5001 14C24.5001 16.7848 23.3938 19.4555 21.4247 21.4247C19.4555 23.3938 16.7848 24.5001 14 24.5001C11.2152 24.5001 8.54447 23.3938 6.57532 21.4247Z" fill="#181945"/>
</svg>
