<svg width="47" height="47" viewBox="0 0 47 47" fill="none" xmlns="http://www.w3.org/2000/svg">
<path d="M23.5 11.75C22.0475 11.75 20.6277 12.1807 19.42 12.9876C18.2124 13.7946 17.2711 14.9415 16.7153 16.2834C16.1594 17.6253 16.014 19.1019 16.2974 20.5264C16.5807 21.951 17.2801 23.2595 18.3072 24.2866C19.3342 25.3136 20.6428 26.013 22.0673 26.2964C23.4919 26.5798 24.9684 26.4343 26.3103 25.8785C27.6522 25.3227 28.7992 24.3814 29.6061 23.1737C30.4131 21.966 30.8438 20.5462 30.8438 19.0938C30.8438 17.1461 30.07 15.2782 28.6928 13.9009C27.3156 12.5237 25.4477 11.75 23.5 11.75ZM23.5 23.5C22.6285 23.5 21.7766 23.2416 21.052 22.7574C20.3274 22.2732 19.7627 21.5851 19.4292 20.7799C19.0957 19.9748 19.0084 19.0889 19.1784 18.2341C19.3484 17.3794 19.7681 16.5943 20.3843 15.9781C21.0005 15.3618 21.7857 14.9422 22.6404 14.7722C23.4951 14.6021 24.3811 14.6894 25.1862 15.0229C25.9913 15.3564 26.6795 15.9212 27.1637 16.6458C27.6478 17.3704 27.9063 18.2223 27.9063 19.0938C27.9051 20.262 27.4405 21.3821 26.6144 22.2082C25.7883 23.0342 24.6683 23.4988 23.5 23.5Z" fill="#FF5101"/>
<path d="M23.5 2.9375C19.4331 2.9375 15.4576 4.14347 12.0761 6.40291C8.69461 8.66234 6.05906 11.8738 4.50274 15.6311C2.94641 19.3884 2.5392 23.5228 3.33261 27.5115C4.12602 31.5003 6.08441 35.1642 8.96013 38.0399C11.8358 40.9156 15.4997 42.874 19.4885 43.6674C23.4772 44.4608 27.6116 44.0536 31.3689 42.4973C35.1262 40.9409 38.3377 38.3054 40.5971 34.9239C42.8565 31.5424 44.0625 27.5669 44.0625 23.5C44.0563 18.0484 41.8879 12.8219 38.033 8.96699C34.1782 5.11212 28.9516 2.94372 23.5 2.9375ZM14.6875 38.7412V36.7188C14.6887 35.5505 15.1533 34.4304 15.9794 33.6043C16.8054 32.7783 17.9255 32.3137 19.0938 32.3125H27.9063C29.0745 32.3137 30.1946 32.7783 31.0207 33.6043C31.8467 34.4304 32.3113 35.5505 32.3125 36.7188V38.7412C29.6382 40.3028 26.5969 41.1257 23.5 41.1257C20.4031 41.1257 17.3619 40.3028 14.6875 38.7412ZM35.2397 36.6101C35.2105 34.6833 34.4253 32.8452 33.0536 31.4918C31.6818 30.1385 29.8332 29.3782 27.9063 29.375H19.0938C17.167 29.3786 15.3188 30.139 13.9474 31.4923C12.5759 32.8456 11.791 34.6835 11.7618 36.6101C9.09828 34.2318 7.21999 31.1006 6.37561 27.6311C5.53123 24.1616 5.76059 20.5175 7.03332 17.1812C8.30605 13.845 10.5621 10.974 13.5028 8.94846C16.4434 6.9229 19.93 5.83832 23.5007 5.83832C27.0715 5.83832 30.5581 6.9229 33.4987 8.94846C36.4394 10.974 38.6954 13.845 39.9682 17.1812C41.2409 20.5175 41.4703 24.1616 40.6259 27.6311C39.7815 31.1006 37.9032 34.2318 35.2397 36.6101Z" fill="#FF5101"/>
</svg>
