<svg width="81" height="81" viewBox="0 0 81 81" fill="none" xmlns="http://www.w3.org/2000/svg">
<path d="M0.0833435 10.1668C0.0833435 4.64391 4.5605 0.166748 10.0833 0.166748H70.9167C76.4395 0.166748 80.9167 4.6439 80.9167 10.1667V71.0001C80.9167 76.5229 76.4395 81.0001 70.9167 81.0001H10.0834C4.56051 81.0001 0.0833435 76.5229 0.0833435 71.0001V10.1668ZM70.8125 75.9167V75.9167C73.5854 75.9167 75.8333 73.6688 75.8333 70.8959V13.2501C75.8333 8.83179 72.2516 5.25008 67.8333 5.25008H13.1667C8.74839 5.25008 5.16668 8.8318 5.16668 13.2501V70.8959C5.16668 73.6688 7.41458 75.9167 10.1875 75.9167V75.9167C10.1875 70.5572 12.3166 62.4171 16.1064 58.6273C19.8962 54.8375 21.5 53.5835 27.3958 52.7084H53.6042C58.6875 53.5835 61.1038 54.8375 64.8936 58.6273C68.6834 62.4171 70.8125 70.5572 70.8125 75.9167ZM40.5 17.5C37.8202 17.5 32.8949 19.6886 31 21.5835C29.1051 23.4784 27.6395 27.7995 27.6395 30.4792C27.6395 33.159 29.4604 37.7291 31.3553 39.624C33.2502 41.5189 37.8202 43.5835 40.5 43.5835C43.1798 43.5835 47.6051 41.5189 49.5 39.624C51.3949 37.7291 53.3605 33.159 53.3605 30.4792C53.3605 27.7995 51.8949 23.4784 50 21.5835C48.1051 19.6886 43.1798 17.5 40.5 17.5ZM22.3125 30.4792C22.3125 25.6556 24.2287 21.0296 27.6395 17.6187C31.0503 14.2079 35.6764 12.2917 40.5 12.2917C45.3236 12.2917 49.9497 14.2079 53.3605 17.6187C56.7713 21.0296 58.6875 25.6556 58.6875 30.4792C58.6875 35.3029 56.7713 39.9289 53.3605 43.3398C49.9497 46.7506 45.3236 48.6667 40.5 48.6667C35.6764 48.6667 31.0503 46.7506 27.6395 43.3398C24.2287 39.9289 22.3125 35.3029 22.3125 30.4792ZM27.3958 57.7917C23 58.6273 22.0961 60.0692 19.8222 62.3431C17.5483 64.617 15.2708 72.701 15.2708 75.9167H65.7292C65.7292 72.701 63.4517 64.617 61.1778 62.3431C58.904 60.0692 57 58.6273 53.6042 57.7917H27.3958Z" fill="#EBEBEB"/>
</svg>
