<svg width="54" height="54" viewBox="0 0 54 54" fill="none" xmlns="http://www.w3.org/2000/svg">
<path d="M27.0001 5.0625C25.9454 5.0625 24.8974 5.41688 23.9946 6.06488L21.2001 8.01562L17.9804 8.4375H17.9281L17.8758 8.48981C16.8198 8.72828 15.853 9.26115 15.0875 10.0266C14.322 10.7921 13.7892 11.7589 13.5507 12.8149L13.5001 12.8672V12.9195L13.0782 16.1899L11.1274 18.7211L11.0734 18.7734V18.8258C9.89388 20.7107 9.84157 23.1441 11.1274 24.9429L13.1305 27.7374L13.6587 30.6399L8.22663 38.9171L6.48682 41.5024H14.5548L16.5055 46.0367L17.7188 48.9375L19.4586 46.2999L24.7844 38.2843C26.2154 38.8716 27.8303 38.9256 29.2158 38.2843L34.5415 46.2999L36.2813 48.9375L37.4946 46.0367L39.4454 41.5024H47.5133L45.7735 38.9171L40.5001 30.9032L40.9219 27.7391L42.8727 24.9446L42.9267 24.8923V24.84C44.1063 22.9551 44.1586 20.574 42.8727 18.7751L40.9219 15.9789L40.2891 12.8149H40.3414C40.3347 12.7744 40.2959 12.7474 40.2891 12.7086C39.9854 10.5013 38.2388 8.70919 36.0181 8.4375H35.9641L32.8 8.01562L30.0055 6.06488C29.1327 5.42551 28.0819 5.07504 27.0001 5.0625ZM27.0001 8.48981C27.3882 8.48981 27.7713 8.60794 28.0548 8.80706L31.0602 10.9688L31.4298 11.232L31.8516 11.286L35.5439 11.8125H35.5945C36.3539 11.8969 36.8804 12.4251 36.9664 13.1844V13.2891L37.6533 17.0336L37.7039 17.4032L37.9688 17.7188L40.1305 20.7242C40.5338 21.2844 40.5861 22.2345 40.0782 23.0445L37.7056 26.3672L37.6516 26.7891L37.1251 30.4813V30.5319C37.097 30.7957 37.0068 31.049 36.8618 31.2711L36.7555 31.3251V31.3757C36.5047 31.6769 36.145 31.8668 35.7548 31.9039H35.6485L31.7993 32.5907L31.3774 32.6413L31.0602 32.9062L28.0548 35.0679C27.4945 35.4713 26.4921 35.5236 25.6821 35.0156L22.9399 32.9062L22.6227 32.643L22.1485 32.589L18.4563 32.0625H18.4056C18.167 32.0414 17.937 31.9633 17.7349 31.8347C17.5328 31.706 17.3647 31.5307 17.2446 31.3234C17.1325 31.1288 17.0607 30.9135 17.0337 30.6906V30.5859L16.3486 26.7367L16.2946 26.3149L16.0313 25.9976L13.8696 22.9922C13.4663 22.4319 13.414 21.4296 13.9219 20.6196L16.0313 17.8774L16.2946 17.5601L16.3469 17.0859L16.8228 13.5523C16.8295 13.527 16.8683 13.527 16.8751 13.5C16.9803 13.0938 17.1922 12.7231 17.4889 12.4264C17.7857 12.1296 18.1563 11.9177 18.5626 11.8125C18.5896 11.8057 18.5896 11.7669 18.6149 11.7602L22.1485 11.2843L22.5704 11.2337L22.9399 10.9688L25.9454 8.80706C26.2289 8.60962 26.6119 8.48981 27.0001 8.48981ZM38.6539 34.1719L41.2392 38.1274H37.1757L36.7538 39.1821L35.5945 41.8703L32.0086 36.3859L32.7983 35.8071L36.1227 35.2266V35.2789C36.1615 35.2721 36.1868 35.2333 36.2273 35.2266C37.1155 35.0984 37.9546 34.7342 38.6539 34.1719ZM15.3462 34.2242C16.0789 34.8904 16.9995 35.3141 17.9821 35.4375H18.0344L21.2524 35.8594L21.9899 36.4399L18.4039 41.8703L17.2446 39.1821L16.8228 38.1274H12.7626L15.3462 34.2242Z" fill="white"/>
</svg>
