<svg width="87" height="57" viewBox="0 0 87 57" fill="none" xmlns="http://www.w3.org/2000/svg">
<g clip-path="url(#clip0_2539_1959)">
<mask id="mask0_2539_1959" style="mask-type:luminance" maskUnits="userSpaceOnUse" x="0" y="0" width="87" height="57">
<path d="M3.37661 0.06307C1.53004 0.06307 0.0258789 1.57463 0.0258789 3.43027V53.287C0.0258789 54.1841 0.380518 55.0321 1.00419 55.6711C1.6401 56.3101 2.47167 56.6542 3.37661 56.6542H83.6107C83.6719 56.6542 83.733 56.6542 83.7942 56.6542C84.6257 56.6051 85.3839 56.261 85.9709 55.6711C86.6068 55.0321 86.9492 54.1841 86.9492 53.287V3.41799C86.9492 2.52088 86.5946 1.67294 85.9709 1.03391C85.335 0.394875 84.4912 0.0507812 83.5985 0.0507812H3.37661V0.06307Z" fill="white"/>
</mask>
<g mask="url(#mask0_2539_1959)">
<path d="M42.5708 12.2907V26.9762L92.0002 29.6798V7.78064L42.5708 12.2539V12.2907Z" fill="#FF5101"/>
<path d="M-5 24.3709L92 29.6798L42.5706 26.9762V12.2908L-5 16.6288V24.3709Z" fill="#37375B"/>
<path d="M-5 -5V16.6288L42.5706 12.2907V12.2539L92 7.78063V2.44717V-5H-5Z" fill="#FFCCAD"/>
<path d="M-5 62L92 61.6927V35.7014V29.6797L-5 24.3708V62Z" fill="#B8DCDB"/>
<path d="M6.48314 7.8912C6.2997 8.11241 6.03067 8.2353 5.72494 8.2353C5.44368 8.2353 5.21133 8.13699 5.01566 7.94036C4.82 7.74374 4.72217 7.49795 4.72217 7.21531C4.72217 6.93266 4.82 6.68688 5.01566 6.49025C5.21133 6.29363 5.45591 6.19531 5.72494 6.19531C6.01844 6.19531 6.28747 6.3182 6.47091 6.53941L6.27524 6.71145C6.1285 6.53941 5.94506 6.46567 5.72494 6.46567C5.50482 6.46567 5.34584 6.53941 5.1991 6.68688C5.05235 6.83434 4.99121 7.01868 4.99121 7.22759C4.99121 7.43651 5.06458 7.62085 5.1991 7.76831C5.34584 7.91578 5.51705 7.98952 5.72494 7.98952C5.94506 7.98952 6.1285 7.90349 6.27524 7.73145L6.47091 7.90349L6.48314 7.8912Z" fill="#FF5101"/>
<path d="M7.0454 6.12158H6.77637V8.21072H7.0454V6.12158Z" fill="#FF5101"/>
<path d="M7.47349 6.85898H7.7303V8.21078H7.47349V6.85898ZM7.47349 6.23224C7.54686 6.1708 7.65692 6.1708 7.7303 6.23224C7.80367 6.29369 7.80367 6.40429 7.7303 6.47802C7.66915 6.53947 7.54686 6.53947 7.47349 6.47802C7.40011 6.40429 7.40011 6.30598 7.47349 6.23224Z" fill="#FF5101"/>
<path d="M9.44235 7.63322H8.35398C8.39066 7.85443 8.56187 8.00189 8.79422 8.00189C8.95319 8.00189 9.11217 7.92816 9.18554 7.79298C9.21 7.79298 9.24669 7.81756 9.2956 7.84214L9.40566 7.879C9.2956 8.1125 9.05103 8.23539 8.78199 8.23539C8.58633 8.23539 8.42735 8.17394 8.29283 8.03876C8.17054 7.90358 8.09717 7.73153 8.09717 7.52262C8.09717 7.31371 8.15831 7.14166 8.29283 7.01877C8.42735 6.88359 8.58633 6.82214 8.78199 6.82214C8.97765 6.82214 9.13663 6.88359 9.25892 7.01877C9.38121 7.14166 9.45458 7.31371 9.45458 7.52262C9.45458 7.57178 9.45458 7.60864 9.45458 7.63322M9.18554 7.42431C9.14886 7.2031 8.98988 7.06792 8.78199 7.06792C8.5741 7.06792 8.39066 7.2031 8.35398 7.42431H9.18554Z" fill="#FF5101"/>
<path d="M10.0415 8.21081H9.78467V6.85901H10.0415V7.05564C10.1148 6.90817 10.2983 6.82214 10.4573 6.82214C10.7874 6.82214 10.9709 7.04335 10.9709 7.42431V8.21081H10.7141V7.44889C10.7141 7.22768 10.604 7.0925 10.4206 7.0925C10.2127 7.0925 10.0415 7.21539 10.0415 7.48575V8.21081Z" fill="#FF5101"/>
<path d="M11.7661 6.85891H12.0473V7.08012H11.7661V8.21071H11.497V7.08012H11.2524V6.85891H11.497V6.34277H11.7661V6.85891Z" fill="#FF5101"/>
<path d="M13.5879 7.63322H12.4995C12.5362 7.85443 12.7074 8.00189 12.9397 8.00189C13.0987 8.00189 13.2577 7.92816 13.3311 7.79298C13.3555 7.79298 13.3922 7.81756 13.4411 7.84214L13.5512 7.879C13.4411 8.1125 13.1965 8.23539 12.9275 8.23539C12.7318 8.23539 12.5729 8.17394 12.4383 8.03876C12.3038 7.90358 12.2427 7.73153 12.2427 7.52262C12.2427 7.31371 12.3038 7.14166 12.4383 7.01877C12.5729 6.88359 12.7318 6.82214 12.9275 6.82214C13.1232 6.82214 13.2821 6.88359 13.4044 7.01877C13.5267 7.14166 13.5879 7.31371 13.5879 7.52262C13.5879 7.57178 13.5879 7.60864 13.5879 7.63322ZM13.3311 7.42431C13.2944 7.2031 13.1354 7.06792 12.9153 7.06792C12.6951 7.06792 12.5239 7.2031 12.4873 7.42431H13.3311Z" fill="#FF5101"/>
<path d="M14.7251 6.20764H15.8991V6.46571H14.9941V7.10474H15.789V7.35053H14.9941V7.95269H15.9358V8.21076H14.7251V6.20764Z" fill="#FF5101"/>
<path d="M16.5842 7.60864C16.3274 7.53491 16.2051 7.41202 16.2296 7.16624C16.2296 7.06792 16.2907 6.9819 16.3763 6.92046C16.4742 6.85901 16.572 6.82214 16.6943 6.82214C16.9389 6.82214 17.1345 6.94503 17.159 7.20311H16.9022C16.8899 7.10479 16.8043 7.05564 16.6943 7.05564C16.5964 7.05564 16.5108 7.10479 16.4986 7.17853C16.4986 7.21539 16.4986 7.25226 16.4986 7.28913C16.5231 7.33828 16.572 7.37515 16.6576 7.39973L16.8533 7.44889C17.0856 7.51033 17.1957 7.63322 17.1957 7.84214C17.1957 7.96503 17.1468 8.06334 17.0489 8.13707C16.9511 8.21081 16.8288 8.24768 16.6821 8.24768C16.5598 8.24768 16.4375 8.21081 16.3396 8.12479C16.2418 8.05105 16.1807 7.94045 16.1807 7.80527H16.413C16.413 7.879 16.4619 7.92816 16.5231 7.95274C16.5842 7.98961 16.6576 8.00189 16.731 8.00189C16.8533 8.00189 16.9266 7.91587 16.9389 7.82985C16.9389 7.74382 16.8655 7.68238 16.7554 7.6578L16.572 7.60864H16.5842Z" fill="#FF5101"/>
<path d="M17.8071 6.85901V7.06792C17.8927 6.92046 18.0762 6.82214 18.2841 6.82214C18.4919 6.82214 18.6265 6.88359 18.761 7.01877C18.8955 7.15395 18.9566 7.31371 18.9566 7.53491C18.9566 7.74382 18.8955 7.91587 18.761 8.03876C18.6387 8.17394 18.4797 8.23539 18.2841 8.23539C18.0884 8.23539 17.8927 8.14936 17.8071 8.00189V8.86213H17.5381V6.85901H17.8071ZM17.9416 7.86671C18.0272 7.94045 18.1373 7.9896 18.2474 7.9896C18.4919 7.9896 18.6754 7.81756 18.6754 7.5472C18.6754 7.41202 18.6387 7.30142 18.5531 7.21539C18.4675 7.12937 18.3697 7.0925 18.2474 7.0925C18.1251 7.0925 18.015 7.12937 17.9294 7.21539C17.8438 7.30142 17.8071 7.41202 17.8071 7.5472C17.8071 7.68238 17.856 7.79298 17.9416 7.86671Z" fill="#FF5101"/>
<path d="M20.5708 7.63322H19.4824C19.5191 7.85443 19.6903 8.00189 19.9226 8.00189C20.0816 8.00189 20.2406 7.92816 20.314 7.79298C20.3384 7.79298 20.3751 7.81756 20.424 7.84214L20.5341 7.879C20.424 8.1125 20.1794 8.23539 19.9104 8.23539C19.7147 8.23539 19.5558 8.17394 19.4212 8.03876C19.2867 7.90358 19.2256 7.73153 19.2256 7.52262C19.2256 7.31371 19.2867 7.14166 19.4212 7.01877C19.5558 6.88359 19.7147 6.82214 19.9104 6.82214C20.1061 6.82214 20.265 6.88359 20.3873 7.01877C20.5096 7.14166 20.5708 7.31371 20.5708 7.52262C20.5708 7.57178 20.5708 7.60864 20.5708 7.63322ZM20.314 7.42431C20.2773 7.2031 20.1183 7.06792 19.8982 7.06792C19.6781 7.06792 19.5069 7.2031 19.4702 7.42431H20.314Z" fill="#FF5101"/>
<path d="M22.0505 7.04326L21.8549 7.21531C21.7693 7.12929 21.6592 7.09242 21.5369 7.09242C21.4146 7.09242 21.3046 7.12929 21.219 7.21531C21.1334 7.30133 21.0844 7.39965 21.0844 7.53483C21.0844 7.67001 21.1211 7.78061 21.219 7.86663C21.3046 7.95266 21.4146 7.98952 21.5369 7.98952C21.6592 7.98952 21.7693 7.95266 21.8549 7.85434L22.0505 8.02639C21.916 8.17386 21.7448 8.24759 21.5369 8.24759C21.3413 8.24759 21.17 8.18615 21.0355 8.05097C20.901 7.91579 20.8276 7.74374 20.8276 7.53483C20.8276 7.32591 20.901 7.15387 21.0355 7.03098C21.17 6.8958 21.3413 6.83435 21.5369 6.83435C21.7448 6.83435 21.916 6.90809 22.0505 7.05555" fill="#FF5101"/>
<path d="M22.3807 6.85898H22.6375V8.21078H22.3807V6.85898ZM22.3807 6.23224C22.4541 6.1708 22.5641 6.1708 22.6375 6.23224C22.7109 6.29369 22.7109 6.40429 22.6375 6.47802C22.5641 6.55176 22.4541 6.55176 22.3807 6.47802C22.3073 6.40429 22.3073 6.30598 22.3807 6.23224Z" fill="#FF5101"/>
<path d="M24.1417 8.21081V8.00189C24.0561 8.14936 23.8605 8.23539 23.6648 8.23539C23.4691 8.23539 23.3102 8.16165 23.1756 8.03876C23.0411 7.90358 22.98 7.73153 22.98 7.53491C22.98 7.33828 23.0411 7.15395 23.1756 7.01877C23.3102 6.88359 23.4691 6.82214 23.6648 6.82214C23.8605 6.82214 24.0561 6.90817 24.1417 7.05564V6.84672H24.3985V8.19852H24.1417V8.21081ZM24.0072 7.20311C23.9216 7.12937 23.8115 7.08021 23.6893 7.08021C23.567 7.08021 23.4569 7.11708 23.3713 7.20311C23.2857 7.28913 23.249 7.38744 23.249 7.52262C23.249 7.6578 23.2979 7.7684 23.3713 7.85443C23.4569 7.94045 23.5547 7.97732 23.677 7.97732C23.7993 7.97732 23.9094 7.94045 23.995 7.85443C24.0806 7.7684 24.1295 7.6578 24.1295 7.52262C24.1295 7.38744 24.0806 7.27684 23.995 7.20311" fill="#FF5101"/>
<path d="M25.1079 6.12158H24.8389V8.21072H25.1079V6.12158Z" fill="#FF5101"/>
<path d="M7.19235 41.6985C6.93554 42.0057 6.56867 42.1777 6.15289 42.1777C5.76156 42.1777 5.43138 42.0425 5.16234 41.7599C4.89331 41.4772 4.75879 41.1454 4.75879 40.7522C4.75879 40.3589 4.89331 40.0271 5.16234 39.7445C5.43138 39.4741 5.76156 39.3267 6.15289 39.3267C6.56867 39.3267 6.93554 39.4987 7.19235 39.7936L6.91108 40.0271C6.70319 39.7936 6.44638 39.683 6.15289 39.683C5.85939 39.683 5.61481 39.7814 5.43138 39.9903C5.23572 40.1992 5.13789 40.445 5.13789 40.7399C5.13789 41.0348 5.23572 41.2806 5.43138 41.4895C5.62704 41.6985 5.87162 41.7968 6.15289 41.7968C6.45861 41.7968 6.71542 41.6739 6.91108 41.4404L7.19235 41.6739V41.6985Z" fill="black"/>
<path d="M9.55222 42.1409H9.09975L8.39047 41.1086H8.03583V42.1409H7.65674V39.3759H8.70843C8.97746 39.3759 9.18536 39.4619 9.31987 39.6339C9.45439 39.806 9.52777 40.0026 9.52777 40.2484C9.52777 40.4696 9.46662 40.6662 9.34433 40.826C9.22204 40.9857 9.05084 41.084 8.80626 41.0963L9.54 42.1409H9.55222ZM8.03583 39.7199V40.7522H8.6962C9.01415 40.7522 9.1609 40.531 9.1609 40.2361C9.1609 39.9412 9.01415 39.7199 8.72066 39.7199H8.04806H8.03583Z" fill="black"/>
<path d="M10.5065 39.3759H10.1396V42.1409H10.5065V39.3759Z" fill="black"/>
<path d="M11.4601 41.3421C11.4601 41.465 11.5213 41.5879 11.6313 41.6862C11.7414 41.7845 11.8881 41.8337 12.0471 41.8337C12.3773 41.8337 12.5607 41.6616 12.5974 41.4281C12.6219 41.1578 12.414 40.998 12.1327 40.9366L11.7781 40.8505C11.3256 40.7277 11.1055 40.4942 11.1055 40.1255C11.1055 39.892 11.1911 39.7077 11.3745 39.5602C11.5457 39.4127 11.7659 39.339 11.9982 39.339C12.255 39.339 12.4629 39.4127 12.6341 39.5602C12.8053 39.7077 12.8909 39.9043 12.8909 40.1501H12.524C12.524 39.8797 12.3039 39.6954 11.9982 39.6954C11.8637 39.6954 11.7414 39.7322 11.6313 39.8183C11.5335 39.892 11.4846 39.9903 11.4846 40.1255C11.4846 40.3221 11.6191 40.445 11.8759 40.5064L12.2306 40.5925C12.7564 40.7276 13.0132 41.0226 12.9643 41.465C12.9398 41.6739 12.842 41.846 12.683 41.9811C12.5118 42.1163 12.3039 42.1901 12.0471 42.1901C11.7781 42.1901 11.5457 42.104 11.3623 41.9443C11.1789 41.7722 11.0933 41.5756 11.0933 41.3544H11.4601V41.3421Z" fill="black"/>
<path d="M13.2578 39.3759H15.3123V39.7322H14.4685V42.1409H14.0894V39.7322H13.2578V39.3759Z" fill="black"/>
<path d="M16.1559 39.3759H15.7891V42.1409H16.1559V39.3759Z" fill="black"/>
<path d="M18.4061 41.4404H17.2443L16.9753 42.1409H16.584L17.6357 39.3759H18.0392L19.0787 42.1409H18.6874L18.4183 41.4404H18.4061ZM17.3789 41.0963H18.2838L17.8313 39.8674L17.3789 41.0963Z" fill="black"/>
<path d="M21.4757 42.1409H21.1211L19.8615 40.0518V42.1409H19.4946V39.3759H19.8615L21.0966 41.4404V39.3759H21.4757V42.1409Z" fill="black"/>
<path d="M22.2217 39.3759H23.8481V39.7199H22.5885V40.6048H23.6892V40.9611H22.5885V41.7968H23.897V42.1409H22.2217V39.3759Z" fill="black"/>
<path d="M25.7189 41.3421C25.7189 41.465 25.78 41.5879 25.8901 41.6862C26.0002 41.7845 26.1469 41.8337 26.3059 41.8337C26.6361 41.8337 26.8195 41.6616 26.8562 41.4281C26.8806 41.1578 26.6728 40.998 26.3915 40.9366L26.0368 40.8505C25.5844 40.7277 25.3643 40.4942 25.3643 40.1255C25.3643 39.892 25.4499 39.7077 25.6333 39.5602C25.8045 39.4127 26.0246 39.339 26.257 39.339C26.5138 39.339 26.7217 39.4127 26.8929 39.5602C27.0641 39.7077 27.1497 39.9043 27.1497 40.1501H26.7828C26.7828 39.8797 26.5627 39.6954 26.2692 39.6954C26.1347 39.6954 26.0124 39.7322 25.9023 39.8183C25.8045 39.892 25.7556 39.9903 25.7556 40.1255C25.7556 40.3221 25.8901 40.445 26.1469 40.5064L26.5016 40.5925C27.0274 40.7276 27.2842 41.0226 27.2353 41.465C27.2108 41.6739 27.113 41.846 26.954 41.9811C26.7828 42.1163 26.5749 42.1901 26.3181 42.1901C26.0491 42.1901 25.8167 42.104 25.6333 41.9443C25.4499 41.7722 25.3643 41.5756 25.3643 41.3544H25.7311L25.7189 41.3421Z" fill="black"/>
<path d="M28.0305 39.7568C28.2995 39.4742 28.6297 39.339 29.0211 39.339C29.4124 39.339 29.7426 39.4742 30.0116 39.7568C30.2806 40.0395 30.4152 40.3713 30.4152 40.7645C30.4152 41.1578 30.2806 41.4896 30.0116 41.7722C29.7426 42.0549 29.4124 42.1901 29.0211 42.1901C28.6297 42.1901 28.2995 42.0549 28.0305 41.7722C27.7615 41.5019 27.627 41.1578 27.627 40.7645C27.627 40.3713 27.7615 40.0272 28.0305 39.7568ZM28.2873 40.0149C28.0917 40.2238 27.9938 40.4696 27.9938 40.7645C27.9938 41.0595 28.0917 41.3052 28.2873 41.5142C28.483 41.7231 28.7276 41.8214 29.0088 41.8214C29.2901 41.8214 29.5347 41.7231 29.7426 41.5142C29.9382 41.3052 30.0361 41.0595 30.0361 40.7645C30.0361 40.4696 29.9382 40.2238 29.7426 40.0149C29.5469 39.806 29.3023 39.7077 29.0088 39.7077C28.7153 39.7077 28.483 39.806 28.2873 40.0149Z" fill="black"/>
<path d="M32.5918 39.3759H32.9709V41.1946C32.9709 41.4896 32.8731 41.7231 32.6774 41.9074C32.4817 42.0917 32.2494 42.1778 31.9681 42.1778C31.6869 42.1778 31.4545 42.0794 31.2466 41.9074C31.051 41.7231 30.9531 41.4773 30.9531 41.1946V39.3759H31.3322V41.1946C31.3322 41.379 31.3934 41.5387 31.5157 41.6493C31.6379 41.7722 31.7847 41.8337 31.9559 41.8337C32.1271 41.8337 32.2861 41.7722 32.4084 41.6493C32.5307 41.5387 32.5918 41.379 32.5918 41.1946V39.3759Z" fill="black"/>
<path d="M33.4844 41.8091L34.9396 39.7322H33.5455V39.3759H35.4043V39.6954L33.9491 41.7845H35.4043V42.1409H33.4844V41.8091Z" fill="black"/>
<path d="M37.471 41.4404H36.3093L36.0403 42.1409H35.6489L36.7006 39.3759H37.1042L38.1436 42.1409H37.7523L37.4833 41.4404H37.471ZM36.4316 41.0963H37.3365L36.884 39.8674L36.4316 41.0963Z" fill="black"/>
<path d="M39.6725 41.3421C39.6725 41.465 39.7337 41.5879 39.8437 41.6862C39.9538 41.7845 40.1005 41.8337 40.2717 41.8337C40.6019 41.8337 40.7853 41.6616 40.822 41.4281C40.8465 41.1578 40.6386 40.998 40.3573 40.9366L40.0027 40.8505C39.5502 40.7277 39.3301 40.4942 39.3301 40.1255C39.3301 39.892 39.4157 39.7077 39.5991 39.5602C39.7703 39.4127 39.9782 39.339 40.2228 39.339C40.4796 39.339 40.6875 39.4127 40.8587 39.5602C41.0299 39.7077 41.1033 39.9043 41.1033 40.1501H40.7364C40.7364 39.8797 40.5163 39.6954 40.2228 39.6954C40.0883 39.6954 39.966 39.7322 39.8559 39.8183C39.7581 39.892 39.7092 39.9903 39.7092 40.1255C39.7092 40.3221 39.8437 40.445 40.1005 40.5064L40.4552 40.5925C40.981 40.7276 41.2378 41.0226 41.1889 41.465C41.1644 41.6739 41.0666 41.846 40.9076 41.9811C40.7487 42.1163 40.5285 42.1901 40.2717 42.1901C39.9905 42.1901 39.7703 42.104 39.5869 41.9443C39.4035 41.7722 39.3179 41.5756 39.3179 41.3544H39.6847L39.6725 41.3421Z" fill="black"/>
<path d="M43.2308 41.4404H42.0691L41.8 42.1409H41.4087L42.4604 39.3759H42.8639L43.9034 42.1409H43.5121L43.243 41.4404H43.2308ZM42.1913 41.0963H43.0963L42.6438 39.8674L42.1913 41.0963Z" fill="black"/>
<path d="M46.2882 42.1409H45.9336L44.674 40.0518V42.1409H44.3071V39.3759H44.674L45.9213 41.4404V39.3759H46.2882V42.1409Z" fill="black"/>
<path d="M46.7773 39.3759H48.8196V39.7199H47.988V42.1409H47.6089V39.7199H46.7773V39.3759Z" fill="black"/>
<path d="M49.4431 39.7568C49.7121 39.4742 50.0423 39.339 50.4214 39.339C50.8005 39.339 51.1429 39.4742 51.412 39.7568C51.681 40.0395 51.8155 40.3713 51.8155 40.7645C51.8155 41.1578 51.681 41.4896 51.412 41.7722C51.1429 42.0549 50.8127 42.1901 50.4214 42.1901C50.0301 42.1901 49.6999 42.0549 49.4431 41.7722C49.1741 41.5019 49.0396 41.1578 49.0396 40.7645C49.0396 40.3713 49.1741 40.0272 49.4431 39.7568ZM49.6999 40.0149C49.5043 40.2238 49.4064 40.4696 49.4064 40.7645C49.4064 41.0595 49.5043 41.3052 49.6999 41.5142C49.8956 41.7231 50.1402 41.8214 50.4214 41.8214C50.7027 41.8214 50.9595 41.7231 51.1429 41.5142C51.3386 41.3052 51.4364 41.0595 51.4364 40.7645C51.4364 40.4696 51.3386 40.2238 51.1429 40.0149C50.9473 39.806 50.7027 39.7077 50.4214 39.7077C50.1402 39.7077 49.8956 39.806 49.6999 40.0149Z" fill="black"/>
<path d="M52.5983 41.3421C52.5983 41.465 52.6594 41.5879 52.7695 41.6862C52.8796 41.7845 53.0263 41.8337 53.1853 41.8337C53.5155 41.8337 53.6989 41.6616 53.7356 41.4281C53.76 41.1578 53.5521 40.998 53.2709 40.9366L52.9162 40.8505C52.4638 40.7277 52.2437 40.4942 52.2437 40.1255C52.2437 39.892 52.3293 39.7077 52.5127 39.5602C52.6839 39.4127 52.904 39.339 53.1364 39.339C53.3932 39.339 53.6011 39.4127 53.7723 39.5602C53.9435 39.7077 54.0291 39.9043 54.0291 40.1501H53.6622C53.6622 39.8797 53.4421 39.6954 53.1486 39.6954C53.0141 39.6954 52.8918 39.7322 52.7817 39.8183C52.6839 39.892 52.635 39.9903 52.635 40.1255C52.635 40.3221 52.7695 40.445 53.0263 40.5064L53.3809 40.5925C53.9068 40.7276 54.1636 41.0226 54.1147 41.465C54.0902 41.6739 53.9924 41.846 53.8334 41.9811C53.6622 42.1163 53.4543 42.1901 53.1975 42.1901C52.9285 42.1901 52.6961 42.104 52.5127 41.9443C52.3293 41.7722 52.2437 41.5756 52.2437 41.3544H52.6105L52.5983 41.3421Z" fill="black"/>
<path d="M4.29395 44.9674L5.73696 44.3284V48.4329H4.97877V45.3729L4.29395 45.6433V44.9674Z" fill="black"/>
<path d="M7.08221 46.6264V45.9505H7.51022C7.68143 45.9505 7.79149 45.9136 7.86486 45.803C7.93824 45.6924 7.97492 45.5941 7.97492 45.5081C7.97492 45.3115 7.86486 45.1026 7.62028 45.0534C7.36348 45.0165 7.14336 45.1026 6.99661 45.2992L6.39739 44.9059C6.62974 44.5127 7.10667 44.2792 7.62028 44.3038C7.96269 44.3161 8.24396 44.4389 8.46408 44.6602C8.6842 44.8814 8.79426 45.1394 8.79426 45.4467C8.79426 45.7662 8.5986 46.0734 8.29288 46.2454C8.50077 46.3315 8.67197 46.4789 8.80649 46.6879C8.94101 46.9091 8.98993 47.1303 8.9777 47.3515C8.94101 47.7201 8.76981 48.0151 8.47631 48.224C8.17059 48.4452 7.82818 48.5312 7.42462 48.5066C6.87432 48.4698 6.39739 48.1257 6.16504 47.6464L6.49522 47.4866L6.8254 47.3146C6.94769 47.5727 7.21673 47.7693 7.48577 47.7693C7.87709 47.7693 8.17059 47.5112 8.17059 47.1671C8.17059 47.0688 8.08498 46.6264 7.53468 46.651H7.10667L7.08221 46.6264Z" fill="black"/>
<path d="M12.3531 47.5603H11.815V48.4451H11.0568V47.5603H9.06348L11.0813 44.3774H11.815V46.8967H12.3531V47.5603ZM10.1641 46.8967H11.0568V45.4835L10.1641 46.8967Z" fill="black"/>
<path d="M15.178 48.4328H12.5977V48.0396L14.2486 46.0488C14.4198 45.8521 14.4932 45.6801 14.4932 45.5203C14.4932 45.25 14.2486 45.0411 13.9184 45.0411C13.5882 45.0411 13.3436 45.2868 13.2947 45.6309L12.5854 45.4958C12.6344 45.1271 12.7933 44.8321 13.0379 44.6232C13.2825 44.402 13.5882 44.3037 13.9429 44.3037C14.2975 44.3037 14.6032 44.4143 14.86 44.6478C15.1168 44.8813 15.2391 45.1639 15.2391 45.5203C15.2391 45.8767 15.0924 46.2331 14.8111 46.5649L13.8083 47.7078H15.178V48.4328Z" fill="black"/>
<path d="M19.3113 46.3438C18.9444 46.3438 18.6387 46.479 18.3819 46.7493L17.9539 46.4912L18.2963 44.3652H20.5953V45.0657H18.8955L18.7488 45.9014C18.92 45.7539 19.1645 45.6802 19.4947 45.6802C19.8861 45.6802 20.204 45.8031 20.4486 46.0365C20.7054 46.27 20.8277 46.6018 20.8277 47.032C20.8277 47.4621 20.6809 47.8185 20.3874 48.0888C20.0939 48.3592 19.7026 48.4944 19.2135 48.4944C18.6509 48.4944 18.1006 48.1503 17.8071 47.6341C17.8194 47.6341 17.9294 47.5604 18.1251 47.4375C18.3207 47.3146 18.4308 47.2409 18.443 47.2409C18.6142 47.5358 18.92 47.7447 19.2135 47.7447C19.7271 47.7447 20.0695 47.4375 20.0695 47.0443C20.0695 46.5896 19.7393 46.3438 19.2868 46.3438" fill="black"/>
<path d="M21.9406 46.6264V45.9505H22.3808C22.5521 45.9505 22.6621 45.9136 22.7355 45.803C22.8089 45.6924 22.8456 45.5941 22.8456 45.5081C22.8456 45.3114 22.7355 45.1025 22.4909 45.0411C22.2341 45.0165 22.014 45.0902 21.8672 45.2869L21.268 44.8936C21.5004 44.5004 21.9773 44.2669 22.4909 44.2914C22.8333 44.3037 23.1146 44.4266 23.3347 44.6478C23.5548 44.8567 23.6649 45.1271 23.6649 45.4343C23.6649 45.7538 23.4692 46.0611 23.1635 46.2331C23.3714 46.3191 23.5426 46.4666 23.6771 46.6755C23.8116 46.8967 23.8606 47.1179 23.8483 47.3391C23.8116 47.7078 23.6404 48.0027 23.3347 48.2117C23.029 48.4329 22.6866 48.5189 22.283 48.4943C21.7327 48.4574 21.2558 48.1133 21.0234 47.6341L21.3536 47.4743L21.696 47.3023C21.8183 47.5603 22.0874 47.757 22.3442 47.757C22.7355 47.757 23.029 47.4989 23.029 47.1548C23.029 47.0565 22.9434 46.6141 22.4053 46.6387H21.9651L21.9406 46.6264Z" fill="black"/>
<path d="M24.4961 46.6018C24.2515 46.3437 24.117 46.0242 24.1292 45.6064C24.1292 45.2254 24.2759 44.9059 24.5327 44.6724C24.8018 44.4266 25.1442 44.3037 25.56 44.316C25.9391 44.316 26.257 44.4512 26.5138 44.7093C26.7706 44.9673 26.9174 45.2991 26.9541 45.717C27.0519 46.9828 26.844 48.5558 25.3888 48.5066C24.8507 48.482 24.4349 48.2854 24.1659 47.7201L24.8629 47.4252C24.9852 47.6709 25.1686 47.7938 25.4132 47.7938C25.6945 47.7938 25.9024 47.6709 26.0247 47.4252C26.1592 47.1794 26.2203 46.8844 26.1959 46.5281C26.1103 46.7615 25.7801 46.9828 25.3765 46.9828C25.0464 46.9828 24.7529 46.8599 24.4961 46.6018ZM25.5233 45.0411C25.1809 45.0411 24.9118 45.3114 24.8996 45.6555C24.8996 45.9996 25.1564 46.2823 25.4866 46.2823C25.6578 46.2823 25.8046 46.2331 25.9268 46.1102C26.0491 45.9873 26.1103 45.8399 26.1225 45.6801C26.1225 45.336 25.8535 45.0534 25.5111 45.0411" fill="black"/>
<path d="M27.9201 44.6232C28.1525 44.402 28.4337 44.3037 28.7639 44.3037C29.0941 44.3037 29.3754 44.4143 29.6077 44.6232C29.8401 44.8444 29.9623 45.1025 29.9623 45.4097C29.9623 45.6801 29.8645 45.9136 29.6566 46.1102C30.0235 46.3314 30.2436 46.7001 30.2436 47.1302C30.2436 47.5112 30.1091 47.843 29.8156 48.101C29.5221 48.3714 29.1797 48.5066 28.7639 48.5066C28.3481 48.5066 27.9935 48.3714 27.7122 48.101C27.4187 47.8307 27.272 47.4989 27.272 47.1302C27.272 46.6878 27.4921 46.3314 27.8712 46.1102C27.6755 45.9136 27.5777 45.6924 27.5777 45.4097C27.5777 45.1025 27.7 44.8444 27.9201 44.6232ZM28.2503 47.5849C28.397 47.7201 28.5682 47.7815 28.7639 47.7815C28.9596 47.7815 29.1308 47.7078 29.2775 47.5849C29.4243 47.4497 29.4976 47.29 29.4976 47.1056C29.4976 46.9213 29.4243 46.7738 29.2898 46.6386C29.1552 46.5035 28.9963 46.4297 28.8128 46.4297H28.7028C28.5193 46.4297 28.3603 46.5035 28.2258 46.6386C28.1035 46.7738 28.0302 46.9336 28.0302 47.1056C28.0302 47.29 28.1035 47.4497 28.2503 47.5849ZM28.7761 45.8767C29.0452 45.8767 29.2164 45.6801 29.2164 45.4343C29.2164 45.1885 29.0329 45.0165 28.7639 45.0165C28.4949 45.0165 28.2992 45.2131 28.2992 45.4343C28.2992 45.6801 28.4826 45.8767 28.7639 45.8767" fill="black"/>
<path d="M33.6803 46.6264V45.9505H34.1206C34.2918 45.9505 34.4018 45.9136 34.4752 45.803C34.5486 45.6924 34.5853 45.5941 34.5853 45.5081C34.5853 45.3115 34.4752 45.1026 34.2306 45.0534C33.9738 45.0165 33.7537 45.1026 33.607 45.2992L33.0077 44.9059C33.2401 44.5127 33.717 44.2792 34.2306 44.3038C34.573 44.3283 34.8543 44.4389 35.0744 44.6602C35.2946 44.8814 35.4046 45.1394 35.4046 45.4467C35.4046 45.7662 35.209 46.0734 34.9032 46.2454C35.1111 46.3315 35.2823 46.4789 35.4168 46.6879C35.5514 46.9091 35.6003 47.1303 35.588 47.3515C35.5514 47.7201 35.3802 48.0151 35.0867 48.224C34.7809 48.4452 34.4385 48.5312 34.035 48.5066C33.4847 48.4698 33.0077 48.1257 32.7754 47.6464L33.1056 47.4866L33.448 47.3146C33.5703 47.5727 33.8393 47.7693 34.0961 47.7693C34.4874 47.7693 34.7809 47.5112 34.7809 47.1671C34.7809 47.0565 34.6953 46.6264 34.1573 46.6387H33.717L33.6803 46.6264Z" fill="black"/>
<path d="M35.8203 44.3774H38.7797L36.8475 48.4328H35.9793L37.5813 45.0902H35.8203V44.3774Z" fill="black"/>
<path d="M38.7432 44.9674L40.1862 44.3284V48.4329H39.4158V45.3729L38.7432 45.6433V44.9674Z" fill="black"/>
<path d="M43.2923 48.4328H40.712V48.0396L42.3629 46.0488C42.5341 45.8521 42.6074 45.6801 42.6074 45.5203C42.6074 45.25 42.3629 45.0411 42.0205 45.0411C41.678 45.0411 41.4457 45.2868 41.3968 45.6309L40.6875 45.4958C40.7486 45.1271 40.8954 44.8321 41.1522 44.6232C41.3968 44.402 41.7025 44.3037 42.0571 44.3037C42.4118 44.3037 42.7175 44.4266 42.9743 44.6478C43.2311 44.8813 43.3534 45.1639 43.3534 45.5203C43.3534 45.8767 43.2067 46.2331 42.9254 46.5649L41.9226 47.7078H43.2923V48.4328Z" fill="black"/>
<path d="M46.3737 46.6018C46.1291 46.3437 46.0068 46.0242 46.0068 45.6064C46.0068 45.2254 46.1536 44.9059 46.4104 44.6724C46.6794 44.4266 47.0218 44.3037 47.4254 44.316C47.8045 44.316 48.1224 44.4512 48.3793 44.7093C48.6361 44.9673 48.7828 45.2991 48.8195 45.717C48.9173 46.9828 48.7094 48.5558 47.2542 48.5066C46.7161 48.482 46.3003 48.2854 46.0313 47.7201L46.7283 47.4252C46.8506 47.6709 47.0341 47.7938 47.2664 47.7938C47.5477 47.7938 47.7556 47.6709 47.8779 47.4252C48.0124 47.1794 48.0735 46.8844 48.0491 46.5281C47.9635 46.7615 47.6333 46.9828 47.2297 46.9828C46.8995 46.9828 46.6061 46.8599 46.3492 46.6018M47.4009 45.0411C47.0585 45.0411 46.7895 45.3114 46.7773 45.6555C46.7773 45.9996 47.0341 46.2823 47.3765 46.2823C47.5477 46.2823 47.6944 46.2331 47.8167 46.1102C47.939 45.9873 48.0002 45.8399 48.0124 45.6801C48.0124 45.336 47.7433 45.0534 47.4009 45.0411Z" fill="black"/>
<path d="M49.798 44.6232C50.0304 44.402 50.3117 44.3037 50.6418 44.3037C50.972 44.3037 51.2533 44.4143 51.4856 44.6232C51.718 44.8444 51.8403 45.1025 51.8403 45.4097C51.8403 45.6801 51.7424 45.9136 51.5345 46.1102C51.9014 46.3314 52.1215 46.7001 52.1215 47.1302C52.1215 47.5112 51.9748 47.843 51.6935 48.101C51.4 48.3714 51.0576 48.5066 50.6418 48.5066C50.2261 48.5066 49.8714 48.3714 49.5901 48.101C49.2967 47.8307 49.1499 47.4989 49.1499 47.1302C49.1499 46.6878 49.37 46.3314 49.7491 46.1102C49.5535 45.9136 49.4556 45.6924 49.4556 45.4097C49.4556 45.1025 49.5657 44.8444 49.798 44.6232ZM50.116 47.5849C50.2627 47.7201 50.4339 47.7815 50.6296 47.7815C50.8253 47.7815 50.9965 47.7078 51.1432 47.5849C51.29 47.4497 51.3633 47.29 51.3633 47.1056C51.3633 46.9213 51.3022 46.7738 51.1554 46.6386C51.0209 46.5035 50.862 46.4297 50.6785 46.4297H50.5685C50.385 46.4297 50.2261 46.5035 50.0915 46.6386C49.957 46.7738 49.8959 46.9336 49.8959 47.1056C49.8959 47.29 49.9692 47.4497 50.116 47.5849ZM50.6418 45.8767C50.9109 45.8767 51.0821 45.6801 51.0821 45.4343C51.0821 45.1885 50.8986 45.0165 50.6296 45.0165C50.3606 45.0165 50.1649 45.2131 50.1649 45.4343C50.1649 45.6801 50.3483 45.8767 50.6296 45.8767" fill="black"/>
<path d="M53.8333 46.3438C53.4664 46.3438 53.1607 46.479 52.9039 46.7493L52.4758 46.4912L52.8183 44.3652H55.1173V45.0657H53.4175L53.2707 45.9014C53.4419 45.7662 53.6865 45.6802 54.0167 45.6802C54.3958 45.6802 54.726 45.8031 54.9706 46.0365C55.2274 46.27 55.3496 46.6018 55.3496 47.032C55.3496 47.4621 55.2029 47.8185 54.9094 48.0888C54.6159 48.3592 54.2246 48.4944 53.7354 48.4944C53.1729 48.4944 52.6226 48.1503 52.3291 47.6341C52.3536 47.6341 52.4514 47.5604 52.6471 47.4375C52.8427 47.3146 52.9528 47.2409 52.965 47.2409C53.1362 47.5358 53.4419 47.7447 53.7354 47.7447C54.249 47.7447 54.5915 47.4375 54.5915 47.0443C54.5915 46.5896 54.2613 46.3438 53.8088 46.3438" fill="black"/>
<path d="M57.1721 44.3037C57.7347 44.3037 58.1382 44.5249 58.3583 44.9305C58.5785 45.3237 58.6518 45.7907 58.6518 46.4174C58.6518 47.5726 58.3339 48.5066 57.1721 48.5066C56.1694 48.5066 55.668 47.8061 55.668 46.4174C55.668 45.0288 56.1694 44.316 57.1721 44.316M57.1721 47.7569C57.6613 47.7569 57.9059 47.3145 57.9059 46.4051C57.9059 45.4958 57.6613 45.0411 57.1721 45.0411C56.683 45.0411 56.4262 45.4958 56.4262 46.4051C56.4262 47.3145 56.6707 47.7569 57.1721 47.7569Z" fill="black"/>
</g>
<path d="M53.4299 15.1172H47.8657V16.8254H49.7001V23.2895H51.5833V16.8254H53.4299V15.1172ZM79.2941 15.1172H77.3375L74.8061 22.675L73.4976 20.6842C74.5004 20.2295 75.2096 19.357 75.2096 18.0666C75.2096 16.4813 74.0479 15.1172 72.1157 15.1172H68.8261V23.2895H70.6849V21.0283H71.6266L73.0818 23.2895H76.5181L76.8606 22.1835H79.6854L80.0401 23.2895H82.0945L79.2941 15.1172ZM71.9078 19.4553H70.6849V16.7271H71.9078C72.825 16.7271 73.3386 17.2187 73.3386 18.0912C73.3386 18.9637 72.825 19.4553 71.9078 19.4553ZM77.3008 20.6473L78.2791 17.1941L79.2085 20.6473H77.3008ZM68.4348 18.0666C68.4348 16.4813 67.2731 15.1172 65.3409 15.1172H62.0513V23.2895H63.9101V21.0283H64.8517L66.307 23.2895H68.4348L66.7228 20.6842C67.7255 20.2295 68.4348 19.357 68.4348 18.0666ZM65.133 19.4553H63.9101V16.7271H65.133C66.0502 16.7271 66.5638 17.2187 66.5638 18.0912C66.5638 18.9637 66.0502 19.4553 65.133 19.4553ZM57.3676 14.9083C54.6528 14.9083 53.0508 16.9606 53.0508 19.1972C53.0508 21.4338 54.6528 23.4984 57.3676 23.4984C60.0824 23.4984 61.66 21.4461 61.66 19.1972C61.66 16.9483 60.058 14.9083 57.3676 14.9083ZM57.3676 21.741C55.839 21.741 54.9463 20.549 54.9463 19.1972C54.9463 17.8454 55.839 16.6657 57.3676 16.6657C58.8962 16.6657 59.7767 17.8577 59.7767 19.1972C59.7767 20.549 58.8718 21.741 57.3676 21.741Z" fill="white"/>
</g>
<defs>
<clipPath id="clip0_2539_1959">
<rect width="87" height="57" fill="white"/>
</clipPath>
</defs>
</svg>
