<svg width="20" height="20" viewBox="0 0 20 20" fill="none" xmlns="http://www.w3.org/2000/svg">
<path fill-rule="evenodd" clip-rule="evenodd" d="M3.73517 7.16591C3.73517 6.51529 4.24603 5.96943 4.95142 5.96825C5.65689 5.967 6.11259 5.96943 6.11259 5.96943C6.11259 5.96943 6.08228 5.27411 6.08228 4.72115C6.08228 4.16802 6.56877 3.6145 7.27462 3.6145C7.98048 3.6145 14.5248 3.59419 15.1885 3.64341C15.8521 3.69263 16.3803 4.11005 16.3803 4.78146C16.3803 5.45286 16.3761 12.1101 16.3761 12.7268C16.3761 13.3433 15.823 13.9036 15.1372 13.9113C14.4514 13.9191 13.9867 13.9035 13.9867 13.9035C13.9867 13.9035 14.0119 14.6824 14.0119 15.1608C14.0119 15.6392 13.4556 16.334 12.803 16.334C12.1503 16.334 5.52822 16.3763 4.89634 16.3763C4.26447 16.3763 3.68134 15.8204 3.7083 15.1273C3.73525 14.4343 3.73517 7.81638 3.73517 7.16591ZM7.33361 4.94036L7.3283 12.6094C7.3283 12.6951 7.39814 12.7649 7.48447 12.7644L14.9497 12.7246C14.9912 12.7244 15.0309 12.7078 15.0602 12.6783C15.0895 12.6489 15.1059 12.6091 15.1058 12.5676L15.1008 4.96732C15.1007 4.92571 15.0842 4.88583 15.0547 4.85643C15.0253 4.82703 14.9854 4.81052 14.9438 4.81052L7.49064 4.78505C7.47011 4.78485 7.44973 4.78871 7.4307 4.79642C7.41167 4.80413 7.39435 4.81554 7.37975 4.82998C7.36515 4.84442 7.35356 4.86161 7.34564 4.88055C7.33772 4.8995 7.33363 4.91983 7.33361 4.94036ZM4.94283 7.48388L5.01439 15.0031C5.01491 15.0445 5.03179 15.0841 5.06136 15.1131C5.09093 15.1421 5.13078 15.1582 5.1722 15.1579L12.5257 15.1021C12.5667 15.1018 12.6072 15.0935 12.6449 15.0776C12.6827 15.0616 12.7169 15.0383 12.7456 15.0091C12.7743 14.9799 12.7969 14.9452 12.8122 14.9072C12.8275 14.8692 12.8351 14.8285 12.8345 14.7876L12.8238 13.9175C12.8238 13.9175 7.91158 13.9626 7.27275 13.9626C6.63392 13.9626 6.06666 13.3579 6.06666 12.6775C6.06666 11.997 6.11259 7.31029 6.11259 7.31029C6.11337 7.22435 6.04431 7.15482 5.95822 7.15599L5.25298 7.16615C5.16976 7.16728 5.09038 7.20136 5.03224 7.26092C4.97411 7.32048 4.94195 7.40065 4.94283 7.48388Z" fill="#1D2146"/>
</svg>
