<svg width="15" height="15" viewBox="0 0 15 15" fill="none" xmlns="http://www.w3.org/2000/svg">
<path d="M13.75 4.52501C13.7505 4.44276 13.7347 4.36122 13.7036 4.28507C13.6725 4.20892 13.6267 4.13966 13.5688 4.08126L10.9188 1.43126C10.8604 1.37333 10.7911 1.32751 10.715 1.2964C10.6388 1.2653 10.5573 1.24953 10.475 1.25001C10.3928 1.24953 10.3112 1.2653 10.2351 1.2964C10.1589 1.32751 10.0897 1.37333 10.0313 1.43126L8.26251 3.20001L1.43126 10.0313C1.37333 10.0897 1.32751 10.1589 1.2964 10.2351C1.2653 10.3112 1.24953 10.3928 1.25001 10.475V13.125C1.25001 13.2908 1.31586 13.4497 1.43307 13.567C1.55028 13.6842 1.70925 13.75 1.87501 13.75H4.52501C4.61247 13.7548 4.69994 13.7411 4.78177 13.7099C4.8636 13.6786 4.93795 13.6306 5.00001 13.5688L11.7938 6.73751L13.5688 5.00001C13.6258 4.93944 13.6723 4.86972 13.7063 4.79376C13.7123 4.74394 13.7123 4.69358 13.7063 4.64376C13.7092 4.61467 13.7092 4.58535 13.7063 4.55626L13.75 4.52501ZM4.26876 12.5H2.50001V10.7313L8.70626 4.52501L10.475 6.29376L4.26876 12.5ZM11.3563 5.41251L9.58751 3.64376L10.475 2.76251L12.2375 4.52501L11.3563 5.41251Z" fill="#1D2146"/>
</svg>
