<svg width="24" height="20" viewBox="0 0 24 20" fill="none" xmlns="http://www.w3.org/2000/svg">
<g clip-path="url(#clip0_2462_143)">
<mask id="mask0_2462_143" style="mask-type:luminance" maskUnits="userSpaceOnUse" x="0" y="0" width="24" height="20">
<path d="M24 0H0V20H24V0Z" fill="white"/>
</mask>
<g mask="url(#mask0_2462_143)">
<path d="M2.53318 19.8611C1.88234 19.8611 1.32539 19.6199 0.862303 19.1376C0.399225 18.6552 0.167293 18.0746 0.166504 17.3959V2.6042C0.166504 1.92624 0.398437 1.34608 0.862303 0.863708C1.32618 0.381335 1.88313 0.139738 2.53318 0.138916H21.4665C22.1175 0.138916 22.6747 0.380512 23.1387 0.863708C23.6025 1.3469 23.8341 1.92706 23.8333 2.6042V17.3959C23.8333 18.0738 23.6017 18.6544 23.1387 19.1376C22.6755 19.6208 22.1181 19.862 21.4665 19.8611H2.53318ZM11.9999 11.2327L2.53318 5.06947V17.3959H21.4665V5.06947L11.9999 11.2327ZM11.9999 8.76739L21.4665 2.6042H2.53318L11.9999 8.76739ZM2.53318 5.06947V2.6042V17.3959V5.06947Z" fill="#BD1616"/>
</g>
</g>
<defs>
<clipPath id="clip0_2462_143">
<rect width="24" height="20" fill="white"/>
</clipPath>
</defs>
</svg>
