<svg width="29" height="27" viewBox="0 0 29 27" fill="none" xmlns="http://www.w3.org/2000/svg">
<path fill-rule="evenodd" clip-rule="evenodd" d="M11.8195 1.30725C12.832 -0.43575 15.349 -0.43575 16.3615 1.30725L19.459 6.64725C19.744 7.13925 20.239 7.47375 20.8015 7.55925L25.9465 8.33625C28.1875 8.67525 28.9735 11.5072 27.2275 12.9532L23.479 16.0582C23.2207 16.2724 23.0246 16.552 22.9111 16.8678C22.7977 17.1837 22.771 17.5241 22.834 17.8538L23.884 23.3677C24.295 25.5277 22.027 27.2048 20.0815 26.1818L14.9635 23.4862C14.6943 23.3446 14.3947 23.2706 14.0905 23.2706C13.7864 23.2706 13.4867 23.3446 13.2175 23.4862L8.09954 26.1818C6.15404 27.2063 3.88604 25.5277 4.29704 23.3677L5.34704 17.8538C5.41004 17.5241 5.38343 17.1837 5.26998 16.8678C5.15653 16.552 4.96039 16.2724 4.70204 16.0582L0.952041 12.9532C-0.792459 11.5072 -0.00795865 8.67525 2.23604 8.33625L7.38104 7.55925C7.65871 7.51713 7.92337 7.41318 8.15547 7.25507C8.38758 7.09696 8.5812 6.88872 8.72204 6.64575L11.8195 1.30725ZM14.4145 2.43675C14.3815 2.3801 14.3342 2.33309 14.2774 2.30042C14.2205 2.26775 14.1561 2.25056 14.0905 2.25056C14.025 2.25056 13.9605 2.26775 13.9037 2.30042C13.8468 2.33309 13.7996 2.3801 13.7665 2.43675L10.6675 7.77675C10.3574 8.31083 9.93121 8.76843 9.42054 9.1158C8.90987 9.46317 8.32772 9.69144 7.71704 9.78375L2.57204 10.5608C2.5004 10.5715 2.43342 10.6028 2.37919 10.6508C2.32495 10.6989 2.28579 10.7616 2.26644 10.8314C2.24708 10.9012 2.24836 10.9751 2.27012 11.0442C2.29187 11.1133 2.33318 11.1746 2.38904 11.2207L6.13754 14.3257C6.70583 14.7966 7.1374 15.4112 7.38725 16.1057C7.6371 16.8001 7.69608 17.5488 7.55804 18.2737L6.50804 23.7877C6.49484 23.8571 6.50147 23.9287 6.52717 23.9944C6.55286 24.0602 6.59658 24.1173 6.65329 24.1593C6.71001 24.2013 6.77742 24.2264 6.84778 24.2318C6.91814 24.2372 6.98859 24.2226 7.05104 24.1897L12.169 21.4957C12.7615 21.1839 13.421 21.0209 14.0905 21.0209C14.7601 21.0209 15.4196 21.1839 16.012 21.4957L21.13 24.1897C21.1925 24.2226 21.2629 24.2372 21.3333 24.2318C21.4037 24.2264 21.4711 24.2013 21.5278 24.1593C21.5845 24.1173 21.6282 24.0602 21.6539 23.9944C21.6796 23.9287 21.6862 23.8571 21.673 23.7877L20.623 18.2737C20.485 17.5488 20.544 16.8001 20.7938 16.1057C21.0437 15.4112 21.4753 14.7966 22.0435 14.3257L25.7935 11.2207C25.8494 11.1745 25.8907 11.1131 25.9124 11.0439C25.9341 10.9747 25.9352 10.9007 25.9157 10.8308C25.8962 10.761 25.8568 10.6983 25.8024 10.6503C25.748 10.6024 25.6808 10.5713 25.609 10.5608L20.464 9.78375C19.8532 9.69127 19.271 9.46278 18.7603 9.11514C18.2496 8.76751 17.8236 8.30961 17.5135 7.77525L14.4145 2.43675Z" fill="#A5803A"/>
</svg>
