<svg width="19" height="19" viewBox="0 0 19 19" fill="none" xmlns="http://www.w3.org/2000/svg">
<path d="M9.49992 1.58337C5.122 1.58337 1.58325 5.12212 1.58325 9.50004C1.58325 13.878 5.122 17.4167 9.49992 17.4167C13.8778 17.4167 17.4166 13.878 17.4166 9.50004C17.4166 5.12212 13.8778 1.58337 9.49992 1.58337ZM9.49992 15.8334C6.00867 15.8334 3.16659 12.9913 3.16659 9.50004C3.16659 6.00879 6.00867 3.16671 9.49992 3.16671C12.9912 3.16671 15.8333 6.00879 15.8333 9.50004C15.8333 12.9913 12.9912 15.8334 9.49992 15.8334ZM12.342 5.54171L9.49992 8.38379L6.65784 5.54171L5.54158 6.65796L8.38367 9.50004L5.54158 12.3421L6.65784 13.4584L9.49992 10.6163L12.342 13.4584L13.4583 12.3421L10.6162 9.50004L13.4583 6.65796L12.342 5.54171Z" fill="#ED0000"/>
</svg>
