<svg width="118" height="118" viewBox="0 0 118 118" fill="none" xmlns="http://www.w3.org/2000/svg">
<path d="M25.2857 47.3571H92.7143C95.7124 47.3571 98.1429 49.7875 98.1429 52.7856V103.357C98.1429 106.355 95.7124 108.786 92.7143 108.786H25.2857C22.2876 108.786 19.8571 106.355 19.8571 103.357V52.7856C19.8571 49.7875 22.2876 47.3571 25.2857 47.3571Z" stroke="black" stroke-width="6" stroke-linecap="round" stroke-linejoin="round"/>
<mask id="path-2-inside-1_187_4" fill="white">
<path d="M88.5 44.3571V31.7142C88.5 23.8903 85.392 16.3869 79.8597 10.8546C74.3273 5.32226 66.8239 2.21423 59 2.21423C51.1761 2.21423 43.6727 5.32226 38.1404 10.8546C32.608 16.3869 29.5 23.8903 29.5 31.7142V44.3571"/>
</mask>
<path d="M82.5 44.3571C82.5 47.6708 85.1863 50.3571 88.5 50.3571C91.8137 50.3571 94.5 47.6708 94.5 44.3571H82.5ZM88.5 31.7142H82.5H88.5ZM59 2.21423V-3.78577V2.21423ZM29.5 31.7142H23.5H29.5ZM23.5 44.3571C23.5 47.6708 26.1863 50.3571 29.5 50.3571C32.8137 50.3571 35.5 47.6708 35.5 44.3571H23.5ZM94.5 44.3571V31.7142H82.5V44.3571H94.5ZM94.5 31.7142C94.5 22.299 90.7598 13.2695 84.1023 6.61194L75.617 15.0972C80.0241 19.5043 82.5 25.4816 82.5 31.7142L94.5 31.7142ZM84.1023 6.61194C77.4447 -0.0455989 68.4152 -3.78577 59 -3.78577V8.21423C65.2326 8.21423 71.2099 10.6901 75.617 15.0972L84.1023 6.61194ZM59 -3.78577C49.5848 -3.78577 40.5553 -0.0455989 33.8977 6.61194L42.383 15.0972C46.7901 10.6901 52.7674 8.21423 59 8.21423V-3.78577ZM33.8977 6.61194C27.2402 13.2695 23.5 22.299 23.5 31.7142L35.5 31.7142C35.5 25.4816 37.9759 19.5043 42.383 15.0972L33.8977 6.61194ZM23.5 31.7142V44.3571H35.5V31.7142H23.5Z" fill="black" mask="url(#path-2-inside-1_187_4)"/>
</svg>
