<svg width="198" height="112" viewBox="0 0 198 112" fill="none" xmlns="http://www.w3.org/2000/svg">
<g clip-path="url(#clip0_1912_5549)">
<path d="M3.34905 -0.152939C15.6289 14.0701 27.9088 28.2931 40.4423 42.771C40.4423 28.8539 40.4423 15.3446 40.4423 1.63131C41.3557 1.58033 42.1676 1.52936 43.4362 1.47838C42.878 19.3209 42.3198 36.9595 41.7109 54.6491C41.5079 54.751 41.305 54.802 41.102 54.904C28.8221 40.528 16.4915 26.101 3.80574 11.2663C3.80574 25.1834 3.80574 38.5398 3.80574 52.0492C2.84162 52.0492 1.92824 52.0492 0.65966 52.0492C1.31932 34.7164 1.97898 17.3837 2.5879 0.0509756C2.84162 -3.02494e-06 3.09533 -0.0509816 3.34905 -0.152939Z" fill="white"/>
<path d="M162.48 52.2531C160.146 52.2531 157.761 52.355 155.426 52.2021C154.919 52.1511 154.31 51.2335 154.056 50.6218C152.737 47.614 151.418 44.6063 150.251 41.5476C149.692 40.1711 148.982 39.5594 147.409 39.6104C141.878 39.7123 136.398 39.7123 130.867 39.6104C129.294 39.5594 128.583 40.1202 128.076 41.5985C127.162 44.4024 125.843 47.0533 124.981 49.8571C124.219 52.355 122.799 52.8138 120.312 51.9982C120.769 50.8766 121.175 49.8571 121.631 48.8885C126.807 37.4183 131.983 25.9991 137.007 14.5799C137.463 13.5093 137.463 11.929 137.057 10.7565C136.043 7.74875 134.723 4.84296 133.353 1.52936C135.89 1.52936 138.022 1.4274 140.102 1.58033C140.711 1.63131 141.523 2.24306 141.726 2.80382C148.678 19.015 155.579 35.2262 162.48 51.4374C162.581 51.5394 162.53 51.7433 162.48 52.2531ZM129.446 38.081C135.992 38.081 142.132 38.081 148.728 38.081C145.379 30.1284 142.182 22.5325 138.732 14.325C135.484 22.5325 132.541 30.1284 129.446 38.081Z" fill="white"/>
<path d="M49.3224 51.9982C49.6776 51.0806 49.9821 50.2649 50.3373 49.5512C55.5638 37.9791 60.8411 26.4069 65.9154 14.7838C66.4736 13.5603 66.3214 11.7761 65.9154 10.4506C64.9513 7.54483 63.632 4.74101 62.3127 1.58033C64.7991 1.58033 66.9303 1.37642 68.9093 1.68229C69.7719 1.83523 70.7868 2.95675 71.1927 3.87437C76.673 16.4661 82.001 29.1598 87.4305 41.8025C88.8514 45.1161 90.2722 48.4297 91.9467 52.355C89.1558 52.355 86.8216 52.457 84.4874 52.2531C83.9293 52.2021 83.2189 51.1825 82.9144 50.5198C81.5951 47.5121 80.2757 44.5043 79.1087 41.4456C78.6012 40.0692 77.8401 39.6614 76.4193 39.6614C70.8375 39.7633 65.205 39.6104 59.6233 39.7633C58.8114 39.7633 57.5935 40.6299 57.2891 41.3946C56.0205 44.1984 54.8027 47.1042 53.94 50.112C53.0774 52.5589 51.6058 52.6099 49.3224 51.9982ZM58.4054 38.081C65.0528 38.081 71.1927 38.081 77.6879 38.081C74.3388 30.1793 71.142 22.5835 67.6914 14.325C64.3931 22.6855 61.45 30.2303 58.4054 38.081Z" fill="white"/>
<path d="M124.625 1.6823C124.625 2.70187 124.625 3.51753 124.625 4.79199C119.754 4.2822 114.883 3.77242 109.707 3.21165C109.707 19.4738 109.707 35.685 109.707 52.1001C106.865 52.1001 104.43 52.1001 101.689 52.1001C101.689 35.787 101.689 19.6268 101.689 3.21165C96.818 3.77242 92.2511 4.2822 87.532 4.79199C87.532 3.5685 87.532 2.65089 87.532 1.63132C99.8626 1.6823 112.092 1.6823 124.625 1.6823Z" fill="white"/>
<path d="M177.297 50.8257C184.502 50.2139 191.15 49.6022 197.949 48.9904C197.746 51.3355 196.934 52.406 194.549 52.355C186.38 52.2021 178.21 52.3041 169.838 52.3041C169.838 35.3282 169.838 18.6072 169.838 1.6823C172.222 1.6823 174.557 1.6823 177.297 1.6823C177.297 17.9445 177.297 34.2576 177.297 50.8257Z" fill="white"/>
<path d="M133.861 109.655C127.213 110.471 127.213 110.471 127.213 104.353C127.213 92.3732 127.264 80.3933 127.162 68.4643C127.162 65.9663 127.924 65.2016 130.309 65.3546C134.013 65.5585 137.819 65.0997 141.421 65.6605C144.364 66.1702 147.561 67.2918 149.946 69.025C155.274 72.9504 155.071 80.954 149.743 84.7774C147.358 86.5107 144.364 87.3773 141.979 88.4989C152.027 93.9026 154.513 97.0633 158.573 109.859C156.594 109.859 154.665 109.961 152.788 109.808C152.179 109.757 151.367 108.992 151.063 108.381C150.301 106.596 149.794 104.71 149.185 102.875C147.003 96.5535 144.263 90.7419 136.905 88.4479C141.168 87.0715 144.872 85.0323 145.785 80.5462C146.293 78.0992 146.242 75.2444 145.582 72.8484C144.161 68.0564 139.95 66.0173 133.861 66.731C133.861 80.954 133.861 95.228 133.861 109.655Z" fill="#FCD4A4"/>
<path d="M98.5941 88.3969C102.704 87.0715 106.256 85.1343 107.22 80.8521C107.829 78.3541 107.829 75.3974 107.17 72.9504C105.85 68.0565 101.436 65.9153 95.3465 66.731C95.3465 80.954 95.3465 95.279 95.3465 109.706C93.063 109.706 91.0841 109.706 88.9021 109.706C88.8514 108.788 88.7499 107.922 88.7499 107.106C88.7499 94.1065 88.8006 81.107 88.6991 68.1584C88.6991 65.9153 89.308 65.2017 91.5407 65.3036C95.3465 65.5075 99.203 65.0487 102.907 65.6095C105.901 66.0683 109.047 67.1898 111.432 68.9741C116.76 72.8484 116.659 80.8521 111.28 84.7265C108.895 86.4597 105.901 87.3264 103.364 88.5499C114.02 90.9458 116.354 100.785 120.261 109.859C118.029 109.859 116.1 109.961 114.223 109.808C113.614 109.757 112.853 108.941 112.548 108.33C111.635 106.036 110.975 103.69 110.113 101.396C108.083 95.5849 105.241 90.538 98.5941 88.3969Z" fill="#FCD4A4"/>
<path d="M79.6668 87.6322C79.6668 100.938 70.2286 110.42 56.9846 110.42C43.284 110.42 33.9979 101.091 34.0994 87.6322C34.2517 74.4288 44.0451 64.8448 57.2891 64.8958C70.4823 64.8958 79.6668 74.2758 79.6668 87.6322ZM73.121 88.0401C72.2583 83.7069 71.8524 79.8325 70.736 76.1111C68.7063 69.5858 63.9872 66.0173 58.0502 65.8644C51.1999 65.7114 46.2778 68.8211 43.7914 75.4483C40.6453 83.7069 40.7468 92.0674 43.7406 100.326C45.8719 106.188 50.6417 109.298 56.8324 109.4C63.0738 109.502 67.9452 106.647 70.1271 100.734C71.5479 96.6045 72.1568 92.1183 73.121 88.0401Z" fill="#FCD4A4"/>
<path d="M197.899 109.91C196.122 109.91 194.397 110.063 192.773 109.859C191.962 109.757 190.947 109.043 190.591 108.33C189.374 105.832 188.511 103.13 187.192 100.683C186.786 99.8671 185.517 99.0005 184.655 98.9495C179.834 98.7965 175.013 98.9495 170.193 98.8475C168.62 98.7965 167.909 99.5102 167.453 100.836C166.641 103.181 165.575 105.373 164.865 107.718C164.256 109.655 163.292 110.369 161.059 109.655C161.363 108.839 161.668 107.973 162.023 107.157C166.488 97.2672 170.903 87.3773 175.419 77.4875C176.231 75.7032 176.333 74.2248 175.47 72.4406C174.455 70.3505 173.643 68.1074 172.527 65.4055C174.81 65.4055 176.688 65.3036 178.565 65.4565C179.022 65.5075 179.631 66.2212 179.885 66.782C185.872 80.8011 191.86 94.8712 197.797 108.89C197.899 109.094 197.899 109.298 197.899 109.91ZM186.075 97.624C183.081 90.487 180.24 83.7069 177.398 76.8757C177.195 76.9267 176.992 76.9777 176.739 77.0287C174.1 83.8088 171.461 90.589 168.772 97.624C174.709 97.624 180.138 97.624 186.075 97.624Z" fill="#FCD4A4"/>
<path d="M13.041 66.4761C8.62635 66.9859 4.71912 67.4447 0.811892 67.9035C0.253716 66.2212 0.456689 65.3546 2.33419 65.3546C11.9754 65.4056 21.6166 65.4056 31.2071 65.3546C33.0338 65.3546 33.389 66.1193 32.7294 67.9035C28.4669 67.4447 24.2553 66.9859 19.6376 66.4761C19.6376 81.005 19.6376 95.279 19.6376 109.349C19.2317 109.604 19.1302 109.706 19.0794 109.706C13.041 110.573 13.041 110.573 13.041 104.506C13.041 92.985 13.041 81.4128 13.041 69.8917C13.041 68.8721 13.041 67.8525 13.041 66.4761Z" fill="#FCD4A4"/>
</g>
<defs>
<clipPath id="clip0_1912_5549">
<rect width="198" height="112" fill="white"/>
</clipPath>
</defs>
</svg>
