<svg width="98" height="62" viewBox="0 0 98 62" fill="none" xmlns="http://www.w3.org/2000/svg">
<path fill-rule="evenodd" clip-rule="evenodd" d="M43.9604 26.8126L0.421143 29.9055V56.8899L97.7576 61.3109V22.991L56.3896 25.9297L55.6207 27.9287L95.8301 25.1187V59.2655L2.3486 55.0735V31.6516L44.1456 28.7306C44.0666 28.5937 44.007 28.4623 43.9664 28.3405C43.8907 28.1134 43.8989 27.5557 43.9604 26.8126Z" fill="#FF5101"/>
<path d="M74.5245 50.6257V35.2061H85.6375V38.5791H78.7107V41.2293H85.0653V44.6024H78.7107V47.2526H85.6074V50.6257H74.5245Z" fill="#FF5101"/>
<path d="M58.623 50.6257V35.2061H62.8092V41.2293H68.3506V35.2061H72.5368V50.6257H68.3506V44.6024H62.8092V50.6257H58.623Z" fill="#FF5101"/>
<path d="M56.6429 35.2061V50.6257H53.1494L47.5779 42.5244H47.4875V50.6257H43.3013V35.2061H46.8551L52.3363 43.2773H52.4567V35.2061H56.6429Z" fill="#FF5101"/>
<path d="M30.432 50.6257H25.9146L31.0042 35.2061H36.7264L41.816 50.6257H37.2986L33.9255 39.4525H33.8051L30.432 50.6257ZM29.5888 44.5422H38.0816V47.6743H29.5888V44.5422Z" fill="#FF5101"/>
<path d="M20.5389 40.2956C20.4736 40.0296 20.3707 39.7962 20.2302 39.5954C20.0896 39.3896 19.9139 39.2164 19.7031 39.0759C19.4973 38.9303 19.2564 38.8224 18.9803 38.7521C18.7093 38.6769 18.4106 38.6392 18.0844 38.6392C17.3817 38.6392 16.7818 38.8074 16.2849 39.1437C15.793 39.48 15.4166 39.9643 15.1555 40.5968C14.8996 41.2292 14.7716 41.9922 14.7716 42.8856C14.7716 43.7891 14.8945 44.5621 15.1405 45.2046C15.3864 45.8471 15.7529 46.339 16.2397 46.6803C16.7266 47.0216 17.3315 47.1923 18.0543 47.1923C18.6917 47.1923 19.2213 47.0994 19.6429 46.9137C20.0695 46.728 20.3883 46.4645 20.5991 46.1232C20.8099 45.7818 20.9153 45.3803 20.9153 44.9185L21.6381 44.9938H18.1145V42.0123H24.9509V44.1505C24.9509 45.556 24.6523 46.7581 24.055 47.757C23.4627 48.7508 22.6445 49.5138 21.6005 50.0458C20.5614 50.5729 19.3693 50.8364 18.0241 50.8364C16.5233 50.8364 15.2057 50.5176 14.0714 49.8802C12.937 49.2427 12.051 48.3342 11.4136 47.1546C10.7811 45.9751 10.4649 44.5722 10.4649 42.9459C10.4649 41.6709 10.6582 40.5416 11.0446 39.5578C11.4362 38.574 11.9783 37.7432 12.6709 37.0656C13.3636 36.383 14.1642 35.8685 15.0727 35.5222C15.9812 35.1708 16.955 34.9951 17.994 34.9951C18.9076 34.9951 19.7558 35.1256 20.5389 35.3866C21.3269 35.6426 22.0221 36.009 22.6244 36.4859C23.2318 36.9577 23.7212 37.5174 24.0926 38.1649C24.464 38.8124 24.6899 39.5226 24.7702 40.2956H20.5389Z" fill="#FF5101"/>
<path d="M74.0126 18.1276V0.709473H86.1577V4.12847H78.2226V7.70055H85.5369V11.128H78.2226V14.7086H86.1577V18.1276H74.0126Z" fill="white"/>
<path d="M58.389 18.1276V0.709473H65.5842C66.8883 0.709473 68.0138 0.964622 68.9606 1.47492C69.9132 1.97955 70.6475 2.68546 71.1634 3.59265C71.6794 4.49418 71.9374 5.54312 71.9374 6.73949C71.9374 7.94152 71.6737 8.9933 71.1464 9.89483C70.6248 10.7907 69.8792 11.4853 68.9096 11.9785C67.94 12.4718 66.789 12.7185 65.4566 12.7185H61.017V9.40154H64.6741C65.3092 9.40154 65.8393 9.29097 66.2646 9.06985C66.6955 8.84872 67.0215 8.5397 67.2426 8.1428C67.4638 7.74024 67.5743 7.27246 67.5743 6.73949C67.5743 6.20084 67.4638 5.7359 67.2426 5.34467C67.0215 4.94778 66.6955 4.6416 66.2646 4.42614C65.8336 4.21068 65.3035 4.10295 64.6741 4.10295H62.5989V18.1276H58.389Z" fill="white"/>
<path fill-rule="evenodd" clip-rule="evenodd" d="M51.2364 4.47703C51.6844 4.82289 51.9367 5.30768 51.9934 5.93137H56.0247C56.0134 4.84841 55.7327 3.89585 55.1827 3.07371C54.6328 2.25156 53.8588 1.61369 52.8609 1.16009C51.8686 0.700825 50.6978 0.471191 49.3483 0.471191C48.0272 0.471191 46.8507 0.69799 45.8188 1.15159C44.7868 1.60519 43.9789 2.23739 43.3949 3.04819C42.8109 3.859 42.5217 4.80305 42.5274 5.88034C42.5217 7.20145 42.9526 8.25039 43.8201 9.02718C44.6876 9.79829 45.8755 10.3568 47.3837 10.7027L49.2038 11.1279C49.8388 11.2753 50.3604 11.4369 50.7687 11.6127C51.1826 11.7828 51.4888 11.9869 51.6872 12.225C51.8856 12.4575 51.9877 12.7382 51.9934 13.067C51.9877 13.4186 51.8771 13.7304 51.6617 14.0026C51.4462 14.2747 51.1372 14.4874 50.7346 14.6404C50.3377 14.7935 49.8558 14.8701 49.2888 14.8701C48.6708 14.8701 48.1265 14.7737 47.6558 14.5809C47.1909 14.3881 46.8252 14.1046 46.5587 13.7304C46.2922 13.3562 46.142 12.8884 46.1079 12.3271H42.0766C42.0936 13.6879 42.4026 14.8134 43.0036 15.7036C43.6047 16.5938 44.4466 17.2571 45.5296 17.6937C45.6989 17.762 45.8728 17.8249 46.0512 17.8825C46.4064 17.0274 47.4079 15.7994 49.4393 15.7994C51.3624 15.7994 52.4944 16.9001 52.9979 17.7429C53.0175 17.7351 53.037 17.7272 53.0565 17.7192C54.0884 17.2997 54.8794 16.6958 55.4294 15.9077C55.9794 15.1196 56.2572 14.1755 56.2629 13.0755C56.2572 12.3781 56.1381 11.7488 55.9057 11.1874C55.6732 10.6261 55.3302 10.13 54.8766 9.69907C54.4286 9.26815 53.873 8.89677 53.2096 8.58492C52.5519 8.27307 51.7921 8.02359 50.9303 7.83648L49.4334 7.49629C49.0365 7.41124 48.6793 7.31201 48.3618 7.19861C48.0442 7.08521 47.7721 6.9548 47.5453 6.80738C47.3242 6.65429 47.1541 6.47853 47.035 6.28008C46.9216 6.08163 46.8706 5.85199 46.8819 5.59118C46.8876 5.27366 46.9811 4.99299 47.1626 4.74919C47.344 4.49971 47.6162 4.30409 47.979 4.16234C48.3419 4.02059 48.7955 3.94972 49.3398 3.94972C50.162 3.94972 50.7942 4.12549 51.2364 4.47703Z" fill="white"/>
<path d="M28.407 18.1276H23.8823L29.7593 0.709473H35.364L41.2409 18.1276H36.7163L32.6254 5.09803H32.4893L28.407 18.1276ZM27.8031 11.2726H37.2606V14.4705H27.8031V11.2726Z" fill="white"/>
<path d="M8.78174 18.1276V0.709473H15.9769C17.281 0.709473 18.4065 0.944777 19.3534 1.41538C20.306 1.88032 21.0402 2.54938 21.5562 3.42255C22.0721 4.29006 22.3301 5.31916 22.3301 6.50985C22.3301 7.71756 22.0665 8.74382 21.5392 9.58865C21.0119 10.4278 20.2634 11.0685 19.2939 11.5108C18.3243 11.9474 17.1761 12.1657 15.8494 12.1657H11.2992V8.84872H15.0669C15.7019 8.84872 16.2321 8.7665 16.6573 8.60207C17.0882 8.43197 17.4143 8.17683 17.6354 7.83663C17.8565 7.49076 17.9671 7.0485 17.9671 6.50985C17.9671 5.97121 17.8565 5.52611 17.6354 5.17458C17.4143 4.81737 17.0882 4.55088 16.6573 4.37511C16.2264 4.19367 15.6963 4.10295 15.0669 4.10295H12.9917V18.1276H8.78174ZM18.588 10.167L22.9255 18.1276H18.3328L14.0803 10.167H18.588Z" fill="white"/>
<path d="M49.1305 29.5439C48.2772 29.5439 47.5422 29.3926 46.9255 29.0901C46.3088 28.7875 45.8356 28.3822 45.5059 27.8741C45.1762 27.366 45.0114 26.8055 45.0114 26.1927C45.0114 25.7467 45.0967 25.353 45.2673 25.0117C45.438 24.6665 45.6765 24.3504 45.983 24.0634C46.2894 23.7763 46.6481 23.4932 47.0593 23.2139L49.7588 21.5384C50.0303 21.3677 50.2145 21.1912 50.3115 21.0089C50.4085 20.8228 50.457 20.6579 50.457 20.5144C50.457 20.3243 50.3871 20.1556 50.2475 20.0082C50.1079 19.8609 49.8907 19.7891 49.5959 19.793C49.4136 19.793 49.2565 19.8279 49.1246 19.8977C48.9928 19.9636 48.89 20.0567 48.8163 20.177C48.7465 20.2972 48.7116 20.4407 48.7116 20.6075C48.7116 20.8363 48.7775 21.071 48.9094 21.3115C49.0413 21.5481 49.2216 21.804 49.4505 22.0794C49.6793 22.3548 49.9372 22.6632 50.2242 23.0045L55.9956 29.3577H52.7841L47.9436 24.2379C47.707 23.9858 47.4452 23.6774 47.1582 23.3128C46.8712 22.9444 46.6229 22.5294 46.4135 22.0678C46.2079 21.6062 46.1051 21.104 46.1051 20.5609C46.1051 19.9559 46.2506 19.4032 46.5415 18.9028C46.8324 18.4025 47.2396 18.003 47.7632 17.7043C48.2869 17.4057 48.8977 17.2563 49.5959 17.2563C50.263 17.2563 50.8371 17.394 51.318 17.6694C51.8028 17.9448 52.1752 18.3113 52.4351 18.769C52.6988 19.2267 52.8307 19.7309 52.8307 20.2817C52.8307 20.8363 52.693 21.3541 52.4176 21.8351C52.1461 22.316 51.7563 22.7369 51.2482 23.0976L48.7814 24.843C48.5913 24.9748 48.4265 25.1261 48.2869 25.2968C48.1511 25.4674 48.0832 25.6885 48.0832 25.96C48.0832 26.185 48.1356 26.377 48.2403 26.536C48.345 26.695 48.4924 26.8172 48.6825 26.9025C48.8764 26.9878 49.1033 27.0305 49.3632 27.0305C49.7588 27.0305 50.1544 26.9355 50.55 26.7454C50.9495 26.5515 51.3141 26.2819 51.6438 25.9367C51.9735 25.5877 52.2373 25.1765 52.4351 24.7033C52.6367 24.2263 52.7376 23.7065 52.7376 23.1441H55.2742C55.2742 23.8345 55.2025 24.4997 55.059 25.1397C54.9154 25.7796 54.6847 26.3653 54.3666 26.8967C54.0486 27.4281 53.6297 27.8761 53.1099 28.2406C52.947 28.3221 52.788 28.3997 52.6329 28.4734C52.4777 28.5471 52.3187 28.6246 52.1558 28.7061C51.6787 29.0125 51.1803 29.2297 50.6606 29.3577C50.1408 29.4818 49.6308 29.5439 49.1305 29.5439Z" fill="#FF5101"/>
</svg>
