<svg width="75" height="34" viewBox="0 0 75 34" fill="none" xmlns="http://www.w3.org/2000/svg">
<g clip-path="url(#clip0_2405_1809)">
<path d="M75 0L0 6.51429V30.08L75 34V0Z" fill="#A5803A"/>
<path d="M23.5056 22.1171C21.115 22.1171 19.717 20.2457 19.717 18.1257C19.717 16.0057 21.1122 14.1543 23.5056 14.1543C25.8989 14.1543 27.2771 16.0257 27.2771 18.1257C27.2771 20.2257 25.8592 22.1171 23.5056 22.1171ZM23.5056 11.3971C19.2576 11.3971 16.7508 14.6171 16.7508 18.1257C16.7508 21.6343 19.2576 24.8743 23.5056 24.8743C27.7535 24.8743 30.2206 21.6543 30.2206 18.1257C30.2206 14.5971 27.7138 11.3971 23.5056 11.3971Z" fill="white"/>
<path d="M17.0003 11.7229H8.29174V14.4057H11.1615V24.5457H14.1107V14.4057H17.0003V11.7229Z" fill="white"/>
<path d="M35.8865 18.5314H34.0886V14.2514H35.8865C37.3242 14.2514 38.1267 15.0229 38.1267 16.3914C38.1267 17.76 37.3242 18.5314 35.8865 18.5314ZM41.0532 16.3514C41.0532 13.8657 39.2355 11.7229 36.2126 11.7229H31.1791V24.5457H34.0886V21H35.4469L37.724 24.5457H41.0532L38.3734 20.4571C39.9416 19.7457 41.0532 18.3743 41.0532 16.3514Z" fill="white"/>
<path d="M55.4078 20.4L56.9391 14.9829L58.3938 20.4H55.4078ZM46.6623 18.5314H44.8616V14.2514H46.6623C48.0972 14.2514 48.9026 15.0229 48.9026 16.3914C48.9026 17.76 48.0972 18.5314 46.6623 18.5314ZM58.5271 11.7229H55.4645L51.3895 23.8886L49.1493 20.4571C50.7174 19.7457 51.8291 18.3743 51.8291 16.3514C51.8291 13.8657 50.0113 11.7229 46.9884 11.7229H41.955V24.5457H44.8616V21H46.2228L48.4999 24.5457H54.1856L54.7215 22.8114H59.1425L59.6983 24.5457H62.914L58.5328 11.7229H58.5271Z" fill="white"/>
</g>
<defs>
<clipPath id="clip0_2405_1809">
<rect width="75" height="34" fill="white"/>
</clipPath>
</defs>
</svg>
