<?xml version="1.0" encoding="utf-8"?>
<!-- Generator: Adobe Illustrator 27.1.1, SVG Export Plug-In . SVG Version: 6.00 Build 0)  -->
<svg version="1.1" id="Camada_1" xmlns="http://www.w3.org/2000/svg" xmlns:xlink="http://www.w3.org/1999/xlink" x="0px" y="0px"
	 viewBox="0 0 1080 1080" style="enable-background:new 0 0 1080 1080;" xml:space="preserve">
<style type="text/css">
	.st0{fill:#FF5101;}
	.st1{fill:#FFFFFF;}
</style>
<g>
	<path class="st0" d="M0,383.42v352.98l1080,58.83V285.37L0,383.42z"/>
	<path class="st1" d="M836.95,584.75l23.59-82.86l22.41,82.86H836.95z M677.42,490.68h29.49c22.12,0,34.5,11.8,34.5,32.73
		c0,21.23-12.39,32.73-34.5,32.73h-29.49V490.68z M514.05,490.68h29.49c22.12,0,34.5,11.8,34.5,32.73
		c0,21.23-12.39,32.73-34.5,32.73h-29.49V490.68z M356.58,610.99c-36.86,0-58.39-28.6-58.39-61.04c0-32.14,21.53-60.75,58.39-60.75
		c36.27,0,58.09,28.6,58.09,60.75C414.67,582.39,392.85,610.99,356.58,610.99 M885.02,452.05h-47.18L776.79,633.4l-31.55-47.77
		c24.18-10.91,41.28-31.85,41.28-62.81c0-38.04-28.01-70.77-74.61-70.77h-79.32v196.1h44.82v-54.26h22.71l35.09,54.26h82.86
		l8.26-26.54h68.12l8.55,26.54h49.54L885.02,452.05z M623.16,522.82c0-38.04-28.01-70.77-74.61-70.77h-79.32v196.1h44.82v-54.26
		h22.71l35.09,54.26h51.31l-41.28-62.52C606.05,574.72,623.16,553.79,623.16,522.82 M261.63,452.05H127.45v40.99h44.23v155.11h45.41
		V493.04h44.53V452.05z M356.58,447.04c-65.46,0-104.09,49.25-104.09,102.92c0,53.96,38.63,103.21,104.09,103.21
		c64.88,0,103.5-49.25,103.5-103.21C460.09,496.28,421.46,447.04,356.58,447.04"/>
</g>
</svg>
