<svg width="169" height="169" viewBox="0 0 169 169" fill="none" xmlns="http://www.w3.org/2000/svg">
<path d="M103.893 70.4167C110.695 70.4167 116.216 75.9373 116.216 82.7396V116.18C116.216 124.586 112.877 132.648 106.933 138.592C100.989 144.536 92.9272 147.875 84.5213 147.875C76.1154 147.875 68.0537 144.536 62.1099 138.592C56.166 132.648 52.8267 124.586 52.8267 116.18V82.7396C52.8267 75.9373 58.3404 70.4167 65.1497 70.4167H103.893ZM103.893 80.9792H65.1497C64.6828 80.9792 64.235 81.1646 63.9049 81.4948C63.5747 81.8249 63.3892 82.2727 63.3892 82.7396V116.18C63.3892 121.785 65.6157 127.16 69.5787 131.123C73.5417 135.086 78.9167 137.312 84.5213 137.312C90.1259 137.312 95.5009 135.086 99.4639 131.123C103.427 127.16 105.653 121.785 105.653 116.18V82.7396C105.653 82.2727 105.468 81.8249 105.138 81.4948C104.808 81.1646 104.36 80.9792 103.893 80.9792ZM26.4064 70.4167H50.2143C47.73 73.417 46.2128 77.0996 45.8625 80.9792H26.4064C25.9395 80.9792 25.4918 81.1646 25.1616 81.4948C24.8315 81.8249 24.646 82.2727 24.646 82.7396V105.618C24.6455 108.279 25.2481 110.905 26.4083 113.3C27.5686 115.695 29.2564 117.795 31.345 119.444C33.4335 121.093 35.8686 122.247 38.4671 122.819C41.0657 123.392 43.7603 123.368 46.3484 122.75C46.947 126.299 48.0384 129.686 49.5383 132.834C45.3646 133.951 40.9899 134.092 36.7527 133.248C32.5155 132.404 28.5291 130.597 25.1019 127.966C21.6747 125.335 18.8985 121.951 16.9879 118.076C15.0773 114.201 14.0836 109.938 14.0835 105.618V82.7396C14.0835 75.9373 19.6042 70.4167 26.4064 70.4167ZM118.828 70.4167H142.594C149.396 70.4167 154.917 75.9373 154.917 82.7396V105.625C154.918 109.943 153.926 114.203 152.018 118.076C150.111 121.95 147.338 125.333 143.915 127.964C140.491 130.595 136.509 132.404 132.275 133.251C128.041 134.098 123.669 133.96 119.497 132.848C121.004 129.693 122.096 126.306 122.701 122.757C125.286 123.368 127.976 123.386 130.569 122.81C133.161 122.234 135.59 121.079 137.673 119.431C139.756 117.783 141.439 115.685 142.596 113.294C143.753 110.903 144.354 108.281 144.354 105.625V82.7396C144.354 82.2727 144.169 81.8249 143.839 81.4948C143.509 81.1646 143.061 80.9792 142.594 80.9792H123.18C122.83 77.0996 121.313 73.417 118.828 70.4167ZM84.5002 21.125C90.1029 21.125 95.4761 23.3507 99.4378 27.3124C103.4 31.2741 105.625 36.6473 105.625 42.25C105.625 47.8527 103.4 53.2259 99.4378 57.1876C95.4761 61.1493 90.1029 63.375 84.5002 63.375C78.8975 63.375 73.5242 61.1493 69.5625 57.1876C65.6008 53.2259 63.3752 47.8527 63.3752 42.25C63.3752 36.6473 65.6008 31.2741 69.5625 27.3124C73.5242 23.3507 78.8975 21.125 84.5002 21.125ZM130.271 28.1667C134.94 28.1667 139.418 30.0214 142.719 33.3228C146.02 36.6242 147.875 41.1019 147.875 45.7708C147.875 50.4397 146.02 54.9174 142.719 58.2189C139.418 61.5203 134.94 63.375 130.271 63.375C125.602 63.375 121.124 61.5203 117.823 58.2189C114.522 54.9174 112.667 50.4397 112.667 45.7708C112.667 41.1019 114.522 36.6242 117.823 33.3228C121.124 30.0214 125.602 28.1667 130.271 28.1667ZM38.7293 28.1667C43.3982 28.1667 47.8759 30.0214 51.1774 33.3228C54.4788 36.6242 56.3335 41.1019 56.3335 45.7708C56.3335 50.4397 54.4788 54.9174 51.1774 58.2189C47.8759 61.5203 43.3982 63.375 38.7293 63.375C34.0604 63.375 29.5827 61.5203 26.2813 58.2189C22.9799 54.9174 21.1252 50.4397 21.1252 45.7708C21.1252 41.1019 22.9799 36.6242 26.2813 33.3228C29.5827 30.0214 34.0604 28.1667 38.7293 28.1667ZM84.5002 31.6875C81.6988 31.6875 79.0122 32.8003 77.0313 34.7812C75.0505 36.762 73.9377 39.4487 73.9377 42.25C73.9377 45.0513 75.0505 47.738 77.0313 49.7188C79.0122 51.6997 81.6988 52.8125 84.5002 52.8125C87.3015 52.8125 89.9881 51.6997 91.969 49.7188C93.9498 47.738 95.0627 45.0513 95.0627 42.25C95.0627 39.4487 93.9498 36.762 91.969 34.7812C89.9881 32.8003 87.3015 31.6875 84.5002 31.6875ZM130.271 38.7292C128.403 38.7292 126.612 39.4711 125.292 40.7916C123.971 42.1122 123.229 43.9033 123.229 45.7708C123.229 47.6384 123.971 49.4295 125.292 50.75C126.612 52.0706 128.403 52.8125 130.271 52.8125C132.139 52.8125 133.93 52.0706 135.25 50.75C136.571 49.4295 137.313 47.6384 137.313 45.7708C137.313 43.9033 136.571 42.1122 135.25 40.7916C133.93 39.4711 132.139 38.7292 130.271 38.7292ZM38.7293 38.7292C36.8618 38.7292 35.0707 39.4711 33.7501 40.7916C32.4296 42.1122 31.6877 43.9033 31.6877 45.7708C31.6877 47.6384 32.4296 49.4295 33.7501 50.75C35.0707 52.0706 36.8618 52.8125 38.7293 52.8125C40.5969 52.8125 42.388 52.0706 43.7085 50.75C45.0291 49.4295 45.771 47.6384 45.771 45.7708C45.771 43.9033 45.0291 42.1122 43.7085 40.7916C42.388 39.4711 40.5969 38.7292 38.7293 38.7292Z" fill="white"/>
</svg>
