<svg width="23" height="31" viewBox="0 0 23 31" fill="none" xmlns="http://www.w3.org/2000/svg">
<g clip-path="url(#clip0_2525_1659)">
<path d="M10.7407 26.4054L10.5872 26.1751H10.3103H7.13792C6.07875 26.1751 5.24136 25.3377 5.24136 24.2785V14.6233C5.24136 13.5642 6.07875 12.7268 7.13792 12.7268H20.5172C21.5764 12.7268 22.4138 13.5642 22.4138 14.6233V24.2785C22.4138 25.3377 21.5764 26.1751 20.5172 26.1751H17.3448H16.972L16.8541 26.5287C16.8525 26.5335 16.8469 26.5471 16.8352 26.5655C16.8236 26.5837 16.8123 26.5968 16.8067 26.6024L16.7924 26.6167L16.7793 26.632L14.7476 29.0081C14.7472 29.0086 14.7467 29.0091 14.7463 29.0096C14.263 29.5636 13.3921 29.5636 12.9088 29.0096C12.9084 29.0091 12.908 29.0086 12.9075 29.0081L10.8972 26.6569C10.8776 26.6266 10.8606 26.5983 10.8401 26.5641L10.8388 26.562C10.8132 26.5193 10.7821 26.4674 10.7407 26.4054Z" fill="#BD1616" stroke="#BD1616" stroke-width="1.03448"/>
</g>
<path d="M14.347 20.9682C14.347 21.0832 14.3398 21.1945 14.3254 21.3023C14.3146 21.41 14.2877 21.507 14.2446 21.5932C14.2015 21.6758 14.1386 21.7441 14.056 21.798C13.977 21.8482 13.8692 21.8734 13.7327 21.8734C13.5962 21.8734 13.4867 21.8482 13.4041 21.798C13.3251 21.7441 13.264 21.6758 13.2209 21.5932C13.1778 21.507 13.149 21.41 13.1347 21.3023C13.1239 21.1945 13.1185 21.0832 13.1185 20.9682L12.8383 19.2225V17.9079C12.8383 17.757 12.8509 17.6097 12.8761 17.4661C12.9012 17.3224 12.9461 17.1949 13.0108 17.0835C13.0754 16.9722 13.1652 16.8824 13.2802 16.8141C13.3987 16.7459 13.5495 16.7117 13.7327 16.7117C13.9159 16.7117 14.065 16.7477 14.1799 16.8195C14.2949 16.8877 14.3847 16.9793 14.4493 17.0943C14.514 17.2056 14.5571 17.3332 14.5786 17.4768C14.6038 17.6205 14.6164 17.7678 14.6164 17.9186V19.2441L14.347 20.9682ZM14.6164 23.3605C14.6164 23.6658 14.5391 23.8921 14.3847 24.0393C14.2302 24.183 14.0129 24.2549 13.7327 24.2549C13.4454 24.2549 13.2245 24.183 13.07 24.0393C12.9156 23.8921 12.8383 23.6658 12.8383 23.3605C12.8383 23.0515 12.9156 22.8271 13.07 22.687C13.2245 22.5469 13.4454 22.4768 13.7327 22.4768C14.0309 22.4768 14.2518 22.5469 14.3955 22.687C14.5427 22.8271 14.6164 23.0515 14.6164 23.3605Z" fill="white"/>
<g clip-path="url(#clip1_2525_1659)">
<path d="M6.39178 13.9457L6.10436 13.5146H5.58621H2.4138C1.60367 13.5146 0.968171 12.8791 0.968171 12.069V2.4138C0.968171 1.60367 1.60367 0.968171 2.4138 0.968171H15.7931C16.6032 0.968171 17.2387 1.60367 17.2387 2.4138V12.069C17.2387 12.8791 16.6032 13.5146 15.7931 13.5146H12.6207H11.9229L11.7214 14.1189L11.7124 14.1294L9.6811 16.5051C9.37766 16.8511 8.82926 16.8511 8.52581 16.5051L6.53679 14.1789C6.5268 14.1628 6.51616 14.1452 6.50262 14.1226L6.50057 14.1192C6.47489 14.0764 6.43913 14.0167 6.39178 13.9457Z" stroke="#BD1616" stroke-width="1.93634"/>
</g>
<path d="M11.6595 6.25866C11.6595 6.44544 11.6253 6.61606 11.5571 6.77051C11.4924 6.92496 11.408 7.06685 11.3039 7.19616C11.1997 7.32547 11.083 7.444 10.9537 7.55176C10.8279 7.65952 10.704 7.7583 10.5819 7.8481C10.4633 7.9379 10.352 8.02231 10.2478 8.10133C10.1473 8.17676 10.0718 8.2486 10.0215 8.31685C9.99999 8.34558 9.97484 8.39048 9.94611 8.45155C9.91737 8.50902 9.903 8.57547 9.903 8.6509C9.903 8.84487 9.84194 9.00471 9.71981 9.13043C9.60128 9.25615 9.4145 9.319 9.15947 9.319C9.00501 9.319 8.8775 9.29566 8.77692 9.24896C8.67994 9.19867 8.60092 9.13761 8.53986 9.06577C8.48238 8.99393 8.44108 8.91671 8.41593 8.83409C8.39438 8.75148 8.38361 8.67604 8.38361 8.6078C8.38361 8.36354 8.42491 8.1588 8.50753 7.99357C8.59014 7.82834 8.69431 7.68646 8.82003 7.56793C8.94575 7.4458 9.08045 7.33984 9.22412 7.25004C9.3678 7.16024 9.5025 7.06685 9.62822 6.96986C9.75394 6.87288 9.8581 6.76512 9.94072 6.64659C10.0233 6.52446 10.0646 6.3736 10.0646 6.194C10.0646 6.00722 10.0323 5.85995 9.96766 5.75219C9.9066 5.64443 9.82937 5.56541 9.73598 5.51512C9.64618 5.46124 9.55099 5.42891 9.45042 5.41814C9.35343 5.40377 9.27082 5.39659 9.20257 5.39659C9.02297 5.39659 8.8793 5.42353 8.77154 5.47741C8.66378 5.52769 8.58116 5.59235 8.52369 5.67137C8.46981 5.75039 8.43389 5.8384 8.41593 5.93538C8.40157 6.02877 8.39438 6.11857 8.39438 6.20478C8.39438 6.34486 8.36744 6.46519 8.31356 6.56577C8.25968 6.66275 8.19144 6.74177 8.10882 6.80284C8.0298 6.8639 7.94179 6.9088 7.84481 6.93754C7.75142 6.96627 7.66521 6.98064 7.58619 6.98064C7.34194 6.98064 7.14438 6.91419 6.99352 6.78129C6.84266 6.64479 6.76722 6.47058 6.76722 6.25866C6.76722 6.16527 6.778 6.04494 6.79955 5.89766C6.8211 5.75039 6.86241 5.59414 6.92347 5.42891C6.98454 5.26368 7.07074 5.09845 7.1821 4.93322C7.29345 4.76799 7.43892 4.61893 7.61852 4.48603C7.79812 4.35312 8.01723 4.24536 8.27585 4.16275C8.53447 4.08013 8.84338 4.03883 9.20257 4.03883C9.60846 4.03883 9.96407 4.0945 10.2694 4.20585C10.5783 4.31361 10.8351 4.46627 11.0399 4.66383C11.2446 4.85779 11.3991 5.09127 11.5032 5.36426C11.6074 5.63366 11.6595 5.93179 11.6595 6.25866ZM10.0862 10.7953C10.0862 11.1006 10.009 11.3269 9.85451 11.4742C9.70006 11.6179 9.48274 11.6897 9.20257 11.6897C8.91522 11.6897 8.69431 11.6179 8.53986 11.4742C8.3854 11.3269 8.30817 11.1006 8.30817 10.7953C8.30817 10.4864 8.3854 10.2619 8.53986 10.1218C8.69431 9.98172 8.91522 9.91168 9.20257 9.91168C9.5007 9.91168 9.72161 9.98172 9.86529 10.1218C10.0126 10.2619 10.0862 10.4864 10.0862 10.7953Z" fill="#BD1616"/>
<defs>
<clipPath id="clip0_2525_1659">
<rect width="18.2759" height="17.9311" fill="white" transform="translate(4.72412 12.2095)"/>
</clipPath>
<clipPath id="clip1_2525_1659">
<rect width="18.2759" height="17.9311" fill="white"/>
</clipPath>
</defs>
</svg>
