<svg width="109" height="109" viewBox="0 0 109 109" fill="none" xmlns="http://www.w3.org/2000/svg">
<g clip-path="url(#clip0_278_4)">
<path d="M109 34.1153C109 30.3531 105.95 27.3028 102.188 27.3028H90.5586C93.568 24.3343 95.4942 20.4427 95.4942 15.65C95.4942 9.7487 92.105 3.33813 82.5913 3.33813C70.0734 3.33813 59.6162 16.6668 54.7027 24.1384C49.7857 16.6685 39.0084 3.33984 26.4921 3.33984C16.9785 3.33984 13.5892 9.7504 13.5892 15.6517C13.5892 20.4426 15.5683 24.336 18.639 27.3045H6.8125C3.0503 27.3045 0 30.3548 0 34.117V54.5085H6.87211V98.8494C6.87211 102.612 9.9223 105.662 13.6846 105.662H95.4005C99.1626 105.662 102.213 102.612 102.213 98.8494V54.5068H109V34.1153H109ZM82.5913 10.1523C86.8032 10.1523 88.6817 11.922 88.6817 15.6518C88.6817 23.2188 80.2359 27.3011 72.2925 27.3011H60.7607C65.6009 20.1122 74.12 10.1523 82.5913 10.1523ZM26.492 10.1524C34.965 10.1524 43.8059 20.1123 48.6461 27.2995H37.1109C29.1675 27.2995 20.4015 23.1115 20.4015 15.5445C20.4015 11.8164 22.2801 10.1524 26.492 10.1524ZM102.187 47.6943H57.9061V34.1153H102.187V47.6943ZM6.81239 34.1153H51.0936V47.6943H6.81239V34.1153ZM13.6845 54.5068H51.0936V98.8477H13.6845V54.5068ZM95.4021 98.8477H57.9061V54.5068H95.4021V98.8477Z" fill="white"/>
</g>
<defs>
<clipPath id="clip0_278_4">
<rect width="109" height="109" fill="white"/>
</clipPath>
</defs>
</svg>
