<svg width="89" height="75" viewBox="0 0 89 75" fill="none" xmlns="http://www.w3.org/2000/svg">
<rect x="36" y="21" width="53" height="42" rx="7" fill="#A1AAB1"/>
<path d="M66.2796 70.6356C64.2858 72.938 60.7142 72.9379 58.7204 70.6356L52.7774 63.7733C49.973 60.535 52.2733 55.5 56.557 55.5L68.443 55.5C72.7267 55.5 75.027 60.5351 72.2226 63.7733L66.2796 70.6356Z" fill="#A1AAB1"/>
<path d="M63.9062 44.5C63.9062 44.8333 63.8854 45.1562 63.8438 45.4688C63.8125 45.7812 63.7344 46.0625 63.6094 46.3125C63.4844 46.5521 63.3021 46.75 63.0625 46.9062C62.8333 47.0521 62.5208 47.125 62.125 47.125C61.7292 47.125 61.4115 47.0521 61.1719 46.9062C60.9427 46.75 60.7656 46.5521 60.6406 46.3125C60.5156 46.0625 60.4323 45.7812 60.3906 45.4688C60.3594 45.1562 60.3438 44.8333 60.3438 44.5L59.5312 39.4375V35.625C59.5312 35.1875 59.5677 34.7604 59.6406 34.3438C59.7135 33.9271 59.8438 33.5573 60.0312 33.2344C60.2188 32.9115 60.4792 32.651 60.8125 32.4531C61.1562 32.2552 61.5938 32.1562 62.125 32.1562C62.6562 32.1562 63.0885 32.2604 63.4219 32.4688C63.7552 32.6667 64.0156 32.9323 64.2031 33.2656C64.3906 33.5885 64.5156 33.9583 64.5781 34.375C64.651 34.7917 64.6875 35.2188 64.6875 35.6562V39.5L63.9062 44.5ZM64.6875 51.4375C64.6875 52.3229 64.4635 52.9792 64.0156 53.4062C63.5677 53.8229 62.9375 54.0312 62.125 54.0312C61.2917 54.0312 60.651 53.8229 60.2031 53.4062C59.7552 52.9792 59.5312 52.3229 59.5312 51.4375C59.5312 50.5417 59.7552 49.8906 60.2031 49.4844C60.651 49.0781 61.2917 48.875 62.125 48.875C62.9896 48.875 63.6302 49.0781 64.0469 49.4844C64.474 49.8906 64.6875 50.5417 64.6875 51.4375Z" fill="#DAE2EA"/>
<rect width="53" height="42" rx="7" fill="#C9D2D9"/>
<path d="M30.2796 49.6356C28.2858 51.938 24.7142 51.9379 22.7204 49.6356L16.7774 42.7733C13.973 39.535 16.2733 34.5 20.557 34.5L32.443 34.5C36.7267 34.5 39.027 39.5351 36.2226 42.7733L30.2796 49.6356Z" fill="#C9D2D9"/>
<path d="M33.8125 17.25C33.8125 17.7917 33.7135 18.2865 33.5156 18.7344C33.3281 19.1823 33.0833 19.5938 32.7812 19.9688C32.4792 20.3438 32.1406 20.6875 31.7656 21C31.401 21.3125 31.0417 21.599 30.6875 21.8594C30.3438 22.1198 30.0208 22.3646 29.7188 22.5938C29.4271 22.8125 29.2083 23.0208 29.0625 23.2188C29 23.3021 28.9271 23.4323 28.8438 23.6094C28.7604 23.776 28.7188 23.9688 28.7188 24.1875C28.7188 24.75 28.5417 25.2135 28.1875 25.5781C27.8438 25.9427 27.3021 26.125 26.5625 26.125C26.1146 26.125 25.7448 26.0573 25.4531 25.9219C25.1719 25.776 24.9427 25.599 24.7656 25.3906C24.599 25.1823 24.4792 24.9583 24.4062 24.7188C24.3438 24.4792 24.3125 24.2604 24.3125 24.0625C24.3125 23.3542 24.4323 22.7604 24.6719 22.2812C24.9115 21.8021 25.2135 21.3906 25.5781 21.0469C25.9427 20.6927 26.3333 20.3854 26.75 20.125C27.1667 19.8646 27.5573 19.5938 27.9219 19.3125C28.2865 19.0312 28.5885 18.7188 28.8281 18.375C29.0677 18.0208 29.1875 17.5833 29.1875 17.0625C29.1875 16.5208 29.0938 16.0938 28.9062 15.7812C28.7292 15.4688 28.5052 15.2396 28.2344 15.0938C27.974 14.9375 27.6979 14.8438 27.4062 14.8125C27.125 14.7708 26.8854 14.75 26.6875 14.75C26.1667 14.75 25.75 14.8281 25.4375 14.9844C25.125 15.1302 24.8854 15.3177 24.7188 15.5469C24.5625 15.776 24.4583 16.0312 24.4062 16.3125C24.3646 16.5833 24.3438 16.8438 24.3438 17.0938C24.3438 17.5 24.2656 17.849 24.1094 18.1406C23.9531 18.4219 23.7552 18.651 23.5156 18.8281C23.2865 19.0052 23.0312 19.1354 22.75 19.2188C22.4792 19.3021 22.2292 19.3438 22 19.3438C21.2917 19.3438 20.7188 19.151 20.2812 18.7656C19.8438 18.3698 19.625 17.8646 19.625 17.25C19.625 16.9792 19.6562 16.6302 19.7188 16.2031C19.7812 15.776 19.901 15.3229 20.0781 14.8438C20.2552 14.3646 20.5052 13.8854 20.8281 13.4062C21.151 12.9271 21.5729 12.4948 22.0938 12.1094C22.6146 11.724 23.25 11.4115 24 11.1719C24.75 10.9323 25.6458 10.8125 26.6875 10.8125C27.8646 10.8125 28.8958 10.974 29.7812 11.2969C30.6771 11.6094 31.4219 12.0521 32.0156 12.625C32.6094 13.1875 33.0573 13.8646 33.3594 14.6562C33.6615 15.4375 33.8125 16.3021 33.8125 17.25ZM29.25 30.4062C29.25 31.2917 29.026 31.9479 28.5781 32.375C28.1302 32.7917 27.5 33 26.6875 33C25.8542 33 25.2135 32.7917 24.7656 32.375C24.3177 31.9479 24.0938 31.2917 24.0938 30.4062C24.0938 29.5104 24.3177 28.8594 24.7656 28.4531C25.2135 28.0469 25.8542 27.8438 26.6875 27.8438C27.5521 27.8438 28.1927 28.0469 28.6094 28.4531C29.0365 28.8594 29.25 29.5104 29.25 30.4062Z" fill="#A1AAB1"/>
</svg>
