<svg width="35" height="35" viewBox="0 0 35 35" fill="none" xmlns="http://www.w3.org/2000/svg">
<path d="M32.032 15.7021L25.8796 21.0109L27.7541 28.9502C27.8575 29.3812 27.8309 29.8331 27.6775 30.249C27.5242 30.6649 27.2511 31.0259 26.8927 31.2867C26.5342 31.5474 26.1066 31.696 25.6637 31.7138C25.2208 31.7315 24.7826 31.6177 24.4045 31.3865L17.5002 27.1373L10.5918 31.3865C10.2136 31.6163 9.77596 31.7291 9.33386 31.7107C8.89176 31.6923 8.465 31.5434 8.10731 31.283C7.74962 31.0225 7.477 30.662 7.32378 30.2469C7.17056 29.8318 7.14358 29.3806 7.24625 28.9502L9.1275 21.0109L2.97516 15.7021C2.64061 15.413 2.39865 15.0317 2.27951 14.6059C2.16037 14.18 2.16933 13.7285 2.30526 13.3077C2.44119 12.887 2.69807 12.5156 3.04383 12.2399C3.38959 11.9643 3.80889 11.7966 4.24938 11.7578L12.3158 11.107L15.4275 3.57656C15.5959 3.16616 15.8826 2.8151 16.2511 2.56804C16.6195 2.32097 17.0531 2.18906 17.4967 2.18906C17.9404 2.18906 18.374 2.32097 18.7424 2.56804C19.1109 2.8151 19.3975 3.16616 19.566 3.57656L22.6763 11.107L30.7427 11.7578C31.1841 11.7951 31.6046 11.9619 31.9516 12.2372C32.2987 12.5124 32.5567 12.884 32.6935 13.3053C32.8303 13.7266 32.8397 14.1788 32.7206 14.6055C32.6014 15.0321 32.359 15.414 32.0238 15.7035L32.032 15.7021Z" fill="#181945"/>
</svg>
