<svg width="35" height="35" viewBox="0 0 35 35" fill="none" xmlns="http://www.w3.org/2000/svg">
<path d="M27.781 7.16033C26.444 5.80981 24.8514 4.73901 23.0963 4.0104C21.3411 3.2818 19.4584 2.90995 17.5581 2.91659C9.59552 2.91659 3.10592 9.40617 3.10592 17.3687C3.10592 19.9207 3.77676 22.3999 5.03092 24.5875L2.98926 32.0833L10.6456 30.0707C12.7601 31.2228 15.1372 31.8354 17.5581 31.8354C25.5205 31.8354 32.0102 25.3457 32.0102 17.3833C32.0102 13.5187 30.5081 9.88741 27.781 7.16033ZM17.5581 29.3854C15.3997 29.3854 13.2851 28.802 11.4331 27.7083L10.9956 27.4457L6.44552 28.6415L7.65592 24.2083L7.36426 23.7562C6.16514 21.8413 5.52843 19.628 5.52676 17.3687C5.52676 10.7478 10.9226 5.35201 17.5435 5.35201C20.7518 5.35201 23.7706 6.60617 26.031 8.88117C27.1503 9.99528 28.0371 11.3205 28.6406 12.7799C29.2438 14.2394 29.5516 15.804 29.5455 17.3833C29.5747 24.0041 24.1789 29.3854 17.5581 29.3854ZM24.1497 20.402C23.7851 20.227 22.006 19.352 21.6851 19.2208C21.3497 19.1041 21.1164 19.0458 20.8685 19.3958C20.6206 19.7603 19.9351 20.577 19.731 20.8103C19.5268 21.0583 19.3081 21.0874 18.9435 20.8978C18.5789 20.7228 17.4122 20.3291 16.0414 19.1041C14.9622 18.1416 14.2476 16.9603 14.0289 16.5958C13.8247 16.2312 13.9997 16.0416 14.1893 15.852C14.3497 15.6916 14.5539 15.4291 14.7289 15.2249C14.9039 15.0208 14.9768 14.8603 15.0935 14.627C15.2101 14.3791 15.1518 14.1749 15.0643 13.9999C14.9768 13.8249 14.2476 12.0458 13.956 11.3166C13.6643 10.6166 13.3581 10.7041 13.1393 10.6895H12.4393C12.1914 10.6895 11.8122 10.777 11.4768 11.1416C11.156 11.5062 10.2226 12.3812 10.2226 14.1603C10.2226 15.9395 11.5206 17.6603 11.6956 17.8937C11.8706 18.1416 14.2476 21.7874 17.8643 23.3478C18.7247 23.727 19.3956 23.9457 19.9206 24.1062C20.781 24.3833 21.5685 24.3394 22.1956 24.252C22.8956 24.1499 24.3392 23.377 24.631 22.5312C24.9371 21.6853 24.9373 20.9708 24.8352 20.8103C24.7331 20.6499 24.5142 20.577 24.1497 20.402Z" fill="#BD1616"/>
</svg>
