<?xml version="1.0" encoding="utf-8"?>
<!-- Generator: Adobe Illustrator 28.0.0, SVG Export Plug-In . SVG Version: 6.00 Build 0)  -->
<svg version="1.1" id="background-raspadinha" xmlns="http://www.w3.org/2000/svg" xmlns:xlink="http://www.w3.org/1999/xlink"
	 x="0px" y="0px" viewBox="0 0 430 844" style="enable-background:new 0 0 430 844;" xml:space="preserve">
<style type="text/css">
	.st0{fill-rule:evenodd;clip-rule:evenodd;fill:#FF7C3D;}
	.st1{fill:#FF6D29;}
	.st2{fill:#FF7C3D;}
	.st3{fill:#FF7532;}
	.st4{fill:#FF7432;}
	.st5{fill-rule:evenodd;clip-rule:evenodd;fill:#FFFFFF;}
	.st6{fill:#FFFFFF;}
	.st7{fill:#181945;}
	.st8{fill-rule:evenodd;clip-rule:evenodd;fill:#181945;}
</style>
<rect class="st0" width="430" height="844"/>
<g id="background">
	<path class="st1" d="M239.5,844c0-9.8,0-19.7,0-29.5c0-6.1,0.8-12.1,1.4-18.1c0.5-6,1.7-11.8,2.8-17.7c0.5-2.6,0.9-5.3,1.8-8
		c1-3.1,1.5-6.3,2.5-9.4c1.5-4.8,3.2-9.4,4.9-14.1c1.6-4.3,3.7-8.4,5.6-12.5c1.7-3.5,3.8-6.8,5.7-10.2c3.7-6.4,8.1-12.4,12.6-18.2
		c2.8-3.6,5.6-7.2,8.4-10.8c4.2-5.6,8.9-10.8,13-16.4c4.8-6.5,9.4-13.2,13.3-20.2c4.7-8.5,8.6-17.3,11.2-26.8
		c1.8-6.8,3.1-13.6,4.1-20.5c0.4-2.7,0.8-5.4,0.7-8.2c-0.1-5.8-0.1-11.7,0-17.5c0.1-4.7-0.6-9.3-1.2-13.9c-0.3-2.7-0.6-5.4-1.2-8.1
		c-1.5-7.2-3.1-14.3-5.5-21.2c-1.3-3.7-2.6-7.4-4.1-11c-1.7-4.1-3.9-8-5.9-12.1c-3.1-6.3-7.2-12-11.3-17.6
		c-3.8-5.2-7.8-10.2-12.4-14.6c-6.3-6-12.8-11.9-20.2-16.6c-4.6-2.9-9.2-5.6-14-8.1c-7.4-4-15.2-7.4-22.8-11.1
		c-2.7-1.3-5.2-2.9-8-4.1c-4.6-2.1-9-4.6-13.3-7.3c-4.3-2.6-8.6-5.4-12.5-8.7c-2.6-2.2-5.1-4.5-7.7-6.7c-2.6-2.3-4.7-5.1-6.9-7.8
		c-7-8.9-12.1-18.9-15.8-29.5c-1.8-5-3.4-10.1-4.4-15.3c-0.5-2.3-1.2-4.7-1.6-7c-0.7-3.7-1.4-7.3-1.7-11.1c-0.2-2.6-0.9-5.1-1.1-7.6
		c-0.2-2.1-0.4-4.1-0.3-6.2c0.1-3.2-0.4-6.3-0.8-9.4c-0.1-0.9-0.2-1.8-0.2-2.7c0-3.7,0-7.5,0-11.2c0-3.3,0-6.5,0.8-9.7
		c0.2-0.9,0.2-2,0.2-3c-0.1-4.5,0.3-9,0.9-13.4c0.3-2.6,0.8-5.3,0.7-7.9c0-0.3,0-0.7,0-1c1.4-4.8,1.3-9.9,2.1-14.8
		c1.1-6.5,2.1-12.9,2.9-19.4c0.3-2.1,0.9-4.2,1.2-6.3c0.7-4.9,1.4-9.7,2.3-14.5c0.7-3.8,1-7.7,2-11.5c0.7-2.6,0.8-5.4,1.3-8.1
		c0.5-2.8,0.8-5.6,1.3-8.4c0.2-1,0.3-2,0.3-3c0-1.4,0-2.8,0.6-4.2c0.3-0.6,0.3-1.3,0.3-1.9c0.1-5,0.8-9.9,1.4-14.9
		c0.1-0.8,0.1-1.7,0.1-2.5c-0.1-2.8,0.1-5.6,0.8-8.4c0.2-1,0.2-2,0.2-3c0-5.9,0-11.8,0-17.7c0-3.6,0.1-7.2-0.9-10.7
		c-0.1-0.3-0.1-0.7-0.1-1c0.4-6-1-11.8-1.7-17.6c-0.3-2.6-0.7-5.4-1.6-8c-0.9-2.6-0.9-5.4-1.8-8c-1.7-5.5-2.8-11.1-5-16.5
		c-2-4.8-3.9-9.7-6.5-14.3c-1.9-3.4-3.6-6.9-6-10c-3.3-4.3-6.2-8.8-10.6-12.1c-1.8-1.3-3.3-3-5.1-4.3c-3.8-3-8-5.4-12.5-7.1
		c-4.1-1.6-8.2-2.7-12.5-3.7c-6.7-1.5-13.4-0.4-20.1-0.8c-5.8,1.4-11.7,2-17.3,4c-4.5,1.6-8.9,3.6-13.5,5c-0.4,0.1-0.7,0.4-1.1,0.6
		c-5.3,2.5-10.4,5.6-15.3,8.7C37.2,50.6,32,54,27.3,57.9c-1.3,1.1-2.7,1.9-4.1,2.9c-2.6,1.8-5,3.9-7.5,5.8c-3.1,2.4-6.2,4.7-9.3,7.1
		c-1.1,0.8-2,1.7-3,2.6c-0.8,0.7-1.7,1.4-2.9,1.2c0-14,0-28,0-42c0.5-0.5,0.9-1,1.6-1c2.5,0.1,4.9-0.9,7.4-1
		c6.9-0.4,13.5-2.2,20.1-4.3c5.6-1.8,11.1-3.9,16.4-6.4c7-3.4,13.9-7.2,20.8-10.8C73.1,8.5,79,4.5,85.5,1.5c1.6-0.7,3.3-0.9,5-1.5
		c33.7,0,67.3,0,101,0c3,2.7,5.5,5.8,8,8.9c2.1,2.5,3.7,5.4,5.1,8.2c2,3.9,3.7,7.9,5.2,12.1c2.5,7.3,3.9,14.8,5,22.3
		c0.5,3.2,0.1,6.5,0.7,9.7c0.5,2.8,0.4,5.6,0.4,8.5c0.1,3.1-0.2,6.1-0.8,9.2c-0.2,1.1-0.2,2.3-0.2,3.5c0,2.7,0,5.3-0.8,7.9
		c-0.6,1.9-0.4,4-0.5,5.9c-0.2,2.8-0.8,5.5-1.4,8.1c-1.1,4.9-1.6,10-3.1,14.8c-0.8,2.5-1,5.2-1.7,7.8c-1.3,4.7-2.1,9.5-3.5,14.2
		c-1.5,5.3-2.7,10.8-4,16.2c-1.1,4.4-1.9,8.9-2.7,13.4c-0.8,4.1-1.6,8.3-2.5,12.4c-1.6,7.2-2.3,14.6-3.1,21.9
		c-0.5,4.4-1.2,8.7-1.3,13.1c-0.2,3.9-0.1,7.8-0.4,11.7c-0.8,8.3-1.1,16.6-0.9,24.9c0.1,3.7,0.5,7.5,0.8,11.2c0.1,1,0.1,2,0.1,3
		c0,6.1,0.5,12.1,1.3,18.1c0.5,3.8,0.7,7.6,1.2,11.4c0.3,2.6,0.6,5.3,1.1,7.9c0.7,3.6,1.1,7.2,1.8,10.8c1,5.5,2.2,10.9,3.3,16.4
		c1.5,7.5,3.6,14.8,6,22.1c1.6,5,3.1,10,5.2,14.7c2.3,5.2,4.7,10.3,7.7,15.1c1.7,2.8,3.5,5.7,5.6,8.2c2.7,3.3,5.5,6.7,8.8,9.6
		c2.8,2.4,5.6,4.9,8.7,7c3.9,2.7,7.9,5.2,12.1,7.3c2.1,1.1,4.2,2.3,6.4,3.4c1.9,1,3.8,2,5.8,2.8c3.9,1.6,7.5,3.6,11.3,5.3
		c5,2.2,9.6,5.1,14.5,7.6c4,2,7.6,4.8,11.4,7c4.1,2.3,7.6,5.6,11.4,8.5c4.5,3.5,8.6,7.4,12.7,11.2c3.4,3.1,6.4,6.5,9.5,9.9
		c3.1,3.4,5.7,7.3,8.5,11.1c6,8.1,10.7,16.8,14.7,26c2,4.5,4,9,5.3,13.7c1.7,5.9,3.6,11.7,4.4,17.8c0.3,2.6,0.9,5.1,1.5,7.6
		c0.6,2.4,0.6,4.8,0.8,7.2c0.3,2.6,0.4,5.3,0.7,7.9c0.6,5.1,0.3,10.1,0.4,15.2c0.1,4.7-0.7,9.3-1.2,13.9c0,0.2-0.1,0.3-0.1,0.5
		c-0.3,2.5-0.2,5.1-1,7.6c-0.6,1.8-0.6,3.9-1,5.9c-1.7,8.6-4.2,17.1-7.3,25.3c-3.2,8.4-6.8,16.6-11.2,24.5c-3,5.4-6,10.7-9.1,16
		c-2.7,4.7-5.8,9.1-8.7,13.7c-2.5,4-5.1,7.8-7.7,11.6c-3.2,4.8-6.2,9.7-9.7,14.2c-1.3,1.6-2,3.6-3.3,5.3c-2.1,2.8-3.8,5.8-5.6,8.8
		c-2.4,4-4.9,7.9-7,12c-1.6,3.2-3.4,6.3-5,9.5c-4.2,8.4-8.2,16.9-10.9,26c-1.4,4.7-3.1,9.3-4.1,14.1c-1,5.1-2.1,10.2-2.9,15.4
		c-0.4,2.6-0.8,5.2-0.8,7.9c0,0.4,0,0.9-0.1,1.2c-1.1,2.9-0.9,5.9-0.8,8.9c0.1,3.5-0.4,7-0.5,10.5c-0.1,3.7,0.8,7.5,0.5,11.2
		C262.8,844,251.2,844,239.5,844z"/>
	<path class="st1" d="M430.5,460.5c-1.9-0.3-3.3-1.6-4.7-2.6c-4.2-3.2-8.7-5.8-13.1-8.8c-5.7-3.9-11.3-7.9-16.8-12.1
		c-6.2-4.7-12.2-9.7-18-14.9c-4.4-4-9-7.9-13-12.3c-2-2.2-4.4-4-6.4-6.2c-2.8-3.1-5.8-6.2-8.6-9.3c-2.9-3.3-5.7-6.7-8.5-10.1
		c-2.6-3-4.7-6.2-7-9.4c-1.4-2-2.6-4-3.8-6.1c-3.1-5.2-5.6-10.8-7.6-16.5c-0.8-2.3-1.2-4.8-1.9-7.2c-1.9-7.2-1.7-14.5-1.5-21.8
		c0.2-6.5,1.3-12.9,3.2-19.1c2.4-7.9,5.1-15.6,8.6-23.1c1.5-3.2,2.7-6.5,4.1-9.6c1.5-3.4,3.2-6.8,4.6-10.2
		c2.7-6.4,5.3-12.7,7.3-19.3c1-3.3,2.2-6.4,3.2-9.7c1.1-3.9,2.1-7.9,3-11.8c1.1-4.4,1.9-8.9,2.7-13.4c0.7-3.5,1.6-7,1.9-10.5
		c0.4-4.2,1.6-8.3,1.4-12.6c0-1.2,0.2-2.5,0.5-3.7c0.6-3,0.2-6,0.6-9c0.9-8.3,0.5-16.6,0.3-25c-0.1-5.2,0.1-10.5-1.3-15.6
		c-0.2-0.7-0.1-1.5-0.1-2.2c0-1.8-0.1-3.6-0.7-5.4c-0.4-1.2-0.3-2.6-0.5-3.9c-1-5.8-2.6-11.4-4.4-17.1c-2.6-8.4-7.1-15.7-12.1-22.8
		c-3.5-4.9-7.4-9.4-11.9-13.4c-3.7-3.3-7.6-6.5-11.6-9.5c-4.2-3.2-8.2-6.4-12.4-9.6c-3.8-2.9-7.4-6-11.3-8.6c-1.6-1-2.8-2.6-4.3-3.8
		c-4.8-3.7-9.3-7.7-13.7-12c-3-2.9-6-6-9-9C263.5,9.1,259.8,4.5,256,0c22.5,0,45,0,67.5,0c4.2,0.8,7.2,3.6,10.6,5.8
		c9.9,6.5,20,12.6,29.8,19.2c4.1,2.8,8,5.9,11.8,9.2c5.1,4.3,9.8,9,14,14.1c5.4,6.5,9.7,13.7,13,21.5c3.6,8.6,5.7,17.5,7.3,26.6
		c1.1,6.4,1.7,12.9,1.8,19.4c0.1,4.8,0,9.7,0,14.5c0.2,11.2-1.2,22.2-2.7,33.3c-1.2,9-3.1,17.9-5.3,26.6c-2.5,9.7-5,19.3-8.2,28.8
		c-2.8,8.4-5.7,16.9-8.8,25.2c-5.8,15.7-12.2,31.1-18,46.8c-2.8,7.5-5.1,15.3-7,23.1c-2.6,10.9-3,21.9-2.5,32.9
		c0.3,7.1,2.1,14,4.3,20.7c2.4,7.4,5.6,14.4,9.7,21c5.5,9,12.6,16.7,20.9,23.3c7.8,6.1,16.4,10.8,25.5,14.4c2.2,0.9,4.5,1.7,6.9,2.2
		c1.7,0.4,2.9,1.1,4,2.3C430.5,440.8,430.5,450.7,430.5,460.5z"/>
	<path class="st1" d="M101.5,489c-1,1.5-2.8,1.4-4.2,1.9c-2.4,0.8-4.6,1.9-6.9,2.8c-4.3,1.8-8.5,3.7-12.8,5.4
		c-2.4,0.9-4.6,2.3-7,3.2c-4.2,1.6-8.3,3.3-12.6,4.6c-4.9,1.5-9.9,2.6-14.9,3.8c-6.3,1.4-12.6,0.6-18.9,0.7c-2.2,0-4.5-0.9-6.7-1.6
		c-2.4-0.7-4.7-1.5-7-2.5c-2.5-1.1-4.8-2.5-7.3-3.8c-0.9-0.5-1.7-1.1-2.8-1c0-20.7,0-41.3,0-62c1.4,0.2,2.1,1.4,2.8,2.4
		c2.4,3.7,5.6,6.5,8.9,9.3c4.3,3.5,9.1,6.2,14.3,8c4.1,1.4,8.2,3.2,12.8,2.9c0.2,0,0.5,0,0.7,0.1c4.1,1.7,8.4,0.6,12.6,0.9
		c0.2,0,0.5,0.1,0.7-0.1c2.7-1.3,5.5-0.8,8.3-1c1.2-0.1,2.2-0.7,3.4-0.8c2.9-0.4,5.7-1.2,8.5-1.7c3.2-0.6,6.4-1.7,9.5-2.7
		c3.1-1,6.3-2,9.5-2.7c1.6-0.4,3.2-0.9,4.8-1.5c2.3-0.9,4.7-1.6,7.1-2.1c4-0.8,7.8-2,11.7-3.1c0.1,0,0.2-0.1,0.2-0.1
		c3,0.1,5.8-1.2,8.8-1.2c4.8-0.1,9.7,0,14.5,0c2.3,0,4.6,0.1,6.9,0.8c1.9,0.6,4,0.7,6,1.3c5.9,1.8,11.5,4.3,16.7,7.6
		c4,2.6,7.7,5.5,11.3,8.6c4.7,4.1,9.2,8.5,13.1,13.3c5.7,7.1,10.8,14.5,14.9,22.7c2.4,4.8,4.9,9.6,7,14.6c1.1,2.8,2.4,5.6,3.3,8.6
		c0.8,2.8,2.1,5.4,2.9,8.2c1.1,4,2.4,7.9,3.4,12c0.6,2.4,1.1,4.8,1.8,7.2c1.4,5.2,2.3,10.5,3.2,15.8c0.5,2.9,0.8,5.7,1.3,8.6
		c0.5,2.9,1.1,5.7,1.1,8.6c0,0.8,0.2,1.7,0.3,2.5c0.5,2.1,0.8,4.3,0.6,6.4c-0.1,1.9,0.3,3.6,0.5,5.5c0.9,8,1.1,16.1,1,24.2
		c0,1.7,0.6,3.3,0.5,5c-0.4,6.1-0.3,12.1-0.6,18.2c-0.2,4.3-0.7,8.6-1.6,12.8c-1.1,5.1-2.1,10.2-3.8,15.2c-1.5,4.6-3.2,9.1-4.9,13.6
		c-1.8,4.7-3.9,9.3-5.9,14c-1.7,3.9-3.6,7.7-5.2,11.6c-1.7,4-3.5,7.9-5.1,11.9c-2.1,5.1-4.3,10.3-6.2,15.5
		c-2.4,6.5-4.7,13.2-6.9,19.8c-1.9,5.7-3.8,11.4-5.5,17.1c-1.1,3.7-2.5,7.4-3.4,11.2c-0.4,1.8-1,3.5-1.5,5.3
		c-1.3,4.5-2.5,9.1-3.5,13.7c-0.5,2.4-1.2,4.8-1.6,7.3c-1,5-1.7,10.1-2.3,15.2c-0.5,4.4-0.3,8.8-0.4,13.2c-9.7,0-19.3,0-29,0
		c-0.2-5.8,0.5-11.6,0.6-17.5c0.1-4.4,0.5-8.8,1.1-13.1c0.5-3.8,0.7-7.6,1.5-11.3c0.7-3.5,1-7.1,1.9-10.5c0.7-2.7,1-5.5,2-8.2
		c0.4-1.2,0.5-2.4,0.9-3.6c2-7,4.6-13.7,7.4-20.4c1.6-3.8,3.2-7.5,5-11.1c2.8-5.6,5.5-11.4,8.7-16.8c1.7-2.9,3-5.9,4.6-8.9
		c1.9-3.5,3.8-7,5.6-10.6c0.8-1.6,1.6-3.3,2.4-4.9c2-4.3,4-8.6,5.7-13c3.5-9.2,6.5-18.5,8.7-28.1c1-4.6,1.5-9.2,2.6-13.7
		c0.9-4,1.1-8.1,1.6-12c0.6-4.5,1-9.1,0.7-13.7c-0.1-2.2-0.1-4.3,0.4-6.5c0.2-0.7,0.2-1.5,0-2.2c-0.7-3.4-0.4-6.8-0.4-10.2
		c0-5.6-0.2-11.1-1.4-16.6c0-0.2-0.1-0.3-0.1-0.5c0-6.2-1.8-12.1-2.8-18.2c-0.5-2.7-0.7-5.6-2-8.2c-0.5-0.9-0.3-2.1-0.6-3.2
		c-1.1-3.8-2.1-7.5-3.3-11.2c-0.7-2.1-1.8-4.1-2.4-6.2c-1.4-4.7-3.3-9.3-5.6-13.6c-3.8-7.3-7.7-14.6-12.5-21.3
		c-2.4-3.4-5.2-6.5-7.9-9.6c-3-3.3-6.3-6.2-10-8.5c-3.6-2.2-7.4-4-11.5-5.3c-5-1.5-9.9-2.5-15.1-2.3c-4.8,0.1-9.4,0.2-14.1,1.3
		c-3.2,0.7-6.5,1.3-9.6,2.2c-1.1,0.6-2.5,0.1-3.5,1c-0.2,0-0.3,0-0.5,0C104.5,488.1,103.1,488.8,101.5,489z"/>
	<path class="st1" d="M0.5,660.5c1.5,0.6,2.1,2,3.1,3.1c4.1,5.1,8.4,10.1,14.5,13c1.2,0.6,2.3,0.9,3.6,0.8c0.5,0,1,0,1.5,0
		c5.1,0.5,8.9-1.8,12.4-5.2c5-4.9,8.7-10.7,12-16.8c3.2-5.8,5.6-11.9,8.2-17.9c2.2-5.1,4.2-10.3,6.4-15.4c2-4.6,3.9-9.2,6.2-13.6
		c1.6-3.2,3.2-6.4,5.4-9.3c1.4-1.9,2.4-4,3.8-5.9c4-5.8,8.8-10.9,14.4-15c3-2.2,6.2-4.5,10-5.5c2.3-0.6,4.5-1.7,7-1.4
		c0.7,0.1,1.3-0.1,2-0.2c3.4-0.6,6.6,0,9.9,0.8c2.6,0.6,5.1,1.3,7.6,2.4c5.4,2.3,10.2,5.6,14.5,9.6c3.1,2.9,6,6,8.3,9.5
		c4.2,6.2,7.6,12.9,10.2,20c1.7,4.7,3,9.5,4,14.4c0.9,4,1.9,8.1,1.8,12.3c0,0.6,0,1.2,0.1,1.7c1.7,7.5,0.6,15.1,0.8,22.7
		c-1.5,5.1-0.7,10.6-2.2,15.8c-0.9,3.2-1.1,6.5-1.9,9.7c-0.8,3.5-1.8,6.9-2.9,10.3c-1.4,4.4-2.8,8.9-4.4,13.2c-0.7,2-1.7,4-2.5,6
		c-2.9,7.9-6.9,15.3-10.3,23c-1.6,3.6-3.3,7.1-5.3,10.4c-0.8,1.3-1.4,2.9-2.1,4.3c-2.6,5-5.1,10.1-7.7,15.1
		c-4.4,8.8-8.6,17.6-12.3,26.7c-2.6,6.3-5.1,12.6-7,19.2c-1.5,5.4-3,10.9-4.3,16.4c-0.7,3.1-1.1,6.2-1.8,9.3c-9,0-18,0-27,0
		c-0.8-0.7-0.8-1.5-0.6-2.5c1.8-7.3,3.9-14.4,6.3-21.5c3.6-10.4,8.4-20.1,14.2-29.3c3.4-5.4,7-10.7,10.8-15.9
		c6.1-8.3,12-16.7,17-25.8c2.6-4.8,5-9.8,7-14.9c2-5,3.4-10.2,4.7-15.4c1.3-5,1.5-10.1,1.6-15.1c0.1-6.4-0.5-12.9-2.3-19.2
		c-1.8-6.5-4.4-12.5-7.5-18.4c-3.1-5.9-6.9-11.5-12.4-15.4c-6.4-4.5-13.1-4.1-20.3,1c-7.3,5.2-12.1,12.4-16.5,20
		c-3.1,5.3-5.6,10.9-8.2,16.5c-3,6.6-5.8,13.2-9.1,19.6c-6.3,12.2-13.9,23.4-24.5,32.4c-5.8,4.9-11.7,9.4-18.6,12.3
		c-4.7,1.9-9.3,4.5-14.7,4.2c-1.2,0-2.3-0.1-3.1-1.2C0.5,723.8,0.5,692.2,0.5,660.5z"/>
	<path class="st1" d="M391.5,844c0.1-3.6-0.2-7.1-0.8-10.7c-0.3-1.5-0.2-3.2-0.1-4.7c0.1-3.3-0.3-6.6-0.8-9.9
		c-0.4-2.5-0.5-5-0.7-7.4c-0.1-2.1-0.4-4.1-0.7-6.1c-0.6-3.9-1.3-7.9-1.7-11.8c-0.2-1.7-0.7-3.2-1-4.8c-1.1-4.9-2.4-9.8-3.6-14.8
		c-1.6-6.3-3.6-12.4-5.4-18.6c-1.4-5-2.9-10-4.1-15.1c-0.8-2.9-1.4-6-2-9c-0.7-3.2-1-6.4-1.5-9.6c-0.5-3-0.9-6.1-0.9-9.2
		c0.1-5.6-0.3-11.1,0.5-16.7c1.2-7.9,2.9-15.6,6.6-22.8c2.3-4.5,5.1-8.4,9-11.5c2.5-2,5.5-3.7,8.9-4.2c0.7-0.1,1.3-0.3,1.9-0.5
		c1.5-0.7,3.1-0.7,4.6,0c1.7,0.8,3.6,0.4,5.2,1.4c4.1,2.5,7.4,5.4,9.4,9.9c1.5,3.4,2.2,7,3.2,10.5c0.6,2.1,0.4,4.5,0.5,6.7
		c0.3,4.1,0.4,8.3-0.2,12.5c-0.4,3.1-0.2,6.3-0.2,9.5c0,2.1-0.1,4.2-0.6,6.2c-0.4,1.6-0.5,3.1-0.4,4.7c0.3,5.7-0.3,11.5-0.6,17.2
		c-0.2,3.3-0.1,6.7-0.4,10c-0.9,9.2,0,18.5-0.5,27.7c-0.7,11.4-0.6,22.8-0.3,34.2c0.2,9.7,0.2,19.5,0.4,29.2c0.1,2.6,0.5,5.3,0.4,8
		C407.5,844,399.5,844,391.5,844z"/>
	<path class="st1" d="M430.5,370.5c-5-0.1-8.4-3-11.3-6.5c-3.1-3.9-6.2-7.8-8.5-12.3c-2.7-5.4-5.3-10.9-6.8-16.8
		c-0.9-3.7-1.8-7.4-2.7-11.1c-0.8-3.8-1-7.6-1.2-11.3c-0.2-4.5-0.2-9,0-13.5c0.1-3.6,0.5-7.1,1.1-10.6c0.6-3.2,1.2-6.3,1.8-9.5
		c1-5.3,2.7-10.5,4.1-15.7c1-3.5,2.1-7,3.2-10.5c1.3-3.7,2.8-7.3,3.9-11.1c1-3.4,2.2-6.8,3.5-10.1c2.3-6.1,4.2-12.3,6.8-18.2
		c2-4.5,3.6-9.1,5.4-13.7c0.2-0.4,0.3-0.8,0.5-1.1C430.5,255.8,430.5,313.2,430.5,370.5z"/>
	<path class="st1" d="M0.5,813c0.9,0,1.6-0.3,2.2-1c1.5-2.1,3.4-3.9,4.6-6.2c1.9-3.5,4.7-6.5,6.7-9.9c2-3.3,4.7-6,7-9.1
		c2.1-2.8,5.1-5,7.8-7.3c2.9-2.6,6.2-4.5,9.4-6.5c3.3-2,6.9-3.7,10.6-4.8c1.5-0.5,3.2-0.7,4.8-1c1.4-0.2,2.7,0.7,3.8,1.6
		c2.6,2.2,3.6,5.2,4,8.4c1.3,9.3,0.8,18.4-1.9,27.4c-1.1,3.6-2.1,7.2-3.3,10.7c-1,2.8-2.4,5.5-3.5,8.3c-2.4,5.7-4.7,11.3-7.7,16.7
		c-0.6,1.2-1,2.5-1.5,3.7c-14.3,0-28.6,0-43,0C0.5,833.7,0.5,823.3,0.5,813z"/>
	<path class="st1" d="M315,844c-0.7-0.7-1-1.5-1-2.5c0.1-5.3-0.7-10.6-0.6-15.9c0.1-3.2,0.2-6.4,0.7-9.4c1.6-9.2,4.8-17.6,12.5-23.7
		c1.2-1,2.7-1.5,4-1.8c4.7-1.1,9.3-0.8,13.2,2.4c4.7,3.9,8.4,8.6,11,14.2c2.3,5.1,3.7,10.3,4.5,15.7c1,6.3,1.4,12.7,1.1,19.1
		c0,0.6,0,1.2,0,1.7C345.3,844,330.2,844,315,844z"/>
	<path class="st2" d="M90.5,0c-6,3.3-12,6.6-18,10c-8.6,4.9-17.3,9.5-26.1,13.8c-3.6,1.8-7.3,3.6-11.2,4.8c-4.4,1.3-8.5,3-13,4
		c-4.1,0.9-8.1,2-12.4,1.9c-0.3,0-0.7,0-1,0.1c-2.7,1.3-5.5,0.7-8.3,0.9c0-11.8,0-23.7,0-35.5C30.5,0,60.5,0,90.5,0z"/>
	<path class="st1" d="M430.5,606.5c-1.1-1.6-2.4-3.2-3.4-4.9c-3.1-5.5-6.7-10.7-9.9-16.1c-2.6-4.4-5.2-8.7-7.7-13.1
		c-2.6-4.6-4.9-9.5-6.2-14.6c-0.9-3.6-1.2-7.4-0.9-11.1c0.2-2.6,0.4-5.2,1.3-7.8c1.8-5.1,5.1-8.4,10-10.4c3.9-1.6,7.8-2.7,12-2.4
		c1.6,0.1,3.2,0,4.7,0C430.5,552.8,430.5,579.7,430.5,606.5z"/>
	<path class="st1" d="M430.5,21c-3.6-3.2-7.6-5.8-11.8-8.3c-4.5-2.6-8.9-5.5-13.4-8.1c-2.5-1.4-4.9-3-7.4-4.6c10.8,0,21.7,0,32.5,0
		C430.5,7,430.5,14,430.5,21z"/>
	<path class="st1" d="M265.5,632.7c-0.6-3.5,1-7.3,1.2-11.3c0.1-1.2,0.3-2.5,0.3-3.7c0-4.2-0.1-8.3,0-12.5c0.1-3.9-0.4-7.8-1.1-11.6
		c-0.9-5.1-2.2-10.2-3.7-15.2c-2.1-6.8-4.1-13.7-5.9-20.6c-0.8-3.3-1.8-6.7-1.8-10.3c0-0.4,0-0.9-0.1-1.2
		c-1.7-5.2-0.9-10.6-0.7-15.9c0.1-3,1-6.1,2.3-8.8c1.4-2.9,3.3-5.7,6.2-7.3c2.3-1.3,5-1.3,7.4-0.1c4.5,2.3,7.6,6.1,10,10.5
		c0.9,1.7,1.9,3.3,2.8,5c3.7,7.2,5.9,15,7.9,22.8c1.3,5.1,2.4,10.2,2.6,15.4c0.2,5.1,1.1,10.1,0.6,15.2c-0.6,5.5,0.1,11-1,16.4
		c-0.6,3-1,6-1.6,9c-0.8,3.8-1.7,7.6-2.9,11.3c-2,6.3-4.1,12.6-7.7,18.3c-0.8,1.3-1.9,2.3-2.8,3.5c-1.6,1.9-4,2.3-6,2.5
		c-1.7,0.2-3.7-0.9-4.6-2.9c-0.7-1.7-1.4-3.4-1.2-5.3C265.6,635.1,265.5,634.2,265.5,632.7z"/>
	<path class="st3" d="M101.5,489c1.5-0.6,2.8-1.6,4.5-1.5C104.8,488.9,103.2,489.1,101.5,489z"/>
	<path class="st3" d="M106.5,487.5c0.8-1.6,2.3-0.8,3.5-1C109,487.3,107.8,487.5,106.5,487.5z"/>
	<path class="st1" d="M134.5,189.6c0-3.1,0.3-6.2-0.8-9.1c-0.1-0.4-0.2-0.8-0.1-1.2c0.3-3.9-0.8-7.6-1.3-11.4
		c-0.2-1.1-0.2-2.3-0.5-3.4c-0.8-2.5-1.2-5.2-2.1-7.7c-1-2.8-1.5-5.8-2.6-8.5c-1.8-4.5-3.7-8.9-5.8-13.2c-3.5-7.1-8-13.6-13.2-19.6
		c-6.3-7.2-13.6-13-22.3-16.8c-4.6-2.1-9.2-4.2-14.5-4c-0.2,0-0.5,0-0.7-0.1c-4.3-1.1-8.5-1.4-12.7,0c-0.4,0.1-0.8,0.1-1.2,0.1
		c-2.8,0-5.3,1.1-8,1.6c-1.8,0.4-3.4,1.3-5.1,2c-4.8,1.8-9.1,4.5-13.1,7.5c-2.6,1.9-4.9,4.2-7.3,6.5c-2.6,2.5-5.2,5-7,8.1
		c-2.2,3.8-4.9,7.3-6.9,11.3c-2.7,5.4-5.3,10.7-6.8,16.5c-0.3,1.2-0.5,2.5-1.8,3.1c0,68.2,0,136.3,0,204.5c0.9,0.2,1.2,1,1.5,1.8
		c1.7,4.2,3.4,8.5,5.6,12.5c1.7,3.2,3.4,6.3,5.4,9.2c2.4,3.5,5,6.8,8,9.9c1.1,1.1,2.3,1.9,3.4,2.9c3.4,3.4,7.2,6.4,11.8,8.2
		c3.4,1.3,6.6,3,10.4,3c0.4,0,0.9,0.1,1.2,0.3c1.1,0.7,2.2,0.6,3.4,0.6c4.6,0,9.2-0.2,13.7,0.1c2.9,0.1,5.7-0.5,8.3-1.3
		c3.8-1.2,7.4-3.1,10.3-6c4.1-4,7.6-8.5,10.2-13.5c3.5-6.6,6.6-13.4,9.4-20.4c1.9-4.8,4-9.5,5.6-14.4c1.8-5.3,3.7-10.5,5.3-15.8
		c1.1-3.7,2.2-7.3,3.3-11c1.4-4.4,2.4-9,3.5-13.5c1.4-6,2.9-11.9,3.9-18c0.6-3.8,1.5-7.6,2.1-11.4c1.2-7,2.4-14.1,3.2-21.2
		c0.1-1.4,0.7-2.8,0.7-4.2c0-4.1,1.2-8,1.3-12.1c0.1-2.8,0.3-5.7,0.7-8.4c0.5-3.4,0.9-6.8,0.8-10.2c0-1.2,0-2.5,0.1-3.7
		c0.5-3.5,0.9-6.9,0.8-10.4C134.4,202.2,134.5,195.9,134.5,189.6z M115.5,245c-0.6,8.8-0.4,17.6-1.8,26.4c-1,5.9-1.8,11.8-2.8,17.7
		c-0.5,2.7-1.4,5.3-1.9,8c-0.8,4.1-2.2,8-3.3,12c-1.6,5.6-3.5,11.1-5.6,16.5c-0.9,2.5-2,5-3.2,7.3c-1.9,3.5-3.2,7.3-5.7,10.5
		c-2,2.6-3.5,5.7-5.7,8.2c-4.4,4.9-8.5,10-13.5,14.2c-3.1,2.7-6.1,5.4-9.9,7.1c-1.3,0.6-2.8,1.1-4.1,1.6c-4.2,1.3-8.3,0.8-12.5,0
		c-1-0.5-2.1-1-3.3-1.1c-1.3-0.1-2.3-1-3.3-1.7c-2.2-1.5-4.6-2.8-6.5-4.6c-3.5-3.4-7.2-6.7-9.5-11.1c-1.2-2.3-2.6-4.4-3.8-6.7
		c-1.9-3.9-3.6-7.8-4.7-12c-0.7-2.9-1.6-5.7-2.3-8.7c-0.5-2.4-0.9-4.7-1.4-7.1c-0.6-2.9-1.1-5.9-1.5-8.8c-0.5-2.9-0.9-5.7-0.8-8.7
		c0.1-1.8-0.1-3.5-0.5-5.2c-0.4-1.7-0.5-3.4-0.5-5.2c0-14.3,0-28.7,0-43c0-1.1-0.1-2.2,0.2-3.2c0.8-2.8,0.8-5.6,0.8-8.4
		c0-5.3,0.4-10.6,0.9-15.9c0.2-2.1,0.4-4.2,0.4-6.2c0-4.7,1-9.3,1.2-13.9c0.1-2.6,0.8-5.1,1.2-7.6c0.8-5.4,2-10.8,3.8-16
		c1.8-5.2,4-10.1,7.4-14.6c2.8-3.7,6.1-6.8,9.8-9.5c2.2-1.6,4.8-2.3,7.2-3.2c2.2-0.9,4.7-0.5,6.8-1.1c4.2-1.3,8.4-0.6,12.6-0.8
		c1.2-0.1,2.3-0.1,3.4,0.6c0.6,0.4,1.3,0.5,1.9,0.4c3-0.5,5.7,0.7,8.5,1.2c2.6,0.5,5,1.7,7.4,2.8c7.9,3.6,14.4,9,19.2,16.2
		c2.5,3.7,4.5,7.7,5.9,12.1c1.1,3.5,2.1,7,3.3,10.4c0.6,1.6,0.7,3.3,1,4.9c0.6,3.2,1.6,6.3,2,9.5c0.4,2.9,0.7,5.9,1.2,8.9
		c0.7,3.9,1.2,7.9,1.2,11.9C114.9,234.2,115.9,239.6,115.5,245z"/>
	<path class="st4" d="M45.5,374.5c4.2,0,8.3,0,12.5,0c-2.9,2.1-6.1,1.6-9.3,1.2C47.6,375.5,46.6,374.9,45.5,374.5z"/>
	<path class="st1" d="M70.5,743.8c0-0.6,0-1.2,0-1.7c-0.1-7.8,2-15.1,6-21.8c1.5-2.5,3.2-4.9,5.1-7.1c4.5-5.2,8.6-10.8,13.5-15.7
		c3-3,6-6,9.8-8c2.6-1.4,3.9-1.1,5.3,1.4c2.2,3.8,3.7,7.9,4.6,12.1c0.6,3.1,0.8,6.4-0.4,9.6c-0.4,1.2-0.6,2.4-1,3.6
		c-1.7,4.6-4.8,8.3-7.6,12.2c-4.2,5.7-8.6,11.2-12.7,17c-2.1,2.9-4.4,5.7-6.4,8.6c-1.3,1.9-3.1,3.4-5,4.5c-3.3,1.8-8.5,1.1-10-3.7
		c-0.4-1.3-0.9-2.5-1-3.8C70.4,748.4,70.5,746.1,70.5,743.8C70.5,743.8,70.5,743.8,70.5,743.8z"/>
	<path class="st1" d="M332.5,149c0.2-5.4-0.6-10.6-1.7-15.8c-1.2-5.6-2.9-11.1-5.1-16.4c-1.4-3.4-3.5-6.4-5.5-9.5
		c-1.3-2.1-2.8-4.1-4.5-5.9c-1.3-1.4-2.9-2.5-4.3-3.8c-2.7-2.5-5.8-4.1-9.1-5.6c-2.3-1.1-4.7-2.1-7.4-2c-0.5,0-1.2-0.2-1.7-0.4
		c-0.9-0.5-1.9-0.5-2.9-0.5c-2.4,0-4.7,0.2-7.1,0.8c-2.5,0.7-5,1.1-7.3,2.3c-3.4,1.7-7.2,2.7-10,5.5c-0.2,0.2-0.6,0.3-0.9,0.5
		c-4.4,2.5-8,6-11.5,9.5c-3.8,3.8-7.3,7.9-10.3,12.4c-3.1,4.8-6.3,9.6-9.3,14.5c-2.6,4.4-4.7,9-6.6,13.7c-2.2,5.4-3.8,11-5,16.7
		c-0.6,2.9-1.1,5.9-1.6,8.8c-0.4,2.4-0.8,4.7-0.8,7.1c0,0.4-0.1,0.8-0.1,1.2c-0.6,5.4-1.4,10.9-1.4,16.4c0.1,8.8,0,17.7,0,29
		c0.4,11.3-0.7,25.1,0.9,38.9c0.6,5.1,0.9,10.2,1.8,15.3c0.9,5,1.9,9.9,3.2,14.8c1.5,5.4,3.5,10.5,6.1,15.5c1.7,3.4,3.9,6.4,6.6,9
		c2.8,2.7,6.2,4.9,10.1,5.7c3.4,0.8,6.7,1.7,10.3,1.9c3.9,0.2,7.6-0.8,11.3-1.7c3.9-1,7.2-3,10.1-5.7c5.1-4.7,8.6-10.6,11.4-16.8
		c2.5-5.5,4.5-11.2,6.3-17c0.4-1.4,1-2.7,1.2-4.1c0.7-3.8,2.1-7.5,3.1-11.3c1.2-4.7,2.6-9.5,3.9-14.2c1.7-6.1,3.3-12.2,5.3-18.2
		c2.6-7.8,5.1-15.6,7.8-23.4c2.2-6.1,4.5-12.2,6.6-18.3c1.4-4,2.7-8,3.8-12.1c1.2-4.6,2.2-9.3,2.9-14.1c0.7-5.2,1.5-10.4,1.3-15.6
		C332.4,153.8,332.4,151.4,332.5,149z M312.8,144c-0.9,5.3-2.7,10.5-4.1,15.7c-0.8,2.9-2,5.8-3.2,8.6c-0.4,1.1-0.5,2.3-0.9,3.4
		c-2.7,7-5,14.1-7.3,21.1c-2,6-3.6,12.1-5.5,18.1c-1.8,5.9-3.5,11.8-4.9,17.8c-1,4.1-2.2,8.1-3.2,12.3c-1.3,5.6-3.3,11.2-5.4,16.6
		c-1.4,3.7-3.3,7-5.7,10.2c-4.1,5.4-10.2,5.4-15.6,2.4c-4.3-2.4-7.4-5.9-9.8-10.3c-3.3-5.8-4.5-12-5.5-18.5
		c-0.9-5.7-0.7-11.4-0.8-16.4c0-3.3,0.1-5.9,0-8.5c-0.1-2.9,0.2-5.7,0.6-8.4c0.6-4,0.4-8,0.4-12c-0.1-7.2,0.3-14.3,1.4-21.4
		c0.2-1,0.1-2,0.1-3c0-1.4,0.2-2.7,0.7-4.1c0.6-1.6,0.6-3.4,0.8-5.1c0.6-4.2,1.6-8.3,2.7-12.4c1.2-4.4,2.7-8.7,4.3-13
		c2.5-6.8,6.1-12.9,10.3-18.7c2.6-3.6,5.8-6.7,9.6-9c4.1-2.5,8.7-4.3,13.6-4.4c2.9-0.1,5.9,0.6,8.7,1.9c3.5,1.7,7.2,3.1,10.1,5.7
		c5.9,5.3,9.8,11.7,9.8,19.9C314.1,136.3,313.5,140.2,312.8,144z"/>
	<path class="st1" d="M80.5,251.9c0.3,6.3-0.4,12.8-1.3,19.3c-0.7,4.8-1.6,9.6-2.8,14.4c-1.8,7.2-4.1,14.3-7.1,21.2
		c-1.3,3-2.8,6-4.7,8.8c-1.1,1.6-2.5,2.4-4.3,2.5c-2.2,0.1-4.4,0.3-6.5,0c-3.7-0.5-6.9-2-9-5.4c-4.3-6.9-6.4-14.5-7.8-22.4
		c-0.9-5.2-1.2-10.4-1.3-15.6c-0.1-4.8,0.3-9.6,1.1-14.4c0.5-2.6,1.1-5.2,1.4-7.8c0.4-3.6,2-6.9,3.1-10.3c1.6-5,4-9.7,6.8-14.1
		c2.8-4.5,6.9-7.3,11.8-9.2c1.8-0.7,3.6-1.3,5.4-1.9c2.2-0.6,4.5-0.6,6.7-0.1c1.8,0.4,3.3,1.7,4,3.5c0.9,2.4,2,4.7,2.2,7.4
		c0.2,2,0.7,4.1,1.1,6.1C80.4,239.6,80.6,245.6,80.5,251.9z"/>
	<path class="st1" d="M254.5,195.5c-0.1-4.2,0.3-8.3,0.8-12.4c0.5-3.6,1-7.2,1.8-10.8c1.1-5,3.1-9.6,5.4-14.1
		c2-3.8,4.4-7.2,7.2-10.4c1.7-2,3.3-4.1,5.3-5.9c4-3.9,8.3-7.1,13.5-9.2c1.2-0.5,2.4-0.8,3.6-1c3-0.5,5.1,1.7,4.9,4.7
		c-0.4,4.6-1.7,8.9-3.4,13.2c-2,5.3-3.9,10.6-6,15.8c-1.8,4.4-3.6,8.8-5.2,13.2c-3.1,8.5-7.1,16.6-11.4,24.6
		c-1.7,3.2-4.1,6.1-6.4,8.9c-0.5,0.6-1.1,1-1.7,1.4c-3.4,2.4-6,1.5-6.9-2.5c-0.8-3.6-1.7-7.3-1.6-11.1
		C254.5,198.5,254.5,197,254.5,195.5z"/>
</g>
<g id="Raspeeganhe">
	<g>
		<path class="st5" d="M205.5,414.3l-85,5.9v51.1l190,8.4V407l-80.8,5.6l-1.5,3.8l78.5-5.3v64.7l-182.5-7.9v-44.4l81.6-5.5
			c-0.2-0.3-0.3-0.5-0.3-0.7C205.4,416.7,205.4,415.7,205.5,414.3z"/>
	</g>
	<path class="st6" d="M265.2,459.4v-29.2h21.7v6.4h-13.5v5h12.4v6.4h-12.4v5h13.5v6.4H265.2z"/>
	<path class="st6" d="M234.1,459.4v-29.2h8.2v11.4h10.8v-11.4h8.2v29.2h-8.2V448h-10.8v11.4H234.1z"/>
	<path class="st6" d="M230.2,430.2v29.2h-6.8L212.6,444h-0.2v15.3h-8.2v-29.2h6.9l10.7,15.3h0.2v-15.3H230.2z"/>
	<path class="st6" d="M179.1,459.4h-8.8l9.9-29.2h11.2l9.9,29.2h-8.8l-6.6-21.2h-0.2L179.1,459.4z M177.4,447.9H194v5.9h-16.6V447.9
		z"/>
	<path class="st6" d="M159.8,439.8c-0.1-0.5-0.3-0.9-0.6-1.3c-0.3-0.4-0.6-0.7-1-1c-0.4-0.3-0.9-0.5-1.4-0.6
		c-0.5-0.1-1.1-0.2-1.7-0.2c-1.4,0-2.5,0.3-3.5,1c-1,0.6-1.7,1.6-2.2,2.8c-0.5,1.2-0.7,2.6-0.7,4.3c0,1.7,0.2,3.2,0.7,4.4
		c0.5,1.2,1.2,2.1,2.1,2.8c1,0.6,2.1,1,3.5,1c1.2,0,2.3-0.2,3.1-0.5c0.8-0.4,1.5-0.9,1.9-1.5c0.4-0.6,0.6-1.4,0.6-2.3l1.4,0.1H155
		v-5.6h13.3v4.1c0,2.7-0.6,4.9-1.7,6.8c-1.2,1.9-2.8,3.3-4.8,4.3c-2,1-4.4,1.5-7,1.5c-2.9,0-5.5-0.6-7.7-1.8
		c-2.2-1.2-3.9-2.9-5.2-5.2c-1.2-2.2-1.9-4.9-1.9-8c0-2.4,0.4-4.6,1.1-6.4c0.8-1.9,1.8-3.4,3.2-4.7c1.4-1.3,2.9-2.3,4.7-2.9
		c1.8-0.7,3.7-1,5.7-1c1.8,0,3.4,0.2,5,0.7c1.5,0.5,2.9,1.2,4.1,2.1c1.2,0.9,2.1,2,2.9,3.2c0.7,1.2,1.2,2.6,1.3,4H159.8z"/>
	<path class="st7" d="M264.2,397.8v-33h23.7v6.5h-15.5v6.8h14.3v6.5h-14.3v6.8h15.5v6.5H264.2z"/>
	<path class="st7" d="M233.7,397.8v-33h14c2.5,0,4.7,0.5,6.6,1.5c1.9,1,3.3,2.3,4.3,4c1,1.7,1.5,3.7,1.5,6c0,2.3-0.5,4.3-1.5,6
		c-1,1.7-2.5,3-4.4,3.9c-1.9,0.9-4.1,1.4-6.7,1.4h-8.7v-6.3h7.1c1.2,0,2.3-0.2,3.1-0.6c0.8-0.4,1.5-1,1.9-1.8
		c0.4-0.8,0.6-1.6,0.6-2.7c0-1-0.2-1.9-0.6-2.6c-0.4-0.8-1.1-1.3-1.9-1.7c-0.8-0.4-1.9-0.6-3.1-0.6h-4.1v26.6H233.7z"/>
	<path class="st8" d="M219.7,372c0.9,0.7,1.4,1.6,1.5,2.8h7.9c0-2.1-0.6-3.9-1.6-5.4c-1.1-1.6-2.6-2.8-4.5-3.6
		c-1.9-0.9-4.2-1.3-6.9-1.3c-2.6,0-4.9,0.4-6.9,1.3c-2,0.9-3.6,2.1-4.7,3.6c-1.1,1.5-1.7,3.3-1.7,5.4c0,2.5,0.8,4.5,2.5,6
		c1.7,1.5,4,2.5,7,3.2l3.6,0.8c1.2,0.3,2.3,0.6,3.1,0.9c0.8,0.3,1.4,0.7,1.8,1.2c0.4,0.4,0.6,1,0.6,1.6c0,0.7-0.2,1.3-0.6,1.8
		c-0.4,0.5-1,0.9-1.8,1.2c-0.8,0.3-1.7,0.4-2.8,0.4c-1.2,0-2.3-0.2-3.2-0.5c-0.9-0.4-1.6-0.9-2.1-1.6c-0.5-0.7-0.8-1.6-0.9-2.7h-7.9
		c0,2.6,0.6,4.7,1.8,6.4c1.2,1.7,2.8,2.9,4.9,3.8c0.3,0.1,0.7,0.2,1,0.4c0.7-1.6,2.6-3.9,6.6-3.9c3.8,0,6,2.1,6.9,3.7
		c0,0,0.1,0,0.1,0c2-0.8,3.6-1.9,4.6-3.4c1.1-1.5,1.6-3.3,1.6-5.4c0-1.3-0.2-2.5-0.7-3.6c-0.5-1.1-1.1-2-2-2.8
		c-0.9-0.8-2-1.5-3.3-2.1c-1.3-0.6-2.8-1.1-4.4-1.4l-2.9-0.6c-0.8-0.2-1.5-0.3-2.1-0.6c-0.6-0.2-1.2-0.5-1.6-0.7
		c-0.4-0.3-0.8-0.6-1-1c-0.2-0.4-0.3-0.8-0.3-1.3c0-0.6,0.2-1.1,0.5-1.6c0.4-0.5,0.9-0.8,1.6-1.1c0.7-0.3,1.6-0.4,2.7-0.4
		C217.6,371,218.8,371.3,219.7,372z"/>
	<path class="st7" d="M175.1,397.8h-8.8l11.5-33h10.9l11.5,33h-8.8l-8-24.7h-0.3L175.1,397.8z M173.9,384.8h18.5v6.1h-18.5V384.8z"
		/>
	<path class="st7" d="M136.8,397.8v-33h14c2.5,0,4.7,0.4,6.6,1.3c1.9,0.9,3.3,2.1,4.3,3.8c1,1.6,1.5,3.6,1.5,5.8
		c0,2.3-0.5,4.2-1.5,5.8c-1,1.6-2.5,2.8-4.4,3.6c-1.9,0.8-4.1,1.2-6.7,1.2h-8.9v-6.3h7.4c1.2,0,2.3-0.2,3.1-0.5
		c0.8-0.3,1.5-0.8,1.9-1.5c0.4-0.7,0.6-1.5,0.6-2.5c0-1-0.2-1.9-0.6-2.5c-0.4-0.7-1.1-1.2-1.9-1.5c-0.8-0.3-1.9-0.5-3.1-0.5H145
		v26.6H136.8z M156,382.7l8.5,15.1h-9l-8.3-15.1H156z"/>
	<path class="st6" d="M215.6,419.4c-1.7,0-3.1-0.3-4.3-0.9s-2.1-1.3-2.8-2.3c-0.6-1-1-2-1-3.2c0-0.8,0.2-1.6,0.5-2.2
		c0.3-0.7,0.8-1.3,1.4-1.8c0.6-0.5,1.3-1.1,2.1-1.6l5.3-3.2c0.5-0.3,0.9-0.7,1.1-1c0.2-0.4,0.3-0.7,0.3-0.9c0-0.4-0.1-0.7-0.4-1
		c-0.3-0.3-0.7-0.4-1.3-0.4c-0.4,0-0.7,0.1-0.9,0.2c-0.3,0.1-0.5,0.3-0.6,0.5c-0.1,0.2-0.2,0.5-0.2,0.8c0,0.4,0.1,0.9,0.4,1.3
		c0.3,0.4,0.6,0.9,1.1,1.5c0.4,0.5,1,1.1,1.5,1.8l11.3,12h-6.3l-9.4-9.7c-0.5-0.5-1-1.1-1.5-1.8c-0.6-0.7-1-1.5-1.5-2.4
		c-0.4-0.9-0.6-1.8-0.6-2.9c0-1.1,0.3-2.2,0.9-3.1c0.6-0.9,1.4-1.7,2.4-2.3c1-0.6,2.2-0.8,3.6-0.8c1.3,0,2.4,0.3,3.4,0.8
		c0.9,0.5,1.7,1.2,2.2,2.1c0.5,0.9,0.8,1.8,0.8,2.9c0,1.1-0.3,2-0.8,2.9c-0.5,0.9-1.3,1.7-2.3,2.4l-4.8,3.3c-0.4,0.3-0.7,0.5-1,0.9
		c-0.3,0.3-0.4,0.7-0.4,1.3c0,0.4,0.1,0.8,0.3,1.1c0.2,0.3,0.5,0.5,0.9,0.7c0.4,0.2,0.8,0.2,1.3,0.2c0.8,0,1.5-0.2,2.3-0.5
		c0.8-0.4,1.5-0.9,2.1-1.5c0.6-0.7,1.2-1.4,1.5-2.3c0.4-0.9,0.6-1.9,0.6-3h5c0,1.3-0.1,2.6-0.4,3.8c-0.3,1.2-0.7,2.3-1.4,3.3
		c-0.6,1-1.4,1.9-2.5,2.5c-0.3,0.2-0.6,0.3-0.9,0.4c-0.3,0.1-0.6,0.3-0.9,0.4c-0.9,0.6-1.9,1-2.9,1.2
		C217.6,419.3,216.6,419.4,215.6,419.4z"/>
</g>
</svg>
