<svg width="48" height="42" viewBox="0 0 48 42" fill="none" xmlns="http://www.w3.org/2000/svg">
<path d="M4 5.46875C4 4.94661 4.21071 4.44585 4.58579 4.07663C4.96086 3.70742 5.46957 3.5 6 3.5H42C42.5304 3.5 43.0391 3.70742 43.4142 4.07663C43.7893 4.44585 44 4.94661 44 5.46875V33.0312C44 33.5534 43.7893 34.0542 43.4142 34.4234C43.0391 34.7926 42.5304 35 42 35H6C5.46957 35 4.96086 34.7926 4.58579 34.4234C4.21071 34.0542 4 33.5534 4 33.0312V5.46875Z" stroke="#F27237" stroke-width="4" stroke-linejoin="round"/>
<path d="M4 11.375H44" stroke="#F27237" stroke-width="4" stroke-linecap="square" stroke-linejoin="round"/>
<path d="M32.3617 28.8542V18.147H39.3394V20.0134H34.5898V22.5647H38.8763V24.4312H34.5898V28.8542H32.3617Z" fill="#F27237" stroke="#F27237"/>
<path d="M21.5306 28.8532V18.146H25.6885C26.4878 18.146 27.1687 18.3011 27.7314 18.6113C28.294 18.918 28.7228 19.345 29.0178 19.8922C29.3163 20.4359 29.4655 21.0633 29.4655 21.7743C29.4655 22.4853 29.3146 23.1127 29.0127 23.6565C28.7108 24.2002 28.2734 24.6237 27.7005 24.9269C27.131 25.2301 26.4415 25.3817 25.6319 25.3817H22.9818V23.5676H25.2717C25.7005 23.5676 26.0538 23.4926 26.3317 23.3428C26.613 23.1894 26.8223 22.9785 26.9595 22.7102C27.1001 22.4383 27.1705 22.1263 27.1705 21.7743C27.1705 21.4188 27.1001 21.1086 26.9595 20.8437C26.8223 20.5753 26.613 20.368 26.3317 20.2216C26.0504 20.0717 25.6936 19.9968 25.2614 19.9968H23.7588V28.8532H21.5306Z" fill="#F27237" stroke="#F27237"/>
<path d="M18.4838 21.895H16.2299C16.1887 21.5987 16.1047 21.3356 15.9777 21.1055C15.8508 20.872 15.6879 20.6733 15.4889 20.5095C15.2899 20.3457 15.0601 20.2202 14.7993 20.1331C14.5421 20.0459 14.2625 20.0024 13.9606 20.0024C13.4151 20.0024 12.94 20.1401 12.5352 20.4154C12.1304 20.6873 11.8165 21.0846 11.5935 21.6074C11.3705 22.1267 11.259 22.7576 11.259 23.5C11.259 24.2633 11.3705 24.9046 11.5935 25.424C11.8199 25.9433 12.1355 26.3354 12.5403 26.6003C12.9451 26.8652 13.4134 26.9976 13.9451 26.9976C14.2436 26.9976 14.5198 26.9575 14.7736 26.8774C15.0309 26.7972 15.259 26.6804 15.458 26.5271C15.657 26.3702 15.8216 26.1803 15.952 25.9572C16.0858 25.7342 16.1784 25.4797 16.2299 25.1939L18.4838 25.2044C18.4254 25.6958 18.2796 26.1698 18.0464 26.6264C17.8165 27.0795 17.506 27.4856 17.115 27.8446C16.7273 28.2001 16.2642 28.4824 15.7256 28.6915C15.1904 28.8972 14.5849 29 13.9091 29C12.9691 29 12.1287 28.7839 11.3877 28.3517C10.6501 27.9195 10.0669 27.2939 9.63808 26.4748C9.21269 25.6557 9 24.6641 9 23.5C9 22.3324 9.21612 21.339 9.64837 20.52C10.0806 19.7009 10.6672 19.077 11.4082 18.6483C12.1492 18.2161 12.9829 18 13.9091 18C14.5198 18 15.0858 18.0871 15.6072 18.2614C16.1321 18.4357 16.597 18.6901 17.0018 19.0247C17.4066 19.3558 17.7359 19.7619 17.9898 20.2429C18.247 20.7239 18.4117 21.2746 18.4838 21.895Z" fill="#F27237" stroke="#F27237"/>
</svg>
