<svg width="17" height="16" viewBox="0 0 17 16" fill="none" xmlns="http://www.w3.org/2000/svg">
<path d="M11.7646 11.9999C11.0246 11.9999 10.4313 12.5933 10.4313 13.3333C10.4313 13.6869 10.5718 14.026 10.8218 14.2761C11.0719 14.5261 11.411 14.6666 11.7646 14.6666C12.1182 14.6666 12.4574 14.5261 12.7074 14.2761C12.9575 14.026 13.098 13.6869 13.098 13.3333C13.098 12.9796 12.9575 12.6405 12.7074 12.3904C12.4574 12.1404 12.1182 11.9999 11.7646 11.9999ZM1.09796 1.33325V2.66659H2.43129L4.83129 7.72658L3.92463 9.35992C3.82463 9.54659 3.76463 9.76658 3.76463 9.99992C3.76463 10.3535 3.9051 10.6927 4.15515 10.9427C4.4052 11.1928 4.74434 11.3333 5.09796 11.3333H13.098V9.99992H5.37796C5.33376 9.99992 5.29137 9.98236 5.26011 9.9511C5.22885 9.91985 5.21129 9.87745 5.21129 9.83325C5.21129 9.79992 5.21796 9.77325 5.23129 9.75325L5.83129 8.66658H10.798C11.298 8.66658 11.738 8.38659 11.9646 7.97992L14.3513 3.66659C14.398 3.55992 14.4313 3.44659 14.4313 3.33325C14.4313 3.15644 14.3611 2.98687 14.236 2.86185C14.111 2.73682 13.9414 2.66659 13.7646 2.66659H3.90463L3.27796 1.33325M5.09796 11.9999C4.35796 11.9999 3.76463 12.5933 3.76463 13.3333C3.76463 13.6869 3.9051 14.026 4.15515 14.2761C4.4052 14.5261 4.74434 14.6666 5.09796 14.6666C5.45158 14.6666 5.79072 14.5261 6.04077 14.2761C6.29082 14.026 6.43129 13.6869 6.43129 13.3333C6.43129 12.9796 6.29082 12.6405 6.04077 12.3904C5.79072 12.1404 5.45158 11.9999 5.09796 11.9999Z" fill="#FF5101"/>
</svg>
