<svg width="21" height="21" viewBox="0 0 21 21" fill="none" xmlns="http://www.w3.org/2000/svg">
<path d="M12.41 9.99994L20.7 1.70994C20.8638 1.51864 20.9494 1.27256 20.9397 1.02089C20.93 0.769212 20.8256 0.530473 20.6475 0.352378C20.4694 0.174284 20.2307 0.0699509 19.979 0.0602298C19.7274 0.0505086 19.4813 0.136115 19.29 0.299942L11 8.58994L2.70997 0.289941C2.52167 0.101638 2.26627 -0.00415039 1.99997 -0.00415039C1.73367 -0.00415039 1.47828 0.101638 1.28997 0.289941C1.10167 0.478245 0.995881 0.73364 0.995881 0.999941C0.995881 1.26624 1.10167 1.52164 1.28997 1.70994L9.58997 9.99994L1.28997 18.2899C1.18529 18.3796 1.10027 18.4899 1.04025 18.614C0.980225 18.738 0.946494 18.8732 0.941175 19.0109C0.935855 19.1486 0.959061 19.2859 1.00934 19.4143C1.05961 19.5426 1.13587 19.6591 1.23332 19.7566C1.33078 19.854 1.44733 19.9303 1.57565 19.9806C1.70398 20.0309 1.84131 20.0541 1.97903 20.0487C2.11675 20.0434 2.25188 20.0097 2.37594 19.9497C2.50001 19.8896 2.61033 19.8046 2.69997 19.6999L11 11.4099L19.29 19.6999C19.4813 19.8638 19.7274 19.9494 19.979 19.9397C20.2307 19.9299 20.4694 19.8256 20.6475 19.6475C20.8256 19.4694 20.93 19.2307 20.9397 18.979C20.9494 18.7273 20.8638 18.4812 20.7 18.2899L12.41 9.99994Z" fill="white"/>
</svg>
