<svg width="41" height="41" viewBox="0 0 41 41" fill="none" xmlns="http://www.w3.org/2000/svg">
<path d="M3.41675 8.54167C3.41675 7.63551 3.77672 6.76647 4.41747 6.12572C5.05822 5.48497 5.92726 5.125 6.83341 5.125H17.0834V35.875H6.83341C5.92726 35.875 5.05822 35.515 4.41747 34.8743C3.77672 34.2335 3.41675 33.3645 3.41675 32.4583V8.54167ZM23.9167 5.125H34.1667C35.0729 5.125 35.9419 5.48497 36.5827 6.12572C37.2234 6.76647 37.5834 7.63551 37.5834 8.54167V17.0833H23.9167V5.125ZM23.9167 23.9167H37.5834V32.4583C37.5834 33.3645 37.2234 34.2335 36.5827 34.8743C35.9419 35.515 35.0729 35.875 34.1667 35.875H23.9167V23.9167Z" stroke="white" stroke-width="3" stroke-linecap="round" stroke-linejoin="round"/>
</svg>
