<svg width="32" height="32" viewBox="0 0 32 32" fill="none" xmlns="http://www.w3.org/2000/svg">
<path d="M4 17.3333C8.8 6.66665 23.2 6.66665 28 17.3333" stroke="white" stroke-width="1.5" stroke-linecap="round" stroke-linejoin="round"/>
<path d="M16 22.6666C15.4747 22.6666 14.9546 22.5632 14.4693 22.3621C13.984 22.1611 13.543 21.8665 13.1716 21.4951C12.8001 21.1236 12.5055 20.6827 12.3045 20.1974C12.1035 19.7121 12 19.1919 12 18.6666C12 18.1413 12.1035 17.6212 12.3045 17.1359C12.5055 16.6506 12.8001 16.2096 13.1716 15.8382C13.543 15.4668 13.984 15.1721 14.4693 14.9711C14.9546 14.7701 15.4747 14.6666 16 14.6666C17.0609 14.6666 18.0783 15.0881 18.8284 15.8382C19.5786 16.5883 20 17.6058 20 18.6666C20 19.7275 19.5786 20.7449 18.8284 21.4951C18.0783 22.2452 17.0609 22.6666 16 22.6666Z" fill="white" stroke="white" stroke-width="1.5" stroke-linecap="round" stroke-linejoin="round"/>
</svg>
