<svg width="31" height="29" viewBox="0 0 31 29" fill="none" xmlns="http://www.w3.org/2000/svg">
<path d="M28.7023 1.97626C28.1466 1.35117 27.393 1 26.6073 1L3.96288 0.999999C3.1771 0.999999 2.42349 1.35117 1.86786 1.97626C1.31222 2.60135 1.00007 3.44915 1.00007 4.33317L1.00007 10.5233L29.5701 10.5233L29.5701 4.33317C29.5701 3.44916 29.2579 2.60135 28.7023 1.97626Z" stroke="#181945" stroke-linecap="round" stroke-linejoin="round"/>
<path d="M1.86779 26.689C2.42342 27.3141 3.17703 27.6653 3.96281 27.6653L26.6072 27.6653C27.393 27.6653 28.1466 27.3141 28.7022 26.689C29.2578 26.0639 29.57 25.2161 29.57 24.3321L29.57 18.1419L1 18.1419L1 24.3321C1 25.2161 1.31215 26.0639 1.86779 26.689Z" stroke="#181945" stroke-linecap="round" stroke-linejoin="round"/>
</svg>
