<svg width="53" height="53" viewBox="0 0 53 53" fill="none" xmlns="http://www.w3.org/2000/svg">
<path d="M38.2925 12.0575C37.7684 12.0575 37.256 12.2129 36.8202 12.5041C36.3844 12.7953 36.0448 13.2091 35.8442 13.6933C35.6436 14.1776 35.5912 14.7104 35.6934 15.2244C35.7957 15.7385 36.0481 16.2107 36.4187 16.5813C36.7893 16.9519 37.2615 17.2043 37.7755 17.3065C38.2896 17.4088 38.8224 17.3563 39.3066 17.1557C39.7908 16.9552 40.2047 16.6155 40.4959 16.1797C40.7871 15.7439 40.9425 15.2316 40.9425 14.7075C40.9425 14.0046 40.6633 13.3306 40.1663 12.8336C39.6694 12.3367 38.9953 12.0575 38.2925 12.0575ZM48.4508 17.4016C48.4079 15.5694 48.0647 13.7566 47.435 12.0354C46.8735 10.5627 45.9995 9.2292 44.8733 8.12663C43.7798 6.99469 42.4432 6.12627 40.9646 5.58704C39.2479 4.93815 37.4331 4.58713 35.5983 4.54913C33.2575 4.41663 32.5067 4.41663 26.5 4.41663C20.4933 4.41663 19.7425 4.41663 17.4017 4.54913C15.5669 4.58713 13.752 4.93815 12.0354 5.58704C10.5595 6.13172 9.22405 6.99941 8.12666 8.12663C6.99472 9.22014 6.1263 10.5568 5.58707 12.0354C4.93818 13.752 4.58716 15.5668 4.54916 17.4016C4.41666 19.7425 4.41666 20.4933 4.41666 26.5C4.41666 32.5066 4.41666 33.2575 4.54916 35.5983C4.58716 37.4331 4.93818 39.2479 5.58707 40.9645C6.1263 42.4432 6.99472 43.7798 8.12666 44.8733C9.22405 46.0005 10.5595 46.8682 12.0354 47.4129C13.752 48.0618 15.5669 48.4128 17.4017 48.4508C19.7425 48.5833 20.4933 48.5833 26.5 48.5833C32.5067 48.5833 33.2575 48.5833 35.5983 48.4508C37.4331 48.4128 39.2479 48.0618 40.9646 47.4129C42.4432 46.8737 43.7798 46.0052 44.8733 44.8733C46.0045 43.7748 46.8792 42.4401 47.435 40.9645C48.0647 39.2434 48.4079 37.4306 48.4508 35.5983C48.4508 33.2575 48.5833 32.5066 48.5833 26.5C48.5833 20.4933 48.5833 19.7425 48.4508 17.4016ZM44.4758 35.3333C44.4597 36.7351 44.2059 38.124 43.725 39.4408C43.3724 40.4018 42.8061 41.2702 42.0687 41.9804C41.3525 42.7102 40.4859 43.2754 39.5292 43.6366C38.2123 44.1175 36.8234 44.3714 35.4217 44.3875C33.2133 44.4979 32.3962 44.52 26.5883 44.52C20.7804 44.52 19.9633 44.52 17.755 44.3875C16.2995 44.4147 14.8501 44.1906 13.4708 43.725C12.5561 43.3453 11.7292 42.7815 11.0417 42.0687C10.3087 41.3593 9.74944 40.4902 9.40749 39.5291C8.86834 38.1934 8.5693 36.773 8.52416 35.3333C8.52416 33.125 8.39166 32.3079 8.39166 26.5C8.39166 20.692 8.39166 19.875 8.52416 17.6666C8.53406 16.2335 8.79567 14.8133 9.29707 13.4708C9.68584 12.5387 10.2826 11.7078 11.0417 11.0416C11.7126 10.2823 12.5418 9.6793 13.4708 9.27496C14.8169 8.78922 16.2357 8.53534 17.6667 8.52413C19.875 8.52413 20.6921 8.39163 26.5 8.39163C32.3079 8.39163 33.125 8.39163 35.3333 8.52413C36.7351 8.5402 38.124 8.79409 39.4408 9.27496C40.4444 9.6474 41.3451 10.2529 42.0687 11.0416C42.7924 11.72 43.3579 12.5493 43.725 13.4708C44.2158 14.8155 44.4698 16.2351 44.4758 17.6666C44.5862 19.875 44.6083 20.692 44.6083 26.5C44.6083 32.3079 44.5862 33.125 44.4758 35.3333ZM26.5 15.1712C24.2603 15.1756 22.0722 15.8437 20.2121 17.0912C18.352 18.3386 16.9034 20.1095 16.0493 22.1799C15.1953 24.2504 14.9741 26.5275 15.4137 28.7236C15.8533 30.9197 16.934 32.9362 18.5192 34.5184C20.1045 36.1005 22.1231 37.1773 24.3201 37.6126C26.517 38.048 28.7937 37.8223 30.8625 36.9642C32.9313 36.1061 34.6993 34.6541 35.9431 32.7916C37.187 30.9291 37.8508 28.7396 37.8508 26.5C37.8537 25.0096 37.562 23.5333 36.9923 22.1561C36.4226 20.7788 35.5863 19.5278 34.5314 18.475C33.4765 17.4221 32.2239 16.5882 30.8455 16.0213C29.4672 15.4543 27.9904 15.1654 26.5 15.1712ZM26.5 33.8537C25.0456 33.8537 23.6238 33.4224 22.4145 32.6144C21.2051 31.8063 20.2626 30.6578 19.706 29.3141C19.1494 27.9704 19.0038 26.4918 19.2875 25.0653C19.5713 23.6388 20.2717 22.3285 21.3001 21.3001C22.3285 20.2716 23.6389 19.5713 25.0653 19.2875C26.4918 19.0038 27.9704 19.1494 29.3141 19.706C30.6579 20.2626 31.8064 21.2051 32.6144 22.4144C33.4225 23.6238 33.8537 25.0455 33.8537 26.5C33.8537 27.4657 33.6635 28.4219 33.294 29.3141C32.9244 30.2063 32.3827 31.017 31.6999 31.6998C31.017 32.3827 30.2063 32.9244 29.3141 33.2939C28.422 33.6635 27.4657 33.8537 26.5 33.8537Z" fill="#FF5101"/>
</svg>
