<svg width="67" height="67" viewBox="0 0 67 67" fill="none" xmlns="http://www.w3.org/2000/svg">
<path d="M33.4999 61.4167C48.9179 61.4167 61.4166 48.918 61.4166 33.5C61.4166 18.0821 48.9179 5.58337 33.4999 5.58337C18.082 5.58337 5.58325 18.0821 5.58325 33.5C5.58325 48.918 18.082 61.4167 33.4999 61.4167Z" stroke="#181945" stroke-width="4" stroke-linecap="round"/>
<path d="M22.001 45.3478C23.3773 44.1558 25.1891 43.296 27.1432 42.7321C29.2122 42.1533 31.3515 41.8649 33.4999 41.875C35.6941 41.875 37.8828 42.1626 39.8565 42.7321C41.8106 43.296 43.6252 44.1558 44.9987 45.3478" stroke="#181945" stroke-width="4" stroke-linecap="round"/>
<path d="M25.1248 31.4063C27.0521 31.4063 28.6144 29.844 28.6144 27.9167C28.6144 25.9895 27.0521 24.4271 25.1248 24.4271C23.1976 24.4271 21.6353 25.9895 21.6353 27.9167C21.6353 29.844 23.1976 31.4063 25.1248 31.4063Z" fill="#181945" stroke="#181945" stroke-width="0.5" stroke-linecap="round"/>
<path d="M41.8748 31.4063C43.8021 31.4063 45.3644 29.844 45.3644 27.9167C45.3644 25.9895 43.8021 24.4271 41.8748 24.4271C39.9476 24.4271 38.3853 25.9895 38.3853 27.9167C38.3853 29.844 39.9476 31.4063 41.8748 31.4063Z" fill="#181945" stroke="#181945" stroke-width="0.5" stroke-linecap="round"/>
</svg>
