<svg width="282" height="36" viewBox="0 0 282 36" fill="none" xmlns="http://www.w3.org/2000/svg">
<g clip-path="url(#clip0_2227_252)">
<path d="M1.74498 0C9.71262 9.3126 17.6803 18.6252 25.8125 28.1047C25.8125 18.9924 25.8125 10.1471 25.8125 1.16825C26.4052 1.13487 26.9319 1.10149 27.755 1.06811C27.3929 12.7506 27.0307 24.2995 26.6356 35.8819C26.5039 35.9486 26.3722 35.982 26.2405 36.0488C18.2729 26.636 10.2723 17.1899 2.0413 7.47678C2.0413 16.5891 2.0413 25.3343 2.0413 34.1796C1.41574 34.1796 0.823103 34.1796 0 34.1796C0.428014 22.8309 0.856028 11.4822 1.25112 0.133514C1.41574 0.100135 1.58036 0.066757 1.74498 0Z" fill="white"/>
<path d="M104.995 34.3131C103.481 34.3131 101.933 34.3799 100.419 34.2797C100.089 34.2463 99.6943 33.6455 99.5297 33.245C98.6736 31.2757 97.8176 29.3063 97.0604 27.3036C96.6982 26.4024 96.2373 26.0018 95.2166 26.0352C91.6279 26.102 88.0721 26.102 84.4833 26.0352C83.4627 26.0018 83.0018 26.369 82.6725 27.337C82.0799 29.1728 81.2239 30.9085 80.6641 32.7443C80.1703 34.3799 79.2484 34.6803 77.6351 34.1462C77.9314 33.4119 78.1948 32.7443 78.4911 32.1101C81.8494 24.6 85.2077 17.1232 88.4672 9.64639C88.7635 8.94544 88.7635 7.91071 88.5001 7.143C87.8416 5.17367 86.9856 3.2711 86.0966 1.10149C87.7428 1.10149 89.1256 1.03474 90.4755 1.13487C90.8706 1.16825 91.3974 1.56879 91.5291 1.93596C96.0397 12.5503 100.517 23.1647 104.995 33.779C105.061 33.8458 105.028 33.9793 104.995 34.3131ZM83.5615 25.0339C87.8087 25.0339 91.7925 25.0339 96.0726 25.0339C93.8996 19.8268 91.8254 14.8534 89.5866 9.4795C87.4794 14.8534 85.5698 19.8268 83.5615 25.0339Z" fill="white"/>
<path d="M31.5742 34.1462C31.8047 33.5454 32.0023 33.0113 32.2327 32.544C35.6239 24.9671 39.048 17.3902 42.3404 9.7799C42.7026 8.97882 42.6038 7.81057 42.3404 6.94273C41.7149 5.04016 40.8589 3.20434 40.0028 1.13487C41.6161 1.13487 42.9989 1.00136 44.283 1.20163C44.8427 1.30177 45.5012 2.03609 45.7646 2.63691C49.3204 10.8814 52.7774 19.1926 56.3003 27.4705C57.2222 29.6401 58.144 31.8097 59.2305 34.3798C57.4197 34.3798 55.9052 34.4466 54.3907 34.3131C54.0285 34.2797 53.5676 33.6121 53.37 33.1782C52.514 31.2089 51.658 29.2396 50.9007 27.2369C50.5715 26.3356 50.0776 26.0686 49.1557 26.0686C45.5341 26.1354 41.8795 26.0352 38.2579 26.1354C37.7311 26.1354 36.9409 26.7028 36.7433 27.2035C35.9202 29.0393 35.1301 30.9419 34.5703 32.9112C34.0106 34.5134 33.0558 34.5467 31.5742 34.1462ZM37.4677 25.0339C41.7807 25.0339 45.7646 25.0339 49.9788 25.0339C47.8059 19.8602 45.7316 14.8868 43.4928 9.4795C41.3527 14.9536 39.4431 19.8936 37.4677 25.0339Z" fill="white"/>
<path d="M80.4337 1.20162C80.4337 1.86919 80.4337 2.40325 80.4337 3.23771C77.2729 2.90392 74.1122 2.57014 70.754 2.20298C70.754 12.8507 70.754 23.4651 70.754 34.2129C68.9102 34.2129 67.3299 34.2129 65.552 34.2129C65.552 23.5318 65.552 12.9509 65.552 2.20298C62.3912 2.57014 59.4281 2.90392 56.3661 3.23771C56.3661 2.43663 56.3661 1.83581 56.3661 1.16824C64.3667 1.20162 72.3014 1.20162 80.4337 1.20162Z" fill="white"/>
<path d="M114.609 33.3785C119.284 32.978 123.597 32.5774 128.009 32.1769C127.877 33.7123 127.351 34.4132 125.803 34.3798C120.502 34.2797 115.202 34.3465 109.769 34.3465C109.769 23.2314 109.769 12.2833 109.769 1.20163C111.317 1.20163 112.831 1.20163 114.609 1.20163C114.609 11.8494 114.609 22.5305 114.609 33.3785Z" fill="white"/>
<path d="M232.796 35.4097C227.711 36.0394 227.711 36.0393 227.711 31.3169C227.711 22.0688 227.75 12.8208 227.672 3.61205C227.672 1.68372 228.254 1.09342 230.079 1.21148C232.912 1.36889 235.824 1.01471 238.58 1.4476C240.831 1.84114 243.277 2.70691 245.101 4.04493C249.177 7.07515 249.022 13.2537 244.946 16.2052C243.122 17.5432 240.831 18.2122 239.007 19.078C246.693 23.2495 248.595 25.6894 251.7 35.5671C250.186 35.5671 248.711 35.6458 247.275 35.5278C246.809 35.4884 246.188 34.8981 245.955 34.4259C245.373 33.0485 244.985 31.5924 244.519 30.1757C242.85 25.2958 240.754 20.8095 235.125 19.0386C238.386 17.9761 241.22 16.4019 241.918 12.9388C242.306 11.0499 242.268 8.84606 241.763 6.99645C240.676 3.29722 237.454 1.72307 232.796 2.27402C232.796 13.2537 232.796 24.2726 232.796 35.4097Z" fill="#FCD4A4"/>
<path d="M205.818 18.9993C208.962 17.9761 211.679 16.4807 212.417 13.175C212.882 11.2466 212.882 8.96413 212.378 7.07516C211.369 3.29723 207.991 1.64437 203.333 2.27403C203.333 13.2537 203.333 24.312 203.333 35.4491C201.586 35.4491 200.073 35.4491 198.403 35.4491C198.365 34.7407 198.287 34.0717 198.287 33.442C198.287 23.4069 198.326 13.3717 198.248 3.37593C198.248 1.64437 198.714 1.09343 200.422 1.17214C203.333 1.32955 206.283 0.975365 209.117 1.40825C211.407 1.76244 213.814 2.62822 215.639 4.00559C219.714 6.99646 219.637 13.175 215.522 16.1658C213.698 17.5038 211.407 18.1729 209.467 19.1173C217.618 20.967 219.404 28.5622 222.393 35.5671C220.685 35.5671 219.21 35.6458 217.774 35.5278C217.308 35.4884 216.725 34.8588 216.493 34.3865C215.794 32.6156 215.289 30.8053 214.629 29.0344C213.077 24.5481 210.903 20.6521 205.818 18.9993Z" fill="#FCD4A4"/>
<path d="M191.339 18.409C191.339 28.6802 184.118 36 173.987 36C163.506 36 156.403 28.7983 156.48 18.409C156.597 8.21641 164.088 0.81795 174.22 0.857303C184.313 0.857303 191.339 8.09835 191.339 18.409ZM186.331 18.7238C185.671 15.3788 185.361 12.3879 184.507 9.51508C182.954 4.47783 179.344 1.72308 174.802 1.60502C169.562 1.48696 165.796 3.88752 163.894 9.00348C161.488 15.3788 161.565 21.8327 163.856 28.208C165.486 32.7337 169.135 35.1342 173.871 35.2129C178.645 35.2916 182.372 33.0878 184.041 28.5228C185.128 25.3352 185.594 21.8721 186.331 18.7238Z" fill="#FCD4A4"/>
<path d="M281.784 35.6065C280.426 35.6065 279.106 35.7245 277.864 35.5671C277.242 35.4884 276.466 34.9375 276.194 34.3865C275.263 32.4582 274.603 30.3724 273.594 28.4835C273.283 27.8538 272.313 27.1848 271.653 27.1455C267.965 27.0274 264.277 27.1455 260.59 27.0667C259.386 27.0274 258.843 27.5783 258.493 28.6015C257.872 30.4118 257.057 32.104 256.514 33.9143C256.048 35.4097 255.31 35.9606 253.602 35.4097C253.835 34.78 254.068 34.111 254.34 33.4814C257.756 25.8468 261.133 18.2122 264.588 10.5776C265.209 9.20024 265.287 8.05899 264.627 6.68162C263.85 5.06812 263.229 3.33657 262.375 1.25083C264.122 1.25083 265.558 1.17212 266.995 1.29018C267.344 1.32953 267.81 1.88049 268.004 2.31337C272.584 13.1356 277.165 23.9972 281.707 34.8194C281.784 34.9768 281.784 35.1342 281.784 35.6065ZM272.74 26.1223C270.449 20.6128 268.276 15.3787 266.102 10.1054C265.946 10.1447 265.791 10.1841 265.597 10.2234C263.579 15.4575 261.56 20.6915 259.503 26.1223C264.044 26.1223 268.198 26.1223 272.74 26.1223Z" fill="#FCD4A4"/>
<path d="M140.371 2.07725C136.994 2.47078 134.005 2.82497 131.016 3.17915C130.589 1.88048 130.744 1.21147 132.18 1.21147C139.556 1.25083 146.931 1.25083 154.268 1.21147C155.665 1.21147 155.937 1.80177 155.432 3.17915C152.171 2.82497 148.949 2.47078 145.417 2.07725C145.417 13.293 145.417 24.312 145.417 35.1736C145.107 35.3703 145.029 35.449 144.99 35.449C140.371 36.1181 140.371 36.1181 140.371 31.435C140.371 22.5411 140.371 13.6078 140.371 4.71394C140.371 3.92687 140.371 3.13979 140.371 2.07725Z" fill="#FCD4A4"/>
</g>
<defs>
<clipPath id="clip0_2227_252">
<rect width="282" height="36" fill="white"/>
</clipPath>
</defs>
</svg>
