<svg width="247" height="33" viewBox="0 0 247 33" fill="none" xmlns="http://www.w3.org/2000/svg">
<path d="M5.71514 2.99445C12.5858 10.725 19.4252 18.4556 26.4208 26.3083C26.4208 18.7306 26.4208 11.3972 26.4208 3.94167C26.9205 3.91111 27.3889 3.88056 28.1072 3.85C27.7949 13.5361 27.4826 23.1306 27.1703 32.725C27.0454 32.7861 26.9517 32.8167 26.8268 32.8778C19.9561 25.0556 13.0855 17.2333 5.99621 9.16667C5.99621 16.7139 5.99621 23.9861 5.99621 31.35C5.46529 31.35 4.96561 31.35 4.24731 31.35C4.59085 21.9083 4.93438 12.5278 5.30914 3.11667C5.43406 3.05556 5.59021 3.025 5.71514 2.99445Z" fill="#FCD4A4"/>
<path d="M94.5027 31.4722C93.191 31.4722 91.8793 31.5333 90.5677 31.4417C90.2866 31.4111 89.9431 30.9222 89.7869 30.5861C89.0374 28.9667 88.3191 27.3167 87.6633 25.6667C87.351 24.9028 86.9762 24.5972 86.0705 24.5972C82.9787 24.6583 79.9182 24.6583 76.8264 24.5972C75.9519 24.5972 75.5459 24.8722 75.2649 25.6667C74.7339 27.1639 74.0156 28.6306 73.5472 30.1583C73.11 31.5028 72.3292 31.7778 70.9551 31.3194C71.2049 30.7083 71.4548 30.1583 71.7046 29.6389C74.5778 23.4361 77.451 17.2333 80.2929 11C80.574 10.4194 80.5428 9.56389 80.3242 8.92222C79.762 7.30278 79.0125 5.71389 78.263 3.91111C79.6683 3.91111 80.8551 3.85 82.0418 3.94167C82.3541 3.97222 82.8226 4.30834 82.9475 4.61389C86.82 13.4139 90.6614 22.2139 94.5339 31.0444C94.5651 31.075 94.5339 31.1972 94.5027 31.4722ZM76.0768 23.7722C79.7308 23.7722 83.1661 23.7722 86.82 23.7722C84.9775 19.4639 83.1661 15.3083 81.2611 10.8472C79.4497 15.3083 77.7945 19.4639 76.0768 23.7722Z" fill="#FCD4A4"/>
<path d="M31.3552 31.3195C31.5738 30.8306 31.73 30.4028 31.9174 29.975C34.8218 23.6806 37.7574 17.3861 40.5994 11.0611C40.9117 10.3889 40.8492 9.44167 40.5994 8.70834C40.0685 7.11945 39.3189 5.59167 38.6006 3.88056C40.006 3.88056 41.1615 3.75834 42.2858 3.94167C42.7855 4.03334 43.3476 4.64445 43.5662 5.13334C46.6268 11.9778 49.5937 18.8528 52.623 25.7278C53.4038 27.5306 54.2158 29.3333 55.1214 31.4722C53.5599 31.4722 52.2483 31.5333 50.9366 31.4417C50.6243 31.4111 50.2495 30.8611 50.0621 30.4945C49.3126 28.875 48.5943 27.225 47.9385 25.5444C47.6574 24.8111 47.2202 24.5667 46.4394 24.5972C43.3164 24.6278 40.1934 24.5667 37.0391 24.6583C36.5707 24.6583 35.9148 25.1167 35.7275 25.5444C35.0092 27.0722 34.3533 28.6611 33.8536 30.2806C33.4477 31.625 32.6357 31.6556 31.3552 31.3195ZM36.4145 23.7722C40.0997 23.7722 43.535 23.7722 47.1577 23.7722C45.3151 19.4945 43.5038 15.3389 41.5675 10.8778C39.7874 15.4 38.1322 19.525 36.4145 23.7722Z" fill="#FCD4A4"/>
<path d="M73.391 3.97222C73.391 4.52222 73.391 4.98055 73.391 5.65278C70.6739 5.37778 67.9569 5.10278 65.0525 4.79722C65.0525 13.6278 65.0525 22.4583 65.0525 31.35C63.491 31.35 62.1168 31.35 60.5866 31.35C60.5866 22.4889 60.5866 13.7194 60.5866 4.79722C57.8695 5.10278 55.3086 5.37778 52.6853 5.65278C52.6853 4.98055 52.6853 4.49167 52.6853 3.94167C59.5872 3.97222 66.3954 3.97222 73.391 3.97222Z" fill="#FCD4A4"/>
<path d="M102.779 30.6778C106.808 30.3417 110.524 30.0056 114.303 29.7C114.178 30.9833 113.741 31.5333 112.398 31.5333C107.838 31.4722 103.279 31.5028 98.594 31.5028C98.594 22.275 98.594 13.2 98.594 4.00278C99.9057 4.00278 101.249 4.00278 102.779 4.00278C102.779 12.8333 102.779 21.6639 102.779 30.6778Z" fill="#FCD4A4"/>
<path d="M204.308 30.4639C200.217 30.9528 200.217 30.9528 200.217 27.2861C200.217 20.1056 200.248 12.925 200.186 5.775C200.186 4.27777 200.654 3.81944 202.122 3.91111C204.402 4.03333 206.744 3.75833 208.961 4.09444C210.773 4.4 212.74 5.07222 214.208 6.11111C217.487 8.46389 217.362 13.2611 214.083 15.5528C212.615 16.5917 210.773 17.1111 209.305 17.7833C215.489 21.0222 217.019 22.9167 219.517 30.5861C218.299 30.5861 217.113 30.6472 215.957 30.5556C215.582 30.525 215.083 30.0667 214.895 29.7C214.427 28.6306 214.114 27.5 213.74 26.4C212.397 22.6111 210.71 19.1278 206.182 17.7528C208.805 16.9278 211.085 15.7056 211.647 13.0167C211.96 11.55 211.928 9.83889 211.522 8.40277C210.648 5.53055 208.056 4.30833 204.308 4.73611C204.308 13.2611 204.308 21.8167 204.308 30.4639Z" fill="#E60000"/>
<path d="M182.603 17.7222C185.133 16.9278 187.319 15.7667 187.912 13.2C188.287 11.7028 188.287 9.93055 187.881 8.46389C187.069 5.53055 184.352 4.24722 180.605 4.73611C180.605 13.2611 180.605 21.8472 180.605 30.4944C179.199 30.4944 177.981 30.4944 176.638 30.4944C176.607 29.9444 176.545 29.425 176.545 28.9361C176.545 21.1444 176.576 13.3528 176.513 5.59166C176.513 4.24722 176.888 3.81944 178.262 3.88055C180.605 4.00277 182.978 3.72777 185.258 4.06389C187.1 4.33889 189.037 5.01111 190.505 6.08055C193.784 8.40278 193.721 13.2 190.411 15.5222C188.943 16.5611 187.1 17.0806 185.539 17.8139C192.097 19.25 193.534 25.1472 195.939 30.5861C194.565 30.5861 193.378 30.6472 192.222 30.5556C191.847 30.525 191.379 30.0361 191.192 29.6694C190.629 28.2944 190.224 26.8889 189.693 25.5139C188.475 22.0306 186.694 18.975 182.603 17.7222Z" fill="#E60000"/>
<path d="M170.954 17.2639C170.954 25.2389 165.146 30.9222 156.995 30.9222C148.562 30.9222 142.847 25.3305 142.91 17.2639C143.003 9.35 149.031 3.60555 157.182 3.63611C165.302 3.63611 170.954 9.25833 170.954 17.2639ZM166.926 17.5083C166.395 14.9111 166.145 12.5889 165.458 10.3583C164.209 6.44722 161.304 4.30833 157.65 4.21666C153.434 4.125 150.405 5.98888 148.875 9.96111C146.938 14.9111 147.001 19.9222 148.843 24.8722C150.155 28.3861 153.091 30.25 156.901 30.3111C160.742 30.3722 163.74 28.6611 165.083 25.1167C165.958 22.6417 166.332 19.9528 166.926 17.5083Z" fill="#E60000"/>
<path d="M243.752 30.6167C242.659 30.6167 241.597 30.7083 240.598 30.5861C240.098 30.525 239.473 30.0972 239.255 29.6694C238.505 28.1722 237.974 26.5528 237.162 25.0861C236.913 24.5972 236.132 24.0778 235.601 24.0472C232.634 23.9555 229.667 24.0472 226.7 23.9861C225.732 23.9556 225.295 24.3833 225.014 25.1778C224.514 26.5833 223.858 27.8972 223.421 29.3028C223.046 30.4639 222.453 30.8917 221.079 30.4639C221.266 29.975 221.454 29.4556 221.672 28.9667C224.42 23.0389 227.138 17.1111 229.917 11.1833C230.417 10.1139 230.479 9.22777 229.948 8.15833C229.324 6.90555 228.824 5.56111 228.137 3.94166C229.542 3.94166 230.698 3.88055 231.853 3.97222C232.134 4.00277 232.509 4.43055 232.665 4.76666C236.35 13.1694 240.036 21.6028 243.69 30.0056C243.721 30.1278 243.721 30.2194 243.752 30.6167ZM236.444 23.2528C234.602 18.975 232.853 14.9111 231.104 10.8167C230.979 10.8472 230.854 10.8778 230.698 10.9083C229.074 14.9722 227.45 19.0361 225.795 23.2528C229.449 23.2528 232.79 23.2528 236.444 23.2528Z" fill="#E60000"/>
<path d="M129.949 4.58332C127.232 4.88888 124.827 5.16388 122.423 5.43888C122.079 4.43055 122.204 3.9111 123.359 3.9111C129.293 3.94166 135.227 3.94166 141.129 3.9111C142.254 3.9111 142.472 4.36944 142.066 5.43888C139.443 5.16388 136.851 4.88888 134.009 4.58332C134.009 13.2917 134.009 21.8472 134.009 30.2805C133.759 30.4333 133.697 30.4944 133.665 30.4944C129.949 31.0139 129.949 31.0139 129.949 27.3778C129.949 20.4722 129.949 13.5361 129.949 6.63055C129.949 6.01944 129.949 5.40832 129.949 4.58332Z" fill="#E60000"/>
</svg>
