<svg width="265" height="54" viewBox="0 0 265 54" fill="none" xmlns="http://www.w3.org/2000/svg">
<path fill-rule="evenodd" clip-rule="evenodd" d="M127.98 17.0794V12.2044L262.153 2.99835V51.1177L127.98 45.2104V37.3193C127.202 37.523 126.265 37.6432 125.214 37.6285V47.77L264.919 54V0L125.214 9.74393V16.1232C126.111 16.2228 127.074 16.4997 127.98 17.0794Z" fill="#FF5101"/>
<path d="M231.573 38.9424V17.2132H247.524V21.9664H237.582V25.7011H246.702V30.4544H237.582V34.1891H247.48V38.9424H231.573Z" fill="#FF5101"/>
<path d="M208.75 38.9424V17.2132H214.758V25.7011H222.712V17.2132H228.72V38.9424H222.712V30.4544H214.758V38.9424H208.75Z" fill="#FF5101"/>
<path d="M205.908 17.2132V38.9424H200.894L192.897 27.5261H192.767V38.9424H186.759V17.2132H191.86L199.727 28.5871H199.9V17.2132H205.908Z" fill="#FF5101"/>
<path d="M168.288 38.9424H161.804L169.109 17.2132H177.322L184.627 38.9424H178.143L173.302 23.1972H173.129L168.288 38.9424ZM167.078 30.3695H179.267V34.7833H167.078V30.3695Z" fill="#FF5101"/>
<path d="M154.089 24.3857C153.995 24.0108 153.847 23.6819 153.645 23.3989C153.444 23.1089 153.192 22.8649 152.889 22.6668C152.594 22.4617 152.248 22.3096 151.852 22.2106C151.463 22.1045 151.034 22.0515 150.566 22.0515C149.557 22.0515 148.696 22.2884 147.983 22.7623C147.277 23.2362 146.737 23.9188 146.362 24.8101C145.994 25.7013 145.811 26.7764 145.811 28.0355C145.811 29.3087 145.987 30.398 146.34 31.3033C146.693 32.2087 147.219 32.9019 147.918 33.3829C148.617 33.8639 149.485 34.1044 150.522 34.1044C151.437 34.1044 152.197 33.9735 152.803 33.7118C153.415 33.4501 153.872 33.0787 154.175 32.5978C154.478 32.1168 154.629 31.5509 154.629 30.9002L155.666 31.0063H150.609V26.8047H160.421V29.8179C160.421 31.7985 159.992 33.4925 159.135 34.9001C158.285 36.3006 157.111 37.3758 155.612 38.1255C154.121 38.8682 152.41 39.2396 150.479 39.2396C148.325 39.2396 146.434 38.7904 144.806 37.8921C143.178 36.9938 141.906 35.7135 140.991 34.0513C140.083 32.3891 139.63 30.4121 139.63 28.1204C139.63 26.3237 139.907 24.7323 140.462 23.3459C141.024 21.9595 141.802 20.7889 142.796 19.834C143.79 18.872 144.939 18.147 146.243 17.659C147.547 17.1638 148.945 16.9163 150.436 16.9163C151.747 16.9163 152.965 17.1002 154.089 17.468C155.22 17.8287 156.217 18.3451 157.082 19.017C157.954 19.6819 158.656 20.4706 159.189 21.383C159.722 22.2955 160.046 23.2964 160.162 24.3857H154.089Z" fill="#FF5101"/>
<path d="M123.778 35.6246C122.554 35.6246 121.499 35.4114 120.613 34.9851C119.728 34.5588 119.049 33.9876 118.576 33.2716C118.103 32.5556 117.866 31.7658 117.866 30.9022C117.866 30.2736 117.989 29.7188 118.234 29.2379C118.479 28.7514 118.821 28.306 119.261 27.9015C119.7 27.497 120.215 27.098 120.805 26.7045L124.68 24.3433C125.07 24.1028 125.334 23.8541 125.473 23.5972C125.613 23.3349 125.682 23.1026 125.682 22.9004C125.682 22.6325 125.582 22.3948 125.382 22.1871C125.181 21.9794 124.869 21.8783 124.446 21.8837C124.185 21.8837 123.959 21.9329 123.77 22.0313C123.581 22.1242 123.433 22.2554 123.327 22.4248C123.227 22.5943 123.177 22.7965 123.177 23.0315C123.177 23.354 123.272 23.6847 123.461 24.0236C123.65 24.357 123.909 24.7177 124.238 25.1058C124.566 25.4938 124.936 25.9284 125.348 26.4094L133.632 35.3622H129.022L122.075 28.1475C121.735 27.7922 121.359 27.3577 120.947 26.8439C120.535 26.3246 120.179 25.7398 119.879 25.0894C119.584 24.439 119.436 23.7311 119.436 22.9659C119.436 22.1133 119.645 21.3344 120.062 20.6293C120.48 19.9243 121.064 19.3613 121.816 18.9404C122.567 18.5196 123.444 18.3091 124.446 18.3091C125.404 18.3091 126.228 18.5032 126.918 18.8912C127.614 19.2793 128.148 19.7958 128.521 20.4408C128.9 21.0857 129.089 21.7963 129.089 22.5724C129.089 23.354 128.891 24.0837 128.496 24.7614C128.107 25.4392 127.547 26.0322 126.818 26.5405L123.277 29.0001C123.004 29.1859 122.768 29.3991 122.567 29.6396C122.373 29.8801 122.275 30.1916 122.275 30.5742C122.275 30.8912 122.35 31.1618 122.501 31.3859C122.651 31.61 122.862 31.7822 123.135 31.9024C123.414 32.0227 123.739 32.0828 124.112 32.0828C124.68 32.0828 125.248 31.9489 125.816 31.681C126.389 31.4078 126.912 31.0279 127.386 30.5414C127.859 30.0495 128.237 29.4702 128.521 28.8033C128.811 28.1311 128.956 27.3986 128.956 26.6061H132.596C132.596 27.579 132.493 28.5164 132.287 29.4182C132.081 30.3201 131.75 31.1454 131.294 31.8942C130.837 32.643 130.236 33.2743 129.49 33.7881C129.256 33.9029 129.028 34.0122 128.805 34.116C128.583 34.2199 128.354 34.3292 128.12 34.444C127.436 34.8758 126.72 35.1818 125.974 35.3622C125.228 35.5371 124.496 35.6246 123.778 35.6246Z" fill="#FF5101"/>
<path d="M93.6249 40.5V15.9546H111.057V20.7726H99.6674V25.8063H110.165V30.6363H99.6674V35.682H111.057V40.5H93.6249Z" fill="white"/>
<path d="M71.2006 40.5V15.9546H81.5277C83.3995 15.9546 85.0149 16.3141 86.3739 17.0332C87.7411 17.7444 88.795 18.7391 89.5355 20.0175C90.2761 21.288 90.6464 22.7661 90.6464 24.452C90.6464 26.1459 90.2679 27.6281 89.5111 28.8985C88.7624 30.1609 87.6923 31.1397 86.3007 31.8348C84.9091 32.53 83.257 32.8775 81.3446 32.8775H74.9725V28.2033H80.2216C81.133 28.2033 81.8939 28.0475 82.5043 27.7359C83.1228 27.4243 83.5907 26.9889 83.9081 26.4296C84.2255 25.8623 84.3842 25.2031 84.3842 24.452C84.3842 23.693 84.2255 23.0378 83.9081 22.4865C83.5907 21.9272 83.1228 21.4957 82.5043 21.1921C81.8858 20.8885 81.1249 20.7366 80.2216 20.7366H77.243V40.5H71.2006Z" fill="white"/>
<path d="M62.021 23.3135C61.9396 22.4346 61.5775 21.7514 60.9346 21.2641C60.2998 20.7687 59.3924 20.521 58.2124 20.521C57.4312 20.521 56.7801 20.6209 56.2593 20.8206C55.7384 21.0204 55.3478 21.296 55.0874 21.6476C54.827 21.9912 54.6927 22.3867 54.6846 22.8341C54.6683 23.2016 54.7415 23.5252 54.9043 23.8049C55.0752 24.0845 55.3193 24.3322 55.6367 24.548C55.9622 24.7557 56.3529 24.9395 56.8086 25.0993C57.2643 25.2591 57.777 25.3989 58.3467 25.5188L60.4951 25.9982C61.7321 26.2618 62.8226 26.6134 63.7666 27.0529C64.7188 27.4923 65.5163 28.0157 66.1592 28.6229C66.8102 29.2301 67.3026 29.9293 67.6362 30.7203C67.9699 31.5113 68.1408 32.3982 68.1489 33.381C68.1408 34.931 67.742 36.2614 66.9526 37.372C66.1632 38.4826 65.028 39.3336 63.5469 39.9248C62.0739 40.5161 60.2957 40.8117 58.2124 40.8117C56.1209 40.8117 54.298 40.5041 52.7437 39.8889C51.1893 39.2736 49.9808 38.3388 49.1182 37.0844C48.2555 35.8299 47.812 34.2439 47.7876 32.3263H53.5737C53.6226 33.1173 53.8382 33.7765 54.2207 34.3038C54.6032 34.8312 55.1281 35.2307 55.7954 35.5023C56.4709 35.774 57.2521 35.9098 58.1392 35.9098C58.953 35.9098 59.6447 35.802 60.2144 35.5862C60.7922 35.3705 61.2357 35.0709 61.5449 34.6874C61.8542 34.3038 62.0129 33.8644 62.021 33.369C62.0129 32.9056 61.8664 32.5101 61.5815 32.1825C61.2967 31.8469 60.8573 31.5592 60.2632 31.3195C59.6772 31.0719 58.9285 30.8441 58.0171 30.6364L55.4048 30.0371C53.2401 29.5497 51.5352 28.7627 50.29 27.6761C49.0449 26.5814 48.4264 25.1033 48.4346 23.2416C48.4264 21.7235 48.8415 20.3931 49.6797 19.2506C50.5179 18.108 51.6776 17.2171 53.1587 16.5779C54.6398 15.9387 56.3284 15.6191 58.2246 15.6191C60.1615 15.6191 61.842 15.9427 63.2661 16.5899C64.6984 17.2291 65.8092 18.128 66.5986 19.2865C67.388 20.4451 67.7909 21.7874 67.8071 23.3135H62.021Z" fill="white"/>
<path d="M28.1678 40.5H21.6736L30.1087 15.9546H38.1531L46.5882 40.5H40.0941L34.2225 22.1389H34.0272L28.1678 40.5ZM27.3011 30.8401H40.8753V35.3465H27.3011V30.8401Z" fill="white"/>
<path d="M0 40.5V15.9546H10.3271C12.1989 15.9546 13.8143 16.2862 15.1733 16.9494C16.5405 17.6045 17.5944 18.5474 18.335 19.7778C19.0755 21.0003 19.4458 22.4505 19.4458 24.1284C19.4458 25.8303 19.0674 27.2765 18.3105 28.467C17.5537 29.6495 16.4795 30.5524 15.0879 31.1756C13.6963 31.7909 12.0483 32.0985 10.144 32.0985H3.61328V27.4243H9.021C9.93245 27.4243 10.6934 27.3085 11.3037 27.0767C11.9222 26.837 12.3901 26.4775 12.7075 25.9981C13.0249 25.5107 13.1836 24.8875 13.1836 24.1284C13.1836 23.3694 13.0249 22.7421 12.7075 22.2468C12.3901 21.7434 11.9222 21.3679 11.3037 21.1202C10.6852 20.8645 9.92432 20.7366 9.021 20.7366H6.04248V40.5H0ZM14.0747 29.282L20.3003 40.5H13.7085L7.60498 29.282H14.0747Z" fill="white"/>
</svg>
