<svg width="42" height="42" viewBox="0 0 42 42" fill="none" xmlns="http://www.w3.org/2000/svg">
<path d="M21.0001 28.25L28.2501 21M28.2501 21L21.0001 13.75M28.2501 21H1.66675M13.7501 9.51838V9.39996C13.7501 6.69329 13.7501 5.33996 14.2769 4.30563C14.7409 3.39454 15.478 2.65746 16.3891 2.19346C17.4234 1.66663 18.7767 1.66663 21.4834 1.66663H32.6001C35.3067 1.66663 36.6601 1.66663 37.692 2.19346C38.6031 2.65746 39.3426 3.39454 39.8066 4.30563C40.3334 5.33754 40.3334 6.69088 40.3334 9.39271V32.6096C40.3334 35.3115 40.3334 36.6624 39.8066 37.6943C39.3423 38.6039 38.6021 39.3432 37.692 39.8065C36.6601 40.3333 35.3092 40.3333 32.6073 40.3333H21.4762C18.7743 40.3333 17.421 40.3333 16.3891 39.8065C15.4797 39.3431 14.7403 38.6037 14.2769 37.6943C13.7501 36.66 13.7501 35.3066 13.7501 32.6V32.4791" stroke="white" stroke-width="3" stroke-linecap="round" stroke-linejoin="round"/>
</svg>
