<svg style="display:none">
	<symbol id="Logo" viewBox="0 0 459 215" fill="none" xmlns="http://www.w3.org/2000/svg"> <g clip-path="url(#clip0_1301_917)"> <path d="M0 39.9V190.9L458.3 214.1V0L0 39.9Z" fill="#FF5101"/> <path d="M151.7 139.9C136.3 139.9 127.2 127.9 127.2 114.3C127.2 100.8 136.2 88.9 151.7 88.9C166.9 88.9 176 100.9 176 114.3C176.1 127.9 166.9 139.9 151.7 139.9ZM151.7 71.2C124.3 71.2 108.1 91.8 108.1 114.3C108.1 136.9 124.3 157.5 151.7 157.5C178.9 157.5 195.1 136.9 195.1 114.3C195.1 91.8 178.9 71.2 151.7 71.2Z" fill="white"/> <path d="M109.7 73.3H53.5V90.4H72.1V155.4H91.1V90.4H109.7V73.3Z" fill="white"/> <path d="M231.7 116.9H220.1V89.5H231.7C241 89.5 246.2 94.4 246.2 103.2C246.1 112.1 240.9 116.9 231.7 116.9ZM265 102.9C265 87 253.3 73.3 233.7 73.3H201.2V155.4H220V132.7H228.8L243.5 155.4H265L247.7 129.2C257.8 124.7 265 115.9 265 102.9Z" fill="white"/> <path d="M357.7 128.9L367.6 94.2L377 128.9H357.7ZM301.2 116.9H289.6V89.5H301.2C310.5 89.5 315.7 94.4 315.7 103.2C315.7 112.1 310.5 116.9 301.2 116.9ZM377.8 73.3H358L331.7 151.2L317.2 129.2C327.3 124.6 334.5 115.9 334.5 102.9C334.5 87 322.8 73.3 303.2 73.3H270.7V155.4H289.5V132.7H298.3L313 155.4H349.7L353.2 144.3H381.7L385.3 155.4H406.1L377.8 73.3Z" fill="white"/> </g> <defs> <clipPath id="clip0_1301_917"> <rect width="458.3" height="214.1" fill="white"/> </clipPath> </defs> </symbol>
  <symbol id="Blog" viewBox="0 0 13 13" stroke="currentColor"  fill="none" xmlns="http://www.w3.org/2000/svg"><path d="M9.49593 5.87208C9.96432 5.28918 10.2454 4.54977 10.2454 3.74551V3.4012C10.2454 1.52573 8.7197 0 6.84431 0H3.40112C1.52573 0 0 1.52573 0 3.4012V3.74551V9.25449V9.5988C0 11.4742 1.52573 13 3.40112 13H9.13972C11.0151 13 12.5407 11.4743 12.5407 9.5988V9.25449C12.5407 7.49939 11.2045 6.05075 9.49593 5.87208ZM1.29343 3.4012C1.29343 2.23893 2.23884 1.29343 3.40112 1.29343H6.84431C8.00659 1.29343 8.952 2.23893 8.952 3.4012V3.74551C8.952 4.90779 8.0065 5.85329 6.84431 5.85329H1.29343V3.74551V3.4012ZM9.13972 11.7066H3.40112C2.23893 11.7066 1.29343 10.7611 1.29343 9.5988V9.25449V7.14671H6.84431H9.13972C10.3018 7.14671 11.2473 8.09221 11.2473 9.2544V9.59871C11.2473 10.761 10.3018 11.7066 9.13972 11.7066Z" fill="currentColor"/></symbol>
  <symbol id="Bag"  viewBox="0 0 16 18" fill="none" xmlns="http://www.w3.org/2000/svg"><g><path d="M0 7.111C0 6.40376 0.280952 5.72548 0.781049 5.22538C1.28115 4.72529 1.95942 4.44434 2.66667 4.44434H13.3333C14.0406 4.44434 14.7189 4.72529 15.219 5.22538C15.719 5.72548 16 6.40376 16 7.111V15.111C16 15.8182 15.719 16.4965 15.219 16.9966C14.7189 17.4967 14.0406 17.7777 13.3333 17.7777H2.66667C1.95942 17.7777 1.28115 17.4967 0.781049 16.9966C0.280952 16.4965 0 15.8182 0 15.111V7.111ZM2.66667 6.22211C2.43092 6.22211 2.20483 6.31576 2.03813 6.48246C1.87143 6.64916 1.77778 6.87525 1.77778 7.111V15.111C1.77778 15.3468 1.87143 15.5728 2.03813 15.7395C2.20483 15.9062 2.43092 15.9999 2.66667 15.9999H13.3333C13.5691 15.9999 13.7952 15.9062 13.9619 15.7395C14.1286 15.5728 14.2222 15.3468 14.2222 15.111V7.111C14.2222 6.87525 14.1286 6.64916 13.9619 6.48246C13.7952 6.31576 13.5691 6.22211 13.3333 6.22211H2.66667Z" fill="currentColor"/><path d="M7.99999 1.77778C7.29274 1.77778 6.61446 2.05873 6.11437 2.55883C5.61427 3.05892 5.33332 3.7372 5.33332 4.44444V8C5.33332 8.23575 5.23967 8.46184 5.07297 8.62854C4.90627 8.79524 4.68018 8.88889 4.44443 8.88889C4.20868 8.88889 3.98259 8.79524 3.81589 8.62854C3.64919 8.46184 3.55554 8.23575 3.55554 8V4.44444C3.55554 3.2657 4.02379 2.13524 4.85729 1.30175C5.69078 0.468253 6.82125 0 7.99999 0C9.17873 0 10.3092 0.468253 11.1427 1.30175C11.9762 2.13524 12.4444 3.2657 12.4444 4.44444V8C12.4444 8.23575 12.3508 8.46184 12.1841 8.62854C12.0174 8.79524 11.7913 8.88889 11.5555 8.88889C11.3198 8.88889 11.0937 8.79524 10.927 8.62854C10.7603 8.46184 10.6667 8.23575 10.6667 8V4.44444C10.6667 3.7372 10.3857 3.05892 9.8856 2.55883C9.38551 2.05873 8.70723 1.77778 7.99999 1.77778Z" fill="currentColor"/></g></symbol>
	<symbol id="Circle" xmlns="http://www.w3.org/2000/svg" viewBox="0 0 24 24" stroke="currentColor" fill="none" stroke-linecap="round" stroke-linejoin="round"><path stroke="none" d="M0 0h24v24H0z" fill="currentColor"/><circle cx="12" cy="12" r="9" /></symbol>
	<symbol id="ArrowsPointingOut" xmlns="http://www.w3.org/2000/svg" fill="none" viewBox="0 0 24 24"><path stroke-linecap="round" stroke-linejoin="round" d="M3.75 3.75v4.5m0-4.5h4.5m-4.5 0L9 9M3.75 20.25v-4.5m0 4.5h4.5m-4.5 0L9 15M20.25 3.75h-4.5m4.5 0v4.5m0-4.5L15 9m5.25 11.25h-4.5m4.5 0v-4.5m0 4.5L15 15" /></symbol>
  <symbol id="ChevronLeft" viewBox="0 0 11 22" fill="currentColor" xmlns="http://www.w3.org/2000/svg"><path d="M9.17485 21.9999C8.94004 22.0007 8.70804 21.9489 8.49589 21.8483C8.28374 21.7477 8.09684 21.6008 7.94891 21.4185L0.357546 11.9908C0.126375 11.7097 0 11.357 0 10.9931C0 10.6291 0.126375 10.2765 0.357546 9.99531L8.2161 0.567629C8.48288 0.246747 8.86624 0.0449563 9.28184 0.00664887C9.69745 -0.0316585 10.1112 0.0966552 10.4322 0.363362C10.7532 0.630069 10.955 1.01332 10.9933 1.42881C11.0317 1.8443 10.9033 2.25799 10.6365 2.57887L3.61099 11.0009L10.4008 19.423C10.593 19.6536 10.7151 19.9345 10.7526 20.2323C10.7901 20.5302 10.7415 20.8325 10.6126 21.1036C10.4836 21.3747 10.2797 21.6032 10.0249 21.762C9.77007 21.9208 9.4751 22.0034 9.17485 21.9999Z" fill="currentColor"/></symbol>
  <symbol id="FreeShipping" width="38" height="38" viewBox="0 0 38 38" fill="none" xmlns="http://www.w3.org/2000/svg"><circle cx="19" cy="19" r="19" fill="currentColor"></circle><path d="M14.2329 26.9677H23.7669C24.1281 26.9677 24.4746 26.8257 24.73 26.5728C24.9854 26.3199 25.1289 25.9769 25.1289 25.6193V15.7514C25.1289 15.5726 25.0572 15.4011 24.9295 15.2747C24.8017 15.1482 24.6285 15.0772 24.4479 15.0772H22.4049V14.5533C22.4049 12.7943 21.109 11.2194 19.3404 11.0488C18.867 11.0022 18.389 11.0543 17.9372 11.2016C17.4853 11.3489 17.0696 11.5882 16.7168 11.9042C16.364 12.2201 16.0819 12.6056 15.8887 13.036C15.6955 13.4664 15.5954 13.932 15.5949 14.403V15.0772H13.5519C13.3712 15.0772 13.198 15.1482 13.0703 15.2747C12.9426 15.4011 12.8708 15.5726 12.8708 15.7514V25.6193C12.8708 25.9769 13.0143 26.3199 13.2698 26.5728C13.5252 26.8257 13.8716 26.9677 14.2329 26.9677ZM22.4049 16.4256V17.774H21.0429V16.4256H22.4049ZM16.9569 14.403C16.9569 13.2879 17.8735 12.3804 18.9999 12.3804C20.1263 12.3804 21.0429 13.2879 21.0429 14.403V15.0772H16.9569V14.403ZM15.5949 16.4256H16.9569V17.774H15.5949V16.4256Z" fill="white"></path></symbol>
  <symbol id="ChevronRight" viewBox="0 0 11 22" fill="currentColor" xmlns="http://www.w3.org/2000/svg"><path d="M1.82516 0.000106638C2.05996 -0.000691508 2.29196 0.051117 2.50411 0.151724C2.71626 0.252331 2.90316 0.399181 3.05109 0.581482L10.6425 10.0092C10.8736 10.2903 11 10.643 11 11.0069C11 11.3709 10.8736 11.7235 10.6425 12.0047L2.7839 21.4324C2.51712 21.7533 2.13376 21.955 1.71816 21.9934C1.30256 22.0317 0.888753 21.9033 0.567784 21.6366C0.246814 21.3699 0.0449686 20.9867 0.00665076 20.5712C-0.0316671 20.1557 0.0966812 19.742 0.363461 19.4211L7.38901 10.9991L0.59922 2.57701C0.407027 2.34637 0.284941 2.06551 0.247409 1.76768C0.209877 1.46985 0.25847 1.16749 0.387438 0.896404C0.516406 0.625315 0.720351 0.396833 0.975142 0.237992C1.22993 0.0791508 1.5249 -0.00340017 1.82516 0.000106638Z" fill="currentColor"/></symbol>
	<symbol id="ChevronUp" xmlns="http://www.w3.org/2000/svg" fill="none" viewBox="0 0 24 24" stroke="currentColor"><path stroke-linecap="round" stroke-linejoin="round" d="M4.5 15.75l7.5-7.5 7.5 7.5" /></symbol>	
	<symbol id="ChevronDown" xmlns="http://www.w3.org/2000/svg" fill="none" viewBox="0 0 24 24" stroke="currentColor"><path stroke-linecap="round" stroke-linejoin="round" d="M19.5 8.25l-7.5 7.5-7.5-7.5" /></symbol>
	<symbol id="QuestionMarkCircle" xmlns="http://www.w3.org/2000/svg" fill="none" viewBox="0 0 24 24" stroke="currentColor"><path stroke-linecap="round" stroke-linejoin="round" d="M9.879 7.519c1.171-1.025 3.071-1.025 4.242 0 1.172 1.025 1.172 2.687 0 3.712-.203.179-.43.326-.67.442-.745.361-1.45.999-1.45 1.827v.75M21 12a9 9 0 11-18 0 9 9 0 0118 0zm-9 5.25h.008v.008H12v-.008z" /></symbol>
  <symbol id="User"  viewBox="0 0 30 31" fill="none" xmlns="http://www.w3.org/2000/svg"><path d="M2 30.5V27.5C2 24.1863 4.68629 21.5 8 21.5H22.5C25.8137 21.5 28.5 24.1863 28.5 27.5V30.5" stroke="currentColor" stroke-width="3"/><circle cx="15.5" cy="9.5" r="7.5" stroke="currentColor" stroke-width="3"/></symbol>
  <symbol id="App" viewBox="0 0 21 21" fill="none" xmlns="http://www.w3.org/2000/svg"><g clip-path="url(#clip0_24_623)"><path d="M5.5625 21H13.4375C14.8878 21 16.0625 19.8253 16.0625 18.375V2.625C16.0625 1.17469 14.8878 0 13.4375 0H5.5625C4.11219 0 2.9375 1.17469 2.9375 2.625V18.375C2.9375 19.8253 4.11219 21 5.5625 21ZM4.25 2.625H14.75V18.375H4.25V2.625Z" fill="currentColor"></path><rect x="14" y="7" width="3" height="10" fill="white"></rect><path d="M14.2427 7.83132L13.7443 8.34685C13.412 8.00698 12.962 7.81683 12.4934 7.81821C12.0248 7.81959 11.5758 8.0124 11.2454 8.35422C10.915 8.69604 10.7301 9.15887 10.7315 9.64089C10.7328 10.1229 10.9203 10.5846 11.2526 10.9245L10.7542 11.44C10.289 10.9642 10.0266 10.3178 10.0247 9.64297C10.0228 8.96814 10.2816 8.32018 10.7442 7.84163C11.2068 7.36309 11.8353 7.09315 12.4914 7.09122C13.1475 7.08928 13.7774 7.3555 14.2427 7.83132Z" fill="currentColor"></path><path d="M17.2428 8.3362C17.1145 8.46985 17.0227 8.6359 16.9767 8.81764C16.8024 8.77754 16.621 8.7834 16.4495 8.83468C16.2779 8.88597 16.1218 8.98101 15.9955 9.11098C15.8672 9.24462 15.7754 9.41068 15.7294 9.59241C15.4953 9.53947 15.2507 9.5697 15.0354 9.67816C14.8201 9.78663 14.6469 9.96693 14.5441 10.1896L13.246 8.86205C13.0466 8.65813 12.7766 8.54404 12.4954 8.54487C12.2142 8.5457 11.9449 8.66138 11.7466 8.86647C11.5484 9.07156 11.4374 9.34926 11.4383 9.63848C11.4391 9.92769 11.5515 10.2047 11.7509 10.4086L14.5327 13.2535L13.5961 13.4388C13.3733 13.4729 13.1674 13.5809 13.0097 13.7463C12.8611 13.8993 12.76 14.0944 12.7194 14.3066C12.6788 14.5188 12.7005 14.7386 12.7817 14.9382C12.8629 15.1377 12.9999 15.3078 13.1754 15.4271C13.3508 15.5463 13.5568 15.6091 13.7671 15.6076L17.5899 15.4164C18.1261 15.3843 18.6319 15.1493 19.0099 14.7568L20.2558 13.4679C20.7184 12.9894 20.9772 12.3414 20.9753 11.6666C20.9734 10.9918 20.711 10.3453 20.2457 9.86954L18.7421 8.33178C18.5427 8.12786 18.2727 8.01377 17.9915 8.0146C17.7104 8.01543 17.441 8.13111 17.2428 8.3362ZM19.7474 10.3851C20.0797 10.7249 20.2672 11.1867 20.2685 11.6687C20.2699 12.1507 20.085 12.6135 19.7546 12.9554L18.5087 14.2442C18.2599 14.5079 17.9264 14.6696 17.5704 14.6993L13.76 14.8776C13.6673 14.8775 13.5784 14.8399 13.5123 14.773C13.4658 14.7254 13.4331 14.6654 13.4178 14.5998C13.4025 14.5341 13.4053 14.4654 13.4259 14.4013C13.4465 14.3372 13.484 14.2802 13.5343 14.2368C13.5846 14.1934 13.6456 14.1653 13.7105 14.1555L15.9833 13.7119L12.2493 9.89312C12.1828 9.82514 12.1453 9.7328 12.1451 9.63639C12.1448 9.53999 12.1818 9.44742 12.2478 9.37906C12.3139 9.31069 12.4037 9.27213 12.4974 9.27186C12.5912 9.27158 12.6812 9.30961 12.7476 9.37758L15.5043 12.1968L16.0026 11.6813L15.2508 10.9124C15.1844 10.8444 15.1469 10.7521 15.1466 10.6557C15.1463 10.5593 15.1833 10.4667 15.2494 10.3983C15.3155 10.33 15.4052 10.2914 15.499 10.2911C15.5927 10.2909 15.6827 10.3289 15.7492 10.3969L16.501 11.1657L16.9993 10.6502L16.4981 10.1376C16.4317 10.0696 16.3942 9.9773 16.3939 9.88089C16.3936 9.78449 16.4306 9.69192 16.4967 9.62356C16.5628 9.5552 16.6525 9.51663 16.7463 9.51636C16.84 9.51608 16.93 9.55411 16.9965 9.62209L17.4977 10.1347L17.996 9.61914L17.7454 9.36285C17.6789 9.29487 17.6415 9.20253 17.6412 9.10612C17.6409 9.00972 17.6779 8.91715 17.744 8.84879C17.8101 8.78042 17.8998 8.74186 17.9936 8.74159C18.0873 8.74131 18.1773 8.77934 18.2438 8.84731L19.7474 10.3851Z" fill="currentColor"></path></g><defs><clipPath id="clip0_24_623"><rect width="21" height="21" fill="white"></rect></clipPath></defs></symbol>
  <symbol id="WhatsApp" viewBox="0 0 18 18" fill="none" xmlns="http://www.w3.org/2000/svg"><path fill-rule="evenodd" clip-rule="evenodd" d="M13.1241 10.7865C12.8995 10.6748 11.7985 10.1363 11.5935 10.0613C11.3885 9.98701 11.2393 9.95026 11.0894 10.1738C10.9401 10.3958 10.5113 10.8983 10.381 11.0468C10.2498 11.196 10.1195 11.214 9.89564 11.103C9.67182 10.9905 8.94986 10.7558 8.09452 9.99676C7.42908 9.40577 6.97918 8.67602 6.8488 8.45252C6.71843 8.22977 6.83448 8.10902 6.94677 7.99802C7.04775 7.89827 7.17059 7.73777 7.28288 7.60802C7.39517 7.47752 7.43209 7.38452 7.5067 7.23527C7.58206 7.08677 7.54438 6.95702 7.48786 6.84527C7.43209 6.73352 6.98445 5.63627 6.79756 5.19002C6.61594 4.75577 6.4313 4.81502 6.29414 4.80752C6.16302 4.80152 6.0138 4.80002 5.86459 4.80002C5.71537 4.80002 5.47271 4.85552 5.26773 5.07902C5.06199 5.30177 4.48397 5.84102 4.48397 6.93827C4.48397 8.03477 5.28582 9.09452 5.3981 9.24376C5.51039 9.39227 6.97691 11.6438 9.22342 12.609C9.75849 12.8385 10.1752 12.9758 10.5 13.0778C11.0366 13.248 11.5249 13.224 11.9108 13.1663C12.3404 13.1025 13.2356 12.627 13.4225 12.1065C13.6087 11.586 13.6087 11.1398 13.5529 11.0468C13.4971 10.9538 13.3479 10.8983 13.1234 10.7865H13.1241ZM9.03804 16.3388H9.03502C7.7007 16.339 6.39089 15.982 5.24286 15.3053L4.97156 15.1448L2.15155 15.8813L2.90441 13.1453L2.72731 12.8648C1.98134 11.683 1.58657 10.3153 1.58861 8.91977C1.59012 4.83227 4.93162 1.50678 9.04105 1.50678C11.0306 1.50678 12.901 2.27928 14.3073 3.68027C15.0009 4.36771 15.5506 5.1852 15.9247 6.08544C16.2988 6.98569 16.4898 7.95083 16.4867 8.92502C16.4852 13.0125 13.1437 16.3388 9.03804 16.3388ZM15.3774 2.61603C14.5471 1.78422 13.5591 1.12468 12.4708 0.67563C11.3825 0.226578 10.2154 -0.00305718 9.03728 3.07331e-05C4.09813 3.07331e-05 0.0768681 4.00127 0.0753609 8.91902C0.0730722 10.4841 0.485607 12.022 1.27134 13.3778L0 18L4.75075 16.7595C6.06495 17.4721 7.53767 17.8455 9.03427 17.8455H9.03804C13.9772 17.8455 17.9984 13.8443 18 8.92577C18.0036 7.75372 17.7737 6.59259 17.3235 5.50955C16.8734 4.4265 16.2119 3.44303 15.3774 2.61603Z" fill="currentColor"></path></symbol>
  <symbol id="Clipboard"  xmlns="http://www.w3.org/2000/svg" stroke="currentColor" viewBox="0 0 384 512"><path d="M280 64h40c35.3 0 64 28.7 64 64V448c0 35.3-28.7 64-64 64H64c-35.3 0-64-28.7-64-64V128C0 92.7 28.7 64 64 64h40 9.6C121 27.5 153.3 0 192 0s71 27.5 78.4 64H280zM64 112c-8.8 0-16 7.2-16 16V448c0 8.8 7.2 16 16 16H320c8.8 0 16-7.2 16-16V128c0-8.8-7.2-16-16-16H304v24c0 13.3-10.7 24-24 24H192 104c-13.3 0-24-10.7-24-24V112H64zm128-8a24 24 0 1 0 0-48 24 24 0 1 0 0 48z" fill="currentColor" /></symbol>
  <symbol id="ShoppingCart" viewBox="0 0 35 33" fill="none" xmlns="http://www.w3.org/2000/svg"><path d="M12.8096 32C13.6248 32 14.2858 31.3391 14.2858 30.5238C14.2858 29.7085 13.6248 29.0476 12.8096 29.0476C11.9943 29.0476 11.3334 29.7085 11.3334 30.5238C11.3334 31.3391 11.9943 32 12.8096 32Z" fill="currentColor" stroke="currentColor" stroke-width="2" stroke-linecap="round" stroke-linejoin="round"/><path d="M29.0476 32C29.8629 32 30.5238 31.3391 30.5238 30.5238C30.5238 29.7085 29.8629 29.0476 29.0476 29.0476C28.2323 29.0476 27.5714 29.7085 27.5714 30.5238C27.5714 31.3391 28.2323 32 29.0476 32Z" fill="currentColor" stroke="currentColor" stroke-width="2" stroke-linecap="round" stroke-linejoin="round"/><path d="M1 1H6.90476L10.861 20.7662C10.9959 21.4458 11.3657 22.0563 11.9054 22.4908C12.4452 22.9253 13.1206 23.1561 13.8133 23.1429H28.1619C28.8547 23.1561 29.5301 22.9253 30.0698 22.4908C30.6096 22.0563 30.9793 21.4458 31.1143 20.7662L33.4762 8.38095H8.38095" stroke="currentColor" stroke-width="3" stroke-linecap="round" stroke-linejoin="round"/></symbol>
  <symbol id="Bars3" height="24" viewBox="0 0 33 24" fill="none" xmlns="http://www.w3.org/2000/svg"><path d="M33 2H0" stroke="currentColor" stroke-width="4"/><path d="M33 2H0" stroke="currentColor" stroke-width="4"/><path d="M33 12H0" stroke="currentColor" stroke-width="4"/><path d="M33 22H0" stroke="currentColor" stroke-width="4"/></symbol>
	<symbol id="Heart" xmlns="http://www.w3.org/2000/svg" fill="none" viewBox="0 0 24 24" stroke="currentColor"><path stroke-linecap="round" stroke-linejoin="round" d="M21 8.25c0-2.485-2.099-4.5-4.688-4.5-1.935 0-3.597 1.126-4.312 2.733-.715-1.607-2.377-2.733-4.313-2.733C5.1 3.75 3 5.765 3 8.25c0 7.22 9 12 9 12s9-4.78 9-12z" /></symbol>
  <symbol id="MagnifyingGlass" fill="currentColor" stroke="currentColor" viewBox="0 0 1792 1792" xmlns="http://www.w3.org/2000/svg"><path d="M1216 832q0-185-131.5-316.5t-316.5-131.5-316.5 131.5-131.5 316.5 131.5 316.5 316.5 131.5 316.5-131.5 131.5-316.5zm512 832q0 52-38 90t-90 38q-54 0-90-38l-343-342q-179 124-399 124-143 0-273.5-55.5t-225-150-150-225-55.5-273.5 55.5-273.5 150-225 225-150 273.5-55.5 273.5 55.5 225 150 150 225 55.5 273.5q0 220-124 399l343 343q37 37 37 90z"/></symbol>
  <symbol id="XMark" xmlns="http://www.w3.org/2000/svg" viewBox="0 0 352 512" fill="currentColor"><path d="M242.72 256l100.07-100.07c12.28-12.28 12.28-32.19 0-44.48l-22.24-22.24c-12.28-12.28-32.19-12.28-44.48 0L176 189.28 75.93 89.21c-12.28-12.28-32.19-12.28-44.48 0L9.21 111.45c-12.28 12.28-12.28 32.19 0 44.48L109.28 256 9.21 356.07c-12.28 12.28-12.28 32.19 0 44.48l22.24 22.24c12.28 12.28 32.2 12.28 44.48 0L176 322.72l100.07 100.07c12.28 12.28 32.2 12.28 44.48 0l22.24-22.24c12.28-12.28 12.28-32.19 0-44.48L242.72 256z"/></symbol>
  <symbol id="Plus" xmlns="http://www.w3.org/2000/svg" viewBox="0 0 448 512" fill="currentColor"><path d="M416 208H272V64c0-17.67-14.33-32-32-32h-32c-17.67 0-32 14.33-32 32v144H32c-17.67 0-32 14.33-32 32v32c0 17.67 14.33 32 32 32h144v144c0 17.67 14.33 32 32 32h32c17.67 0 32-14.33 32-32V304h144c17.67 0 32-14.33 32-32v-32c0-17.67-14.33-32-32-32z" /></symbol>
 	<symbol id="Minus" xmlns="http://www.w3.org/2000/svg" viewBox="0 0 448 512" fill="currentColor" stroke="currentColor"><path d="M416 208H32c-17.67 0-32 14.33-32 32v32c0 17.67 14.33 32 32 32h384c17.67 0 32-14.33 32-32v-32c0-17.67-14.33-32-32-32z"/></symbol>
  <symbol id="MapPin" viewBox="0 0 10 12" fill="none" stroke="currentColor" xmlns="http://www.w3.org/2000/svg"><path d="M4.65851 1.73901C4.24096 1.73901 3.8328 1.86283 3.48562 2.09481C3.13844 2.32678 2.86785 2.6565 2.70807 3.04226C2.54828 3.42802 2.50647 3.8525 2.58793 4.26202C2.66939 4.67155 2.87046 5.04772 3.1657 5.34296C3.46095 5.63821 3.83712 5.83928 4.24665 5.92074C4.65617 6.0022 5.08065 5.96039 5.46641 5.8006C5.85217 5.64082 6.18189 5.37022 6.41386 5.02305C6.64584 4.67587 6.76965 4.2677 6.76965 3.85016C6.76965 3.29025 6.54723 2.75327 6.15131 2.35735C5.7554 1.96144 5.21842 1.73901 4.65851 1.73901V1.73901ZM4.65851 5.22443C4.3867 5.22443 4.121 5.14383 3.89501 4.99282C3.66901 4.84182 3.49286 4.62718 3.38885 4.37607C3.28483 4.12495 3.25762 3.84863 3.31064 3.58205C3.36367 3.31547 3.49456 3.0706 3.68675 2.8784C3.87895 2.68621 4.12382 2.55532 4.3904 2.50229C4.65698 2.44927 4.93331 2.47648 5.18442 2.5805C5.43554 2.68451 5.65017 2.86066 5.80117 3.08665C5.95218 3.31265 6.03278 3.57835 6.03278 3.85016C6.0318 4.214 5.88659 4.5626 5.62897 4.81953C5.37135 5.07646 5.02235 5.22075 4.65851 5.22075V5.22443Z" fill="currentColor"/><path d="M4.65852 3.64724e-10C3.51091 0.000958517 2.41031 0.45601 1.5971 1.26576C0.783897 2.07552 0.324169 3.17417 0.318329 4.32177C0.318329 6.04237 1.28363 7.48296 1.99103 8.53301L2.11999 8.72459C2.8238 9.74466 3.57884 10.7284 4.38219 11.6721L4.6622 12L4.94222 11.6721C5.74546 10.7283 6.5005 9.74458 7.20442 8.72459L7.33337 8.52932C8.03709 7.47928 9.00239 6.04237 9.00239 4.32177C8.99655 3.17354 8.53632 2.07433 7.72231 1.26447C6.90831 0.454606 5.80677 -1.48687e-05 4.65852 3.64724e-10V3.64724e-10ZM6.71808 8.10562L6.58545 8.30089C5.95173 9.25146 5.1117 10.3162 4.65852 10.8431C4.22376 10.3162 3.36531 9.25146 2.73159 8.30089L2.60264 8.10562C1.95051 7.13294 1.0552 5.80289 1.0552 4.30703C1.0552 3.83384 1.14841 3.36528 1.32949 2.9281C1.51057 2.49093 1.77599 2.0937 2.11059 1.7591C2.44519 1.4245 2.84242 1.15908 3.27959 0.978001C3.71676 0.796918 4.18533 0.703715 4.65852 0.703715C5.13171 0.703715 5.60027 0.796918 6.03745 0.978001C6.47462 1.15908 6.87185 1.4245 7.20645 1.7591C7.54105 2.0937 7.80647 2.49093 7.98755 2.9281C8.16863 3.36528 8.26184 3.83384 8.26184 4.30703C8.26184 5.81762 7.37022 7.14768 6.71808 8.10562V8.10562Z" fill="currentColor"/></symbol>
  <symbol id="Phone" width="11" height="11" viewBox="0 0 11 11" fill="none" xmlns="http://www.w3.org/2000/svg"><path d="M9.73122 11H9.65932C1.34892 10.5219 0.168968 3.50731 0.00402825 1.36654C-0.00926194 1.20009 0.0104096 1.03266 0.0619156 0.873828C0.113422 0.714999 0.19575 0.567898 0.304183 0.440953C0.412616 0.314008 0.545023 0.209714 0.693817 0.134047C0.842611 0.0583808 1.00487 0.0128285 1.17129 3.96673e-07H3.50159C3.67099 -0.000163657 3.83654 0.0505622 3.97679 0.145607C4.11705 0.240652 4.22554 0.375637 4.28822 0.533077L4.93106 2.11539C4.99295 2.26919 5.00832 2.4378 4.97523 2.60027C4.94215 2.76274 4.86208 2.9119 4.74498 3.02923L3.84415 3.93885C3.98487 4.73878 4.36781 5.47617 4.94117 6.05125C5.51453 6.62634 6.25063 7.01136 7.0499 7.15423L7.96763 6.24462C8.08669 6.12876 8.2372 6.05053 8.4004 6.01968C8.5636 5.98884 8.73227 6.00674 8.88537 6.07115L10.4798 6.71C10.6348 6.77468 10.767 6.88406 10.8597 7.02421C10.9523 7.16435 11.0012 7.32891 11 7.49692V9.73077C11 10.0674 10.8663 10.3902 10.6284 10.6283C10.3904 10.8663 10.0677 11 9.73122 11ZM1.27279 0.846154C1.16063 0.846154 1.05305 0.890728 0.973741 0.970071C0.894428 1.04941 0.849871 1.15702 0.849871 1.26923V1.30308C1.04441 3.80769 2.29203 9.73077 9.70584 10.1538C9.7614 10.1573 9.81709 10.1497 9.86972 10.1316C9.92235 10.1134 9.97088 10.0851 10.0125 10.0481C10.0542 10.0112 10.0881 9.96636 10.1124 9.91626C10.1367 9.86616 10.1509 9.81175 10.1541 9.75615V7.49692L8.55972 6.85808L7.34594 8.06385L7.14294 8.03846C3.46352 7.57731 2.96448 3.89654 2.96448 3.85846L2.9391 3.65539L4.1402 2.44115L3.50582 0.846154H1.27279Z" fill="#4C4C4C"/></symbol>
	<symbol id="Elo" xmlns="http://www.w3.org/2000/svg" viewBox="0 0 40 14" stroke="currentColor" fill="none"><path d="M6.57655 3.09309C6.98496 2.95495 7.4234 2.88288 7.87985 2.88288C9.87385 2.88288 11.5375 4.3003 11.9159 6.18018L14.7387 5.6036C14.0901 2.40841 11.2672 0 7.87985 0C7.10508 0 6.36033 0.126126 5.66364 0.36036L6.57655 3.09309Z" fill="currentColor"/><path d="M3.24323 12.2463L5.15314 10.0841C4.30029 9.32733 3.76576 8.22823 3.76576 6.997C3.76576 5.77178 4.30029 4.66667 5.15314 3.91592L3.24323 1.75977C1.79579 3.04505 0.882874 4.91292 0.882874 7.00301C0.882874 9.08709 1.79579 10.961 3.24323 12.2463Z" fill="currentColor"/><path d="M11.9159 7.82617C11.5315 9.70605 9.87387 11.1175 7.87988 11.1175C7.42342 11.1175 6.98498 11.0454 6.57057 10.9073L5.65765 13.64C6.35435 13.8742 7.1051 14.0003 7.87988 14.0003C11.2673 14.0003 14.0901 11.5979 14.7387 8.40275L11.9159 7.82617Z" fill="currentColor"/><path d="M24.1441 9.75962C23.6757 10.2161 23.045 10.4924 22.3484 10.4803C21.8679 10.4743 21.4234 10.3302 21.0511 10.0899L20.1141 11.5794C20.7568 11.9818 21.5075 12.2221 22.3243 12.2341C23.5075 12.2521 24.5886 11.7836 25.3754 11.0209L24.1441 9.75962ZM22.4505 3.68755C20.0961 3.65151 18.1502 5.5374 18.1141 7.89175C18.1021 8.77463 18.3544 9.60346 18.8048 10.2881L26.5405 6.97884C26.1081 5.12298 24.4505 3.72358 22.4505 3.68755ZM19.8859 8.22809C19.8739 8.13199 19.8679 8.02989 19.8679 7.92779C19.8919 6.5404 21.033 5.42929 22.4204 5.45331C23.1772 5.46532 23.8499 5.80767 24.3003 6.34821L19.8859 8.22809ZM28.973 1.76562V10.0119L30.4024 10.6065L29.7237 12.2341L28.3063 11.6455C27.988 11.5074 27.7718 11.2972 27.6096 11.0569C27.4535 10.8167 27.3333 10.4803 27.3333 10.0359V1.76562H28.973Z" fill="currentColor"/><path d="M34.1321 5.57925C34.3844 5.49516 34.6487 5.45312 34.9309 5.45312C36.1502 5.45312 37.1592 6.31798 37.3934 7.46513L39.1171 7.11078C38.7207 5.15882 36.997 3.69336 34.9309 3.69336C34.4565 3.69336 34 3.77144 33.5796 3.90958L34.1321 5.57925ZM32.0961 11.1588L33.2613 9.84351C32.7387 9.38105 32.4144 8.70837 32.4144 7.95762C32.4144 7.20687 32.7448 6.5342 33.2613 6.07774L32.0961 4.76243C31.2132 5.54321 30.6547 6.69036 30.6547 7.96363C30.6547 9.2369 31.2132 10.378 32.0961 11.1588ZM37.3934 8.46813C37.1592 9.61528 36.1442 10.4801 34.9309 10.4801C34.6547 10.4801 34.3844 10.4321 34.1321 10.348L33.5736 12.0177C34 12.1618 34.4565 12.2399 34.9309 12.2399C36.997 12.2399 38.7207 10.7744 39.1171 8.82249L37.3934 8.46813Z" fill="currentColor"/></symbol>
	<symbol id="Mastercard" xmlns="http://www.w3.org/2000/svg" viewBox="0 0 26 20" fill="none" stroke="currentColor"><g clip-path="url(#clip0_81_156)"><path d="M4.77191 19.9552V18.6263C4.77191 18.1167 4.46174 17.7846 3.95265 17.7846C3.68527 17.7846 3.39918 17.8734 3.19971 18.159C3.04463 17.9151 2.82538 17.7846 2.49116 17.7846C2.36689 17.7793 2.24323 17.8048 2.13124 17.8589C2.01926 17.913 1.92244 17.9941 1.84944 18.0948V17.8274H1.42859V19.9536H1.84944V18.737C1.84944 18.3627 2.07083 18.1836 2.381 18.1836C2.69116 18.1836 2.86816 18.383 2.86816 18.737V19.9552H3.28902V18.737C3.28902 18.3627 3.51041 18.1836 3.82057 18.1836C4.13073 18.1836 4.30773 18.383 4.30773 18.737V19.9552H4.77191ZM11.6821 17.8509H10.9067V17.2092H10.4869V17.8509H10.0441V18.2253H10.4869V19.2242C10.4869 19.7114 10.6639 19.9996 11.1954 19.9996C11.3968 19.9954 11.5941 19.9422 11.7703 19.8445L11.6371 19.4702C11.5177 19.5449 11.3791 19.5833 11.2382 19.5809C11.0168 19.5809 10.9061 19.4477 10.9061 19.2263V18.2082H11.6815V17.8536L11.6821 17.8509ZM15.6243 17.7846C15.5097 17.7821 15.3964 17.8093 15.2954 17.8637C15.1945 17.918 15.1093 17.9977 15.0484 18.0948V17.8274H14.6275V19.9536H15.0484V18.7595C15.0484 18.405 15.2254 18.1836 15.5136 18.1836C15.6109 18.1875 15.7074 18.2024 15.8013 18.2279L15.9345 17.829C15.8329 17.8034 15.729 17.7885 15.6243 17.7846ZM9.66656 18.006C9.44517 17.8509 9.13501 17.7846 8.80292 17.7846C8.27137 17.7846 7.93928 18.0285 7.93928 18.4493C7.93928 18.8039 8.18314 19.0028 8.64784 19.0697L8.86923 19.0916C9.11308 19.136 9.26816 19.2247 9.26816 19.3354C9.26816 19.4905 9.09116 19.6028 8.75854 19.6028C8.50456 19.608 8.2558 19.5303 8.04998 19.3814L7.82859 19.7135C8.13875 19.9349 8.51522 19.9809 8.73768 19.9809C9.358 19.9809 9.69009 19.6932 9.69009 19.2943C9.69009 18.9199 9.42271 18.7408 8.95907 18.6739L8.73768 18.652C8.53822 18.6301 8.36335 18.5632 8.36335 18.4306C8.36335 18.2755 8.54036 18.1632 8.78421 18.1632C9.05159 18.1632 9.31576 18.2739 9.44891 18.3402L9.66656 18.006ZM16.0896 18.8921C16.0896 19.5338 16.5104 19.9996 17.197 19.9996C17.5072 19.9996 17.7286 19.9333 17.95 19.7558L17.7286 19.4237C17.5718 19.5506 17.3768 19.6209 17.1751 19.6231C16.8008 19.6231 16.5104 19.3354 16.5104 18.9146C16.5104 18.4937 16.797 18.2082 17.1751 18.2082C17.3768 18.2104 17.5718 18.2807 17.7286 18.4076L17.95 18.0755C17.7286 17.8985 17.5072 17.8317 17.197 17.8317C16.5323 17.7873 16.0896 18.2525 16.0896 18.8948V18.8921ZM13.1216 17.7846C12.5013 17.7846 12.0805 18.2274 12.0805 18.8921C12.0805 19.5568 12.5232 19.9996 13.1655 19.9996C13.4779 20.0062 13.7831 19.9046 14.0291 19.7119L13.8077 19.4017C13.6298 19.5396 13.4125 19.6172 13.1874 19.6231C12.8997 19.6231 12.5896 19.4461 12.5457 19.0697H14.1184V18.8927C14.1184 18.2279 13.7195 17.7852 13.1216 17.7852V17.7846ZM13.0997 18.1836C13.4099 18.1836 13.6313 18.383 13.6532 18.7151H12.5019C12.5682 18.405 12.7692 18.1836 13.0997 18.1836ZM7.36335 18.8921V17.829H6.94249V18.0964C6.78741 17.8969 6.56816 17.7862 6.25586 17.7862C5.658 17.7862 5.21469 18.2515 5.21469 18.8937C5.21469 19.536 5.65747 20.0012 6.25586 20.0012C6.56602 20.0012 6.78741 19.8905 6.94249 19.691V19.9584H7.36335V18.8921ZM5.658 18.8921C5.658 18.4932 5.90185 18.1836 6.32271 18.1836C6.72164 18.1836 6.96442 18.4937 6.96442 18.8921C6.96442 19.313 6.69704 19.6007 6.32271 19.6007C5.90185 19.6226 5.658 19.2905 5.658 18.8921ZM22.0259 17.7846C21.9113 17.7821 21.798 17.8093 21.697 17.8637C21.5961 17.918 21.5109 17.9977 21.45 18.0948V17.8274H21.0291V19.9536H21.4495V18.7595C21.4495 18.405 21.6265 18.1836 21.9147 18.1836C22.012 18.1875 22.1085 18.2024 22.2024 18.2279L22.3355 17.829C22.234 17.8034 22.13 17.7885 22.0254 17.7846H22.0259ZM20.3869 18.8921V17.829H19.966V18.0964C19.8109 17.8969 19.5917 17.7862 19.2794 17.7862C18.6815 17.7862 18.2382 18.2515 18.2382 18.8937C18.2382 19.536 18.681 20.0012 19.2794 20.0012C19.5896 20.0012 19.8109 19.8905 19.966 19.691V19.9584H20.3869V18.8921ZM18.6815 18.8921C18.6815 18.4932 18.9254 18.1836 19.3462 18.1836C19.7452 18.1836 19.988 18.4937 19.988 18.8921C19.988 19.313 19.7206 19.6007 19.3462 19.6007C18.9254 19.6226 18.6815 19.2905 18.6815 18.8921ZM24.6618 18.8921V16.9873H24.2409V18.0948C24.0858 17.8953 23.8666 17.7846 23.5543 17.7846C22.9564 17.7846 22.5131 18.2499 22.5131 18.8921C22.5131 19.5344 22.9559 19.9996 23.5543 19.9996C23.8644 19.9996 24.0858 19.8889 24.2409 19.6894V19.9568H24.6618V18.8921ZM22.9564 18.8921C22.9564 18.4932 23.2003 18.1836 23.6211 18.1836C24.02 18.1836 24.2628 18.4937 24.2628 18.8921C24.2628 19.313 23.9954 19.6007 23.6211 19.6007C23.1997 19.6231 22.9559 19.291 22.9559 18.8921H22.9564Z" fill="currentColor"/><path d="M9.95478 7.97327C9.95505 6.76731 10.2281 5.57704 10.7536 4.49159C11.279 3.40613 12.0433 2.45361 12.989 1.70535C11.8128 0.780601 10.4002 0.205442 8.9126 0.045623C7.42499 -0.114196 5.92242 0.147775 4.57667 0.801588C3.23091 1.4554 2.09627 2.47468 1.30244 3.74289C0.508619 5.01111 0.0876465 6.47709 0.0876465 7.97327C0.0876465 9.46944 0.508619 10.9354 1.30244 12.2036C2.09627 13.4719 3.23091 14.4911 4.57667 15.1449C5.92242 15.7988 7.42499 16.0607 8.9126 15.9009C10.4002 15.7411 11.8128 15.1659 12.989 14.2412C12.0433 13.4929 11.279 12.5404 10.7536 11.4549C10.2281 10.3695 9.95505 9.17922 9.95478 7.97327Z" fill="currentColor"/><path d="M25.9019 7.97297C25.9029 9.46805 25.4832 10.9333 24.6907 12.201C23.8982 13.4688 22.7648 14.4879 21.4203 15.1418C20.0758 15.7957 18.5744 16.0579 17.0879 15.8986C15.6013 15.7393 14.1896 15.1648 13.0142 14.2409C13.9601 13.4928 14.7245 12.5403 15.25 11.4548C15.7755 10.3693 16.0485 9.17898 16.0485 7.97297C16.0485 6.76696 15.7755 5.5766 15.25 4.4911C14.7245 3.4056 13.9601 2.45312 13.0142 1.70506C14.1896 0.781104 15.6013 0.20662 17.0879 0.0473072C18.5744 -0.112005 20.0758 0.150287 21.4203 0.804186C22.7648 1.45808 23.8982 2.47719 24.6907 3.74493C25.4832 5.01268 25.9029 6.47789 25.9019 7.97297Z" fill="currentColor" fill-opacity="0.4"/><path fill-rule="evenodd" clip-rule="evenodd" d="M13.0141 1.70508H12.989C12.0432 2.45333 11.279 3.40585 10.7536 4.49131C10.2281 5.57677 9.95504 6.76704 9.95477 7.97299C9.95504 9.17894 10.2281 10.3692 10.7536 11.4547C11.279 12.5401 12.0433 13.4926 12.989 14.2409H13.0141C13.0141 14.2409 13.0141 14.2409 13.0141 14.2409C13.9601 13.4928 14.7245 12.5404 15.25 11.4549C15.7755 10.3694 16.0484 9.17899 16.0484 7.97299C16.0484 6.76698 15.7755 5.57661 15.25 4.49111C14.7245 3.40561 13.9601 2.45314 13.0141 1.70508Z" fill="currentColor" fill-opacity="0.6"/></g><defs><clipPath id="clip0_81_156"><rect width="25.8027" height="20" fill="white" transform="translate(0.0986328)"/></clipPath></defs></symbol>
	<symbol id="Visa" xmlns="http://www.w3.org/2000/svg" viewBox="0 0 40 12" fill="none" stroke="currentColor"><path d="M14.2514 11.8628L16.2325 0.237305H19.4012L17.4187 11.8628H14.2514Z" fill="currentColor"/><path d="M28.8667 0.488266C28.2389 0.252744 27.2552 0 26.0267 0C22.8956 0 20.6902 1.57674 20.6714 3.83653C20.6537 5.50698 22.2459 6.43886 23.4479 6.99494C24.6813 7.56486 25.0959 7.92824 25.09 8.437C25.0821 9.21631 24.105 9.57221 23.1942 9.57221C21.926 9.57221 21.2522 9.39601 20.2115 8.96208L19.8031 8.77728L19.3585 11.3797C20.0986 11.7043 21.4671 11.9854 22.8882 12C26.2191 12 28.3815 10.4413 28.4061 8.02807C28.4179 6.70556 27.5737 5.69921 25.7455 4.86948C24.638 4.33169 23.9597 3.97282 23.9669 3.42826C23.9669 2.94504 24.541 2.42833 25.7816 2.42833C26.8177 2.41223 27.5684 2.6382 28.1533 2.87372L28.4372 3.00787L28.8667 0.488266Z" fill="currentColor"/><path d="M37.0208 0.237305H34.5723C33.8138 0.237305 33.2461 0.444322 32.913 1.20137L28.2071 11.8552H31.5345C31.5345 11.8552 32.0785 10.4228 32.2015 10.1082C32.5651 10.1082 35.7976 10.1132 36.2597 10.1132C36.3545 10.5202 36.6452 11.8552 36.6452 11.8552H39.5855L37.0208 0.237305ZM33.136 7.74409C33.3981 7.07428 34.3985 4.49428 34.3985 4.49428C34.3798 4.52522 34.6587 3.82121 34.8186 3.38473L35.0328 4.38703C35.0328 4.38703 35.6395 7.16205 35.7663 7.74391H33.136V7.74409Z" fill="currentColor"/><path d="M0.45503 0.237305L0.414551 0.479138C1.66716 0.782359 2.78593 1.22123 3.76542 1.76717L6.57706 11.8441L9.92966 11.8404L14.9183 0.237305H11.5615L8.45929 8.16502L8.12885 6.55384C8.11337 6.50406 8.09654 6.4542 8.07932 6.40422L7.00087 1.21879C6.80912 0.482646 6.25282 0.262959 5.56461 0.237305H0.45503Z" fill="currentColor"/></symbol>		
  <symbol id="Facebook" viewBox="0 0 23 24" fill="none" xmlns="http://www.w3.org/2000/svg"><path d="M11.5 0.71875C5.14855 0.71875 0 5.89864 0 12.2887C0 18.0633 4.20555 22.8498 9.7037 23.7188V15.6325H6.7827V12.2887H9.7037V9.73988C9.7037 6.84044 11.4195 5.23915 14.0472 5.23915C15.3054 5.23915 16.6209 5.46476 16.6209 5.46476V8.31098H15.1719C13.7425 8.31098 13.2974 9.20303 13.2974 10.1182V12.2887H16.4864L15.9769 15.6325H13.2974V23.7188C18.7944 22.851 23 18.0622 23 12.2887C23 5.89864 17.8514 0.71875 11.5 0.71875Z" fill="currentColor"/></symbol>
  <symbol id="Instagram" viewBox="0 0 22 23" fill="none" xmlns="http://www.w3.org/2000/svg"><path d="M10.997 6.07469C7.87374 6.07469 5.35309 8.59539 5.35309 11.7188C5.35309 14.8421 7.87374 17.3628 10.997 17.3628C14.1203 17.3628 16.641 14.8421 16.641 11.7188C16.641 8.59539 14.1203 6.07469 10.997 6.07469ZM10.997 15.387C8.97722 15.387 7.32888 13.7386 7.32888 11.7188C7.32888 9.69888 8.97722 8.05052 10.997 8.05052C13.0169 8.05052 14.6652 9.69888 14.6652 11.7188C14.6652 13.7386 13.0169 15.387 10.997 15.387ZM16.8722 4.52814C16.1429 4.52814 15.554 5.11704 15.554 5.84628C15.554 6.57552 16.1429 7.16442 16.8722 7.16442C17.6014 7.16442 18.1903 6.57828 18.1903 5.84628C18.1905 5.67312 18.1565 5.50162 18.0904 5.34159C18.0242 5.18157 17.9271 5.03618 17.8047 4.91373C17.6822 4.79129 17.5369 4.6942 17.3768 4.62804C17.2168 4.56187 17.0453 4.52792 16.8722 4.52814ZM21.9988 11.7188C21.9988 10.1997 22.0125 8.69446 21.9272 7.17818C21.8419 5.41699 21.4402 3.85394 20.1523 2.56607C18.8617 1.27544 17.3014 0.876424 15.5403 0.791117C14.0213 0.705809 12.516 0.719569 10.9998 0.719569C9.4808 0.719569 7.97556 0.705809 6.45931 0.791117C4.69815 0.876424 3.13513 1.2782 1.84728 2.56607C0.556684 3.85669 0.157672 5.41699 0.0723655 7.17818C-0.0129406 8.69721 0.000818509 10.2025 0.000818509 11.7188C0.000818509 13.235 -0.0129406 14.743 0.0723655 16.2593C0.157672 18.0205 0.559436 19.5836 1.84728 20.8714C3.13788 22.1621 4.69815 22.5611 6.45931 22.6464C7.97831 22.7317 9.48355 22.7179 10.9998 22.7179C12.5188 22.7179 14.024 22.7317 15.5403 22.6464C17.3014 22.5611 18.8645 22.1593 20.1523 20.8714C21.4429 19.5808 21.8419 18.0205 21.9272 16.2593C22.0153 14.743 21.9988 13.2378 21.9988 11.7188ZM19.5772 18.2076C19.3763 18.7085 19.1341 19.0827 18.7461 19.468C18.3581 19.856 17.9866 20.0982 17.4858 20.299C16.0384 20.8742 12.6013 20.7448 10.997 20.7448C9.39274 20.7448 5.95298 20.8742 4.50553 20.3018C4.0047 20.1009 3.63045 19.8587 3.2452 19.4707C2.8572 19.0827 2.61504 18.7112 2.41415 18.2104C1.84178 16.7602 1.97111 13.3231 1.97111 11.7188C1.97111 10.1144 1.84178 6.67459 2.41415 5.22711C2.61504 4.72628 2.8572 4.35202 3.2452 3.96676C3.63321 3.5815 4.0047 3.33659 4.50553 3.1357C5.95298 2.56331 9.39274 2.69265 10.997 2.69265C12.6013 2.69265 16.0411 2.56331 17.4886 3.1357C17.9894 3.33659 18.3636 3.57875 18.7489 3.96676C19.1369 4.35477 19.3791 4.72628 19.5799 5.22711C20.1523 6.67459 20.023 10.1144 20.023 11.7188C20.023 13.3231 20.1523 16.7602 19.5772 18.2076Z" fill="currentColor"/></symbol>
  <symbol id="Youtube" viewBox="0 0 25 18" fill="none" xmlns="http://www.w3.org/2000/svg"><path d="M24.4765 3.38605C24.335 2.8713 24.0593 2.40528 23.6787 2.03751C23.2874 1.65844 22.8078 1.38728 22.2851 1.24963C20.3292 0.724015 12.4927 0.724016 12.4927 0.724016C9.22579 0.686121 5.95966 0.85279 2.71278 1.22308C2.19013 1.3709 1.71142 1.64812 1.31922 2.03008C0.933851 2.4081 0.654721 2.87424 0.508908 3.38499C0.158635 5.30877 -0.0115514 7.26214 0.000642813 9.21874C-0.0118555 11.1736 0.157913 13.1263 0.508908 15.0525C0.651597 15.5611 0.929684 16.0251 1.31609 16.4C1.7025 16.7748 2.18368 17.0456 2.71278 17.1889C4.6948 17.7135 12.4927 17.7135 12.4927 17.7135C15.7638 17.7514 19.0341 17.5848 22.2851 17.2144C22.8078 17.0768 23.2874 16.8056 23.6787 16.4265C24.0641 16.0517 24.338 15.5855 24.4755 15.078C24.8349 13.1549 25.0097 11.2008 24.9973 9.24317C25.0243 7.27728 24.8498 5.31389 24.4765 3.38499V3.38605ZM10.0014 12.8545V5.58406L16.5213 9.21981L10.0014 12.8545Z" fill="currentColor"/></symbol>
  <symbol id="Linkedin" viewBox="0 0 21 22" fill="none" xmlns="http://www.w3.org/2000/svg"><path fill-rule="evenodd" clip-rule="evenodd" d="M2.59693e-07 2.47321C2.59693e-07 2.0079 0.184844 1.56164 0.513868 1.23262C0.842892 0.903596 1.28914 0.718752 1.75445 0.718752H19.2436C19.4742 0.718376 19.7026 0.763485 19.9158 0.851498C20.1289 0.93951 20.3226 1.0687 20.4857 1.23166C20.6489 1.39463 20.7783 1.58817 20.8665 1.80122C20.9548 2.01426 21.0001 2.24261 21 2.47321V19.9624C21.0002 20.193 20.955 20.4215 20.8669 20.6346C20.7788 20.8477 20.6495 21.0414 20.4865 21.2045C20.3234 21.3677 20.1298 21.4971 19.9167 21.5853C19.7036 21.6735 19.4752 21.7189 19.2446 21.7188H1.75445C1.52398 21.7188 1.29576 21.6733 1.08283 21.5851C0.869911 21.4969 0.676459 21.3676 0.51353 21.2045C0.350602 21.0415 0.22139 20.848 0.133276 20.635C0.0451627 20.4221 -0.000125137 20.1938 2.59693e-07 19.9633V2.47321ZM8.31218 8.72548H11.1558V10.1535C11.5662 9.33257 12.6162 8.59375 14.1941 8.59375C17.219 8.59375 17.9359 10.2289 17.9359 13.229V18.7864H14.8747V13.9125C14.8747 12.2038 14.4642 11.2398 13.4219 11.2398C11.9757 11.2398 11.3744 12.2793 11.3744 13.9125V18.7864H8.31218V8.72548ZM3.06218 18.6556H6.12436V8.59375H3.06218V18.6547V18.6556ZM6.5625 5.31202C6.56827 5.57421 6.52162 5.83491 6.42527 6.07882C6.32893 6.32274 6.18484 6.54495 6.00145 6.73242C5.81806 6.91989 5.59908 7.06884 5.35734 7.17053C5.11561 7.27222 4.856 7.3246 4.59375 7.3246C4.3315 7.3246 4.07189 7.27222 3.83016 7.17053C3.58842 7.06884 3.36944 6.91989 3.18605 6.73242C3.00266 6.54495 2.85857 6.32274 2.76223 6.07882C2.66588 5.83491 2.61923 5.57421 2.625 5.31202C2.63633 4.79739 2.84873 4.30764 3.21671 3.94768C3.58469 3.58772 4.07899 3.38615 4.59375 3.38615C5.10851 3.38615 5.60281 3.58772 5.97079 3.94768C6.33877 4.30764 6.55117 4.79739 6.5625 5.31202V5.31202Z" fill="#FF5101"/></symbol>
  <symbol id="EPlus" viewBox="0 0 106 21" fill="none" xmlns="http://www.w3.org/2000/svg"><path d="M9.11761 16.0222L13.4708 13.4845V8.43945L9.11761 10.9772V16.0222Z" fill="black"/><path d="M12.9225 7.44614L8.52364 4.89307L4.18561 7.40028L8.52364 9.96864L12.9225 7.44614Z" fill="black"/><path d="M0 5.67202V15.5786L8.52384 20.5318L17.0629 15.5786V5.67202L8.52384 0.71875L0 5.67202ZM14.0643 6.78804L14.5971 7.10908V14.1721L9.11747 17.3367L8.53906 17.673L2.49627 14.1415V7.10908L8.5695 3.59287L14.0643 6.78804Z" fill="black"/><path d="M7.97609 10.946L3.63806 8.4082V13.5144L7.97609 16.0521V10.946Z" fill="black"/><path d="M91.5702 4.18945H89.9111V13.1482H91.5702V4.18945Z" fill="black"/><path d="M97.5829 9.78465C97.5829 10.8242 96.8675 11.6956 95.8477 11.6956C94.767 11.6956 94.2038 10.9007 94.2038 9.87638V6.32959H92.5295V9.90696C92.5295 12.0014 93.7015 13.2397 95.3302 13.2397C96.2891 13.2397 96.9284 12.9187 97.6286 12.2307L97.7351 13.148H99.242V6.32959H97.5829V9.78465Z" fill="black"/><path d="M103.108 8.94383C102.24 8.89797 101.845 8.63807 101.845 8.21001C101.845 7.78195 102.286 7.53734 103.078 7.53734C103.732 7.53734 104.28 7.67494 104.752 8.13357L105.711 7.01756C104.935 6.3296 104.128 6.13086 103.078 6.13086C101.845 6.13086 100.216 6.68122 100.216 8.25587C100.216 9.79995 101.738 10.2739 103.017 10.3656C103.976 10.4268 104.356 10.6102 104.356 11.0841C104.356 11.5581 103.747 11.9097 103.123 11.8944C102.377 11.8791 101.266 11.4816 100.794 10.9465L99.9724 12.139C100.947 13.1786 102.027 13.362 103.093 13.362C105.026 13.362 106 12.3377 106 11.13C106 9.31074 104.371 9.02027 103.108 8.94383Z" fill="black"/><path d="M25.6021 7.2768C25.2216 6.58885 24.3387 6.16079 23.4407 6.16079C21.4619 6.1455 19.9094 7.36853 19.9094 9.70758C19.9094 12.0925 21.3858 13.3461 23.395 13.3308C24.1409 13.3155 25.2063 12.9333 25.5869 12.1384L25.663 13.1321H27.246L27.2612 6.32895H25.6478L25.6021 7.2768ZM23.5777 11.7867C22.4513 11.7867 21.5685 11.007 21.5685 9.70758C21.5685 8.40811 22.4817 7.659 23.5777 7.659C26.2109 7.67429 26.2109 11.7867 23.5777 11.7867Z" fill="black"/><path d="M33.8821 5.65723L33.2428 6.51335C32.771 6.1923 32.223 6.13115 31.6903 6.13115C29.7877 6.13115 28.2503 7.44591 28.2503 9.57092C28.2503 11.6959 29.5593 12.9954 31.6751 12.9954C32.5275 12.9954 33.395 13.4388 33.395 14.3713C33.395 15.3039 32.6492 15.8237 31.6751 15.8237C30.7009 15.8237 29.8942 15.2274 29.8942 14.356H28.2351C28.2351 16.1906 29.6963 17.3983 31.6598 17.3983C33.6234 17.3983 35.0541 16.2517 35.0541 14.3713C35.0541 13.5152 34.7802 12.6897 33.6538 12.124C34.7649 11.6195 35.0846 10.427 35.0846 9.58621C35.0993 8.8484 34.8448 8.13067 34.3692 7.56821L35.115 6.60508L33.8821 5.65723ZM31.6446 11.4666C30.6705 11.4666 29.879 10.7481 29.879 9.57092C29.879 8.39376 30.6705 7.65994 31.6446 7.64465C32.6188 7.62936 33.4103 8.39376 33.4103 9.57092C33.4103 10.7481 32.6188 11.4666 31.6446 11.4666Z" fill="black"/><path d="M39.7728 4.51017L40.5643 5.32043H42.2691V5.24399L40.2446 3.33301H39.3314L37.2917 5.24399V5.32043H38.9813L39.7728 4.51017Z" fill="black"/><path d="M47.9162 6.39071C47.079 6.39071 46.3789 6.72704 45.6939 7.39971L45.5874 6.28369H44.0805L44.0652 13.2855H45.7244V9.81519C45.7244 8.77562 46.4397 7.90421 47.4596 7.90421C48.5403 7.90421 49.1034 8.69918 49.1034 9.72346V13.3008H50.7778V9.73875C50.7778 7.59845 49.5144 6.39071 47.9162 6.39071Z" fill="black"/><path d="M55.3137 11.7873C54.2635 11.7873 53.3959 11.0994 53.3959 9.79991C53.3959 8.60745 54.2178 7.7819 55.3442 7.7819C55.8508 7.78524 56.3384 7.9757 56.7141 8.31698L57.7796 7.20097C57.0185 6.46715 56.3031 6.28369 55.3442 6.28369C53.3807 6.28369 51.7216 7.36913 51.7216 9.78462C51.7216 12.2001 53.3502 13.3926 55.3137 13.3926C55.7981 13.4079 56.2803 13.3206 56.7287 13.1362C57.1772 12.9518 57.582 12.6745 57.9166 12.3224L56.8054 11.2217C56.6083 11.4131 56.3743 11.5621 56.1178 11.6594C55.8613 11.7566 55.5876 11.8002 55.3137 11.7873Z" fill="black"/><path d="M58.8602 13.3314H60.5345L60.5649 6.29898L58.8907 6.28369L58.8602 13.3314Z" fill="black"/><path d="M67.1863 7.20063C66.8058 6.51268 65.9229 6.08461 65.0249 6.08461C63.0462 6.06933 61.4936 7.29236 61.4936 9.6314C61.4936 12.0163 62.97 13.2699 64.9792 13.2546C65.7251 13.2393 66.7906 12.8571 67.1711 12.0622L67.2472 13.0712H68.8302L68.8454 6.26807H67.232L67.1863 7.20063ZM65.1619 11.7411C64.0355 11.7411 63.1527 10.9614 63.1527 9.66198C63.1527 8.36251 64.0507 7.6134 65.1619 7.6134C67.8104 7.62869 67.7951 11.7411 65.1619 11.7411Z" fill="black"/><path d="M60.6869 4.1123H58.7538V5.85512H60.6869V4.1123Z" fill="black"/><path d="M74.4467 6.2223C72.2548 6.20701 70.7936 7.55234 70.7936 9.6315C70.7936 11.8177 72.1787 13.27 74.5076 13.27C75.5274 13.27 76.6994 12.9031 77.4148 12.1693L76.669 11.2979C76.2884 11.6954 75.4665 11.9247 74.8576 11.9247C73.6704 11.9247 72.7723 11.2826 72.6658 10.4418L77.9475 10.4876C78.2063 7.68994 76.7146 6.2223 74.4467 6.2223ZM72.5288 8.97412C72.6464 8.55838 72.8991 8.19409 73.2466 7.93923C73.5942 7.68436 74.0166 7.55356 74.4467 7.56763C75.4208 7.56763 76.0906 8.10271 76.1971 8.97412H72.5288Z" fill="black"/><path d="M39.6054 6.31409C37.4136 6.29881 35.9523 7.64414 35.9523 9.72329C35.9523 11.9095 37.3375 13.3618 39.6663 13.3618C40.6861 13.3618 41.8581 12.9949 42.5735 12.2611L41.8277 11.3897C41.4472 11.7872 40.6252 12.0165 40.0164 12.0165C38.8291 12.0165 37.9311 11.3744 37.8245 10.5336L43.1063 10.5794C43.365 7.78173 41.8581 6.31409 39.6054 6.31409ZM37.7028 9.05063C37.8204 8.63489 38.0731 8.2706 38.4206 8.01574C38.7681 7.76087 39.1905 7.63007 39.6206 7.64414C40.5948 7.64414 41.2645 8.17922 41.3711 9.05063H37.7028Z" fill="black"/><path d="M85.8167 4.08171H81.4634V5.87039H85.8167C86.2124 5.87039 87.4758 6.08442 87.4758 7.26159C87.4758 8.43875 86.3038 8.82095 86.3038 8.82095L86.2885 10.5943C86.2885 10.5943 89.211 10.3803 89.211 7.15457C89.211 3.92883 85.8167 4.08171 85.8167 4.08171Z" fill="black"/><path d="M81.4634 8.86719H78.7236V10.6253H81.4634V8.86719Z" fill="black"/><path d="M83.1225 6.42139H81.4634V8.86745H83.1225V10.6256H81.4634V13.2551H83.1225V10.6256H85.7558V8.86745H83.1225V6.42139Z" fill="black"/></symbol>
  <symbol id="Vtex" viewBox="0 0 56 21" fill="none" xmlns="http://www.w3.org/2000/svg"><path d="M21.6451 0.71875H4.17204C2.81718 0.71875 1.9482 2.15771 2.58358 3.3584L4.33089 6.66613H1.16331C0.523257 6.66613 0 7.18939 0 7.82944C0 8.01632 0.0467194 8.2032 0.135486 8.37139L5.75583 19.0094C6.05484 19.5794 6.7603 19.7943 7.33028 19.4953C7.53584 19.3878 7.70403 19.215 7.81616 19.0094L9.34388 16.1362L11.2594 19.7616C11.9321 21.037 13.7589 21.037 14.4363 19.7663L23.1915 3.28832C23.8129 2.125 22.9673 0.71875 21.6451 0.71875ZM13.7962 7.75937L10.0213 14.8654C9.82042 15.2438 9.35323 15.3886 8.9748 15.1878C8.83931 15.113 8.72719 15.0009 8.65244 14.8654L4.91021 7.7874C4.70932 7.40897 4.85415 6.94178 5.23257 6.74088C5.3447 6.68015 5.46617 6.65212 5.59231 6.65212H13.1282C13.544 6.65212 13.8803 6.9885 13.8803 7.40897C13.885 7.53044 13.857 7.65191 13.7962 7.75937Z" fill="#F71963"/><path d="M40.2301 8.36667H38.3193V14.9167C38.3193 15.0429 38.2165 15.141 38.095 15.141H36.6187C36.4925 15.141 36.3944 15.0382 36.3944 14.9167V8.36667H34.4743C34.3528 8.37134 34.2547 8.2779 34.25 8.16111V8.15643V6.99779C34.25 6.87632 34.3481 6.78288 34.4696 6.78288H34.4743H40.2301C40.3562 6.77821 40.459 6.87165 40.4684 6.99779V8.15643C40.459 8.27323 40.3562 8.37134 40.2301 8.36667Z" fill="#F71963"/><path d="M46.369 15.0941C45.9766 15.1502 45.3131 15.239 44.0984 15.239C42.6455 15.239 41.3654 14.8652 41.3654 12.8189V9.08134C41.3654 7.03503 42.6595 6.67529 44.1125 6.67529C45.3272 6.67529 45.9766 6.76406 46.3737 6.82012C46.5325 6.84348 46.5979 6.89955 46.5979 7.04438V8.09089C46.5979 8.21703 46.4951 8.31514 46.3737 8.31514H44.0003C43.4724 8.31514 43.2809 8.49735 43.2809 9.08134V10.1092H46.2849C46.4111 10.1092 46.5092 10.212 46.5092 10.3334V11.4033C46.5092 11.5294 46.4064 11.6276 46.2849 11.6276H43.2809V12.8189C43.2809 13.4029 43.4724 13.5851 44.0003 13.5851H46.3737C46.4998 13.5851 46.5979 13.6879 46.5979 13.8093V14.8559C46.5933 15.0007 46.5232 15.0708 46.369 15.0941Z" fill="#F71963"/><path d="M54.8579 15.1364H53.0686C52.9237 15.1364 52.8537 15.0897 52.7742 14.9683L51.2232 12.5061L49.8169 14.9122C49.7375 15.0477 49.6581 15.1364 49.5366 15.1364H47.8734C47.7612 15.1364 47.7052 15.0664 47.7052 14.9916C47.7052 14.9636 47.7145 14.9356 47.7285 14.9122L50.1673 10.8476L47.7052 6.98858C47.6912 6.96989 47.6865 6.94653 47.6818 6.9185C47.6912 6.83441 47.7659 6.769 47.85 6.77367H49.6627C49.7889 6.77367 49.8776 6.8858 49.943 6.98858L51.382 9.25915L52.7742 6.98858C52.8303 6.8858 52.9331 6.77367 53.0546 6.77367H54.7178C54.8019 6.769 54.8766 6.83441 54.886 6.9185C54.886 6.94186 54.8766 6.96522 54.8626 6.98858L52.4145 10.871L54.9701 14.9122C54.9887 14.9449 55.0028 14.9869 55.0028 15.0243C55.0028 15.0944 54.9467 15.1364 54.8579 15.1364Z" fill="#F71963"/><path d="M31.5543 6.80155C31.4702 6.80155 31.4001 6.86228 31.3861 6.9417L29.7509 12.9872C29.7276 13.1133 29.6949 13.1554 29.5921 13.1554C29.4893 13.1554 29.4566 13.1087 29.4332 12.9872L27.7981 6.9417C27.784 6.86228 27.7093 6.80155 27.6299 6.80155H26.0227C25.9246 6.80155 25.8499 6.88097 25.8499 6.97441C25.8499 6.98842 25.8499 7.00244 25.8545 7.01178C25.8545 7.01178 27.8494 13.9449 27.8728 14.015C28.1391 14.842 28.7838 15.2344 29.6061 15.2344C30.391 15.2344 31.0731 14.8186 31.3394 14.015C31.3721 13.9216 33.3203 7.01178 33.3203 7.01178C33.3436 6.91835 33.2829 6.82491 33.1895 6.80155C33.1755 6.79687 33.1661 6.79688 33.1521 6.79688L31.5543 6.80155Z" fill="#F71963"/><path d="M21.6451 0.71875H4.17204C2.81718 0.71875 1.9482 2.15771 2.58358 3.3584L4.33089 6.66613H1.16331C0.523257 6.66613 0 7.18939 0 7.82944C0 8.01632 0.0467194 8.2032 0.135486 8.37139L5.75583 19.0094C6.05484 19.5794 6.7603 19.7943 7.33028 19.4953C7.53584 19.3878 7.70403 19.215 7.81616 19.0094L9.34388 16.1362L11.2594 19.7616C11.9321 21.037 13.7589 21.037 14.4363 19.7663L23.1915 3.28832C23.8129 2.125 22.9673 0.71875 21.6451 0.71875ZM13.7962 7.75937L10.0213 14.8654C9.82042 15.2438 9.35323 15.3886 8.9748 15.1878C8.83931 15.113 8.72719 15.0009 8.65244 14.8654L4.91021 7.7874C4.70932 7.40897 4.85415 6.94178 5.23257 6.74088C5.3447 6.68015 5.46617 6.65212 5.59231 6.65212H13.1282C13.544 6.65212 13.8803 6.9885 13.8803 7.40897C13.885 7.53044 13.857 7.65191 13.7962 7.75937Z" fill="#F71963"/></symbol>
	<symbol id="Tiktok" xmlns="http://www.w3.org/2000/svg" viewBox="0 0 24 24" stroke="currentColor" fill="none" stroke-linecap="round" stroke-linejoin="round"><path stroke="none" d="M0 0h24v24H0z" fill="none" /><path d="M9 12a4 4 0 1 0 4 4v-12a5 5 0 0 0 5 5" /></symbol>
	<symbol id="Truck" xmlns="http://www.w3.org/2000/svg"  viewBox="0 0 36 28" stroke="currentColor" fill="none"><path d="M14 22.333C14 24.174 12.5077 25.6663 10.6667 25.6663C8.82576 25.6663 7.33337 24.174 7.33337 22.333M14 22.333C14 20.4921 12.5077 18.9997 10.6667 18.9997C8.82576 18.9997 7.33337 20.4921 7.33337 22.333M14 22.333H24M7.33337 22.333H4.00004V15.6663M30.6667 22.333C30.6667 24.174 29.1743 25.6663 27.3334 25.6663C25.4924 25.6663 24 24.174 24 22.333M30.6667 22.333C30.6667 20.4921 29.1743 18.9997 27.3334 18.9997C25.4924 18.9997 24 20.4921 24 22.333M30.6667 22.333H34V12.333M2.33337 2.33301H20.6667V22.333M34 12.333H20.6667M34 12.333L29 3.99967H20.6667M4.00004 8.99967H10.6667" stroke-linecap="round" stroke-linejoin="round"/></symbol>
	<symbol id="Discount" xmlns="http://www.w3.org/2000/svg" viewBox="0 0 34 34" stroke="currentColor" fill="none"><path d="M12 21.9998L22 11.9998M13.6667 12.8332C13.6667 13.2934 13.2936 13.6665 12.8333 13.6665C12.3731 13.6665 12 13.2934 12 12.8332C12 12.3729 12.3731 11.9998 12.8333 11.9998C13.2936 11.9998 13.6667 12.3729 13.6667 12.8332ZM22 21.1665C22 21.6267 21.6269 21.9998 21.1667 21.9998C20.7064 21.9998 20.3333 21.6267 20.3333 21.1665C20.3333 20.7063 20.7064 20.3332 21.1667 20.3332C21.6269 20.3332 22 20.7063 22 21.1665ZM5.33334 8.99979C5.33334 8.02733 5.71965 7.0947 6.40728 6.40707C7.09491 5.71943 8.02755 5.33313 9.00001 5.33313H10.6667C11.6348 5.33257 12.5635 4.94913 13.25 4.26646L14.4167 3.09979C14.7574 2.75713 15.1625 2.4852 15.6087 2.29964C16.0549 2.11408 16.5334 2.01855 17.0167 2.01855C17.4999 2.01855 17.9784 2.11408 18.4246 2.29964C18.8708 2.4852 19.2759 2.75713 19.6167 3.09979L20.7833 4.26646C21.4699 4.94913 22.3985 5.33257 23.3667 5.33313H25.0333C26.0058 5.33313 26.9384 5.71943 27.6261 6.40707C28.3137 7.0947 28.7 8.02733 28.7 8.99979V10.6665C28.7006 11.6346 29.084 12.5633 29.7667 13.2498L30.9333 14.4165C31.276 14.7572 31.5479 15.1623 31.7335 15.6085C31.9191 16.0547 32.0146 16.5332 32.0146 17.0165C32.0146 17.4997 31.9191 17.9782 31.7335 18.4244C31.5479 18.8706 31.276 19.2757 30.9333 19.6165L29.7667 20.7831C29.084 21.4696 28.7006 22.3983 28.7 23.3665V25.0331C28.7 26.0056 28.3137 26.9382 27.6261 27.6259C26.9384 28.3135 26.0058 28.6998 25.0333 28.6998H23.3667C22.3985 28.7003 21.4699 29.0838 20.7833 29.7665L19.6167 30.9331C19.2759 31.2758 18.8708 31.5477 18.4246 31.7333C17.9784 31.9188 17.4999 32.0144 17.0167 32.0144C16.5334 32.0144 16.0549 31.9188 15.6087 31.7333C15.1625 31.5477 14.7574 31.2758 14.4167 30.9331L13.25 29.7665C12.5635 29.0838 11.6348 28.7003 10.6667 28.6998H9.00001C8.02755 28.6998 7.09491 28.3135 6.40728 27.6259C5.71965 26.9382 5.33334 26.0056 5.33334 25.0331V23.3665C5.33279 22.3983 4.94934 21.4696 4.26667 20.7831L3.10001 19.6165C2.75734 19.2757 2.48541 18.8706 2.29985 18.4244C2.11429 17.9782 2.01877 17.4997 2.01877 17.0165C2.01877 16.5332 2.11429 16.0547 2.29985 15.6085C2.48541 15.1623 2.75734 14.7572 3.10001 14.4165L4.26667 13.2498C4.94934 12.5633 5.33279 11.6346 5.33334 10.6665V8.99979Z" stroke-linecap="round" stroke-linejoin="round"/></symbol>
	<symbol id="Return" xmlns="http://www.w3.org/2000/svg" viewBox="0 0 34 30" stroke="currentColor" fill="none"><path d="M32 6.66699H2M32 6.66699L27 11.667M32 6.66699L27 1.66699M7 28.3337L2 23.3337M2 23.3337L7 18.3337M2 23.3337H32" stroke-linecap="round" stroke-linejoin="round"/></symbol>			
  <symbol id="CreditCard"  viewBox="0 0 30 30" fill="none" xmlns="http://www.w3.org/2000/svg"><path d="M13 16H5V21H13V16ZM11.5282 19.7836H6.46479V17.2222H11.5282V19.7836Z" fill="currentColor" stroke="currentColor"/><path d="M21.6743 24H10V25.1943H21.6743V24Z" fill="currentColor" stroke="currentColor"/><path d="M4.29857 3.74286V11.6529H3.74286C2.11336 11.6529 0.75 13.0162 0.75 14.6457V26.2571C0.75 27.8866 2.11336 29.25 3.74286 29.25H23.2857C24.9186 29.25 26.2786 27.8833 26.2786 26.2V18.3471C27.907 18.3416 29.2614 16.977 29.2614 15.2971V3.74286V3.74094C29.2489 2.11332 27.887 0.75 26.2571 0.75H7.29143C5.66193 0.75 4.29857 2.11336 4.29857 3.74286ZM24.5843 25.95H24.5786V26.2C24.5786 26.8962 23.9762 27.4986 23.28 27.4986H3.74286C3.04664 27.4986 2.44429 26.8962 2.44429 26.2V14.64C2.44429 13.9438 3.04664 13.3414 3.74286 13.3414H23.2857C23.9819 13.3414 24.5843 13.9438 24.5843 14.64V25.95ZM7.29143 2.44429H26.2571C26.9534 2.44429 27.5557 3.04664 27.5557 3.74286V4.68714H5.99286V3.74286C5.99286 3.04664 6.59521 2.44429 7.29143 2.44429ZM26.2671 16.6585V14.6457C26.2671 13.0162 24.9038 11.6529 23.2743 11.6529H5.99286V6.37571H27.5557V15.36C27.5557 16.0529 26.9591 16.6528 26.2671 16.6585Z" fill="currentColor" stroke="currentColor"/></symbol>
	<symbol id="Deco" xmlns="http://www.w3.org/2000/svg" viewBox="0 0 58 20" stroke="currentColor" fill="none"><path d="M49.5359 16.9432C47.3666 16.9432 46.9948 14.8019 47.6797 12.7178C48.2221 11.0615 49.5066 9.31991 51.4201 9.31991C53.676 9.31991 53.9039 11.6038 53.247 13.6026C52.6753 15.3162 51.3908 16.9432 49.5359 16.9432ZM48.879 19.9973C52.6473 19.9973 56.0159 17.9133 57.3578 14.1449C58.7569 10.1767 57.1859 6.2085 52.0477 6.2085C47.9369 6.2085 44.7962 8.77758 43.5969 12.1755C42.2551 16.0011 43.7115 19.9973 48.879 19.9973ZM36.3747 19.9973C37.8591 19.9973 39.3729 19.6829 40.4282 19.2271C40.8 18.1998 40.828 17.2004 40.5428 16.201C39.8006 16.4862 38.7732 16.7727 37.7165 16.7727C34.861 16.7727 34.6051 14.6606 35.2048 12.8617C35.8617 10.9496 37.574 9.40786 40.287 9.40786C41.0012 9.40786 41.6861 9.52246 42.1138 9.77963C42.856 8.78025 43.2838 7.78086 43.3704 6.7535C42.7428 6.46834 41.6861 6.21117 40.3163 6.21117C35.863 6.21117 32.3505 8.80956 31.0953 12.406C29.896 15.8039 30.8101 20 36.3774 20L36.3747 19.9973ZM21.0442 11.8037C21.8143 10.0901 23.0136 9.09206 24.5846 9.09206C25.9838 9.09206 26.2116 9.86225 25.9838 10.4619C25.6413 11.2894 24.47 11.8037 21.0442 11.8037ZM22.2714 19.9973C23.7278 19.9973 25.7826 19.7122 27.4962 18.8554C27.7813 17.9133 27.7534 16.9712 27.4389 15.9998C26.3542 16.5421 24.8405 16.8566 23.4707 16.8566C21.4439 16.8566 20.3299 16.1997 20.3592 14.5447C25.8972 14.6873 28.7807 13.6879 29.7228 11.2334C30.6649 8.7496 29.0379 6.2085 25.1829 6.2085C21.0721 6.2085 18.046 9.14935 16.932 12.3181C15.7621 15.6867 16.5043 19.9973 22.2701 19.9973H22.2714ZM5.72293 19.9973C9.52059 19.9973 11.6806 18.2557 14.1924 12.9177C15.5622 9.97684 16.7335 7.09329 18.0753 4.23905L19.6743 4.7534C20.1021 4.89598 20.3313 4.6388 20.1314 4.23905L18.1899 0.270827C18.0473 -0.0143302 17.7329 -0.0436454 17.533 0.0429678L12.708 1.86984C12.3082 2.01242 12.3362 2.38419 12.7359 2.49745L14.1631 2.95451C12.9931 5.6102 11.5367 9.60641 10.3654 12.1182C9.05155 14.9165 8.39595 16.8859 6.16933 16.8859C3.9427 16.8859 3.57093 15.1443 4.51301 12.6605C5.59768 9.77697 7.42455 8.92016 9.5086 9.51979C10.0802 8.72028 10.508 7.52103 10.6785 6.43636C10.0789 6.26447 9.36469 6.2085 8.76639 6.2085C5.3978 6.2085 2.05719 7.95009 0.687373 11.6038C-1.0822 16.3143 0.554122 19.9973 5.7216 19.9973H5.72293Z" fill="currentColor"/></symbol>
	<symbol id="Discord" xmlns="http://www.w3.org/2000/svg" viewBox="0 0 127.14 96.36" stroke="currentColor" fill="none"><g id="_2" data-name=" 2"><g id="Discord_Logos" data-name="Discord Logos"><g id="Discord_Logo_-_Large_-_White" data-name="Discord Logo - Large - White"><path class="cls-1" d="M107.7,8.07A105.15,105.15,0,0,0,81.47,0a72.06,72.06,0,0,0-3.36,6.83A97.68,97.68,0,0,0,49,6.83,72.37,72.37,0,0,0,45.64,0,105.89,105.89,0,0,0,19.39,8.09C2.79,32.65-1.71,56.6.54,80.21h0A105.73,105.73,0,0,0,32.71,96.36,77.7,77.7,0,0,0,39.6,85.25a68.42,68.42,0,0,1-10.85-5.18c.91-.66,1.8-1.34,2.66-2a75.57,75.57,0,0,0,64.32,0c.87.71,1.76,1.39,2.66,2a68.68,68.68,0,0,1-10.87,5.19,77,77,0,0,0,6.89,11.1A105.25,105.25,0,0,0,126.6,80.22h0C129.24,52.84,122.09,29.11,107.7,8.07ZM42.45,65.69C36.18,65.69,31,60,31,53s5-12.74,11.43-12.74S54,46,53.89,53,48.84,65.69,42.45,65.69Zm42.24,0C78.41,65.69,73.25,60,73.25,53s5-12.74,11.44-12.74S96.23,46,96.12,53,91.08,65.69,84.69,65.69Z"/></g></g></g></symbol>
	<symbol id="FilterList" xmlns="http://www.w3.org/2000/svg" viewBox="0 0 16 16" fill="none"><path d="M6.66667 12H9.33333V10.6667H6.66667V12ZM2 4V5.33333H14V4H2ZM4 8.66667H12V7.33333H4V8.66667Z" fill="currentColor"/></symbol>
	<symbol id="Trash" width="20" height="20" viewBox="0 0 20 20" fill="none" xmlns="http://www.w3.org/2000/svg"><path fill-rule="evenodd" clip-rule="evenodd" d="M7.15482 2.15483C7.46738 1.84227 7.89131 1.66667 8.33333 1.66667H11.6667C12.1087 1.66667 12.5326 1.84227 12.8452 2.15483C13.1577 2.46739 13.3333 2.89131 13.3333 3.33334V5H15.8236C15.8295 4.99994 15.8353 4.99994 15.8412 5H16.6667C17.1269 5 17.5 5.3731 17.5 5.83334C17.5 6.29357 17.1269 6.66667 16.6667 6.66667H16.6001L15.833 15.8715C15.8231 16.5207 15.5609 17.1413 15.1011 17.6011C14.6323 18.0699 13.9964 18.3333 13.3333 18.3333H6.66667C6.00362 18.3333 5.36774 18.0699 4.8989 17.6011C4.43906 17.1413 4.17685 16.5207 4.16696 15.8715L3.39989 6.66667H3.33333C2.8731 6.66667 2.5 6.29357 2.5 5.83334C2.5 5.3731 2.8731 5 3.33333 5H4.15878C4.16467 4.99994 4.17055 4.99994 4.17641 5H6.66667V3.33334C6.66667 2.89131 6.84226 2.46739 7.15482 2.15483ZM5.07233 6.66667L5.83045 15.7641C5.83237 15.7871 5.83333 15.8102 5.83333 15.8333C5.83333 16.0543 5.92113 16.2663 6.07741 16.4226C6.23369 16.5789 6.44565 16.6667 6.66667 16.6667H13.3333C13.5543 16.6667 13.7663 16.5789 13.9226 16.4226C14.0789 16.2663 14.1667 16.0543 14.1667 15.8333C14.1667 15.8102 14.1676 15.7871 14.1695 15.7641L14.9277 6.66667H5.07233ZM11.6667 5H8.33333V3.33334H11.6667V5ZM8.33333 8.33334C8.79357 8.33334 9.16667 8.70643 9.16667 9.16667V14.1667C9.16667 14.6269 8.79357 15 8.33333 15C7.8731 15 7.5 14.6269 7.5 14.1667V9.16667C7.5 8.70643 7.8731 8.33334 8.33333 8.33334ZM11.6667 8.33334C12.1269 8.33334 12.5 8.70643 12.5 9.16667V14.1667C12.5 14.6269 12.1269 15 11.6667 15C11.2064 15 10.8333 14.6269 10.8333 14.1667V9.16667C10.8333 8.70643 11.2064 8.33334 11.6667 8.33334Z" fill="currentColor"/></symbol>
  <symbol id="Location" xmlns="http://www.w3.org/2000/svg" xmlns:xlink="http://www.w3.org/1999/xlink" width="31px" height="31px" viewBox="0 0 14 20" version="1.1"><g id="Icons" stroke="none" stroke-width="1" fill="none" fill-rule="evenodd"><g id="Rounded" transform="translate(-377.000000, -1306.000000)"><g id="Communication" transform="translate(100.000000, 1162.000000)"><g id="-Round-/-Communication-/-location_on" transform="translate(272.000000, 142.000000)"><g><polygon id="Path" points="0 0 24 0 24 24 0 24"/><path d="M12,2 C8.13,2 5,5.13 5,9 C5,13.17 9.42,18.92 11.24,21.11 C11.64,21.59 12.37,21.59 12.77,21.11 C14.58,18.92 19,13.17 19,9 C19,5.13 15.87,2 12,2 Z M12,11.5 C10.62,11.5 9.5,10.38 9.5,9 C9.5,7.62 10.62,6.5 12,6.5 C13.38,6.5 14.5,7.62 14.5,9 C14.5,10.38 13.38,11.5 12,11.5 Z" id="Icon-Color" fill="currentColor"/></g></g></g></g></g></symbol>
  <symbol id="Loading" x="80px" y="0px" viewBox="0 0 100 100" enable-background="new 0 0 0 0" width="150"><circle fill="#181945" stroke="none" cx="26" cy="50" r="6"><animateTransform attributeName="transform" dur="1s" type="translate" values="0 15 ; 0 -15; 0 15" repeatCount="indefinite" begin="0.1"></animateTransform></circle><circle fill="#181945" stroke="none" cx="50" cy="50" r="6"><animateTransform attributeName="transform" dur="1s" type="translate" values="0 10 ; 0 -10; 0 10" repeatCount="indefinite" begin="0.2"></animateTransform></circle><circle fill="#181945" stroke="none" cx="74" cy="50" r="6"><animateTransform attributeName="transform" dur="1s" type="translate" values="0 5 ; 0 -5; 0 5" repeatCount="indefinite" begin="0.3"></animateTransform></circle></symbol>
  <symbol id="LetsEncrypt" viewBox="0 0 39 30" fill="none" xmlns="http://www.w3.org/2000/svg"><path d="M33.6094 10.0547H31.3828V8.90625C31.3828 7.99219 30.6328 7.24219 29.7188 7.24219C28.8047 7.24219 28.0547 7.99219 28.0547 8.90625V10.0547H25.8281V8.90625C25.8281 6.75 27.5859 5.01562 29.7188 5.01562C31.875 5.01562 33.6094 6.77344 33.6094 8.90625V10.0547Z" fill="#000"/><path d="M34.5234 10.0547H24.9141C24.4922 10.0547 24.1641 10.3828 24.1641 10.8047V17.9062C24.1641 18.3281 24.4922 18.6562 24.9141 18.6562H34.5234C34.9453 18.6562 35.2734 18.3281 35.2734 17.9062V10.8047C35.25 10.3828 34.9219 10.0547 34.5234 10.0547ZM30.1875 14.7188V15.6797C30.1875 15.9375 29.9766 16.1719 29.6953 16.1719C29.4375 16.1719 29.2031 15.9609 29.2031 15.6797V14.7188C28.8984 14.5547 28.7109 14.2266 28.7109 13.8516C28.7109 13.3125 29.1562 12.8672 29.6953 12.8672C30.2344 12.8672 30.6797 13.3125 30.6797 13.8516C30.7031 14.2266 30.4922 14.5547 30.1875 14.7188Z" fill="#000"/><path d="M23.9297 9H21.6094C21.2344 9 20.9297 8.69531 20.9297 8.32031C20.9297 7.94531 21.2344 7.64062 21.6094 7.64062H23.9297C24.3047 7.64062 24.6094 7.94531 24.6094 8.32031C24.6094 8.69531 24.3047 9 23.9297 9Z" fill="#000"/><path d="M25.5704 5.34391C25.4297 5.34391 25.2657 5.29704 25.1485 5.17985L23.3204 3.67985C23.0391 3.44548 22.9922 3.0236 23.2266 2.71891C23.461 2.43766 23.8829 2.39079 24.1875 2.62516L26.0157 4.12516C26.2969 4.35954 26.3438 4.78141 26.1094 5.0861C25.9454 5.25016 25.7579 5.34391 25.5704 5.34391Z" fill="#000"/><path d="M29.7188 3.75C29.3438 3.75 29.0391 3.44531 29.0391 3.07031V0.726563C29.0391 0.351563 29.3438 0.046875 29.7188 0.046875C30.0938 0.046875 30.3984 0.351563 30.3984 0.726563V3.07031C30.3984 3.44531 30.0938 3.75 29.7188 3.75Z" fill="#000"/><path d="M33.8438 5.34391C33.6563 5.34391 33.4454 5.25016 33.3282 5.0861C33.0938 4.80485 33.1407 4.35954 33.4219 4.12516L35.25 2.62516C35.5313 2.39079 35.9766 2.43766 36.211 2.71891C36.4454 3.00016 36.3985 3.44548 36.1172 3.67985L34.2891 5.17985C34.1485 5.29704 34.0079 5.34391 33.8438 5.34391Z" fill="#000"/><path d="M37.8047 9H35.4609C35.0859 9 34.7812 8.69531 34.7812 8.32031C34.7812 7.94531 35.0859 7.64062 35.4609 7.64062H37.8047C38.1797 7.64062 38.4844 7.94531 38.4844 8.32031C38.4844 8.69531 38.1797 9 37.8047 9Z" fill="#000"/><path d="M-0.0234375 18.5625V10.9922H1.80469V16.9688H4.73438V18.5625H-0.0234375Z" fill="#000"/><path d="M10.7812 15.9609C10.7812 16.0312 10.7812 16.1016 10.7812 16.1719C10.7812 16.2422 10.7812 16.3125 10.7812 16.3828H6.91406C6.9375 16.5234 6.98437 16.6641 7.05469 16.7812C7.125 16.8984 7.21875 17.0156 7.33594 17.0859C7.45312 17.1797 7.59375 17.25 7.73437 17.2969C7.875 17.3437 8.03906 17.3672 8.17969 17.3672C8.46094 17.3672 8.69531 17.3203 8.88281 17.2031C9.07031 17.1094 9.23438 16.9687 9.35156 16.8047L10.5703 17.5781C10.3125 17.9531 9.98438 18.2109 9.58594 18.4219C9.1875 18.6094 8.69531 18.7266 8.15625 18.7266C7.75781 18.7266 7.38281 18.6562 7.03125 18.5391C6.67969 18.4219 6.375 18.2344 6.09375 18C5.83594 17.7656 5.625 17.4609 5.46094 17.1094C5.29687 16.7578 5.22656 16.3594 5.22656 15.9141C5.22656 15.4687 5.29687 15.0937 5.46094 14.7422C5.60156 14.3906 5.8125 14.0859 6.07031 13.8516C6.32813 13.6172 6.63281 13.4062 6.98437 13.2891C7.33594 13.1484 7.71094 13.0781 8.10937 13.0781C8.50781 13.0781 8.85938 13.1484 9.1875 13.2656C9.51562 13.4062 9.79687 13.5937 10.0312 13.8281C10.2656 14.0859 10.4531 14.3906 10.5703 14.7422C10.7109 15.1172 10.7812 15.5156 10.7812 15.9609ZM9.16406 15.3047C9.16406 15.0234 9.07031 14.7891 8.90625 14.5781C8.74219 14.3672 8.46094 14.2734 8.10937 14.2734C7.94531 14.2734 7.78125 14.2969 7.64062 14.3437C7.5 14.3906 7.38281 14.4609 7.26562 14.5547C7.14844 14.6484 7.07813 14.7656 7.00781 14.8828C6.9375 15 6.91406 15.1406 6.89063 15.2812H9.16406V15.3047Z" fill="#000"/><path d="M13.5938 14.5547V16.5938C13.5938 16.8516 13.6406 17.0391 13.7344 17.1562C13.8281 17.2734 13.9922 17.3438 14.25 17.3438C14.3438 17.3438 14.4375 17.3438 14.5312 17.3203C14.625 17.2969 14.7188 17.2734 14.7656 17.25L14.7891 18.5391C14.6719 18.5859 14.5078 18.6094 14.3203 18.6562C14.1328 18.6797 13.9453 18.7031 13.7578 18.7031C13.4062 18.7031 13.1016 18.6562 12.8672 18.5625C12.6328 18.4687 12.4219 18.3516 12.2813 18.1875C12.1406 18.0234 12.0234 17.8125 11.9766 17.5781C11.9297 17.3438 11.8828 17.0859 11.8828 16.8047V14.5547H11.0156V13.2422H11.8594V11.8359H13.5938V13.2422H14.8359V14.5547H13.5938Z" fill="#000"/><path d="M20.5078 14.8125C20.3672 14.6719 20.2031 14.5547 20.0156 14.4609C19.8281 14.3672 19.6172 14.3203 19.4062 14.3203C19.2422 14.3203 19.1016 14.3437 18.9609 14.4141C18.8203 14.4844 18.75 14.5781 18.75 14.7422C18.75 14.8828 18.8203 15 18.9844 15.0703C19.1484 15.1406 19.3828 15.2109 19.7344 15.2812C19.9453 15.3281 20.1328 15.375 20.3438 15.4688C20.5547 15.5625 20.7187 15.6563 20.8828 15.7734C21.0469 15.8906 21.1875 16.0547 21.2812 16.2422C21.375 16.4297 21.4219 16.6406 21.4219 16.8984C21.4219 17.2266 21.3516 17.5078 21.2109 17.7422C21.0703 17.9766 20.9062 18.1641 20.6719 18.3047C20.4609 18.4453 20.2031 18.5391 19.9453 18.6094C19.6641 18.6797 19.4062 18.7031 19.125 18.7031C18.6797 18.7031 18.2578 18.6328 17.8594 18.4922C17.4375 18.3516 17.0859 18.1406 16.8281 17.8828L17.8125 16.8516C17.9766 17.0156 18.1641 17.1562 18.3984 17.2734C18.6328 17.3906 18.8672 17.4375 19.125 17.4375C19.2656 17.4375 19.4062 17.4141 19.5469 17.3438C19.6875 17.2734 19.7578 17.1562 19.7578 16.9922C19.7578 16.8281 19.6641 16.7109 19.5 16.6172C19.3359 16.5469 19.0547 16.4531 18.7031 16.3828C18.5156 16.3359 18.3281 16.2891 18.1406 16.2187C17.9531 16.1484 17.7891 16.0547 17.6484 15.9375C17.5078 15.8203 17.3906 15.6562 17.2969 15.4922C17.2031 15.3047 17.1562 15.0938 17.1562 14.8594C17.1562 14.5313 17.2266 14.2734 17.3672 14.0391C17.5078 13.8047 17.6719 13.6406 17.8828 13.5C18.0938 13.3594 18.3281 13.2422 18.5859 13.1953C18.8438 13.125 19.1016 13.1016 19.3594 13.1016C19.7578 13.1016 20.1562 13.1719 20.5312 13.2891C20.9062 13.4062 21.2344 13.5937 21.4922 13.8516L20.5078 14.8125Z" fill="#000"/><path d="M-0.0234375 27.3281V19.7578H5.0625V21.3047H1.73438V22.7344H4.875V24.1875H1.73438V25.7578H5.25V27.3281H-0.0234375Z" fill="#000"/><path d="M9.86719 27.3281V24.4219C9.86719 24.2812 9.84375 24.1406 9.82031 24C9.79688 23.8594 9.75 23.7422 9.70313 23.6484C9.65625 23.5547 9.5625 23.4609 9.46875 23.4141C9.375 23.3438 9.23438 23.3203 9.07031 23.3203C8.90625 23.3203 8.76563 23.3438 8.64844 23.4141C8.53125 23.4844 8.4375 23.5547 8.34375 23.6719C8.27344 23.7891 8.20313 23.9062 8.15625 24.0469C8.10938 24.1875 8.08594 24.3281 8.08594 24.4688V27.3516H6.32812V22.0312H8.01563V22.7578H8.03906C8.10938 22.6406 8.17969 22.5234 8.29688 22.4297C8.39063 22.3125 8.53125 22.2187 8.64844 22.1484C8.78906 22.0781 8.92969 22.0078 9.09375 21.9609C9.25781 21.9141 9.42188 21.8906 9.60938 21.8906C9.96094 21.8906 10.2656 21.9609 10.5234 22.0781C10.7813 22.1953 10.9688 22.3828 11.1328 22.5703C11.2969 22.7813 11.3906 23.0156 11.4609 23.2734C11.5313 23.5313 11.5547 23.7891 11.5547 24.0703V27.3516H9.86719V27.3281Z" fill="#000"/><path d="M16.1484 23.7188C16.0547 23.6016 15.9141 23.4844 15.75 23.4141C15.5859 23.3438 15.3984 23.2969 15.2344 23.2969C15.0469 23.2969 14.8828 23.3438 14.7422 23.4141C14.6016 23.4844 14.4609 23.5781 14.3672 23.7188C14.2734 23.8594 14.1797 23.9766 14.1094 24.1406C14.0391 24.3047 14.0156 24.4688 14.0156 24.6562C14.0156 24.8438 14.0391 25.0078 14.1094 25.1719C14.1562 25.3359 14.25 25.4766 14.3672 25.5938C14.4844 25.7109 14.6016 25.8281 14.7656 25.8984C14.9297 25.9688 15.0937 26.0156 15.2812 26.0156C15.4687 26.0156 15.6328 25.9922 15.8203 25.9219C15.9844 25.8516 16.125 25.7578 16.2422 25.6172L17.2031 26.8125C16.9922 27.0234 16.6875 27.1875 16.3594 27.3047C16.0078 27.4219 15.6328 27.4922 15.2578 27.4922C14.8359 27.4922 14.4375 27.4219 14.0859 27.3047C13.7109 27.1875 13.4062 27 13.125 26.7422C12.8672 26.5078 12.6562 26.2031 12.4922 25.8516C12.3281 25.5 12.2578 25.1016 12.2578 24.6562C12.2578 24.2109 12.3281 23.8359 12.4922 23.4844C12.6562 23.1328 12.8672 22.8281 13.125 22.5938C13.3828 22.3594 13.7109 22.1484 14.0859 22.0313C14.4609 21.8906 14.8359 21.8438 15.2578 21.8438C15.4453 21.8438 15.6328 21.8672 15.8203 21.8906C16.0078 21.9375 16.1953 21.9844 16.3594 22.0313C16.5234 22.1016 16.6875 22.1719 16.8516 22.2656C16.9922 22.3594 17.1328 22.4531 17.2266 22.5703L16.1484 23.7188Z" fill="#000"/><path d="M21.2578 23.4609C21.1875 23.4375 21.0937 23.4141 21.0234 23.4141C20.9531 23.4141 20.8828 23.4141 20.8125 23.4141C20.5781 23.4141 20.3906 23.4609 20.2266 23.5312C20.0625 23.625 19.9453 23.7187 19.8516 23.8359C19.7578 23.9531 19.6875 24.0937 19.6406 24.2344C19.5938 24.375 19.5703 24.4922 19.5703 24.6094V27.3281H17.8125V22.0078H19.5V22.7812H19.5234C19.6641 22.5 19.8516 22.2891 20.1094 22.125C20.3672 21.9609 20.6484 21.8672 20.9766 21.8672C21.0469 21.8672 21.1172 21.8672 21.1875 21.8672C21.2578 21.8672 21.3047 21.8906 21.3516 21.8906L21.2578 23.4609Z" fill="#000"/><path d="M25.3828 28.125C25.2656 28.4062 25.1484 28.6406 25.0313 28.875C24.8906 29.0859 24.75 29.2734 24.5625 29.4375C24.375 29.6016 24.1641 29.6953 23.9297 29.7891C23.6953 29.8594 23.3906 29.9063 23.0625 29.9063C22.8984 29.9063 22.7344 29.9062 22.5469 29.8828C22.3828 29.8594 22.2188 29.8359 22.1016 29.7891L22.2891 28.3125C22.3828 28.3359 22.4766 28.3594 22.5703 28.3828C22.6641 28.4063 22.7578 28.4062 22.8516 28.4062C23.1328 28.4062 23.3203 28.3359 23.4375 28.2187C23.5547 28.1016 23.6719 27.9141 23.7422 27.6797L23.9062 27.2344L21.6797 22.0078H23.625L24.8203 25.4297H24.8438L25.8984 22.0078H27.75L25.3828 28.125Z" fill="#000"/><path d="M34.1484 24.6562C34.1484 25.0312 34.1016 25.3828 33.9844 25.7344C33.8672 26.0859 33.7031 26.3672 33.4922 26.6484C33.2812 26.9062 33 27.1172 32.6953 27.2812C32.3906 27.4453 32.0156 27.5156 31.6172 27.5156C31.2891 27.5156 30.9844 27.4453 30.6797 27.3281C30.3984 27.1875 30.1641 27.0234 30 26.7891H29.9766V29.9531H28.2188V22.0781H29.8828V22.7344H29.9063C30.0703 22.5234 30.3047 22.3359 30.5859 22.1719C30.8672 22.0078 31.2187 21.9375 31.6172 21.9375C31.9922 21.9375 32.3437 22.0078 32.6719 22.1719C32.9766 22.3125 33.2578 22.5234 33.4688 22.7812C33.6797 23.0391 33.8437 23.3438 33.9609 23.6719C34.0781 23.9297 34.1484 24.2812 34.1484 24.6562ZM32.4375 24.6562C32.4375 24.4922 32.4141 24.3281 32.3672 24.1641C32.3203 24 32.2266 23.8594 32.1328 23.7422C32.0391 23.625 31.8984 23.5078 31.7344 23.4375C31.5703 23.3672 31.4063 23.3203 31.1953 23.3203C30.9844 23.3203 30.8203 23.3672 30.6563 23.4375C30.4922 23.5078 30.375 23.625 30.2578 23.7422C30.1406 23.8594 30.0703 24.0234 30 24.1875C29.9297 24.3516 29.9063 24.5156 29.9063 24.6797C29.9063 24.8438 29.9297 25.0078 30 25.1719C30.0703 25.3359 30.1406 25.4766 30.2578 25.6172C30.375 25.7344 30.4922 25.8516 30.6563 25.9219C30.8203 25.9922 30.9844 26.0391 31.1953 26.0391C31.4063 26.0391 31.5937 25.9922 31.7344 25.9219C31.8984 25.8516 32.0156 25.7344 32.1328 25.6172C32.2266 25.5 32.3203 25.3359 32.3672 25.1719C32.4141 24.9844 32.4375 24.8203 32.4375 24.6562Z" fill="#000"/><path d="M36.9375 23.3203V25.3594C36.9375 25.6172 36.9844 25.8047 37.0781 25.9219C37.1719 26.0391 37.3359 26.1094 37.5937 26.1094C37.6875 26.1094 37.7813 26.1094 37.875 26.0859C37.9688 26.0625 38.0625 26.0391 38.1094 26.0156L38.1328 27.3047C38.0156 27.3516 37.8516 27.375 37.6641 27.4219C37.4766 27.4453 37.2891 27.4687 37.1016 27.4687C36.75 27.4687 36.4453 27.4219 36.2109 27.3281C35.9766 27.2344 35.7656 27.1172 35.625 26.9531C35.4844 26.7891 35.3672 26.5781 35.3203 26.3438C35.2734 26.1094 35.2266 25.8516 35.2266 25.5703V23.3203H34.3828V22.0078H35.2266V20.6016H36.9375V22.0078H38.1797V23.3203H36.9375Z" fill="#000"/><path d="M16.4531 10.8516C15.9375 10.8516 15.5156 11.2266 15.5156 11.7188C15.5156 12.2344 15.8672 12.5625 16.3828 12.5625C16.4297 12.5625 16.4766 12.5625 16.5 12.5391C16.4063 12.9141 16.0547 13.1953 15.7031 13.2422H15.6328V14.0625H15.7266C16.1484 14.0156 16.5469 13.8281 16.8516 13.5469C17.25 13.1719 17.4609 12.6094 17.4609 11.9531C17.4609 11.3203 17.0391 10.8516 16.4531 10.8516Z" fill="white"/></symbol>
  <symbol id="VtexCertified" viewBox="0 0 50 30" fill="none" xmlns="http://www.w3.org/2000/svg"><path d="M48.0492 0H1.653C0.740071 0 0 0.740071 0 1.653V28.347C0 29.2599 0.740071 30 1.653 30H48.0492C48.9621 30 49.7022 29.2599 49.7022 28.347V1.653C49.7022 0.740071 48.9621 0 48.0492 0Z" fill="white"/><path d="M48.0492 0.133738C48.4519 0.134445 48.8379 0.294736 49.1227 0.579499C49.4075 0.864262 49.5678 1.25028 49.5685 1.653V28.3524C49.5678 28.7551 49.4075 29.1411 49.1227 29.4258C48.8379 29.7106 48.4519 29.8709 48.0492 29.8716H1.653C1.25028 29.8709 0.864262 29.7106 0.579499 29.4258C0.294736 29.1411 0.134445 28.7551 0.133738 28.3524V1.653C0.134445 1.25028 0.294736 0.864262 0.579499 0.579499C0.864262 0.294736 1.25028 0.134445 1.653 0.133738H48.0492ZM48.0492 0H1.653C1.21503 0.00141054 0.795401 0.176018 0.485709 0.485709C0.176018 0.795401 0.00141054 1.21503 0 1.653L0 28.3524C0.00141054 28.7903 0.176018 29.2099 0.485709 29.5196C0.795401 29.8293 1.21503 30.0039 1.653 30.0053H48.0492C48.4872 30.0039 48.9068 29.8293 49.2165 29.5196C49.5262 29.2099 49.7008 28.7903 49.7022 28.3524V1.653C49.7008 1.21503 49.5262 0.795401 49.2165 0.485709C48.9068 0.176018 48.4872 0.00141054 48.0492 0V0Z" fill="#1D4174"/><path d="M0 15H49.7022V28.3524C49.7022 28.7908 49.5281 29.2112 49.2181 29.5212C48.9081 29.8312 48.4876 30.0053 48.0492 30.0053H1.653C1.21459 30.0053 0.794148 29.8312 0.484151 29.5212C0.174154 29.2112 0 28.7908 0 28.3524L0 15Z" fill="#1D4174"/><path d="M18.6136 24.3402L19.3037 24.1236L19.079 23.6261C18.9067 23.8525 18.7512 24.0912 18.6136 24.3402ZM18.3782 22.064L17.0221 19.0522L7.10413 19.6139L9.85109 27.1032L15.1418 25.4369C14.8047 24.9527 14.6817 24.367 15.0722 24.0995C15.5055 23.7839 16.1635 24.1503 16.5808 24.6665C16.9847 23.9952 18.1187 22.4251 18.3782 22.072V22.064Z" fill="#235F64"/><path d="M16.7145 21.2348C16.8534 21.227 16.9869 21.1786 17.0985 21.0957C17.2102 21.0128 17.2951 20.899 17.3428 20.7683C17.3904 20.6377 17.3988 20.4959 17.3667 20.3606C17.3347 20.2253 17.2637 20.1023 17.1625 20.0069C17.0613 19.9114 16.9344 19.8478 16.7974 19.8237C16.6605 19.7997 16.5194 19.8163 16.3918 19.8715C16.2642 19.9267 16.1555 20.0182 16.0793 20.1345C16.0031 20.2508 15.9626 20.3869 15.9629 20.526C15.9692 20.7195 16.0517 20.9026 16.1926 21.0354C16.3334 21.1682 16.521 21.2399 16.7145 21.2348ZM16.0993 21.5397H17.3297V24.7494H16.0993V21.5397Z" fill="white"/><path d="M15.4921 22.468H15.5135V21.6656C15.5128 21.6596 15.5107 21.6538 15.5075 21.6487C15.5042 21.6436 15.4999 21.6393 15.4948 21.6361C15.29 21.5432 15.0669 21.4975 14.8421 21.5024C14.6516 21.4875 14.4602 21.4875 14.2697 21.5024C12.4803 21.6468 12.4135 22.9414 12.4135 22.9976V23.3159C12.4135 23.3533 12.4135 24.6773 14.2697 24.7923C14.4516 24.7923 14.8047 24.7923 14.8421 24.7923C15.0888 24.7951 15.3337 24.7516 15.5643 24.664C15.5695 24.6616 15.574 24.6578 15.5773 24.6531C15.5806 24.6484 15.5826 24.6429 15.583 24.6372V23.8642C15.583 23.8482 15.583 23.8642 15.583 23.8642C15.3595 23.9723 15.1145 24.029 14.8662 24.03C14.7651 24.0444 14.6624 24.0444 14.5613 24.03C13.7321 23.8883 13.6947 23.2838 13.6947 23.2838C13.6947 23.2838 13.6947 23.257 13.6947 23.249V23.0029C13.6947 23.0029 13.6947 22.9735 13.6947 22.9682C13.6947 22.9628 13.7508 22.3182 14.5613 22.2487H14.8662C15.0865 22.283 15.2986 22.3573 15.4921 22.468Z" fill="white"/><path d="M8.99782 24.7413C8.99782 24.7413 8.99782 24.7574 9.01654 24.7574H10.2122C10.2122 24.7574 10.2309 24.7574 10.2309 24.7413V23.8052C10.2309 23.8052 10.2309 23.7864 10.2469 23.7864C10.263 23.7864 12.1621 23.9229 12.1621 22.6416C12.1621 21.6279 10.9611 21.5183 10.5572 21.537H9.00584C9.00584 21.537 8.98712 21.537 8.98712 21.553L8.99782 24.7413ZM10.2095 23.0776V22.2378H10.5037C10.5037 22.2378 10.929 22.2565 10.9638 22.5454C10.9718 22.603 10.9718 22.6615 10.9638 22.7192C10.9421 22.8174 10.8887 22.9057 10.8119 22.9705C10.735 23.0353 10.6389 23.0729 10.5385 23.0776H10.2095Z" fill="white"/><path d="M16.7493 26.5016C16.5174 26.5247 16.2858 26.4555 16.1046 26.309L16.0752 26.2876C15.6823 25.8998 15.3342 25.4691 15.0374 25.0037C15.0082 24.9464 14.9918 24.8834 14.9893 24.8192C14.9776 24.7322 14.9862 24.6437 15.0145 24.5606C15.0428 24.4775 15.09 24.4021 15.1524 24.3404C15.2864 24.2218 15.4555 24.1504 15.6339 24.1371C15.6919 24.1376 15.7496 24.1466 15.8051 24.1638H15.8211C16.1423 24.3574 16.4327 24.5982 16.6824 24.878C16.784 24.7148 16.899 24.5223 17.0274 24.3083C17.8753 22.8987 19.0388 20.9648 20.2746 20.9648H20.3281C20.7186 20.9648 20.7507 21.1761 20.7507 21.2323C20.7487 21.2853 20.731 21.3365 20.6999 21.3794C20.6798 21.4089 20.6544 21.4343 20.625 21.4543C19.6781 22.1284 18.7526 23.7894 18.0733 25.0037C17.5784 25.8891 17.3511 26.2849 17.1478 26.3919C17.0259 26.4605 16.8891 26.4981 16.7493 26.5016Z" fill="#3CB65E"/><path d="M20.2906 21.1895H20.3281C20.5554 21.1895 20.5554 21.2644 20.5554 21.2644C20.5579 21.2731 20.5579 21.2824 20.5554 21.2911C20.548 21.3021 20.539 21.3121 20.5287 21.3205C18.9773 22.4252 17.5062 26.0174 17.0702 26.2447C16.9756 26.2881 16.8718 26.3074 16.768 26.3009C16.6725 26.3129 16.5757 26.3048 16.4835 26.2772C16.3914 26.2496 16.3061 26.203 16.233 26.1404C15.8551 25.7666 15.5196 25.3522 15.2327 24.9047C15.2208 24.8775 15.2136 24.8486 15.2113 24.8191C15.2012 24.7595 15.2059 24.6983 15.2251 24.6409C15.2442 24.5836 15.2771 24.5318 15.3209 24.4901C15.4093 24.412 15.5177 24.3602 15.6339 24.3403C15.6676 24.3414 15.701 24.3478 15.7328 24.359C16.0877 24.584 16.4061 24.8618 16.677 25.1829C16.6895 25.1846 16.7021 25.1846 16.7145 25.1829C16.7145 25.1829 16.7332 25.1829 16.7359 25.1829C17.4848 24.0461 18.9078 21.1707 20.2772 21.1707M20.2772 20.7695C18.9399 20.7695 17.7309 22.7595 16.8589 24.2119L16.6476 24.557C16.4318 24.3356 16.186 24.1457 15.9174 23.9926L15.888 23.9766H15.8586C15.7865 23.9506 15.7105 23.937 15.6339 23.9364H15.5938C15.3704 23.9557 15.1602 24.0499 14.9973 24.2039C14.9192 24.2813 14.8589 24.3747 14.8206 24.4777C14.7822 24.5807 14.7668 24.6908 14.7753 24.8004C14.7757 24.9031 14.8014 25.0042 14.8502 25.0946C15.1547 25.5797 15.5137 26.0284 15.9201 26.432H15.9335C16.1527 26.6108 16.4325 26.698 16.7145 26.6754C16.8746 26.6818 17.034 26.6506 17.1799 26.5844C17.4474 26.4507 17.6587 26.0495 18.1856 25.116C18.8168 23.9873 19.7717 22.2808 20.6838 21.6388C20.7313 21.6048 20.7728 21.5632 20.8068 21.5158C20.8616 21.4374 20.8906 21.3439 20.8898 21.2483C20.8898 21.2002 20.871 20.7722 20.2612 20.7722L20.2772 20.7695Z" fill="white"/><path d="M24.4606 23.5941L24.8324 23.7225C24.7842 24.0689 24.6385 24.3945 24.4124 24.6614C24.3183 24.7645 24.2034 24.8465 24.0752 24.9019C23.947 24.9572 23.8085 24.9846 23.6688 24.9823C23.4002 24.9951 23.1367 24.9063 22.9306 24.7336C22.7217 24.539 22.5715 24.2897 22.4973 24.0141C22.3957 23.6867 22.3452 23.3457 22.3475 23.003C22.3404 22.6524 22.3975 22.3033 22.516 21.9732C22.6102 21.7087 22.7794 21.4773 23.0028 21.3072C23.1991 21.1588 23.4388 21.0789 23.6849 21.0799C23.8166 21.0767 23.9475 21.1007 24.0694 21.1504C24.1914 21.2001 24.3018 21.2744 24.3937 21.3687C24.6017 21.5921 24.741 21.8707 24.7949 22.1712L24.4285 22.2862C24.39 22.0645 24.292 21.8574 24.1449 21.687C24.0842 21.6251 24.0112 21.5764 23.9306 21.5442C23.85 21.512 23.7636 21.4969 23.6769 21.4998C23.478 21.4958 23.2856 21.5708 23.1419 21.7084C22.9886 21.8616 22.8827 22.0557 22.837 22.2675C22.7725 22.5074 22.7384 22.7545 22.7354 23.003C22.7299 23.2867 22.766 23.5696 22.8423 23.8429C22.8922 24.0504 23.0053 24.2374 23.166 24.3778C23.3 24.4913 23.4692 24.5546 23.6448 24.557C23.7463 24.5582 23.8469 24.5369 23.9393 24.4949C24.0318 24.4528 24.1138 24.3909 24.1797 24.3136C24.3395 24.1052 24.4369 23.8557 24.4606 23.5941Z" fill="white"/><path d="M25.2978 24.9181V21.144H27.3306V21.5907H25.6776V22.7355H27.2316V23.1769H25.6776V24.4741H27.4028V24.9181H25.2978Z" fill="white"/><path d="M27.9164 24.9179V21.1438H29.1548C29.3508 21.1337 29.5466 21.1684 29.7272 21.2455C29.8683 21.327 29.9784 21.453 30.0401 21.6039C30.1187 21.7834 30.1579 21.9776 30.1551 22.1736C30.1634 22.4138 30.096 22.6505 29.9626 22.8503C29.8917 22.9463 29.802 23.0268 29.699 23.0871C29.596 23.1473 29.4818 23.186 29.3634 23.2007C29.4472 23.2516 29.5229 23.3147 29.5881 23.3879C29.7101 23.5434 29.8142 23.712 29.8984 23.8908L30.3852 24.9179H29.9171L29.5453 24.1342C29.4383 23.9068 29.3474 23.733 29.2778 23.5992C29.2284 23.5058 29.1642 23.4209 29.0879 23.3478C29.0392 23.3029 28.9819 23.2683 28.9194 23.2462C28.8507 23.2332 28.7807 23.2278 28.7108 23.2301H28.2801V24.9045L27.9164 24.9179ZM28.2882 22.8102H29.0906C29.2272 22.8167 29.3635 22.792 29.4891 22.738C29.5863 22.6911 29.664 22.6116 29.7085 22.5133C29.7593 22.4073 29.7849 22.2911 29.7834 22.1736C29.7903 22.0147 29.7389 21.8587 29.6389 21.7349C29.581 21.673 29.5096 21.6252 29.4304 21.595C29.3511 21.5649 29.266 21.5533 29.1815 21.5611H28.2908L28.2882 22.8102Z" fill="white"/><path d="M31.3909 24.9181V21.5907H30.4654V21.144H32.6935V21.5907H31.7626V24.9181H31.3909Z" fill="white"/><path d="M33.1375 24.9181V21.144H33.5092V24.9181H33.1375Z" fill="white"/><path d="M34.186 24.9181V21.144H36.0824V21.5907H34.5578V22.7596H35.8764V23.2036H34.5578V24.9181H34.186Z" fill="white"/><path d="M36.6281 24.9181V21.144H36.9998V24.9181H36.6281Z" fill="white"/><path d="M37.6631 24.9181V21.144H39.696V21.5907H38.0349V22.7355H39.5863V23.1769H38.0349V24.4741H39.7628V24.9181H37.6631Z" fill="white"/><path d="M40.2764 24.918V21.144H41.2446C41.413 21.1387 41.5813 21.1567 41.7448 21.1975C41.9039 21.2475 42.0463 21.34 42.1567 21.4649C42.3141 21.6523 42.4275 21.8726 42.4884 22.1096C42.5673 22.4025 42.6051 22.7049 42.6007 23.0083C42.6029 23.2643 42.5778 23.5198 42.5258 23.7706C42.4861 23.961 42.4214 24.1454 42.3333 24.3189C42.2658 24.4484 42.1751 24.5645 42.0658 24.6613C41.9698 24.7486 41.8556 24.8135 41.7314 24.8512C41.585 24.8961 41.4325 24.9178 41.2794 24.9154L40.2764 24.918ZM40.6562 24.474H41.2553C41.4038 24.4799 41.552 24.4563 41.6913 24.4045C41.791 24.3617 41.8784 24.2946 41.9454 24.2092C42.043 24.0637 42.1128 23.9014 42.1514 23.7304C42.2036 23.4916 42.2278 23.2474 42.2236 23.0029C42.2384 22.6931 42.1892 22.3835 42.0792 22.0935C42.0114 21.9161 41.8874 21.7658 41.7261 21.6655C41.5729 21.6062 41.4086 21.5806 41.2446 21.5906H40.6562V24.474Z" fill="white"/><path d="M22.1309 3.04365H14.0103C13.8649 3.04251 13.7216 3.07943 13.5948 3.15074C13.468 3.22204 13.362 3.32526 13.2874 3.45015C13.2128 3.57505 13.1721 3.71727 13.1695 3.86273C13.1668 4.00819 13.2021 4.15182 13.2721 4.27938L14.0745 5.81736H12.6114C12.5162 5.81458 12.422 5.83727 12.3385 5.88308C12.255 5.9289 12.1852 5.99618 12.1364 6.07798C12.0876 6.15978 12.0615 6.25312 12.0609 6.34837C12.0602 6.44362 12.085 6.53732 12.1327 6.61979L14.7459 11.5654C14.7903 11.6544 14.8586 11.7293 14.9431 11.7817C15.0277 11.834 15.1252 11.8617 15.2247 11.8617C15.3241 11.8617 15.4216 11.834 15.5062 11.7817C15.5908 11.7293 15.6591 11.6544 15.7034 11.5654L16.4123 10.228L17.3029 11.9131C17.3738 12.0475 17.48 12.16 17.6101 12.2385C17.7402 12.317 17.8892 12.3585 18.0412 12.3585C18.1931 12.3585 18.3422 12.317 18.4723 12.2385C18.6024 12.16 18.7086 12.0475 18.7794 11.9131L22.8477 4.23926C22.9171 4.11587 22.9526 3.97631 22.9507 3.83476C22.9487 3.6932 22.9093 3.55468 22.8365 3.43326C22.7637 3.31185 22.6601 3.21185 22.5362 3.14342C22.4122 3.07499 22.2724 3.04057 22.1309 3.04365ZM18.4825 6.31487L16.7279 9.62888C16.7059 9.67085 16.6759 9.70804 16.6394 9.73832C16.603 9.7686 16.561 9.79136 16.5157 9.80529C16.4704 9.81921 16.4229 9.82403 16.3757 9.81946C16.3286 9.8149 16.2828 9.80103 16.2411 9.77867C16.177 9.74525 16.1247 9.69296 16.0913 9.62888L14.3527 6.34161C14.3303 6.29987 14.3165 6.2541 14.3119 6.20696C14.3073 6.15982 14.3121 6.11224 14.3261 6.06698C14.34 6.02171 14.3628 5.97965 14.393 5.94324C14.4233 5.90682 14.4605 5.87677 14.5025 5.85481C14.5539 5.82605 14.612 5.8113 14.671 5.81201H18.1722C18.2633 5.81197 18.3509 5.84741 18.4163 5.91083C18.4817 5.97424 18.5199 6.06064 18.5226 6.15171C18.523 6.20858 18.5092 6.26466 18.4825 6.31487Z" fill="#EE2565"/><path d="M30.7597 6.59607H29.8716V9.64261C29.871 9.67007 29.8598 9.69621 29.8403 9.71563C29.8209 9.73504 29.7948 9.74625 29.7673 9.74693H29.0826C29.0549 9.74693 29.0284 9.73594 29.0088 9.71638C28.9893 9.69681 28.9783 9.67028 28.9783 9.64261V6.59607H28.0849C28.0584 6.59681 28.0326 6.58715 28.0132 6.56916C27.9937 6.55117 27.982 6.52627 27.9806 6.49978V5.96483C27.9813 5.93834 27.9923 5.91317 28.0113 5.89468C28.0303 5.8762 28.0557 5.86586 28.0822 5.86587H30.757C30.7707 5.86515 30.7844 5.86714 30.7973 5.87172C30.8103 5.87631 30.8222 5.8834 30.8323 5.89259C30.8425 5.90179 30.8508 5.9129 30.8567 5.9253C30.8626 5.93769 30.866 5.95113 30.8666 5.96483V6.49978C30.8646 6.5265 30.8523 6.55141 30.8324 6.56934C30.8125 6.58727 30.7864 6.59684 30.7597 6.59607Z" fill="#EE2565"/><path d="M33.6189 9.72558C33.2644 9.77442 32.9068 9.79677 32.549 9.79244C31.875 9.79244 31.2785 9.61859 31.2785 8.66905V6.93046C31.2785 5.97825 31.8803 5.81242 32.5544 5.81242C32.9059 5.80866 33.2573 5.83101 33.6055 5.87929C33.6778 5.87929 33.7099 5.91673 33.7099 5.9836V6.47041C33.7102 6.48433 33.7078 6.49818 33.7027 6.51115C33.6976 6.52411 33.69 6.53593 33.6803 6.5459C33.6705 6.55587 33.6589 6.5638 33.6461 6.56921C33.6332 6.57462 33.6195 6.5774 33.6055 6.5774H32.5035C32.2575 6.5774 32.1692 6.66031 32.1692 6.93314V7.40657H33.5627C33.5909 7.40725 33.6177 7.41874 33.6376 7.43866C33.6576 7.45858 33.669 7.4854 33.6697 7.51356V8.00839C33.6697 8.02231 33.667 8.0361 33.6615 8.04893C33.6561 8.06177 33.6482 8.07339 33.6382 8.08311C33.6283 8.09283 33.6164 8.10046 33.6035 8.10554C33.5905 8.11062 33.5767 8.11306 33.5627 8.1127H32.1692V8.66905C32.1692 8.93652 32.2575 9.02479 32.5035 9.02479H33.6055C33.6193 9.02442 33.6331 9.02687 33.6459 9.03198C33.6587 9.03709 33.6704 9.04476 33.6801 9.05453C33.6899 9.06429 33.6975 9.07593 33.7027 9.08876C33.7078 9.10158 33.7102 9.11531 33.7099 9.12911V9.62928C33.7232 9.68278 33.7018 9.71488 33.6189 9.72558Z" fill="#EE2565"/><path d="M37.5642 9.7443H36.7323C36.7045 9.74624 36.6767 9.73991 36.6524 9.72611C36.6281 9.71231 36.6085 9.69166 36.5959 9.66673L35.8764 8.52194L35.2238 9.64266C35.1863 9.70418 35.1489 9.74698 35.0927 9.74698H34.3197C34.3097 9.74853 34.2995 9.74789 34.2898 9.7451C34.2801 9.74231 34.2711 9.73743 34.2635 9.73081C34.2558 9.7242 34.2497 9.71599 34.2456 9.70677C34.2414 9.69755 34.2393 9.68754 34.2395 9.67743C34.2383 9.66587 34.2383 9.65422 34.2395 9.64266L35.3843 7.75696L34.2368 5.95953C34.2345 5.94896 34.2345 5.93801 34.2368 5.92743C34.2375 5.91794 34.24 5.90867 34.2443 5.90017C34.2485 5.89166 34.2545 5.88409 34.2617 5.87787C34.2689 5.87166 34.2772 5.86693 34.2863 5.86396C34.2953 5.86099 34.3049 5.85983 34.3144 5.86056H35.1569C35.2157 5.86056 35.2559 5.91138 35.288 5.95953L35.9566 7.01606L36.6039 5.95953C36.6153 5.93307 36.6334 5.91004 36.6564 5.89268C36.6793 5.87533 36.7064 5.86426 36.735 5.86056H37.508C37.5175 5.85983 37.527 5.86099 37.5361 5.86396C37.5451 5.86693 37.5535 5.87166 37.5607 5.87787C37.5679 5.88409 37.5738 5.89166 37.5781 5.90017C37.5824 5.90867 37.5849 5.91794 37.5856 5.92743C37.589 5.93785 37.589 5.94911 37.5856 5.95953L36.4301 7.75696L37.6177 9.62929C37.6262 9.64489 37.6308 9.66233 37.631 9.68011C37.6337 9.72558 37.607 9.7443 37.5642 9.7443Z" fill="#EE2565"/><path d="M26.7475 5.88451C26.7288 5.88413 26.7104 5.89035 26.6958 5.90208C26.6811 5.91381 26.671 5.93031 26.6673 5.9487L25.9103 8.75719C25.9103 8.81604 25.8836 8.83744 25.8354 8.83744C25.7873 8.83744 25.7739 8.81604 25.7632 8.75719L25.0036 5.9487C24.9999 5.93005 24.9899 5.91322 24.9753 5.90105C24.9607 5.88887 24.9424 5.88209 24.9234 5.88184H24.1637C24.153 5.88183 24.1423 5.88399 24.1324 5.88819C24.1225 5.89239 24.1135 5.89854 24.106 5.90628C24.0985 5.91401 24.0927 5.92318 24.0888 5.93322C24.0849 5.94327 24.0831 5.95399 24.0835 5.96475V5.9808C24.0835 5.9808 25.0116 9.20388 25.0223 9.23597C25.0718 9.40756 25.1782 9.55719 25.3241 9.66025C25.4699 9.76331 25.6465 9.81366 25.8247 9.80302C26.0024 9.81079 26.1776 9.75931 26.3229 9.65667C26.4681 9.55404 26.5752 9.40605 26.6272 9.23597C26.6432 9.19318 27.55 5.9808 27.55 5.9808C27.5523 5.97044 27.5526 5.9597 27.5508 5.94923C27.5489 5.93876 27.5451 5.92875 27.5393 5.91979C27.5336 5.91083 27.5262 5.9031 27.5174 5.89704C27.5087 5.89099 27.4988 5.88673 27.4884 5.88451H26.7475Z" fill="#EE2565"/><path d="M22.1309 3.04365H14.0103C13.8649 3.04251 13.7216 3.07943 13.5948 3.15074C13.468 3.22204 13.362 3.32526 13.2874 3.45015C13.2128 3.57505 13.1721 3.71727 13.1695 3.86273C13.1668 4.00819 13.2021 4.15182 13.2721 4.27938L14.0745 5.81736H12.6114C12.5162 5.81458 12.422 5.83727 12.3385 5.88308C12.255 5.9289 12.1852 5.99618 12.1364 6.07798C12.0876 6.15978 12.0615 6.25312 12.0609 6.34837C12.0602 6.44362 12.085 6.53732 12.1327 6.61979L14.7459 11.5654C14.7903 11.6544 14.8586 11.7293 14.9431 11.7817C15.0277 11.834 15.1252 11.8617 15.2247 11.8617C15.3241 11.8617 15.4216 11.834 15.5062 11.7817C15.5908 11.7293 15.6591 11.6544 15.7034 11.5654L16.4123 10.228L17.3029 11.9131C17.3738 12.0475 17.48 12.16 17.6101 12.2385C17.7402 12.317 17.8892 12.3585 18.0412 12.3585C18.1931 12.3585 18.3422 12.317 18.4723 12.2385C18.6024 12.16 18.7086 12.0475 18.7794 11.9131L22.8477 4.23926C22.9171 4.11587 22.9526 3.97631 22.9507 3.83476C22.9487 3.6932 22.9093 3.55468 22.8365 3.43326C22.7637 3.31185 22.6601 3.21185 22.5362 3.14342C22.4122 3.07499 22.2724 3.04057 22.1309 3.04365ZM18.4825 6.31487L16.7279 9.62888C16.7059 9.67085 16.6759 9.70804 16.6394 9.73832C16.603 9.7686 16.561 9.79136 16.5157 9.80529C16.4704 9.81921 16.4229 9.82403 16.3757 9.81946C16.3286 9.8149 16.2828 9.80103 16.2411 9.77867C16.177 9.74525 16.1247 9.69296 16.0913 9.62888L14.3527 6.34161C14.3303 6.29987 14.3165 6.2541 14.3119 6.20696C14.3073 6.15982 14.3121 6.11224 14.3261 6.06698C14.34 6.02171 14.3628 5.97965 14.393 5.94324C14.4233 5.90682 14.4605 5.87677 14.5025 5.85481C14.5539 5.82605 14.612 5.8113 14.671 5.81201H18.1722C18.2633 5.81197 18.3509 5.84741 18.4163 5.91083C18.4817 5.97424 18.5199 6.06064 18.5226 6.15171C18.523 6.20858 18.5092 6.26466 18.4825 6.31487Z" fill="#EE2565"/></symbol>
  <symbol id="Home" xmlns="http://www.w3.org/2000/svg" viewBox="0 0 576 512"><path d="M280.37 148.26L96 300.11V464a16 16 0 0 0 16 16l112.06-.29a16 16 0 0 0 15.92-16V368a16 16 0 0 1 16-16h64a16 16 0 0 1 16 16v95.64a16 16 0 0 0 16 16.05L464 480a16 16 0 0 0 16-16V300L295.67 148.26a12.19 12.19 0 0 0-15.3 0zM571.6 251.47L488 182.56V44.05a12 12 0 0 0-12-12h-56a12 12 0 0 0-12 12v72.61L318.47 43a48 48 0 0 0-61 0L4.34 251.47a12 12 0 0 0-1.6 16.9l25.5 31A12 12 0 0 0 45.15 301l235.22-193.74a12.19 12.19 0 0 1 15.3 0L530.9 301a12 12 0 0 0 16.9-1.6l25.5-31a12 12 0 0 0-1.7-16.93z" fill="currentColor"/></symbol>
  <symbol id="Pix" viewBox="0 0 30 30" fill="#32BCAD" xmlns="http://www.w3.org/2000/svg"><path d="M23.3963 22.9481C22.8178 22.9502 22.2446 22.8376 21.7098 22.6169C21.175 22.3962 20.6893 22.0717 20.2806 21.6621L15.7801 17.1588C15.6209 17.0065 15.4092 16.9216 15.1889 16.9216C14.9687 16.9216 14.7569 17.0065 14.5977 17.1588L10.082 21.6745C9.67363 22.0846 9.18802 22.4098 8.65325 22.6312C8.11847 22.8526 7.54513 22.9658 6.96634 22.9643H6.08525L11.7881 28.6672C12.6434 29.5207 13.8024 30 15.0107 30C16.219 30 17.378 29.5207 18.2333 28.6672L23.9476 22.9519L23.3963 22.9481Z" fill="#32BCAD"/><path d="M6.96729 7.03331C7.54608 7.03177 8.11945 7.14496 8.65423 7.36635C9.18901 7.58773 9.67461 7.91292 10.083 8.32311L14.5987 12.8398C14.7556 12.9963 14.9682 13.0841 15.1899 13.0841C15.4115 13.0841 15.6241 12.9963 15.7811 12.8398L20.2806 8.34022C20.6887 7.92952 21.1742 7.60393 21.709 7.38236C22.2439 7.16078 22.8174 7.04763 23.3963 7.04947H23.9381L18.2238 1.33519C17.8007 0.911896 17.2983 0.576108 16.7453 0.347012C16.1924 0.117916 15.5997 0 15.0012 0C14.4027 0 13.81 0.117916 13.2571 0.347012C12.7041 0.576108 12.2018 0.911896 11.7786 1.33519L6.08525 7.03331H6.96729Z" fill="#32BCAD"/><path d="M28.6648 11.7771L25.2117 8.32405C25.1338 8.35589 25.0506 8.37266 24.9665 8.37348H23.3963C22.5792 8.37552 21.796 8.70003 21.2169 9.27643L16.7173 13.7731C16.3121 14.1776 15.7629 14.4048 15.1903 14.4048C14.6178 14.4048 14.0686 14.1776 13.6634 13.7731L9.14672 9.25933C8.56776 8.68257 7.78449 8.35772 6.96727 8.35542H5.0397C4.96026 8.35363 4.88176 8.33787 4.80779 8.30885L1.33284 11.7771C0.479338 12.6325 0 13.7914 0 14.9997C0 16.2081 0.479338 17.367 1.33284 18.2223L4.80018 21.6897C4.874 21.6601 4.9526 21.6443 5.0321 21.6431H6.96727C7.78447 21.6407 8.5677 21.3159 9.14672 20.7392L13.6624 16.2235C14.4789 15.408 15.9018 15.408 16.7173 16.2235L21.2169 20.7221C21.796 21.2985 22.5792 21.623 23.3963 21.6251H24.9665C25.0506 21.6256 25.1339 21.6424 25.2117 21.6745L28.6648 18.2214C29.0881 17.7982 29.4239 17.2959 29.653 16.7429C29.8821 16.19 30 15.5973 30 14.9988C30 14.4003 29.8821 13.8076 29.653 13.2547C29.4239 12.7017 29.0881 12.2003 28.6648 11.7771Z" fill="#32BCAD"/></symbol>
  <symbol id="TriangleDown" viewBox="0 0 1024 1024" fill="currentColor" xmlns="http://www.w3.org/2000/svg"><path d="M1024 288C1024 305.333 1017.67 320.333 1005 333L557 781C544.333 793.667 529.333 800 512 800C494.667 800 479.667 793.667 467 781L19 333C6.33333 320.333 0 305.333 0 288C0 270.667 6.33333 255.667 19 243C31.6667 230.333 46.6667 224 64 224H960C977.333 224 992.333 230.333 1005 243C1017.67 255.667 1024 270.667 1024 288Z" fill="currentColor"/></symbol>
  <symbol id="RoundCheck" xmlns="http://www.w3.org/2000/svg" width="40" height="40" viewBox="0 0 40 40" fill="none"><circle cx="20" cy="20" r="20" fill="#FEFBFF"/><path d="M28.421 14.7368L16.842 26.3158L11.5789 21.0526" stroke="#FF6D2A" stroke-width="2" stroke-linecap="round" stroke-linejoin="round"/></symbol>
  <symbol id="ArrowRight"  xmlns="http://www.w3.org/2000/svg" viewBox="0 0 24 24" fill="none" stroke="currentColor" stroke-width="2" stroke-linecap="round" stroke-linejoin="round" class="feather feather-arrow-right"><line x1="5" y1="12" x2="19" y2="12"></line><polyline points="12 5 19 12 12 19"></polyline></symbol>
  <symbol id="ArrowLeft" xmlns="http://www.w3.org/2000/svg" viewBox="0 0 24 24" fill="none" stroke="currentColor" stroke-width="2" stroke-linecap="round" stroke-linejoin="round" class="feather feather-arrow-left"><line x1="19" y1="12" x2="5" y2="12"></line><polyline points="12 19 5 12 12 5"></polyline></symbol>
  <symbol id="Check" xmlns="http://www.w3.org/2000/svg" viewBox="0 0 24 24" fill="none" stroke="currentColor" stroke-linecap="round" stroke-linejoin="round" class="feather feather-check"><polyline points="20 6 9 17 4 12"></polyline></symbol>
  <symbol id="Replace" viewBox="0 0 21 17" fill="none" xmlns="http://www.w3.org/2000/svg"><path d="M12.1126 4.40777e-05C9.78407 -0.000269375 7.5486 0.877086 5.88781 2.44309C4.22702 4.00909 3.27384 6.1384 3.23362 8.37226L3.23198 8.3801V8.40316C3.23158 8.43575 3.22686 8.46741 3.22686 8.5C3.22686 8.50861 3.2317 8.51584 3.23198 8.52429V11.3512L1.4178 9.50285C1.34392 9.42759 1.2553 9.36704 1.15702 9.32464C1.05874 9.28225 0.952724 9.25884 0.845017 9.25575C0.737309 9.25267 0.630023 9.26997 0.529285 9.30667C0.428546 9.34337 0.336328 9.39875 0.257894 9.46964C0.179461 9.54054 0.116349 9.62556 0.0721625 9.71986C0.0279755 9.81416 0.00357872 9.91588 0.000365026 10.0192C-0.00284867 10.1226 0.0151837 10.2255 0.0534325 10.3222C0.0916814 10.4188 0.149398 10.5073 0.223286 10.5826L3.45499 13.8752C3.45799 13.8783 3.46232 13.8792 3.46536 13.8821L3.48367 13.8993C3.48675 13.9023 3.48771 13.9063 3.49089 13.909C3.52915 13.9372 3.57001 13.9619 3.61298 13.983C3.6486 14.0105 3.68665 14.0351 3.72668 14.0564L3.73277 14.0604C3.73657 14.062 3.74122 14.0613 3.74506 14.0629C3.84244 14.1022 3.94702 14.1224 4.05266 14.1224C4.1583 14.1223 4.26286 14.1021 4.36022 14.0627L4.37239 14.06L4.37676 14.0572C4.41513 14.0366 4.45163 14.0129 4.48591 13.9865C4.5315 13.9646 4.57471 13.9385 4.61491 13.9084C4.61819 13.9055 4.61916 13.9013 4.62236 13.8983L4.64019 13.8808C4.64311 13.8777 4.64727 13.8769 4.65015 13.874L7.87097 10.5814C7.94469 10.506 8.00222 10.4175 8.04028 10.3208C8.07834 10.2242 8.09619 10.1212 8.09279 10.0179C8.0894 9.91466 8.06484 9.81303 8.02051 9.71885C7.97618 9.62467 7.91296 9.53979 7.83444 9.46906C7.75592 9.39832 7.66365 9.34312 7.5629 9.3066C7.46215 9.27009 7.35489 9.25296 7.24724 9.25622C7.1396 9.25947 7.03367 9.28304 6.93552 9.32557C6.83736 9.36811 6.7489 9.42877 6.67518 9.50411L4.87251 11.3468V8.40334C4.88747 7.03187 5.32505 5.69531 6.13012 4.56197C6.9352 3.42864 8.07177 2.5492 9.39673 2.03442C10.7217 1.51964 12.1758 1.39253 13.5758 1.66909C14.9759 1.94565 16.2594 2.61352 17.2647 3.5886C18.27 4.56368 18.9521 5.80236 19.2252 7.14865C19.4982 8.49495 19.3499 9.88866 18.7991 11.1543C18.2482 12.4199 17.3194 13.5008 16.1296 14.261C14.9397 15.0211 13.5421 15.4264 12.1126 15.4259C11.8951 15.4259 11.6864 15.5088 11.5326 15.6564C11.3788 15.804 11.2923 16.0042 11.2923 16.2129C11.2923 16.4217 11.3788 16.6218 11.5326 16.7694C11.6864 16.917 11.8951 17 12.1126 17C13.2784 17.0036 14.4334 16.7864 15.5115 16.3608C16.5896 15.9353 17.5696 15.3097 18.3952 14.5201C19.2208 13.7304 19.8759 12.7922 20.3229 11.7591C20.7699 10.7261 21 9.61854 21 8.5C21 7.38146 20.7699 6.27392 20.3229 5.24087C19.8759 4.20782 19.2208 3.26957 18.3952 2.47992C17.5696 1.69027 16.5896 1.06474 15.5115 0.639191C14.4334 0.213641 13.2784 -0.00355795 12.1126 4.40777e-05Z" fill="currentColor"/></symbol>
  <symbol id="Timer" viewBox="0 0 24 23" width="24" height="23" fill="currentColor" xmlns="http://www.w3.org/2000/svg"><path d="M12 19.1666C10.2208 19.1666 8.51455 18.4598 7.25649 17.2018C5.99844 15.9437 5.29167 14.2374 5.29167 12.4583C5.29167 10.6791 5.99844 8.9728 7.25649 7.71474C8.51455 6.45669 10.2208 5.74992 12 5.74992C13.7792 5.74992 15.4855 6.45669 16.7435 7.71474C18.0016 8.9728 18.7083 10.6791 18.7083 12.4583C18.7083 14.2374 18.0016 15.9437 16.7435 17.2018C15.4855 18.4598 13.7792 19.1666 12 19.1666ZM18.7371 7.082L20.0979 5.72117C19.6667 5.23242 19.2354 4.79159 18.7467 4.36992L17.3858 5.74992C15.9004 4.54242 14.0317 3.83325 12 3.83325C9.71251 3.83325 7.5187 4.74195 5.9012 6.35946C4.2837 7.97696 3.375 10.1708 3.375 12.4583C3.375 14.7457 4.2837 16.9395 5.9012 18.557C7.5187 20.1745 9.71251 21.0833 12 21.0833C16.7917 21.0833 20.625 17.2212 20.625 12.4583C20.625 10.4266 19.9158 8.55784 18.7371 7.082ZM11.0417 13.4166H12.9583V7.66658H11.0417M14.875 0.958252H9.125V2.87492H14.875V0.958252Z" fill="currentColor"/></symbol>
  <symbol id="SizeArrowLeft" width="10" height="13" viewBox="0 0 10 13" fill="currentColor" xmlns="http://www.w3.org/2000/svg"><path d="M-1.2378e-06 6.5L9.75 0.870836L9.75 12.1292L-1.2378e-06 6.5Z" fill="currentColor"/></symbol>
  <symbol id="SizeArrowRight" width="10" height="13" viewBox="0 0 10 13" fill="currentColor" xmlns="http://www.w3.org/2000/svg"><path d="M10 6.5L0.25 12.1292L0.250001 0.870834L10 6.5Z" fill="currentColor"/></symbol>
</svg>