<svg width="24" height="24" viewBox="0 0 24 24" fill="none" xmlns="http://www.w3.org/2000/svg">
<g clip-path="url(#clip0_623_465)">
<path d="M17.9999 9.42861V6.85718C17.9999 5.26588 17.3678 3.73976 16.2425 2.61454C15.1173 1.48932 13.5912 0.857178 11.9999 0.857178C10.4086 0.857178 8.88247 1.48932 7.75725 2.61454C6.63204 3.73976 5.9999 5.26588 5.9999 6.85718V9.42861M18.857 9.42861H5.14275C4.6881 9.42861 4.25206 9.60922 3.93057 9.93071C3.60908 10.2522 3.42847 10.6882 3.42847 11.1429V21.4286C3.42847 21.8833 3.60908 22.3193 3.93057 22.6408C4.25206 22.9623 4.6881 23.1429 5.14275 23.1429H18.857C19.3117 23.1429 19.7477 22.9623 20.0692 22.6408C20.3907 22.3193 20.5713 21.8833 20.5713 21.4286V11.1429C20.5713 10.6882 20.3907 10.2522 20.0692 9.93071C19.7477 9.60922 19.3117 9.42861 18.857 9.42861Z" stroke="white" stroke-width="2" stroke-linecap="round" stroke-linejoin="round"/>
<path d="M12 17.1429C12.2273 17.1429 12.4453 17.0526 12.6061 16.8918C12.7668 16.7311 12.8571 16.5131 12.8571 16.2857C12.8571 16.0584 12.7668 15.8404 12.6061 15.6796C12.4453 15.5189 12.2273 15.4286 12 15.4286C11.7726 15.4286 11.5546 15.5189 11.3939 15.6796C11.2331 15.8404 11.1428 16.0584 11.1428 16.2857C11.1428 16.5131 11.2331 16.7311 11.3939 16.8918C11.5546 17.0526 11.7726 17.1429 12 17.1429Z" stroke="white" stroke-linecap="round" stroke-linejoin="round"/>
</g>
<defs>
<clipPath id="clip0_623_465">
<rect width="24" height="24" fill="white"/>
</clipPath>
</defs>
</svg>
