<svg width="23" height="24" viewBox="0 0 23 24" fill="none" xmlns="http://www.w3.org/2000/svg">
<path d="M11.2909 0.169983C11.3092 0.416487 11.3161 0.679137 11.3104 0.954759C11.7417 9.48983 19.2105 11.4609 23 11.4609C13.57 11.4609 11.3086 18.9645 11.2894 22.9365C11.2904 23.0139 11.2909 23.0917 11.2909 23.17C11.2895 23.0936 11.289 23.0158 11.2894 22.9365C11.1749 14.0097 4.49429 11.5109 0.617597 11.4493C0.415237 11.457 0.209387 11.4609 0 11.4609C0.196173 11.45 0.402572 11.4459 0.617597 11.4493C8.72415 11.1423 11.2319 4.79157 11.3104 0.954759C11.2975 0.699098 11.2909 0.437547 11.2909 0.169983Z" fill="#FCD4A4"/>
</svg>
