<svg width="110" height="110" viewBox="0 0 110 110" fill="none" xmlns="http://www.w3.org/2000/svg">
<path d="M106.386 26.3055L84.1457 14.1797C83.6418 13.9009 83.0759 13.7531 82.5 13.75H68.75C67.8383 13.75 66.964 14.1122 66.3193 14.7568C65.6746 15.4015 65.3125 16.2758 65.3125 17.1875C65.3125 19.9225 64.226 22.5456 62.292 24.4795C60.358 26.4135 57.735 27.5 55 27.5C52.2649 27.5 49.6419 26.4135 47.7079 24.4795C45.774 22.5456 44.6875 19.9225 44.6875 17.1875C44.6875 16.2758 44.3253 15.4015 43.6807 14.7568C43.036 14.1122 42.1617 13.75 41.25 13.75H27.5C26.9226 13.7524 26.3552 13.9002 25.85 14.1797L3.61365 26.3055C2.02854 27.1432 0.840303 28.5752 0.309486 30.2877C-0.22133 32.0002 -0.0514013 33.8533 0.782012 35.4406L9.06209 51.2574C9.66415 52.3946 10.5666 53.3448 11.6712 54.0047C12.7758 54.6646 14.0403 55.0088 15.3269 55H24.0625V89.375C24.0625 91.1984 24.7868 92.947 26.0761 94.2364C27.3654 95.5257 29.1141 96.25 30.9375 96.25H79.0625C80.8858 96.25 82.6345 95.5257 83.9238 94.2364C85.2131 92.947 85.9375 91.1984 85.9375 89.375V55H94.6773C95.964 55.0088 97.2285 54.6646 98.3331 54.0047C99.4377 53.3448 100.34 52.3946 100.942 51.2574L109.222 35.4406C110.055 33.8527 110.225 31.9993 109.693 30.2867C109.161 28.5742 107.972 27.1424 106.386 26.3055ZM15.3269 48.125C15.2634 48.128 15.2009 48.1082 15.1508 48.0691L6.91365 32.3383L24.0625 22.9797V48.125H15.3269ZM79.0625 89.375H30.9375V20.625H38.1562C38.9493 24.5058 41.0584 27.9935 44.1269 30.4983C47.1953 33.003 51.0347 34.3711 54.9957 34.3711C58.9566 34.3711 62.796 33.003 65.8645 30.4983C68.9329 27.9935 71.042 24.5058 71.8351 20.625H79.0625V89.375ZM94.8535 48.0648C94.8297 48.0863 94.8019 48.1027 94.7716 48.113C94.7413 48.1233 94.7092 48.1274 94.6773 48.125H85.9375V22.9797L103.091 32.3383L94.8535 48.0648Z" fill="white"/>
</svg>
