<svg width="71" height="92" viewBox="0 0 71 92" fill="none" xmlns="http://www.w3.org/2000/svg">
<path d="M62.48 40.25C63.6633 40.25 64.7727 40.4746 65.8081 40.9238C66.8435 41.373 67.7458 41.987 68.515 42.7656C69.2842 43.5443 69.8906 44.4577 70.3344 45.5059C70.7781 46.554 71 47.6771 71 48.875V66.125C71 69.6888 70.3344 73.043 69.0031 76.1875C67.6719 79.332 65.8377 82.0723 63.5006 84.4082C61.1635 86.7441 58.4567 88.5859 55.38 89.9336C52.3033 91.2812 48.99 91.9701 45.44 92C41.18 92 37.2158 91.1764 33.5475 89.5293C29.8792 87.8822 26.5362 85.5462 23.5187 82.5215L2.57375 61.3184C1.74542 60.4798 1.10937 59.5065 0.665625 58.3984C0.221875 57.2904 0 56.1523 0 54.9844C0 53.7266 0.236667 52.5586 0.71 51.4805C1.18333 50.4023 1.81937 49.444 2.61812 48.6055C3.41687 47.7669 4.34875 47.138 5.41375 46.7188C6.47875 46.2995 7.6325 46.0599 8.875 46C11.3008 46 13.3865 46.8835 15.1319 48.6504L19.88 53.4121V38.3184C18.1346 37.4798 16.5667 36.4316 15.1762 35.1738C13.7858 33.916 12.6025 32.4935 11.6262 30.9062C10.65 29.319 9.88083 27.612 9.31875 25.7852C8.75667 23.9583 8.49042 22.0716 8.52 20.125C8.52 17.3398 9.03771 14.7344 10.0731 12.3086C11.1085 9.88281 12.5285 7.74154 14.3331 5.88477C16.1377 4.02799 18.2381 2.59049 20.6344 1.57227C23.0306 0.554036 25.6192 0.0299479 28.4 0C31.1512 0 33.725 0.524089 36.1213 1.57227C38.5175 2.62044 40.6327 4.05794 42.4669 5.88477C44.301 7.71159 45.721 9.83789 46.7269 12.2637C47.7327 14.6895 48.2504 17.3099 48.28 20.125C48.28 22.9102 47.7327 25.5755 46.6381 28.1211C45.5435 30.6667 43.9904 32.8978 41.9787 34.8145C43.0142 35.084 43.946 35.5332 44.7744 36.1621C45.6027 36.791 46.3275 37.5697 46.9487 38.498C48.28 37.7493 49.6704 37.375 51.12 37.375C52.5992 37.375 53.9748 37.7194 55.2469 38.4082C56.519 39.097 57.5396 40.0853 58.3087 41.373C59.64 40.6243 61.0304 40.25 62.48 40.25ZM14.2 20.125C14.2 22.3711 14.7029 24.5124 15.7087 26.5488C16.7146 28.5853 18.105 30.2773 19.88 31.625V20.125C19.88 18.9271 20.1019 17.804 20.5456 16.7559C20.9894 15.7077 21.5958 14.7943 22.365 14.0156C23.1342 13.237 24.0365 12.623 25.0719 12.1738C26.1073 11.7246 27.2167 11.5 28.4 11.5C29.5833 11.5 30.6927 11.7246 31.7281 12.1738C32.7635 12.623 33.6658 13.237 34.435 14.0156C35.2042 14.7943 35.8106 15.7077 36.2544 16.7559C36.6981 17.804 36.92 18.9271 36.92 20.125V31.625C38.695 30.2773 40.0854 28.5853 41.0912 26.5488C42.0971 24.5124 42.6 22.3711 42.6 20.125C42.6 18.1484 42.2302 16.2917 41.4906 14.5547C40.751 12.8177 39.7304 11.3053 38.4287 10.0176C37.1271 8.72982 35.6183 7.69661 33.9025 6.91797C32.1867 6.13932 30.3525 5.75 28.4 5.75C26.4475 5.75 24.6133 6.12435 22.8975 6.87305C21.1817 7.62174 19.6729 8.65495 18.3713 9.97266C17.0696 11.2904 16.049 12.8177 15.3094 14.5547C14.5698 16.2917 14.2 18.1484 14.2 20.125ZM65.32 48.875C65.32 48.0964 65.039 47.4225 64.4769 46.8535C63.9148 46.2845 63.2492 46 62.48 46C61.4742 46 60.779 46.2845 60.3944 46.8535C60.0098 47.4225 59.7731 48.1263 59.6844 48.9648C59.5956 49.8034 59.5808 50.7318 59.64 51.75C59.6992 52.7682 59.6992 53.6816 59.64 54.4902C59.5808 55.2988 59.3442 56.0176 58.93 56.6465C58.5158 57.2754 57.8058 57.5599 56.8 57.5C55.7054 57.5 54.9658 57.1556 54.5812 56.4668C54.1967 55.778 53.96 54.8796 53.8713 53.7715C53.7825 52.6634 53.8121 51.5104 53.96 50.3125C54.1079 49.1146 54.1375 47.9616 54.0487 46.8535C53.96 45.7454 53.7381 44.862 53.3831 44.2031C53.0281 43.5443 52.2737 43.1849 51.12 43.125C50.1142 43.125 49.419 43.4095 49.0344 43.9785C48.6498 44.5475 48.4131 45.2513 48.3244 46.0898C48.2356 46.9284 48.2208 47.8568 48.28 48.875C48.3392 49.8932 48.3392 50.8066 48.28 51.6152C48.2208 52.4238 47.9842 53.1426 47.57 53.7715C47.1558 54.4004 46.4458 54.6849 45.44 54.625C44.3454 54.625 43.6058 54.2806 43.2212 53.5918C42.8367 52.903 42.6 52.0046 42.5112 50.8965C42.4225 49.7884 42.4521 48.6354 42.6 47.4375C42.7479 46.2396 42.7775 45.0866 42.6887 43.9785C42.6 42.8704 42.3781 41.987 42.0231 41.3281C41.6681 40.6693 40.9137 40.3099 39.76 40.25C38.7542 40.25 38.059 40.5345 37.6744 41.1035C37.2898 41.6725 37.0531 42.3763 36.9644 43.2148C36.8756 44.0534 36.8608 44.9818 36.92 46C36.9792 47.0182 36.9792 47.9316 36.92 48.7402C36.8608 49.5488 36.6242 50.2676 36.21 50.8965C35.7958 51.5254 35.0858 51.8099 34.08 51.75C33.3108 51.75 32.6452 51.4655 32.0831 50.8965C31.521 50.3275 31.24 49.6536 31.24 48.875V20.125C31.24 19.3464 30.959 18.6725 30.3969 18.1035C29.8348 17.5345 29.1692 17.25 28.4 17.25C27.6308 17.25 26.9652 17.5345 26.4031 18.1035C25.841 18.6725 25.56 19.3464 25.56 20.125V55.4785C25.56 56.1673 25.4417 56.7962 25.205 57.3652C24.9683 57.9342 24.6281 58.4583 24.1844 58.9375C23.7406 59.4167 23.2229 59.7611 22.6312 59.9707C22.0396 60.1803 21.4183 60.3151 20.7675 60.375C20.1167 60.375 19.4954 60.2552 18.9037 60.0156C18.3121 59.776 17.7648 59.4167 17.2619 58.9375L11.0938 52.6934C10.4725 52.0645 9.73292 51.75 8.875 51.75C8.01708 51.75 7.2775 52.0645 6.65625 52.6934C6.035 53.3223 5.70958 54.0859 5.68 54.9844C5.68 55.8529 5.99062 56.6016 6.61187 57.2305L27.5569 78.4785C30.0419 80.9941 32.7635 82.9108 35.7219 84.2285C38.6802 85.5462 41.9196 86.2201 45.44 86.25C48.1912 86.25 50.765 85.7259 53.1612 84.6777C55.5575 83.6296 57.6579 82.1921 59.4625 80.3652C61.2671 78.5384 62.6871 76.4121 63.7225 73.9863C64.7579 71.5605 65.2904 68.9401 65.32 66.125V48.875Z" fill="white"/>
</svg>
