<svg width="93" height="153" viewBox="0 0 93 153" fill="none" xmlns="http://www.w3.org/2000/svg">
<path d="M75.48 93.25C76.6633 93.25 77.7727 93.4746 78.8081 93.9238C79.8435 94.373 80.7458 94.987 81.515 95.7656C82.2842 96.5443 82.8906 97.4577 83.3344 98.5059C83.7781 99.554 84 100.677 84 101.875V119.125C84 122.689 83.3344 126.043 82.0031 129.188C80.6719 132.332 78.8377 135.072 76.5006 137.408C74.1635 139.744 71.4567 141.586 68.38 142.934C65.3033 144.281 61.99 144.97 58.44 145C54.18 145 50.2158 144.176 46.5475 142.529C42.8792 140.882 39.5362 138.546 36.5187 135.521L15.5738 114.318C14.7454 113.48 14.1094 112.507 13.6656 111.398C13.2219 110.29 13 109.152 13 107.984C13 106.727 13.2367 105.559 13.71 104.48C14.1833 103.402 14.8194 102.444 15.6181 101.605C16.4169 100.767 17.3487 100.138 18.4137 99.7188C19.4787 99.2995 20.6325 99.0599 21.875 99C24.3008 99 26.3865 99.8835 28.1319 101.65L32.88 106.412V91.3184C31.1346 90.4798 29.5667 89.4316 28.1762 88.1738C26.7858 86.916 25.6025 85.4935 24.6262 83.9062C23.65 82.319 22.8808 80.612 22.3187 78.7852C21.7567 76.9583 21.4904 75.0716 21.52 73.125C21.52 70.3398 22.0377 67.7344 23.0731 65.3086C24.1085 62.8828 25.5285 60.7415 27.3331 58.8848C29.1377 57.028 31.2381 55.5905 33.6344 54.5723C36.0306 53.554 38.6192 53.0299 41.4 53C44.1512 53 46.725 53.5241 49.1213 54.5723C51.5175 55.6204 53.6327 57.0579 55.4669 58.8848C57.301 60.7116 58.721 62.8379 59.7269 65.2637C60.7327 67.6895 61.2504 70.3099 61.28 73.125C61.28 75.9102 60.7327 78.5755 59.6381 81.1211C58.5435 83.6667 56.9904 85.8978 54.9787 87.8145C56.0142 88.084 56.946 88.5332 57.7744 89.1621C58.6027 89.791 59.3275 90.5697 59.9487 91.498C61.28 90.7493 62.6704 90.375 64.12 90.375C65.5992 90.375 66.9748 90.7194 68.2469 91.4082C69.519 92.097 70.5396 93.0853 71.3087 94.373C72.64 93.6243 74.0304 93.25 75.48 93.25ZM27.2 73.125C27.2 75.3711 27.7029 77.5124 28.7087 79.5488C29.7146 81.5853 31.105 83.2773 32.88 84.625V73.125C32.88 71.9271 33.1019 70.804 33.5456 69.7559C33.9894 68.7077 34.5958 67.7943 35.365 67.0156C36.1342 66.237 37.0365 65.623 38.0719 65.1738C39.1073 64.7246 40.2167 64.5 41.4 64.5C42.5833 64.5 43.6927 64.7246 44.7281 65.1738C45.7635 65.623 46.6658 66.237 47.435 67.0156C48.2042 67.7943 48.8106 68.7077 49.2544 69.7559C49.6981 70.804 49.92 71.9271 49.92 73.125V84.625C51.695 83.2773 53.0854 81.5853 54.0912 79.5488C55.0971 77.5124 55.6 75.3711 55.6 73.125C55.6 71.1484 55.2302 69.2917 54.4906 67.5547C53.751 65.8177 52.7304 64.3053 51.4287 63.0176C50.1271 61.7298 48.6183 60.6966 46.9025 59.918C45.1867 59.1393 43.3525 58.75 41.4 58.75C39.4475 58.75 37.6133 59.1243 35.8975 59.873C34.1817 60.6217 32.6729 61.6549 31.3713 62.9727C30.0696 64.2904 29.049 65.8177 28.3094 67.5547C27.5698 69.2917 27.2 71.1484 27.2 73.125ZM78.32 101.875C78.32 101.096 78.039 100.423 77.4769 99.8535C76.9148 99.2845 76.2492 99 75.48 99C74.4742 99 73.779 99.2845 73.3944 99.8535C73.0098 100.423 72.7731 101.126 72.6844 101.965C72.5956 102.803 72.5808 103.732 72.64 104.75C72.6992 105.768 72.6992 106.682 72.64 107.49C72.5808 108.299 72.3442 109.018 71.93 109.646C71.5158 110.275 70.8058 110.56 69.8 110.5C68.7054 110.5 67.9658 110.156 67.5812 109.467C67.1967 108.778 66.96 107.88 66.8713 106.771C66.7825 105.663 66.8121 104.51 66.96 103.312C67.1079 102.115 67.1375 100.962 67.0487 99.8535C66.96 98.7454 66.7381 97.862 66.3831 97.2031C66.0281 96.5443 65.2737 96.1849 64.12 96.125C63.1142 96.125 62.419 96.4095 62.0344 96.9785C61.6498 97.5475 61.4131 98.2513 61.3244 99.0898C61.2356 99.9284 61.2208 100.857 61.28 101.875C61.3392 102.893 61.3392 103.807 61.28 104.615C61.2208 105.424 60.9842 106.143 60.57 106.771C60.1558 107.4 59.4458 107.685 58.44 107.625C57.3454 107.625 56.6058 107.281 56.2212 106.592C55.8367 105.903 55.6 105.005 55.5112 103.896C55.4225 102.788 55.4521 101.635 55.6 100.438C55.7479 99.2396 55.7775 98.0866 55.6887 96.9785C55.6 95.8704 55.3781 94.987 55.0231 94.3281C54.6681 93.6693 53.9137 93.3099 52.76 93.25C51.7542 93.25 51.059 93.5345 50.6744 94.1035C50.2898 94.6725 50.0531 95.3763 49.9644 96.2148C49.8756 97.0534 49.8608 97.9818 49.92 99C49.9792 100.018 49.9792 100.932 49.92 101.74C49.8608 102.549 49.6242 103.268 49.21 103.896C48.7958 104.525 48.0858 104.81 47.08 104.75C46.3108 104.75 45.6452 104.465 45.0831 103.896C44.521 103.327 44.24 102.654 44.24 101.875V73.125C44.24 72.3464 43.959 71.6725 43.3969 71.1035C42.8348 70.5345 42.1692 70.25 41.4 70.25C40.6308 70.25 39.9652 70.5345 39.4031 71.1035C38.841 71.6725 38.56 72.3464 38.56 73.125V108.479C38.56 109.167 38.4417 109.796 38.205 110.365C37.9683 110.934 37.6281 111.458 37.1844 111.938C36.7406 112.417 36.2229 112.761 35.6312 112.971C35.0396 113.18 34.4183 113.315 33.7675 113.375C33.1167 113.375 32.4954 113.255 31.9037 113.016C31.3121 112.776 30.7648 112.417 30.2619 111.938L24.0938 105.693C23.4725 105.064 22.7329 104.75 21.875 104.75C21.0171 104.75 20.2775 105.064 19.6562 105.693C19.035 106.322 18.7096 107.086 18.68 107.984C18.68 108.853 18.9906 109.602 19.6119 110.23L40.5569 131.479C43.0419 133.994 45.7635 135.911 48.7219 137.229C51.6802 138.546 54.9196 139.22 58.44 139.25C61.1912 139.25 63.765 138.726 66.1612 137.678C68.5575 136.63 70.6579 135.192 72.4625 133.365C74.2671 131.538 75.6871 129.412 76.7225 126.986C77.7579 124.561 78.2904 121.94 78.32 119.125V101.875Z" fill="white"/>
<path d="M28.8575 16.8575C29.3109 16.4354 29.9103 16.2056 30.5297 16.2163C31.1491 16.227 31.7402 16.4774 32.1788 16.9149C32.6163 17.3535 32.8667 17.9446 32.8774 18.564C32.8881 19.1834 32.6583 19.7828 32.2362 20.2362L25.16 27.3125H59.84L52.7637 20.2362C52.3417 19.7828 52.1118 19.1834 52.1225 18.564C52.1332 17.9446 52.3836 17.3535 52.8211 16.9149C53.2597 16.4774 53.8508 16.227 54.4702 16.2163C55.0896 16.2056 55.689 16.4354 56.1425 16.8575L67.2987 28.0137C67.7464 28.462 67.9979 29.0696 67.9979 29.7031C67.9979 30.3366 67.7464 30.9442 67.2987 31.3925L56.1425 42.5487C55.8503 42.8634 55.4786 43.0935 55.0666 43.2146C54.6546 43.3358 54.2176 43.3436 53.8016 43.2372C53.3855 43.1309 53.0059 42.9142 52.7026 42.6102C52.3993 42.3061 52.1837 41.9259 52.0784 41.5096C51.9719 41.094 51.9793 40.6574 52.0999 40.2457C52.2205 39.834 52.4498 39.4624 52.7637 39.17L59.84 32.0937H25.16L32.2362 39.17C32.5509 39.4622 32.781 39.8339 32.9021 40.2458C33.0233 40.6578 33.0311 41.0949 32.9247 41.5109C32.8183 41.9269 32.6017 42.3066 32.2977 42.6099C31.9936 42.9131 31.6134 43.1288 31.1971 43.234C30.7815 43.3406 30.3449 43.3331 29.9332 43.2125C29.5215 43.0919 29.1499 42.8626 28.8575 42.5487L17.7012 31.3925C17.2535 30.9442 17.0021 30.3366 17.0021 29.7031C17.0021 29.0696 17.2535 28.462 17.7012 28.0137L28.8575 16.8575Z" fill="white"/>
</svg>
