<svg width="35" height="35" viewBox="0 0 35 35" fill="none" xmlns="http://www.w3.org/2000/svg">
<path fill-rule="evenodd" clip-rule="evenodd" d="M29.1866 21.3334C27.3942 25.7701 23.0561 28.9096 17.9752 28.9329C11.2668 28.9636 5.8037 23.5502 5.77302 16.8418C5.74233 10.1334 11.1557 4.67034 17.8641 4.63966C23.3924 4.61437 28.075 8.28629 29.5686 13.3334H31.6419C30.0948 7.16456 24.4993 2.60929 17.8549 2.63968C10.042 2.67541 3.7373 9.03803 3.77304 16.851C3.80878 24.6639 10.1714 30.9686 17.9843 30.9329C24.1839 30.9045 29.4337 26.8926 31.3198 21.3334L29.1866 21.3334Z" fill="white"/>
<path d="M20.4502 24.248C20.5832 24.1151 20.6887 23.9573 20.7607 23.7837C20.8327 23.61 20.8697 23.4238 20.8697 23.2358C20.8697 23.0478 20.8327 22.8617 20.7607 22.688C20.6887 22.5144 20.5832 22.3566 20.4502 22.2237L16.8223 18.5973H29.4584C29.8378 18.5973 30.2016 18.4465 30.4699 18.1783C30.7382 17.91 30.8889 17.5461 30.8889 17.1667C30.8889 16.7873 30.7382 16.4234 30.4699 16.1552C30.2016 15.8869 29.8378 15.7362 29.4584 15.7362L16.8223 15.7362L20.4502 12.1083C20.7184 11.8398 20.869 11.4758 20.8689 11.0964C20.8688 10.7169 20.7179 10.353 20.4494 10.0847C20.181 9.8165 19.817 9.66588 19.4375 9.66602C19.0581 9.66615 18.6942 9.81703 18.4259 10.0855L12.3575 16.1553C12.0893 16.4236 11.9387 16.7874 11.9387 17.1667C11.9387 17.546 12.0893 17.9098 12.3575 18.1781L18.4259 24.248C18.5588 24.381 18.7166 24.4865 18.8902 24.5585C19.0639 24.6305 19.25 24.6675 19.438 24.6675C19.626 24.6675 19.8122 24.6305 19.9859 24.5585C20.1595 24.4865 20.3173 24.381 20.4502 24.248Z" fill="white"/>
</svg>
