<svg width="35" height="35" viewBox="0 0 35 35" fill="none" xmlns="http://www.w3.org/2000/svg">
<path fill-rule="evenodd" clip-rule="evenodd" d="M5.14675 13C6.93919 8.56332 11.2772 5.42373 16.3582 5.40048C23.0666 5.3698 28.5297 10.7832 28.5604 17.4915C28.591 24.1999 23.1777 29.663 16.4693 29.6937C10.941 29.719 6.25833 26.0471 4.76481 21L2.69144 21C4.23854 27.1688 9.83402 31.7241 16.4784 31.6937C24.2914 31.658 30.5961 25.2953 30.5603 17.4824C30.5246 9.66945 24.162 3.36477 16.349 3.40051C10.1495 3.42886 4.89966 7.44081 3.01362 13L5.14675 13Z" fill="#181945"/>
<path d="M13.8832 10.0854C13.7502 10.2183 13.6447 10.376 13.5727 10.5497C13.5007 10.7234 13.4637 10.9095 13.4637 11.0975C13.4637 11.2855 13.5007 11.4717 13.5727 11.6453C13.6447 11.819 13.7502 11.9768 13.8832 12.1096L17.5111 15.7361L4.87501 15.7361C4.4956 15.7361 4.13173 15.8868 3.86345 16.1551C3.59517 16.4234 3.44445 16.7873 3.44445 17.1667C3.44445 17.5461 3.59517 17.9099 3.86345 18.1782C4.13173 18.4465 4.4956 18.5972 4.87501 18.5972L17.5111 18.5972L13.8832 22.2251C13.615 22.4935 13.4644 22.8575 13.4645 23.237C13.4646 23.6165 13.6155 23.9804 13.8839 24.2486C14.1524 24.5169 14.5164 24.6675 14.8958 24.6674C15.2753 24.6672 15.6392 24.5163 15.9075 24.2479L21.9759 18.1781C22.2441 17.9098 22.3947 17.546 22.3947 17.1667C22.3947 16.7873 22.2441 16.4235 21.9759 16.1553L15.9075 10.0854C15.7746 9.95241 15.6168 9.84689 15.4432 9.7749C15.2695 9.70291 15.0833 9.66585 14.8953 9.66585C14.7073 9.66585 14.5212 9.70291 14.3475 9.7749C14.1738 9.84689 14.0161 9.95241 13.8832 10.0854Z" fill="#181945"/>
</svg>
