<svg width="110" height="110" viewBox="0 0 110 110" fill="none" xmlns="http://www.w3.org/2000/svg">
<path d="M54.7617 67.9665L48.2809 74.4473L28.8292 55.0003L48.2763 35.5532L54.7571 42.0386L46.3834 50.4169H80.928V59.5836H46.3834L54.7617 67.9665Z" fill="white"/>
<path fill-rule="evenodd" clip-rule="evenodd" d="M19.3509 90.6493C-0.339132 70.9593 -0.339132 39.041 19.3509 19.351C39.0409 -0.33901 70.9592 -0.33901 90.6492 19.351C110.339 39.041 110.339 70.9593 90.6492 90.6493C70.9592 110.339 39.0409 110.339 19.3509 90.6493ZM25.8317 84.1685C18.0958 76.4326 13.7498 65.9404 13.7498 55.0001C13.7498 44.0599 18.0958 33.5677 25.8317 25.8318C33.5676 18.0959 44.0598 13.7499 55 13.7499C65.9403 13.7499 76.4325 18.0959 84.1684 25.8318C91.9043 33.5677 96.2503 44.0599 96.2503 55.0001C96.2503 65.9404 91.9043 76.4326 84.1684 84.1685C76.4325 91.9044 65.9403 96.2504 55 96.2504C44.0598 96.2504 33.5676 91.9044 25.8317 84.1685Z" fill="white"/>
</svg>
