<svg width="61" height="61" viewBox="0 0 61 61" fill="none" xmlns="http://www.w3.org/2000/svg">
<g clip-path="url(#clip0_286_6)">
<path fill-rule="evenodd" clip-rule="evenodd" d="M0.91748 30.5C0.91748 22.6541 4.03422 15.1297 9.58206 9.58182C15.1299 4.03398 22.6544 0.917236 30.5002 0.917236C38.346 0.917236 45.8705 4.03398 51.4184 9.58182C56.9662 15.1297 60.0829 22.6541 60.0829 30.5C60.0829 38.3458 56.9662 45.8703 51.4184 51.4181C45.8705 56.966 38.346 60.0827 30.5002 60.0827C22.6544 60.0827 15.1299 56.966 9.58206 51.4181C4.03422 45.8703 0.91748 38.3458 0.91748 30.5ZM30.5002 5.16057C25.5887 5.16074 20.7832 6.58826 16.6681 9.26947C12.553 11.9507 9.30589 15.77 7.32165 20.2628C5.33741 24.7556 4.70162 29.7283 5.49163 34.5758C6.28164 39.4233 8.46339 43.9368 11.7715 47.5671C13.7798 44.4214 16.5486 41.8327 19.8221 40.0402C23.0956 38.2477 26.7681 37.3093 30.5002 37.3116C34.2324 37.3089 37.905 38.2472 41.1786 40.0397C44.4521 41.8322 47.2209 44.4211 49.2289 47.5671C52.537 43.9368 54.7188 39.4233 55.5088 34.5758C56.2988 29.7283 55.663 24.7556 53.6788 20.2628C51.6945 15.77 48.4474 11.9507 44.3323 9.26947C40.2172 6.58826 35.4117 5.16074 30.5002 5.16057ZM46.0531 50.5062C44.4725 47.782 42.2037 45.5212 39.474 43.9502C36.7443 42.3791 33.6497 41.5532 30.5002 41.555C27.3507 41.5532 24.2561 42.3791 21.5264 43.9502C18.7967 45.5212 16.5279 47.782 14.9473 50.5062C19.3906 53.9708 24.8658 55.8483 30.5002 55.8394C36.3605 55.8394 41.7562 53.8472 46.0531 50.5062ZM20.0035 26.0556C20.0035 23.2717 21.1094 20.6019 23.0779 18.6334C25.0464 16.6649 27.7163 15.559 30.5002 15.559C33.2841 15.559 35.954 16.6649 37.9225 18.6334C39.891 20.6019 40.9969 23.2717 40.9969 26.0556C40.9969 28.8395 39.891 31.5094 37.9225 33.4779C35.954 35.4464 33.2841 36.5523 30.5002 36.5523C27.7163 36.5523 25.0464 35.4464 23.0779 33.4779C21.1094 31.5094 20.0035 28.8395 20.0035 26.0556ZM30.5002 19.8023C29.679 19.8023 28.8658 19.9641 28.1072 20.2783C27.3485 20.5926 26.6591 21.0532 26.0784 21.6339C25.4977 22.2145 25.0371 22.9039 24.7229 23.6626C24.4086 24.4213 24.2469 25.2344 24.2469 26.0556C24.2469 26.8768 24.4086 27.69 24.7229 28.4487C25.0371 29.2074 25.4977 29.8967 26.0784 30.4774C26.6591 31.0581 27.3485 31.5187 28.1072 31.833C28.8658 32.1472 29.679 32.309 30.5002 32.309C32.1587 32.309 33.7492 31.6501 34.922 30.4774C36.0947 29.3047 36.7535 27.7141 36.7535 26.0556C36.7535 24.3972 36.0947 22.8066 34.922 21.6339C33.7492 20.4611 32.1587 19.8023 30.5002 19.8023Z" fill="white"/>
</g>
<defs>
<clipPath id="clip0_286_6">
<rect width="61" height="61" fill="white"/>
</clipPath>
</defs>
</svg>
