<svg width="61" height="61" viewBox="0 0 61 61" fill="none" xmlns="http://www.w3.org/2000/svg">
<path fill-rule="evenodd" clip-rule="evenodd" d="M0.917267 30.5C0.917267 22.6541 4.03401 15.1297 9.58185 9.58182C15.1297 4.03398 22.6542 0.917236 30.5 0.917236C38.3458 0.917236 45.8703 4.03398 51.4182 9.58182C56.966 15.1297 60.0827 22.6541 60.0827 30.5C60.0827 38.3458 56.966 45.8703 51.4182 51.4181C45.8703 56.966 38.3458 60.0827 30.5 60.0827C22.6542 60.0827 15.1297 56.966 9.58185 51.4181C4.03401 45.8703 0.917267 38.3458 0.917267 30.5ZM30.5 5.16057C25.5885 5.16074 20.783 6.58826 16.6679 9.26947C12.5528 11.9507 9.30568 15.77 7.32144 20.2628C5.3372 24.7556 4.70141 29.7283 5.49142 34.5758C6.28143 39.4233 8.46318 43.9368 11.7713 47.5671C13.7796 44.4214 16.5484 41.8327 19.8219 40.0402C23.0954 38.2477 26.7679 37.3093 30.5 37.3116C34.2322 37.3089 37.9048 38.2472 41.1784 40.0397C44.4519 41.8322 47.2207 44.4211 49.2287 47.5671C52.5368 43.9368 54.7186 39.4233 55.5086 34.5758C56.2986 29.7283 55.6628 24.7556 53.6786 20.2628C51.6943 15.77 48.4472 11.9507 44.3321 9.26947C40.217 6.58826 35.4115 5.16074 30.5 5.16057ZM46.0529 50.5062C44.4723 47.782 42.2035 45.5212 39.4738 43.9502C36.7441 42.3791 33.6495 41.5532 30.5 41.555C27.3505 41.5532 24.2559 42.3791 21.5262 43.9502C18.7965 45.5212 16.5277 47.782 14.9471 50.5062C19.3904 53.9708 24.8656 55.8483 30.5 55.8394C36.3603 55.8394 41.756 53.8472 46.0529 50.5062ZM20.0033 26.0556C20.0033 23.2717 21.1092 20.6019 23.0777 18.6334C25.0462 16.6649 27.7161 15.559 30.5 15.559C33.2839 15.559 35.9538 16.6649 37.9223 18.6334C39.8908 20.6019 40.9967 23.2717 40.9967 26.0556C40.9967 28.8395 39.8908 31.5094 37.9223 33.4779C35.9538 35.4464 33.2839 36.5523 30.5 36.5523C27.7161 36.5523 25.0462 35.4464 23.0777 33.4779C21.1092 31.5094 20.0033 28.8395 20.0033 26.0556ZM30.5 19.8023C29.6788 19.8023 28.8656 19.9641 28.107 20.2783C27.3483 20.5926 26.6589 21.0532 26.0782 21.6339C25.4975 22.2145 25.0369 22.9039 24.7227 23.6626C24.4084 24.4213 24.2467 25.2344 24.2467 26.0556C24.2467 26.8768 24.4084 27.69 24.7227 28.4487C25.0369 29.2074 25.4975 29.8967 26.0782 30.4774C26.6589 31.0581 27.3483 31.5187 28.107 31.833C28.8656 32.1472 29.6788 32.309 30.5 32.309C32.1585 32.309 33.749 31.6501 34.9218 30.4774C36.0945 29.3047 36.7533 27.7141 36.7533 26.0556C36.7533 24.3972 36.0945 22.8066 34.9218 21.6339C33.749 20.4611 32.1585 19.8023 30.5 19.8023Z" fill="black"/>
</svg>
