<svg width="16" height="16" viewBox="0 0 16 16" fill="none" xmlns="http://www.w3.org/2000/svg">
<path d="M2.66663 4.00016C2.66663 3.82335 2.73686 3.65378 2.86189 3.52876C2.98691 3.40373 3.15648 3.3335 3.33329 3.3335H12.6666C12.8434 3.3335 13.013 3.40373 13.138 3.52876C13.2631 3.65378 13.3333 3.82335 13.3333 4.00016V6.66683H2.66663V4.00016Z" stroke="#181945" stroke-linejoin="round"/>
<path d="M5.33325 4.3335V2.3335M10.6666 4.3335V2.3335" stroke="#181945" stroke-linecap="round"/>
<path d="M2.66663 6.66699H13.3333V12.667C13.3333 12.8438 13.2631 13.0134 13.138 13.1384C13.013 13.2634 12.8434 13.3337 12.6666 13.3337H3.33329C3.15648 13.3337 2.98691 13.2634 2.86189 13.1384C2.73686 13.0134 2.66663 12.8438 2.66663 12.667V6.66699Z" stroke="#181945" stroke-linejoin="round"/>
</svg>
