<svg width="36" height="36" viewBox="0 0 36 36" fill="none" xmlns="http://www.w3.org/2000/svg">
<path d="M17.5 17.5H16.6C16.5998 17.6183 16.6229 17.7354 16.668 17.8448C16.7131 17.9541 16.7793 18.0535 16.8628 18.1372L17.5 17.5ZM17.5 29.2C14.397 29.2 11.421 27.9673 9.22685 25.7731C7.03267 23.579 5.8 20.603 5.8 17.5H4C4 21.0804 5.42232 24.5142 7.95406 27.0459C10.4858 29.5777 13.9196 31 17.5 31V29.2ZM29.2 17.5C29.2 19.0365 28.8974 20.5579 28.3094 21.9774C27.7214 23.3969 26.8596 24.6867 25.7731 25.7731C24.6867 26.8596 23.3969 27.7214 21.9774 28.3094C20.5579 28.8974 19.0365 29.2 17.5 29.2V31C21.0804 31 24.5142 29.5777 27.0459 27.0459C29.5777 24.5142 31 21.0804 31 17.5H29.2ZM17.5 5.8C19.0365 5.8 20.5579 6.10263 21.9774 6.69061C23.3969 7.27859 24.6867 8.14041 25.7731 9.22685C26.8596 10.3133 27.7214 11.6031 28.3094 13.0226C28.8974 14.4421 29.2 15.9635 29.2 17.5H31C31 13.9196 29.5777 10.4858 27.0459 7.95406C24.5142 5.42232 21.0804 4 17.5 4V5.8ZM17.5 4C13.9196 4 10.4858 5.42232 7.95406 7.95406C5.42232 10.4858 4 13.9196 4 17.5H5.8C5.8 14.397 7.03267 11.421 9.22685 9.22685C11.421 7.03267 14.397 5.8 17.5 5.8V4ZM16.6 4V17.5H18.4V4H16.6ZM17.9032 18.3046L28.7032 12.9046L27.8968 11.2954L17.0968 16.6954L17.9032 18.3046ZM16.8628 18.1372L25.8628 27.1372L27.1372 25.8628L18.1372 16.8628L16.8628 18.1372Z" fill="white"/>
</svg>
