<svg width="64" height="64" viewBox="0 0 64 64" fill="none" xmlns="http://www.w3.org/2000/svg">
<path d="M18.6667 42.6667C19.7275 42.6667 20.7449 42.2453 21.4951 41.4951C22.2452 40.745 22.6667 39.7276 22.6667 38.6667C22.6797 38.5337 22.6797 38.3997 22.6667 38.2667L30.1067 30.8267H31.3333L35.6267 35.12V35.3334C35.6267 36.3942 36.0481 37.4117 36.7982 38.1618C37.5484 38.9119 38.5658 39.3334 39.6267 39.3334C40.6875 39.3334 41.7049 38.9119 42.4551 38.1618C43.2052 37.4117 43.6267 36.3942 43.6267 35.3334V35.12L53.3333 25.3334C54.1245 25.3334 54.8978 25.0988 55.5556 24.6593C56.2134 24.2197 56.7261 23.595 57.0288 22.8641C57.3316 22.1332 57.4108 21.3289 57.2565 20.553C57.1021 19.7771 56.7212 19.0644 56.1618 18.5049C55.6023 17.9455 54.8896 17.5646 54.1137 17.4102C53.3378 17.2559 52.5335 17.3351 51.8026 17.6379C51.0717 17.9406 50.447 18.4533 50.0075 19.1111C49.5679 19.7689 49.3333 20.5422 49.3333 21.3334C49.3203 21.4664 49.3203 21.6004 49.3333 21.7334L39.7067 31.36H39.28L34.6667 26.6667C34.6667 25.6058 34.2452 24.5884 33.4951 23.8383C32.7449 23.0881 31.7275 22.6667 30.6667 22.6667C29.6058 22.6667 28.5884 23.0881 27.8382 23.8383C27.0881 24.5884 26.6667 25.6058 26.6667 26.6667L18.6667 34.6667C17.6058 34.6667 16.5884 35.0881 15.8382 35.8383C15.0881 36.5884 14.6667 37.6058 14.6667 38.6667C14.6667 39.7276 15.0881 40.745 15.8382 41.4951C16.5884 42.2453 17.6058 42.6667 18.6667 42.6667ZM54.6667 53.3334H9.33333V8.00004C9.33333 7.2928 9.05238 6.61452 8.55228 6.11442C8.05219 5.61433 7.37391 5.33337 6.66667 5.33337C5.95942 5.33337 5.28115 5.61433 4.78105 6.11442C4.28095 6.61452 4 7.2928 4 8.00004V56C4 56.7073 4.28095 57.3856 4.78105 57.8857C5.28115 58.3858 5.95942 58.6667 6.66667 58.6667H54.6667C55.3739 58.6667 56.0522 58.3858 56.5523 57.8857C57.0524 57.3856 57.3333 56.7073 57.3333 56C57.3333 55.2928 57.0524 54.6145 56.5523 54.1144C56.0522 53.6143 55.3739 53.3334 54.6667 53.3334Z" fill="white"/>
</svg>
