<svg width="25" height="25" viewBox="0 0 25 25" fill="none" xmlns="http://www.w3.org/2000/svg">
<path d="M21.6969 13.3969C21.875 12.9667 21.875 12.4198 21.875 11.3281C21.875 10.2365 21.875 9.68958 21.6969 9.25937C21.5791 8.97493 21.4064 8.71648 21.1887 8.49878C20.971 8.28108 20.7126 8.10841 20.4281 7.99062C19.9979 7.8125 19.451 7.8125 18.3594 7.8125H11.5625C10.25 7.8125 9.59375 7.8125 9.09271 8.06771C8.65131 8.29248 8.29248 8.65131 8.06771 9.09271C7.8125 9.59271 7.8125 10.249 7.8125 11.5625V18.3594C7.8125 19.451 7.8125 19.9979 7.99062 20.4281C8.22917 21.0021 8.68542 21.4594 9.25937 21.6969C9.68958 21.875 10.2365 21.875 11.3281 21.875C12.4198 21.875 12.9667 21.875 13.3969 21.6969M21.6969 13.3969C21.5791 13.6813 21.4064 13.9398 21.1887 14.1575C20.971 14.3752 20.7126 14.5478 20.4281 14.6656C19.9979 14.8438 19.451 14.8437 18.3594 14.8437C17.2677 14.8437 16.7208 14.8437 16.2906 15.0219C16.0062 15.1397 15.7477 15.3123 15.53 15.53C15.3123 15.7477 15.1397 16.0062 15.0219 16.2906C14.8437 16.7208 14.8437 17.2677 14.8437 18.3594C14.8437 19.451 14.8438 19.9979 14.6656 20.4281C14.5478 20.7126 14.3752 20.971 14.1575 21.1887C13.9398 21.4064 13.6813 21.5791 13.3969 21.6969M21.6969 13.3969C21.1367 15.3291 20.106 17.0923 18.6971 18.5285C17.2882 19.9646 15.5451 21.0289 13.624 21.626L13.3969 21.6969M17.1875 7.8125V6.875C17.1875 5.5625 17.1875 4.90625 16.9323 4.40521C16.7078 3.96397 16.3493 3.60516 15.9083 3.38021C15.4062 3.125 14.75 3.125 13.4375 3.125H6.875C5.5625 3.125 4.90625 3.125 4.40521 3.38021C3.96381 3.60498 3.60498 3.96381 3.38021 4.40521C3.125 4.90521 3.125 5.56146 3.125 6.875V13.4375C3.125 14.75 3.125 15.4062 3.38021 15.9073C3.60521 16.349 3.96354 16.7073 4.40521 16.9323C4.90521 17.1875 5.5625 17.1875 6.87604 17.1875H7.8125" stroke="white" stroke-width="1.5" stroke-linecap="round" stroke-linejoin="round"/>
</svg>
