<svg width="159" height="159" viewBox="0 0 159 159" fill="none" xmlns="http://www.w3.org/2000/svg">
<g clip-path="url(#clip0_420_2)">
<path d="M39.75 4.96875C39.75 3.65096 39.2265 2.38713 38.2947 1.45531C37.3629 0.523492 36.099 0 34.7812 0C33.4635 0 32.1996 0.523492 31.2678 1.45531C30.336 2.38713 29.8125 3.65096 29.8125 4.96875V9.9375H19.875C14.6038 9.9375 9.54854 12.0315 5.82125 15.7588C2.09397 19.486 0 24.5413 0 29.8125L0 39.75H159V29.8125C159 24.5413 156.906 19.486 153.179 15.7588C149.451 12.0315 144.396 9.9375 139.125 9.9375H129.188V4.96875C129.188 3.65096 128.664 2.38713 127.732 1.45531C126.8 0.523492 125.537 0 124.219 0C122.901 0 121.637 0.523492 120.705 1.45531C119.773 2.38713 119.25 3.65096 119.25 4.96875V9.9375H39.75V4.96875ZM93.4324 101.82C99.6433 101.82 105.198 97.0099 105.198 90.0934C105.198 81.8254 99.9613 77.8702 93.6709 77.8702C87.8475 77.8702 82.0639 81.7161 82.0639 89.8946C82.0639 98.0136 87.4599 101.82 93.4324 101.82Z" fill="white"/>
<path d="M159 139.125V49.6875H0V139.125C0 144.396 2.09397 149.451 5.82125 153.179C9.54854 156.906 14.6038 159 19.875 159H139.125C144.396 159 149.451 156.906 153.179 153.179C156.906 149.451 159 144.396 159 139.125Z" fill="white"/>
</g>
<defs>
<clipPath id="clip0_420_2">
<rect width="159" height="159" fill="white"/>
</clipPath>
</defs>
</svg>
