<svg width="123" height="123" viewBox="0 0 123 123" fill="none" xmlns="http://www.w3.org/2000/svg">
<g clip-path="url(#clip0_413_33)">
<path d="M111.469 123H11.5312C5.15063 123 0 117.849 0 111.469V19.2188C0 12.8381 5.15063 7.6875 11.5312 7.6875H111.469C117.849 7.6875 123 12.8381 123 19.2188V111.469C123 117.849 117.849 123 111.469 123ZM11.5312 15.375C9.37875 15.375 7.6875 17.0662 7.6875 19.2188V111.469C7.6875 113.621 9.37875 115.312 11.5312 115.312H111.469C113.621 115.312 115.312 113.621 115.312 111.469V19.2188C115.312 17.0662 113.621 15.375 111.469 15.375H11.5312Z" fill="#1D2146"/>
<path d="M34.5938 30.75C32.4412 30.75 30.75 29.0588 30.75 26.9062V3.84375C30.75 1.69125 32.4412 0 34.5938 0C36.7463 0 38.4375 1.69125 38.4375 3.84375V26.9062C38.4375 29.0588 36.7463 30.75 34.5938 30.75ZM88.4062 30.75C86.2537 30.75 84.5625 29.0588 84.5625 26.9062V3.84375C84.5625 1.69125 86.2537 0 88.4062 0C90.5588 0 92.25 1.69125 92.25 3.84375V26.9062C92.25 29.0588 90.5588 30.75 88.4062 30.75ZM119.156 46.125H3.84375C1.69125 46.125 0 44.4338 0 42.2812C0 40.1287 1.69125 38.4375 3.84375 38.4375H119.156C121.309 38.4375 123 40.1287 123 42.2812C123 44.4338 121.309 46.125 119.156 46.125Z" fill="#1D2146"/>
</g>
<defs>
<clipPath id="clip0_413_33">
<rect width="123" height="123" fill="white"/>
</clipPath>
</defs>
</svg>
