<svg width="24" height="20" viewBox="0 0 24 20" fill="none" xmlns="http://www.w3.org/2000/svg">
<g clip-path="url(#clip0_1163_1357)">
<path d="M2.53342 19.8611C1.88258 19.8611 1.32563 19.6199 0.862547 19.1376C0.399469 18.6552 0.167537 18.0746 0.166748 17.3959V2.6042C0.166748 1.92624 0.398681 1.34608 0.862547 0.863708C1.32642 0.381335 1.88337 0.139738 2.53342 0.138916H21.4667C22.1177 0.138916 22.6749 0.380512 23.1389 0.863708C23.6027 1.3469 23.8343 1.92706 23.8335 2.6042V17.3959C23.8335 18.0738 23.6019 18.6544 23.1389 19.1376C22.6757 19.6208 22.1183 19.862 21.4667 19.8611H2.53342ZM12.0001 11.2327L2.53342 5.06947V17.3959H21.4667V5.06947L12.0001 11.2327ZM12.0001 8.76739L21.4667 2.6042H2.53342L12.0001 8.76739ZM2.53342 5.06947V2.6042V17.3959V5.06947Z" fill="#FF5101"/>
</g>
<defs>
<clipPath id="clip0_1163_1357">
<rect width="24" height="20" fill="white"/>
</clipPath>
</defs>
</svg>
