<svg width="18" height="18" viewBox="0 0 18 18" fill="none" xmlns="http://www.w3.org/2000/svg">
<path d="M9 1.125C11.0886 1.125 13.0916 1.95469 14.5685 3.43153C16.0453 4.90838 16.875 6.91142 16.875 9C16.875 11.0886 16.0453 13.0916 14.5685 14.5685C13.0916 16.0453 11.0886 16.875 9 16.875C6.91142 16.875 4.90838 16.0453 3.43153 14.5685C1.95469 13.0916 1.125 11.0886 1.125 9C1.125 6.91142 1.95469 4.90838 3.43153 3.43153C4.90838 1.95469 6.91142 1.125 9 1.125ZM9 8.04488L7.17075 6.21563C7.04409 6.08897 6.87231 6.01781 6.69319 6.01781C6.51407 6.01781 6.34228 6.08897 6.21563 6.21563C6.08897 6.34228 6.01781 6.51407 6.01781 6.69319C6.01781 6.87231 6.08897 7.04409 6.21563 7.17075L8.04488 9L6.21563 10.8293C6.15291 10.892 6.10316 10.9664 6.06922 11.0484C6.03528 11.1303 6.01781 11.2181 6.01781 11.3068C6.01781 11.3955 6.03528 11.4833 6.06922 11.5653C6.10316 11.6472 6.15291 11.7217 6.21563 11.7844C6.27834 11.8471 6.35279 11.8968 6.43473 11.9308C6.51667 11.9647 6.6045 11.9822 6.69319 11.9822C6.78188 11.9822 6.8697 11.9647 6.95164 11.9308C7.03358 11.8968 7.10804 11.8471 7.17075 11.7844L9 9.95512L10.8293 11.7844C10.892 11.8471 10.9664 11.8968 11.0484 11.9308C11.1303 11.9647 11.2181 11.9822 11.3068 11.9822C11.3955 11.9822 11.4833 11.9647 11.5653 11.9308C11.6472 11.8968 11.7217 11.8471 11.7844 11.7844C11.8471 11.7217 11.8968 11.6472 11.9308 11.5653C11.9647 11.4833 11.9822 11.3955 11.9822 11.3068C11.9822 11.2181 11.9647 11.1303 11.9308 11.0484C11.8968 10.9664 11.8471 10.892 11.7844 10.8293L9.95512 9L11.7844 7.17075C11.8471 7.10804 11.8968 7.03358 11.9308 6.95164C11.9647 6.8697 11.9822 6.78188 11.9822 6.69319C11.9822 6.6045 11.9647 6.51667 11.9308 6.43473C11.8968 6.35279 11.8471 6.27834 11.7844 6.21563C11.7217 6.15291 11.6472 6.10316 11.5653 6.06922C11.4833 6.03528 11.3955 6.01781 11.3068 6.01781C11.2181 6.01781 11.1303 6.03528 11.0484 6.06922C10.9664 6.10316 10.892 6.15291 10.8293 6.21563L9 8.04488Z" fill="white"/>
</svg>
