<svg width="31" height="28" viewBox="0 0 31 28" fill="none" xmlns="http://www.w3.org/2000/svg">
<path d="M1 3.857C1 3.09928 1.301 2.37259 1.8368 1.8368C2.37259 1.301 3.09928 1 3.857 1H12.428V26.713H3.857C3.09928 26.713 2.37259 26.412 1.8368 25.8762C1.301 25.3404 1 24.6137 1 23.856V3.857ZM18.142 1H26.713C27.4707 1 28.1974 1.301 28.7332 1.8368C29.269 2.37259 29.57 3.09928 29.57 3.857V10.9995H18.142V1ZM18.142 16.7135H29.57V23.856C29.57 24.6137 29.269 25.3404 28.7332 25.8762C28.1974 26.412 27.4707 26.713 26.713 26.713H18.142V16.7135Z" stroke="#181945" stroke-linecap="round" stroke-linejoin="round"/>
</svg>
