<?xml version="1.0" encoding="utf-8"?>
<!-- Generator: Adobe Illustrator 28.0.0, SVG Export Plug-In . SVG Version: 6.00 Build 0)  -->
<svg version="1.1" id="Camada_1" xmlns="http://www.w3.org/2000/svg" xmlns:xlink="http://www.w3.org/1999/xlink" x="0px" y="0px"
	 viewBox="0 0 1080 527.2" style="enable-background:new 0 0 1080 527.2;" xml:space="preserve">
<style type="text/css">
	.st0{fill:#FF5101;}
	.st1{fill:#FFFFFF;}
</style>
<g>
	<path class="st0" d="M0,105v353l1080,58.8V6.9L0,105z"/>
	<path class="st1" d="M837,306.3l23.6-82.9l22.4,82.9H837z M677.4,212.2h29.5c22.1,0,34.5,11.8,34.5,32.7
		c0,21.2-12.4,32.7-34.5,32.7h-29.5V212.2z M514,212.2h29.5c22.1,0,34.5,11.8,34.5,32.7c0,21.2-12.4,32.7-34.5,32.7H514V212.2z
		 M356.6,332.5c-36.9,0-58.4-28.6-58.4-61c0-32.1,21.5-60.8,58.4-60.8c36.3,0,58.1,28.6,58.1,60.8
		C414.7,303.9,392.9,332.5,356.6,332.5 M885,173.6h-47.2l-61.1,181.4l-31.5-47.8c24.2-10.9,41.3-31.8,41.3-62.8
		c0-38-28-70.8-74.6-70.8h-79.3v196.1h44.8v-54.3h22.7l35.1,54.3h82.9l8.3-26.5h68.1l8.5,26.5h49.5L885,173.6z M623.2,244.4
		c0-38-28-70.8-74.6-70.8h-79.3v196.1H514v-54.3h22.7l35.1,54.3h51.3l-41.3-62.5C606,296.3,623.2,275.3,623.2,244.4 M261.6,173.6
		H127.4v41h44.2v155.1h45.4V214.6h44.5L261.6,173.6L261.6,173.6z M356.6,168.6c-65.5,0-104.1,49.2-104.1,102.9
		c0,54,38.6,103.2,104.1,103.2c64.9,0,103.5-49.2,103.5-103.2C460.1,217.8,421.5,168.6,356.6,168.6"/>
</g>
</svg>
