<svg width="183" height="115" viewBox="0 0 183 115" fill="none" xmlns="http://www.w3.org/2000/svg">
<path fill-rule="evenodd" clip-rule="evenodd" d="M81.9798 50.1668L0.637695 55.9452V106.358L182.486 114.618V43.0271L105.2 48.5173L103.764 52.252L178.885 47.0022V110.797L4.23865 102.965V59.2072L82.3261 53.7501C82.1783 53.4941 82.0669 53.2486 81.991 53.0208C81.8496 52.5967 81.865 51.555 81.9798 50.1668Z" fill="white"/>
<path d="M139.082 94.6553V65.8477H159.843V72.1493H146.902V77.1006H158.774V83.4023H146.902V88.3536H159.787V94.6553H139.082Z" fill="white"/>
<path d="M109.373 94.6553V65.8477H117.194V77.1006H127.547V65.8477H135.368V94.6553H127.547V83.4023H117.194V94.6553H109.373Z" fill="white"/>
<path d="M105.674 65.8477V94.6553H99.1474L88.7384 79.52H88.5696V94.6553H80.7488V65.8477H87.388L97.6282 80.9266H97.8533V65.8477H105.674Z" fill="white"/>
<path d="M56.7058 94.6553H48.2661L57.7749 65.8477H68.4652L77.9739 94.6553H69.5342L63.2326 73.781H63.0075L56.7058 94.6553ZM55.1304 83.2898H70.9971V89.1413H55.1304V83.2898Z" fill="white"/>
<path d="M38.2229 75.3562C38.101 74.8592 37.9088 74.4232 37.6462 74.0481C37.3836 73.6636 37.0554 73.3401 36.6616 73.0775C36.2771 72.8056 35.827 72.6039 35.3112 72.4727C34.8048 72.332 34.2469 72.2617 33.6373 72.2617C32.3245 72.2617 31.2039 72.5758 30.2755 73.2041C29.3565 73.8324 28.6532 74.7373 28.1656 75.9189C27.6873 77.1004 27.4482 78.5258 27.4482 80.195C27.4482 81.8829 27.678 83.3271 28.1375 84.5274C28.597 85.7277 29.2815 86.6467 30.1911 87.2844C31.1007 87.922 32.2307 88.2409 33.5811 88.2409C34.772 88.2409 35.7613 88.0674 36.5491 87.7204C37.3461 87.3735 37.9416 86.8811 38.3355 86.2435C38.7293 85.6058 38.9262 84.8556 38.9262 83.9929L40.2766 84.1335H33.6936V78.5633H46.4657V82.5581C46.4657 85.1838 45.9078 87.4297 44.7919 89.2958C43.6853 91.1526 42.1568 92.578 40.2063 93.572C38.2651 94.5566 36.038 95.0489 33.5248 95.0489C30.721 95.0489 28.2594 94.4534 26.1401 93.2625C24.0207 92.0716 22.3656 90.3742 21.1747 88.1705C19.9931 85.9668 19.4023 83.3458 19.4023 80.3075C19.4023 77.9257 19.7634 75.8157 20.4854 73.9777C21.2169 72.1398 22.2297 70.5878 23.5237 69.3218C24.8178 68.0465 26.3135 67.0853 28.0109 66.4382C29.7082 65.7818 31.5274 65.4536 33.4686 65.4536C35.1753 65.4536 36.76 65.6974 38.2229 66.1851C39.6952 66.6633 40.994 67.3479 42.1193 68.2387C43.2539 69.1202 44.1683 70.1658 44.8622 71.3755C45.5561 72.5852 45.9781 73.9121 46.1281 75.3562H38.2229Z" fill="white"/>
<path d="M138.125 33.941V1.39966H160.815V7.78716H145.99V14.4607H159.655V20.8641H145.99V27.5535H160.815V33.941H138.125Z" fill="#181945"/>
<path d="M108.936 33.941V1.39966H122.379C124.815 1.39966 126.918 1.87634 128.687 2.8297C130.466 3.77246 131.838 5.09127 132.802 6.78614C133.766 8.4704 134.248 10.4301 134.248 12.6652C134.248 14.9109 133.755 16.8759 132.77 18.5601C131.796 20.2338 130.403 21.5314 128.591 22.453C126.78 23.3746 124.63 23.8354 122.14 23.8354H113.846V17.6385H120.678C121.865 17.6385 122.855 17.432 123.65 17.0189C124.455 16.6057 125.064 16.0284 125.477 15.2869C125.89 14.5348 126.097 13.6609 126.097 12.6652C126.097 11.6589 125.89 10.7902 125.477 10.0593C125.064 9.31784 124.455 8.74582 123.65 8.34329C122.845 7.94076 121.854 7.7395 120.678 7.7395H116.801V33.941H108.936Z" fill="#181945"/>
<path fill-rule="evenodd" clip-rule="evenodd" d="M95.5732 8.43846C96.4101 9.08462 96.8815 9.99032 96.9874 11.1555H104.519C104.498 9.13229 103.973 7.35269 102.946 5.81672C101.918 4.28075 100.472 3.08906 98.6081 2.24162C96.7544 1.3836 94.5669 0.95459 92.0458 0.95459C89.5777 0.95459 87.3797 1.37831 85.4518 2.22574C83.5238 3.07317 82.0144 4.25427 80.9233 5.76905C79.8322 7.28383 79.292 9.04755 79.3026 11.0602C79.292 13.5283 80.0971 15.488 81.7178 16.9392C83.3385 18.3799 85.5577 19.4233 88.3754 20.0694L91.7757 20.8639C92.9621 21.1393 93.9366 21.4412 94.6993 21.7696C95.4726 22.0874 96.0446 22.4687 96.4154 22.9136C96.7861 23.3479 96.9768 23.8723 96.9874 24.4867C96.9768 25.1434 96.7702 25.726 96.3677 26.2345C95.9652 26.743 95.3879 27.1402 94.6358 27.4262C93.8943 27.7122 92.9939 27.8552 91.9346 27.8552C90.78 27.8552 89.763 27.6751 88.8838 27.315C88.0152 26.9548 87.332 26.4252 86.8341 25.726C86.3363 25.0269 86.0555 24.153 85.992 23.1043H78.4604C78.4922 25.6466 79.0695 27.7493 80.1924 29.4124C81.3152 31.0754 82.8883 32.3148 84.9115 33.1305C85.2279 33.258 85.5528 33.3756 85.8863 33.4832C86.5497 31.8857 88.4208 29.591 92.2162 29.591C95.8092 29.591 97.924 31.6474 98.8646 33.2221C98.901 33.2076 98.9374 33.1929 98.9736 33.1781C100.901 32.3943 102.379 31.2661 103.407 29.7937C104.434 28.3213 104.953 26.5576 104.964 24.5026C104.953 23.1996 104.731 22.0238 104.296 20.9751C103.862 19.9264 103.221 18.9996 102.374 18.1945C101.537 17.3894 100.499 16.6956 99.2596 16.113C98.0308 15.5304 96.6113 15.0643 95.0012 14.7147L92.2047 14.0792C91.4632 13.9203 90.7959 13.7349 90.2027 13.523C89.6095 13.3112 89.101 13.0675 88.6773 12.7921C88.2642 12.5061 87.9464 12.1777 87.7239 11.807C87.5121 11.4362 87.4167 11.0072 87.4379 10.52C87.4485 9.92676 87.6233 9.40241 87.9623 8.94692C88.3012 8.48083 88.8097 8.11538 89.4876 7.85055C90.1656 7.58573 91.013 7.45332 92.0299 7.45332C93.5659 7.45332 94.747 7.7817 95.5732 8.43846Z" fill="#181945"/>
<path d="M52.9224 33.941H44.4692L55.4488 1.39966H65.9198L76.8993 33.941H68.4462L60.8035 9.59855H60.5492L52.9224 33.941ZM51.7942 21.1342H69.4631V27.1086H51.7942V21.1342Z" fill="#181945"/>
<path d="M16.2576 33.941V1.39966H29.6999C32.1363 1.39966 34.239 1.83926 36.008 2.71847C37.7876 3.58709 39.1594 4.83705 40.1233 6.46835C41.0873 8.08906 41.5692 10.0117 41.5692 12.2362C41.5692 14.4925 41.0767 16.4098 40.0915 17.9881C39.1064 19.5559 37.7081 20.7528 35.8968 21.5791C34.0854 22.3947 31.9403 22.8026 29.4616 22.8026H20.9608V16.6057H27.9998C29.1862 16.6057 30.1766 16.4521 30.9711 16.1449C31.7761 15.8272 32.3852 15.3505 32.7983 14.7149C33.2115 14.0687 33.418 13.2425 33.418 12.2362C33.418 11.2298 33.2115 10.3983 32.7983 9.74155C32.3852 9.0742 31.7761 8.57633 30.9711 8.24795C30.166 7.90898 29.1756 7.7395 27.9998 7.7395H24.1228V33.941H16.2576ZM34.578 19.0686L42.6815 33.941H34.1013L26.1566 19.0686H34.578Z" fill="#181945"/>
<path d="M91.6389 55.2698C90.0447 55.2698 88.6715 54.9872 87.5194 54.422C86.3672 53.8568 85.4832 53.0995 84.8673 52.1503C84.2513 51.201 83.9434 50.1539 83.9434 49.009C83.9434 48.1757 84.1028 47.4402 84.4216 46.8026C84.7404 46.1576 85.1861 45.5671 85.7585 45.0309C86.331 44.4946 87.0013 43.9657 87.7694 43.4439L92.8127 40.3136C93.32 39.9947 93.6642 39.665 93.8453 39.3244C94.0265 38.9766 94.1171 38.6687 94.1171 38.4006C94.1171 38.0455 93.9866 37.7303 93.7258 37.4549C93.4649 37.1796 93.0591 37.0455 92.5084 37.0528C92.1678 37.0528 91.8744 37.118 91.628 37.2484C91.3816 37.3716 91.1896 37.5455 91.0519 37.7701C90.9215 37.9948 90.8563 38.2629 90.8563 38.5745C90.8563 39.002 90.9794 39.4404 91.2258 39.8897C91.4722 40.3317 91.8091 40.8099 92.2367 41.3244C92.6642 41.8389 93.1461 42.415 93.6823 43.0526L104.465 54.922H98.4648L89.4215 45.3569C88.9795 44.8859 88.4904 44.3099 87.9541 43.6287C87.4179 42.9403 86.9542 42.165 86.5629 41.3027C86.1788 40.4404 85.9868 39.502 85.9868 38.4875C85.9868 37.3571 86.2585 36.3245 86.802 35.3897C87.3455 34.455 88.1063 33.7086 89.0846 33.1507C90.0628 32.5927 91.2041 32.3137 92.5084 32.3137C93.7548 32.3137 94.8272 32.571 95.7257 33.0854C96.6315 33.5999 97.3271 34.2847 97.8126 35.1398C98.3054 35.9948 98.5518 36.9368 98.5518 37.9658C98.5518 39.002 98.2945 39.9694 97.78 40.8679C97.2728 41.7664 96.5446 42.5526 95.5953 43.2265L90.9867 46.4873C90.6316 46.7337 90.3237 47.0163 90.0628 47.3352C89.8092 47.654 89.6824 48.067 89.6824 48.5743C89.6824 48.9945 89.7802 49.3532 89.9758 49.6503C90.1715 49.9474 90.4468 50.1757 90.8019 50.3351C91.1642 50.4945 91.5881 50.5742 92.0736 50.5742C92.8127 50.5742 93.5519 50.3967 94.291 50.0416C95.0373 49.6793 95.7185 49.1757 96.3344 48.5308C96.9503 47.8786 97.4431 47.1105 97.8126 46.2265C98.1894 45.3352 98.3778 44.3642 98.3778 43.3135H103.117C103.117 44.6033 102.983 45.8461 102.715 47.0417C102.447 48.2373 102.015 49.3315 101.421 50.3242C100.827 51.317 100.044 52.1539 99.0735 52.835C98.7691 52.9872 98.472 53.1321 98.1822 53.2698C97.8924 53.4075 97.5953 53.5524 97.2909 53.7046C96.3996 54.277 95.4685 54.6828 94.4975 54.922C93.5265 55.1538 92.5736 55.2698 91.6389 55.2698Z" fill="white"/>
</svg>
