<svg width="99" height="62" viewBox="0 0 99 62" fill="none" xmlns="http://www.w3.org/2000/svg">
<path fill-rule="evenodd" clip-rule="evenodd" d="M44.3833 26.7008L0.770874 29.799V56.8286L98.2705 61.257V22.8728L56.8331 25.8164L56.0629 27.8188L96.3398 25.0041V59.2082L2.70156 55.0092V31.5479L44.5692 28.622C44.4898 28.4846 44.43 28.3529 44.3893 28.2306C44.3135 28.0032 44.3217 27.4449 44.3833 26.7008Z" fill="#FF5101"/>
<path d="M74.9984 50.5536V35.1082H86.13V38.4869H79.1916V41.1415H85.5568V44.5202H79.1916V47.1749H86.0999V50.5536H74.9984Z" fill="#FF5101"/>
<path d="M59.0701 50.5536V35.1082H63.2633V41.1415H68.8141V35.1082H73.0073V50.5536H68.8141V44.5202H63.2633V50.5536H59.0701Z" fill="#FF5101"/>
<path d="M57.087 35.1082V50.5536H53.5876L48.0067 42.4387H47.9162V50.5536H43.723V35.1082H47.2827L52.7731 43.1929H52.8938V35.1082H57.087Z" fill="#FF5101"/>
<path d="M30.8322 50.5536H26.3072L31.4054 35.1082H37.1371L42.2353 50.5536H37.7103L34.3316 39.3617H34.2109L30.8322 50.5536ZM29.9876 44.4599H38.4946V47.5973H29.9876V44.4599Z" fill="#FF5101"/>
<path d="M20.9226 40.2066C20.8572 39.9401 20.7541 39.7063 20.6134 39.5052C20.4726 39.2991 20.2966 39.1256 20.0854 38.9848C19.8793 38.839 19.638 38.7309 19.3614 38.6605C19.0899 38.5851 18.7908 38.5474 18.464 38.5474C17.7601 38.5474 17.1592 38.7159 16.6615 39.0527C16.1688 39.3896 15.7917 39.8748 15.5302 40.5083C15.2738 41.1418 15.1456 41.906 15.1456 42.801C15.1456 43.706 15.2688 44.4803 15.5151 45.1238C15.7615 45.7674 16.1285 46.2601 16.6162 46.602C17.1039 46.9439 17.7098 47.1148 18.4338 47.1148C19.0723 47.1148 19.6028 47.0218 20.0251 46.8358C20.4525 46.6498 20.7717 46.3858 20.9829 46.0439C21.1941 45.702 21.2997 45.2998 21.2997 44.8372L22.0237 44.9126H18.4941V41.9261H25.342V44.068C25.342 45.4758 25.0429 46.6799 24.4446 47.6805C23.8513 48.676 23.0317 49.4402 21.986 49.9732C20.9452 50.5011 19.7511 50.765 18.4036 50.765C16.9003 50.765 15.5805 50.4458 14.4442 49.8072C13.3079 49.1687 12.4205 48.2587 11.782 47.0771C11.1485 45.8956 10.8317 44.4903 10.8317 42.8613C10.8317 41.5842 11.0253 40.453 11.4124 39.4675C11.8046 38.4821 12.3476 37.65 13.0415 36.9712C13.7353 36.2874 14.5372 35.7721 15.4473 35.4251C16.3573 35.0732 17.3327 34.8972 18.3735 34.8972C19.2885 34.8972 20.1382 35.0279 20.9226 35.2894C21.7119 35.5458 22.4083 35.9128 23.0116 36.3905C23.62 36.8631 24.1102 37.4237 24.4823 38.0723C24.8543 38.7209 25.0806 39.4323 25.161 40.2066H20.9226Z" fill="#FF5101"/>
<path d="M74.4858 18.0013V0.553955H86.6512V3.97868H78.7028V7.55675H86.0293V10.99H78.7028V14.5766H86.6512V18.0013H74.4858Z" fill="#181945"/>
<path d="M58.8361 18.0013V0.553955H66.0434C67.3497 0.553955 68.477 0.809532 69.4255 1.32069C70.3797 1.82616 71.1152 2.53325 71.632 3.44197C72.1488 4.34501 72.4072 5.39571 72.4072 6.59408C72.4072 7.79813 72.1431 8.85167 71.6149 9.75471C71.0924 10.6521 70.3456 11.3478 69.3744 11.8419C68.4032 12.336 67.2503 12.5831 65.9156 12.5831H61.4686V9.2606H65.1318C65.7679 9.2606 66.299 9.14985 66.7249 8.92835C67.1566 8.70685 67.4831 8.39732 67.7046 7.99975C67.9261 7.59651 68.0369 7.12795 68.0369 6.59408C68.0369 6.05453 67.9261 5.58881 67.7046 5.19693C67.4831 4.79937 67.1566 4.49267 66.7249 4.27685C66.2933 4.06103 65.7622 3.95312 65.1318 3.95312H63.0531V18.0013H58.8361Z" fill="#181945"/>
<path fill-rule="evenodd" clip-rule="evenodd" d="M51.6715 4.32774C52.1202 4.67419 52.3729 5.15978 52.4297 5.78452H56.4678C56.4564 4.69974 56.1753 3.74559 55.6244 2.92207C55.0735 2.09854 54.2982 1.4596 53.2986 1.00524C52.3047 0.545204 51.1319 0.315186 49.7802 0.315186C48.4569 0.315186 47.2784 0.542365 46.2447 0.996724C45.2111 1.45108 44.4017 2.08434 43.8168 2.89651C43.2318 3.70867 42.9421 4.65431 42.9478 5.73341C42.9421 7.05673 43.3738 8.10743 44.2427 8.88552C45.1117 9.65793 46.3015 10.2174 47.8123 10.5638L49.6354 10.9898C50.2715 11.1374 50.794 11.2993 51.2029 11.4754C51.6175 11.6457 51.9242 11.8502 52.123 12.0887C52.3218 12.3216 52.424 12.6027 52.4297 12.9321C52.424 13.2843 52.3133 13.5966 52.0974 13.8693C51.8816 14.1419 51.5721 14.3549 51.1688 14.5082C50.7713 14.6615 50.2885 14.7382 49.7206 14.7382C49.1015 14.7382 48.5563 14.6417 48.0849 14.4486C47.6192 14.2555 47.2528 13.9715 46.9859 13.5966C46.719 13.2218 46.5685 12.7532 46.5344 12.191H42.4963C42.5133 13.5541 42.8228 14.6814 43.4249 15.5731C44.0269 16.4648 44.8703 17.1293 45.9551 17.5666C46.1247 17.635 46.2989 17.698 46.4777 17.7557C46.8334 16.8992 47.8366 15.6689 49.8716 15.6689C51.798 15.6689 52.9319 16.7715 53.4362 17.6157C53.4557 17.6079 53.4752 17.6001 53.4946 17.5922C54.5283 17.1719 55.3205 16.567 55.8714 15.7776C56.4224 14.9881 56.7007 14.0425 56.7063 12.9407C56.7007 12.2421 56.5814 11.6117 56.3485 11.0494C56.1157 10.4871 55.7721 9.99018 55.3177 9.55854C54.869 9.1269 54.3124 8.75489 53.6479 8.44252C52.9891 8.13015 52.2281 7.88025 51.3648 7.69283L49.8654 7.35206C49.4678 7.26687 49.11 7.16748 48.792 7.05389C48.4739 6.9403 48.2013 6.80967 47.9741 6.662C47.7526 6.50866 47.5823 6.33259 47.463 6.13381C47.3494 5.93503 47.2983 5.70501 47.3096 5.44376C47.3153 5.1257 47.409 4.84457 47.5908 4.60035C47.7725 4.35046 48.0451 4.15451 48.4086 4.01253C48.7721 3.87054 49.2265 3.79955 49.7717 3.79955C50.5952 3.79955 51.2285 3.97561 51.6715 4.32774Z" fill="#181945"/>
<path d="M28.8039 18.0013H24.2717L30.1584 0.553955H35.7726L41.6594 18.0013H37.1272L33.0294 4.94987H32.8931L28.8039 18.0013ZM28.199 11.1348H37.6724V14.338H28.199V11.1348Z" fill="#181945"/>
<path d="M9.14551 18.0013V0.553955H16.3528C17.659 0.553955 18.7864 0.789653 19.7349 1.26105C20.689 1.72677 21.4245 2.39695 21.9414 3.27159C22.4582 4.14055 22.7166 5.17137 22.7166 6.36406C22.7166 7.57379 22.4525 8.60178 21.9243 9.44802C21.3961 10.2886 20.6465 10.9304 19.6753 11.3734C18.7041 11.8107 17.554 12.0293 16.225 12.0293H11.6672V8.70685H15.4412C16.0773 8.70685 16.6083 8.62449 17.0343 8.45979C17.4659 8.28941 17.7925 8.03383 18.014 7.69306C18.2355 7.34661 18.3463 6.90361 18.3463 6.36406C18.3463 5.82451 18.2355 5.37867 18.014 5.02655C17.7925 4.66874 17.4659 4.4018 17.0343 4.22574C16.6027 4.044 16.0716 3.95312 15.4412 3.95312H13.3625V18.0013H9.14551ZM18.9682 10.0273L23.313 18.0013H18.7126L14.453 10.0273H18.9682Z" fill="#181945"/>
<path d="M49.5621 29.437C48.7074 29.437 47.9711 29.2855 47.3534 28.9825C46.7357 28.6794 46.2617 28.2734 45.9315 27.7645C45.6012 27.2555 45.4361 26.6941 45.4361 26.0803C45.4361 25.6335 45.5216 25.2391 45.6925 24.8972C45.8635 24.5515 46.1024 24.2348 46.4093 23.9473C46.7162 23.6598 47.0756 23.3762 47.4874 23.0965L50.1915 21.4181C50.4635 21.2472 50.648 21.0704 50.7451 20.8878C50.8423 20.7013 50.8908 20.5362 50.8908 20.3924C50.8908 20.2021 50.8209 20.033 50.681 19.8854C50.5412 19.7378 50.3236 19.6659 50.0283 19.6698C49.8457 19.6698 49.6884 19.7048 49.5563 19.7747C49.4242 19.8407 49.3212 19.934 49.2474 20.0544C49.1775 20.1749 49.1425 20.3186 49.1425 20.4857C49.1425 20.7149 49.2086 20.9499 49.3407 21.1908C49.4728 21.4278 49.6534 21.6842 49.8826 21.9601C50.1119 22.2359 50.3702 22.5448 50.6577 22.8867L56.4388 29.2505H53.2219L48.3733 24.1222C48.1363 23.8696 47.874 23.5608 47.5865 23.1956C47.299 22.8265 47.0504 22.4108 46.8406 21.9484C46.6347 21.4861 46.5317 20.983 46.5317 20.439C46.5317 19.833 46.6774 19.2793 46.9688 18.7781C47.2602 18.277 47.6681 17.8768 48.1926 17.5776C48.7171 17.2785 49.329 17.1289 50.0283 17.1289C50.6966 17.1289 51.2716 17.2668 51.7533 17.5427C52.239 17.8185 52.6119 18.1857 52.8723 18.6441C53.1364 19.1026 53.2685 19.6076 53.2685 20.1593C53.2685 20.7149 53.1306 21.2336 52.8548 21.7153C52.5828 22.1971 52.1924 22.6186 51.6834 22.9799L49.2125 24.7282C49.0221 24.8603 48.857 25.0119 48.7171 25.1828C48.5811 25.3537 48.5131 25.5752 48.5131 25.8472C48.5131 26.0725 48.5656 26.2648 48.6705 26.4241C48.7754 26.5834 48.923 26.7058 49.1134 26.7912C49.3076 26.8767 49.5349 26.9195 49.7952 26.9195C50.1915 26.9195 50.5878 26.8243 50.9841 26.6339C51.3842 26.4396 51.7494 26.1696 52.0797 25.8238C52.4099 25.4742 52.6741 25.0624 52.8723 24.5884C53.0743 24.1105 53.1753 23.5899 53.1753 23.0265H55.7162C55.7162 23.7181 55.6443 24.3844 55.5005 25.0255C55.3568 25.6665 55.1256 26.2532 54.8071 26.7854C54.4885 27.3177 54.0689 27.7664 53.5483 28.1316C53.3851 28.2132 53.2258 28.2909 53.0704 28.3647C52.915 28.4385 52.7557 28.5162 52.5925 28.5978C52.1146 28.9048 51.6154 29.1223 51.0948 29.2505C50.5742 29.3749 50.0633 29.437 49.5621 29.437Z" fill="#FF5101"/>
</svg>
