<svg width="16" height="16" viewBox="0 0 16 16" fill="none" xmlns="http://www.w3.org/2000/svg">
<g clip-path="url(#clip0_1400_1072)">
<path fill-rule="evenodd" clip-rule="evenodd" d="M10 12.6668C10.0001 13.0032 9.87308 13.3272 9.64436 13.5739C9.41563 13.8205 9.10212 13.9716 8.76669 13.9968L8.66669 14.0002H7.33335C6.99697 14.0003 6.67298 13.8732 6.42632 13.6445C6.17967 13.4158 6.02858 13.1023 6.00335 12.7668L6.00002 12.6668H10ZM8.00002 1.3335C9.21001 1.33348 10.3727 1.80343 11.2428 2.64421C12.113 3.485 12.6225 4.63089 12.664 5.84016L12.6667 6.00016V8.5095L13.8814 10.9388C13.9344 11.0448 13.9609 11.1621 13.9587 11.2806C13.9564 11.3991 13.9255 11.5153 13.8686 11.6192C13.8116 11.7232 13.7303 11.8117 13.6317 11.8774C13.533 11.943 13.4199 11.9838 13.302 11.9962L13.2254 12.0002H2.77469C2.65613 12.0002 2.53933 11.9715 2.4343 11.9165C2.32927 11.8615 2.23914 11.7819 2.17163 11.6844C2.10412 11.5869 2.06125 11.4746 2.04669 11.3569C2.03213 11.2392 2.04631 11.1198 2.08802 11.0088L2.11869 10.9388L3.33335 8.5095V6.00016C3.33335 4.76249 3.82502 3.5755 4.70019 2.70033C5.57536 1.82516 6.76234 1.3335 8.00002 1.3335ZM8.00002 2.66683C7.14105 2.66688 6.31525 2.99852 5.69484 3.5926C5.07443 4.18668 4.7073 4.99733 4.67002 5.8555L4.66669 6.00016V8.5095C4.66669 8.67484 4.63595 8.83873 4.57602 8.99283L4.52602 9.10616L3.74602 10.6668H12.2547L11.4747 9.1055C11.4007 8.95768 11.3548 8.79741 11.3394 8.63283L11.3334 8.5095V6.00016C11.3334 5.11611 10.9822 4.26826 10.357 3.64314C9.73192 3.01802 8.88408 2.66683 8.00002 2.66683Z" fill="#181945"/>
</g>
<defs>
<clipPath id="clip0_1400_1072">
<rect width="16" height="16" fill="white"/>
</clipPath>
</defs>
</svg>
