<svg width="141" height="141" viewBox="0 0 141 141" fill="none" xmlns="http://www.w3.org/2000/svg">
<path d="M17.6251 48.4688C17.6245 43.3564 18.8946 38.324 21.3213 33.8243C23.748 29.3246 27.2552 25.4986 31.5273 22.6906C35.7994 19.8825 40.7026 18.1804 45.7957 17.7373C50.8888 17.2942 56.0122 18.1241 60.7051 20.1522C65.3979 22.1804 69.5131 25.3432 72.6803 29.3563C75.8476 33.3694 77.9677 38.1068 78.8499 43.1425C79.7321 48.1781 79.3488 53.3542 77.7344 58.2049C76.12 63.0557 73.3251 67.4291 69.6012 70.9318C76.6231 74.3392 82.7197 79.3897 87.3742 85.6549C92.0286 91.9202 95.1036 99.2154 96.3384 106.922C96.4744 107.78 96.4401 108.656 96.2376 109.5C96.035 110.344 95.6682 111.14 95.1579 111.843C94.6477 112.545 94.0041 113.14 93.2639 113.594C92.5237 114.048 91.7013 114.352 90.8438 114.488C89.9862 114.624 89.1103 114.589 88.266 114.387C87.4217 114.184 86.6256 113.817 85.923 113.307C85.2205 112.797 84.6254 112.153 84.1716 111.413C83.7178 110.673 83.4142 109.851 83.2782 108.993C81.9565 100.712 77.7258 93.1734 71.3458 87.7311C64.9659 82.2887 56.8547 79.2991 48.4689 79.2991C40.083 79.2991 31.9718 82.2887 25.5919 87.7311C19.212 93.1734 14.9813 100.712 13.6595 108.993C13.5229 109.851 13.2188 110.673 12.7645 111.413C12.3101 112.153 11.7145 112.796 11.0116 113.306C10.3086 113.816 9.51218 114.182 8.66766 114.384C7.82314 114.586 6.9471 114.62 6.08956 114.483C5.23202 114.347 4.40977 114.043 3.66977 113.588C2.92976 113.134 2.28649 112.538 1.77668 111.835C1.26687 111.132 0.9005 110.336 0.698497 109.491C0.496494 108.647 0.46281 107.771 0.599369 106.913C1.83607 99.2095 4.91199 91.9175 9.56637 85.6554C14.2208 79.3933 20.3164 74.3458 27.3365 70.9406C24.2668 68.0583 21.8212 64.5769 20.1508 60.7116C18.4804 56.8464 17.6208 52.6795 17.6251 48.4688ZM96.9376 35.25C102.058 35.2536 107.067 36.7434 111.357 39.5386C115.647 42.3338 119.033 46.3142 121.104 50.9966C123.176 55.679 123.844 60.8621 123.027 65.9166C122.209 70.9712 119.943 75.6799 116.501 79.4711C121.865 82.1341 126.632 85.8606 130.51 90.4237C134.388 94.9869 137.298 100.291 139.061 106.014C139.411 107.125 139.46 108.309 139.204 109.445C138.948 110.581 138.396 111.629 137.604 112.483C136.812 113.337 135.808 113.966 134.694 114.307C133.58 114.647 132.396 114.687 131.262 114.422C130.129 114.158 129.086 113.6 128.236 112.805C127.387 112.01 126.762 111.005 126.424 109.892C124.845 104.782 121.967 100.17 118.071 96.5064C114.175 92.8425 109.396 90.2522 104.199 88.9886C102.756 88.6403 101.472 87.8162 100.555 86.6491C99.6369 85.4821 99.1389 84.0401 99.1407 82.5555V79.4535C99.14 78.223 99.4827 77.0167 100.13 75.9704C100.778 74.9242 101.705 74.0795 102.807 73.5315C105.478 72.2075 107.624 70.0191 108.895 67.3218C110.166 64.6245 110.487 61.5767 109.807 58.6735C109.128 55.7703 107.486 53.1823 105.15 51.3297C102.813 49.4772 99.9193 48.4689 96.9376 48.4688C95.1847 48.4688 93.5036 47.7724 92.2641 46.5329C91.0246 45.2934 90.3282 43.6123 90.3282 41.8594C90.3282 40.1065 91.0246 38.4254 92.2641 37.1859C93.5036 35.9464 95.1847 35.25 96.9376 35.25ZM48.4689 30.8438C46.1218 30.7907 43.7877 31.2071 41.6037 32.0685C39.4197 32.9298 37.4299 34.2189 35.7509 35.8599C34.072 37.5009 32.7378 39.4608 31.8267 41.6245C30.9156 43.7882 30.446 46.1121 30.4454 48.4599C30.4448 50.8076 30.9133 53.1317 31.8233 55.2959C32.7333 57.4601 34.0665 59.4207 35.7446 61.0625C37.4227 62.7043 39.412 63.9944 41.5955 64.8568C43.7791 65.7193 46.1129 66.1369 48.4601 66.085C53.0651 65.9831 57.4474 64.0825 60.6686 60.7901C63.8899 57.4976 65.6943 53.0749 65.6954 48.4687C65.6966 43.8625 63.8944 39.4389 60.6748 36.1448C57.4552 32.8507 53.0739 30.9479 48.4689 30.8438Z" fill="white"/>
</svg>
