<svg width="21" height="21" viewBox="0 0 21 21" fill="none" xmlns="http://www.w3.org/2000/svg">
<g clip-path="url(#clip0_1163_1355)">
<path d="M18.935 14.3034L15.9717 13.9651C15.6233 13.9241 15.2701 13.9627 14.9387 14.0779C14.6073 14.1931 14.3063 14.3819 14.0584 14.6301L11.9117 16.7767C8.59977 15.0923 5.90779 12.4003 4.22339 9.08839L6.38171 6.93005C6.88339 6.42839 7.12839 5.72839 7.04671 5.01673L6.70839 2.07673C6.64224 1.50759 6.36911 0.982663 5.941 0.601876C5.51287 0.221088 4.95968 0.0110394 4.38671 0.0117204H2.36839C1.05005 0.0117204 -0.0466192 1.10839 0.0350474 2.42673C0.653381 12.39 8.62171 20.3467 18.5734 20.9651C19.8917 21.0467 20.9884 19.9501 20.9884 18.6317V16.6135C21 15.4351 20.1134 14.4434 18.935 14.3034Z" fill="#FF5101"/>
</g>
<defs>
<clipPath id="clip0_1163_1355">
<rect width="21" height="21" fill="white"/>
</clipPath>
</defs>
</svg>
