<svg width="265" height="55" viewBox="0 0 265 55" fill="none" xmlns="http://www.w3.org/2000/svg">
<path fill-rule="evenodd" clip-rule="evenodd" d="M127.98 12.4304V46.0476L262.153 52.0643V3.05388L127.98 12.4304ZM125.214 9.92438V48.6546L264.919 55V0L125.214 9.92438Z" fill="#FF5101"/>
<path d="M231.573 39.6635V17.532H247.524V22.3733H237.582V26.1771H246.702V31.0184H237.582V34.8223H247.48V39.6635H231.573Z" fill="#FF5101"/>
<path d="M208.75 39.6635V17.532H214.758V26.1771H222.712V17.532H228.72V39.6635H222.712V31.0184H214.758V39.6635H208.75Z" fill="#FF5101"/>
<path d="M205.908 17.532V39.6635H200.894L192.897 28.0358H192.767V39.6635H186.759V17.532H191.859L199.726 29.1165H199.899V17.532H205.908Z" fill="#FF5101"/>
<path d="M168.288 39.6635H161.804L169.109 17.532H177.322L184.627 39.6635H178.143L173.302 23.6268H173.129L168.288 39.6635ZM167.077 30.9319H179.267V35.4274H167.077V30.9319Z" fill="#FF5101"/>
<path d="M154.088 24.8372C153.995 24.4554 153.847 24.1204 153.645 23.8322C153.444 23.5368 153.191 23.2883 152.889 23.0866C152.593 22.8776 152.248 22.7228 151.851 22.6219C151.462 22.5138 151.034 22.4598 150.565 22.4598C149.557 22.4598 148.696 22.7011 147.983 23.1838C147.277 23.6665 146.736 24.3617 146.362 25.2695C145.994 26.1772 145.811 27.2723 145.811 28.5546C145.811 29.8514 145.987 30.9609 146.34 31.883C146.693 32.8051 147.219 33.5112 147.918 34.0011C148.617 34.4909 149.485 34.7359 150.522 34.7359C151.437 34.7359 152.197 34.6026 152.802 34.3361C153.415 34.0695 153.872 33.6913 154.175 33.2014C154.477 32.7115 154.629 32.1351 154.629 31.4724L155.666 31.5804H150.609V27.3011H160.421V30.3701C160.421 32.3873 159.992 34.1127 159.135 35.5464C158.285 36.9728 157.111 38.0679 155.612 38.8315C154.121 39.588 152.41 39.9662 150.479 39.9662C148.325 39.9662 146.434 39.5087 144.806 38.5938C143.178 37.6788 141.906 36.3749 140.991 34.6819C140.083 32.9889 139.629 30.9753 139.629 28.6411C139.629 26.8112 139.907 25.1902 140.461 23.7782C141.023 22.3661 141.801 21.1738 142.796 20.2013C143.79 19.2215 144.939 18.483 146.243 17.9859C147.547 17.4816 148.945 17.2295 150.436 17.2295C151.747 17.2295 152.965 17.4168 154.088 17.7914C155.219 18.1588 156.217 18.6848 157.082 19.3692C157.953 20.0464 158.656 20.8496 159.189 21.779C159.722 22.7083 160.046 23.7278 160.162 24.8372H154.088Z" fill="#FF5101"/>
<path d="M126.094 36.5026C126.771 36.3358 127.422 36.0716 128.046 35.7123L128.659 36.3606L128.807 36.5171H129.022H133.632H134.762L134.002 35.6809L131.563 32.9959C131.618 32.9126 131.671 32.8278 131.723 32.7416C132.208 31.9306 132.558 31.0398 132.775 30.0724C132.99 29.1161 133.096 28.1246 133.096 27.0988V26.5988H132.596H128.956H128.456V27.0988C128.456 27.8446 128.322 28.5234 128.061 29.1412L126.747 27.6946L127.107 27.4402L127.107 27.4397C127.888 26.8852 128.501 26.2287 128.931 25.4671C129.369 24.7015 129.589 23.8731 129.589 22.9904C129.589 22.1167 129.379 21.3068 128.955 20.571C128.535 19.8319 127.934 19.2435 127.166 18.8068C126.386 18.3604 125.473 18.1482 124.446 18.1482C123.371 18.1482 122.406 18.3788 121.568 18.8569C120.743 19.3273 120.094 19.9625 119.63 20.7601C119.166 21.558 118.936 22.4387 118.936 23.3912C118.936 24.2354 119.096 25.0262 119.422 25.7574L119.422 25.7574L119.423 25.7606C119.633 26.2227 119.87 26.656 120.133 27.0598C119.684 27.3849 119.279 27.716 118.919 28.0533C118.44 28.5022 118.06 29.0032 117.786 29.5567C117.501 30.1266 117.366 30.7701 117.366 31.4744C117.366 32.4494 117.63 33.3485 118.157 34.1599C118.685 34.9747 119.438 35.6133 120.393 36.0818C121.362 36.5568 122.495 36.7843 123.778 36.7843C124.538 36.7843 125.309 36.69 126.091 36.5034L126.094 36.5026ZM122.957 30.5022C122.982 30.4715 123.008 30.4413 123.035 30.4115L124.657 32.1282C124.474 32.1609 124.293 32.1769 124.112 32.1769C123.794 32.1769 123.54 32.1248 123.338 32.0363C123.145 31.949 123.011 31.8331 122.918 31.6921C122.831 31.5594 122.775 31.3836 122.775 31.1404C122.775 30.8372 122.849 30.6387 122.957 30.5022ZM125.182 23.3244C125.182 23.4211 125.148 23.5758 125.031 23.8012C124.949 23.954 124.766 24.1493 124.415 24.3701C124.415 24.3703 124.414 24.3705 124.414 24.3708L124.105 24.5628C124.027 24.4462 123.959 24.3341 123.899 24.2265C123.742 23.9411 123.677 23.6868 123.677 23.458C123.677 23.2926 123.711 23.1783 123.757 23.0962C123.811 23.0095 123.886 22.9403 123.994 22.8865L123.994 22.8866L124.004 22.8812C124.107 22.8267 124.248 22.789 124.446 22.789V22.789L124.453 22.7889C124.8 22.7844 124.951 22.8702 125.019 22.9418C125.138 23.0674 125.182 23.1889 125.182 23.3244Z" fill="#FF5101" stroke="white"/>
<path d="M93.625 41.25V16.25H111.057V21.1572H99.6675V26.2842H110.166V31.2036H99.6675V36.3428H111.057V41.25H93.625Z" fill="#1D2146"/>
<path d="M71.2007 41.25V16.25H81.5278C83.3996 16.25 85.015 16.6162 86.374 17.3486C87.7412 18.0729 88.7951 19.0861 89.5356 20.3882C90.2762 21.6821 90.6465 23.1877 90.6465 24.9048C90.6465 26.63 90.2681 28.1396 89.5112 29.4336C88.7625 30.7194 87.6924 31.7163 86.3008 32.4243C84.9092 33.1323 83.2572 33.4863 81.3447 33.4863H74.9727V28.7256H80.2217C81.1331 28.7256 81.894 28.5669 82.5044 28.2495C83.1229 27.9321 83.5908 27.4886 83.9082 26.9189C84.2256 26.3411 84.3843 25.6698 84.3843 24.9048C84.3843 24.1317 84.2256 23.4644 83.9082 22.9028C83.5908 22.3332 83.1229 21.8937 82.5044 21.5845C81.8859 21.2752 81.125 21.1206 80.2217 21.1206H77.2432V41.25H71.2007Z" fill="#1D2146"/>
<path d="M62.021 23.7451C61.9396 22.8499 61.5775 22.1541 60.9346 21.6577C60.2998 21.1532 59.3924 20.9009 58.2124 20.9009C57.4312 20.9009 56.7801 21.0026 56.2593 21.2061C55.7384 21.4095 55.3478 21.6903 55.0874 22.0483C54.827 22.3983 54.6927 22.8011 54.6846 23.2568C54.6683 23.6312 54.7415 23.9608 54.9043 24.2456C55.0752 24.5304 55.3193 24.7827 55.6367 25.0024C55.9622 25.214 56.3529 25.4012 56.8086 25.564C57.2643 25.7267 57.777 25.8691 58.3467 25.9912L60.4951 26.4795C61.7321 26.748 62.8226 27.1061 63.7666 27.5537C64.7188 28.0013 65.5163 28.5343 66.1592 29.1528C66.8102 29.7713 67.3026 30.4834 67.6362 31.2891C67.9699 32.0947 68.1408 32.998 68.1489 33.999C68.1408 35.5778 67.742 36.9328 66.9526 38.064C66.1632 39.1952 65.028 40.0618 63.5469 40.6641C62.0739 41.2663 60.2957 41.5674 58.2124 41.5674C56.1209 41.5674 54.298 41.2541 52.7437 40.6274C51.1893 40.0008 49.9808 39.0487 49.1182 37.771C48.2555 36.4933 47.812 34.8779 47.7876 32.9248H53.5737C53.6226 33.7305 53.8382 34.4019 54.2207 34.939C54.6032 35.4761 55.1281 35.883 55.7954 36.1597C56.4709 36.4364 57.2521 36.5747 58.1392 36.5747C58.953 36.5747 59.6447 36.4648 60.2144 36.2451C60.7922 36.0254 61.2357 35.7202 61.5449 35.3296C61.8542 34.939 62.0129 34.4914 62.021 33.9868C62.0129 33.5148 61.8664 33.112 61.5815 32.7783C61.2967 32.4365 60.8573 32.1436 60.2632 31.8994C59.6772 31.6471 58.9285 31.4152 58.0171 31.2036L55.4048 30.5933C53.2401 30.0968 51.5352 29.2952 50.29 28.1885C49.0449 27.0736 48.4264 25.568 48.4346 23.6719C48.4264 22.1257 48.8415 20.7707 49.6797 19.6069C50.5179 18.4432 51.6776 17.5358 53.1587 16.8848C54.6398 16.2337 56.3284 15.9082 58.2246 15.9082C60.1615 15.9082 61.842 16.2378 63.2661 16.897C64.6984 17.548 65.8092 18.4635 66.5986 19.6436C67.388 20.8236 67.7909 22.1908 67.8071 23.7451H62.021Z" fill="#1D2146"/>
<path d="M28.168 41.25H21.6738L30.1089 16.25H38.1533L46.5884 41.25H40.0942L34.2227 22.5488H34.0273L28.168 41.25ZM27.3013 31.4111H40.8755V36.001H27.3013V31.4111Z" fill="#1D2146"/>
<path d="M0 41.25V16.25H10.3271C12.1989 16.25 13.8143 16.5877 15.1733 17.2632C16.5405 17.9305 17.5944 18.8908 18.335 20.144C19.0755 21.3892 19.4458 22.8662 19.4458 24.5752C19.4458 26.3086 19.0674 27.7816 18.3105 28.9941C17.5537 30.1986 16.4795 31.1182 15.0879 31.7529C13.6963 32.3796 12.0483 32.6929 10.144 32.6929H3.61328V27.9321H9.021C9.93245 27.9321 10.6934 27.8141 11.3037 27.5781C11.9222 27.334 12.3901 26.9678 12.7075 26.4795C13.0249 25.9831 13.1836 25.3483 13.1836 24.5752C13.1836 23.8021 13.0249 23.1632 12.7075 22.6587C12.3901 22.146 11.9222 21.7635 11.3037 21.5112C10.6852 21.2508 9.92432 21.1206 9.021 21.1206H6.04248V41.25H0ZM14.0747 29.8242L20.3003 41.25H13.7085L7.60498 29.8242H14.0747Z" fill="#1D2146"/>
</svg>
