<svg width="24" height="24" viewBox="0 0 24 24" fill="none" xmlns="http://www.w3.org/2000/svg">
<g clip-path="url(#clip0_623_472)">
<path d="M18 9.42861V6.85718C18 5.26588 17.3679 3.73976 16.2427 2.61454C15.1174 1.48932 13.5913 0.857178 12 0.857178C10.4087 0.857178 8.8826 1.48932 7.75738 2.61454C6.63216 3.73976 6.00002 5.26588 6.00002 6.85718V9.42861M18.8572 9.42861H5.14287C4.68822 9.42861 4.25218 9.60922 3.93069 9.93071C3.6092 10.2522 3.42859 10.6882 3.42859 11.1429V21.4286C3.42859 21.8833 3.6092 22.3193 3.93069 22.6408C4.25218 22.9623 4.68822 23.1429 5.14287 23.1429H18.8572C19.3118 23.1429 19.7479 22.9623 20.0693 22.6408C20.3908 22.3193 20.5714 21.8833 20.5714 21.4286V11.1429C20.5714 10.6882 20.3908 10.2522 20.0693 9.93071C19.7479 9.60922 19.3118 9.42861 18.8572 9.42861Z" stroke="#181945" stroke-width="2" stroke-linecap="round" stroke-linejoin="round"/>
<path d="M12 17.1429C12.2273 17.1429 12.4453 17.0526 12.6061 16.8918C12.7668 16.7311 12.8571 16.5131 12.8571 16.2857C12.8571 16.0584 12.7668 15.8404 12.6061 15.6796C12.4453 15.5189 12.2273 15.4286 12 15.4286C11.7726 15.4286 11.5546 15.5189 11.3939 15.6796C11.2331 15.8404 11.1428 16.0584 11.1428 16.2857C11.1428 16.5131 11.2331 16.7311 11.3939 16.8918C11.5546 17.0526 11.7726 17.1429 12 17.1429Z" stroke="black" stroke-linecap="round" stroke-linejoin="round"/>
</g>
<defs>
<clipPath id="clip0_623_472">
<rect width="24" height="24" fill="white"/>
</clipPath>
</defs>
</svg>
