<svg width="22" height="22" viewBox="0 0 22 22" fill="none" xmlns="http://www.w3.org/2000/svg">
<g clip-path="url(#clip0_623_316)">
<path d="M7.8572 14.9286H2.3572C1.94043 14.9286 1.54073 14.7631 1.24603 14.4684C0.951327 14.1737 0.785767 13.774 0.785767 13.3572V2.3572C0.785767 1.94043 0.951327 1.54073 1.24603 1.24603C1.54073 0.951327 1.94043 0.785767 2.3572 0.785767H18.0715C18.4883 0.785767 18.8879 0.951327 19.1826 1.24603C19.4773 1.54073 19.6429 1.94043 19.6429 2.3572V8.64291" stroke="white" stroke-width="2" stroke-linecap="round" stroke-linejoin="round"/>
<path d="M0.785767 2.76575L10.2143 9.4286L19.6429 2.76575M21.2143 21.2143L18.4958 18.4957M15.7143 19.6429C16.7563 19.6429 17.7555 19.229 18.4923 18.4922C19.229 17.7555 19.6429 16.7562 19.6429 15.7143C19.6429 14.6724 19.229 13.6731 18.4923 12.9364C17.7555 12.1996 16.7563 11.7857 15.7143 11.7857C14.6724 11.7857 13.6732 12.1996 12.9364 12.9364C12.1997 13.6731 11.7858 14.6724 11.7858 15.7143C11.7858 16.7562 12.1997 17.7555 12.9364 18.4922C13.6732 19.229 14.6724 19.6429 15.7143 19.6429Z" stroke="white" stroke-width="2" stroke-linecap="round" stroke-linejoin="round"/>
</g>
<defs>
<clipPath id="clip0_623_316">
<rect width="22" height="22" fill="white"/>
</clipPath>
</defs>
</svg>
