<svg width="35" height="35" viewBox="0 0 35 35" fill="none" xmlns="http://www.w3.org/2000/svg">
<g clip-path="url(#clip0_1986_8920)">
<g clip-path="url(#clip1_1986_8920)">
<path d="M18.41 17.9999L26.7 9.70994C26.8638 9.51864 26.9494 9.27256 26.9397 9.02089C26.93 8.76921 26.8256 8.53047 26.6475 8.35238C26.4694 8.17428 26.2307 8.06995 25.979 8.06023C25.7274 8.05051 25.4813 8.13612 25.29 8.29994L17 16.5899L8.70997 8.28994C8.52167 8.10164 8.26627 7.99585 7.99997 7.99585C7.73367 7.99585 7.47828 8.10164 7.28997 8.28994C7.10167 8.47825 6.99588 8.73364 6.99588 8.99994C6.99588 9.26624 7.10167 9.52164 7.28997 9.70994L15.59 17.9999L7.28997 26.2899C7.18529 26.3796 7.10027 26.4899 7.04025 26.614C6.98022 26.738 6.94649 26.8732 6.94117 27.0109C6.93586 27.1486 6.95906 27.2859 7.00934 27.4143C7.05961 27.5426 7.13587 27.6591 7.23332 27.7566C7.33078 27.854 7.44733 27.9303 7.57565 27.9806C7.70398 28.0309 7.84131 28.0541 7.97903 28.0487C8.11675 28.0434 8.25188 28.0097 8.37594 27.9497C8.50001 27.8896 8.61033 27.8046 8.69997 27.6999L17 19.4099L25.29 27.6999C25.4813 27.8638 25.7274 27.9494 25.979 27.9397C26.2307 27.9299 26.4694 27.8256 26.6475 27.6475C26.8256 27.4694 26.93 27.2307 26.9397 26.979C26.9494 26.7273 26.8638 26.4812 26.7 26.2899L18.41 17.9999Z" fill="#181945"/>
</g>
</g>
<defs>
<clipPath id="clip0_1986_8920">
<rect width="35" height="35" fill="white"/>
</clipPath>
<clipPath id="clip1_1986_8920">
<rect width="36" height="36" fill="white" transform="translate(-1)"/>
</clipPath>
</defs>
</svg>
