<svg width="22" height="22" viewBox="0 0 22 22" fill="none" xmlns="http://www.w3.org/2000/svg">
<path d="M0 11C0 8.08262 1.15893 5.28473 3.22183 3.22183C5.28473 1.15893 8.08262 0 11 0C13.9174 0 16.7153 1.15893 18.7782 3.22183C20.8411 5.28473 22 8.08262 22 11C22 13.9174 20.8411 16.7153 18.7782 18.7782C16.7153 20.8411 13.9174 22 11 22C8.08262 22 5.28473 20.8411 3.22183 18.7782C1.15893 16.7153 0 13.9174 0 11ZM11 2.0625C8.62963 2.0625 6.35634 3.00413 4.68023 4.68023C3.00413 6.35634 2.0625 8.62963 2.0625 11C2.0625 13.3704 3.00413 15.6437 4.68023 17.3198C6.35634 18.9959 8.62963 19.9375 11 19.9375C13.3704 19.9375 15.6437 18.9959 17.3198 17.3198C18.9959 15.6437 19.9375 13.3704 19.9375 11C19.9375 8.62963 18.9959 6.35634 17.3198 4.68023C15.6437 3.00413 13.3704 2.0625 11 2.0625ZM9.515 8.36687C9.39283 8.61157 9.17984 8.79771 8.92043 8.88436C8.66102 8.971 8.37782 8.95104 8.13313 8.82887C7.88843 8.70671 7.70229 8.49234 7.61564 8.23293C7.529 7.97352 7.54896 7.69032 7.67112 7.44562C7.9035 6.9795 8.27063 6.48175 8.8385 6.10225C9.41187 5.72 10.1324 5.5 11 5.5C11.8081 5.49448 12.5967 5.74741 13.2509 6.22188C13.9425 6.74025 14.4375 7.54875 14.4375 8.59375C14.4375 9.20975 14.2794 9.735 13.9851 10.175C13.7032 10.5971 13.3389 10.8804 13.0336 11.0853C12.8837 11.1843 12.7311 11.275 12.6033 11.3534L12.595 11.3589C12.4741 11.4293 12.3549 11.5026 12.2375 11.5789C12.0902 11.6653 11.9613 11.7798 11.858 11.9158C11.7049 12.14 11.4695 12.2948 11.203 12.3466C10.9364 12.3984 10.6602 12.343 10.4343 12.1924C10.2083 12.0417 10.0509 11.8081 9.99619 11.5421C9.94148 11.2761 9.99387 10.9993 10.142 10.7718C10.395 10.4088 10.7195 10.0994 11.0935 9.86287C11.2351 9.77075 11.3781 9.68138 11.5239 9.59475L11.5335 9.58925C11.671 9.50537 11.7837 9.438 11.8883 9.36788C12.0357 9.28108 12.165 9.1667 12.2691 9.031C12.32 8.95675 12.375 8.83712 12.375 8.59375C12.3802 8.45288 12.35 8.31296 12.287 8.18683C12.2241 8.06069 12.1305 7.9524 12.0147 7.87187C11.7168 7.66601 11.3621 7.5579 11 7.5625C10.4926 7.5625 10.1819 7.68625 9.9825 7.81962C9.78128 7.95779 9.62003 8.14654 9.515 8.36687ZM12.375 15.125C12.375 15.4897 12.2301 15.8394 11.9723 16.0973C11.7144 16.3551 11.3647 16.5 11 16.5C10.6353 16.5 10.2856 16.3551 10.0277 16.0973C9.76987 15.8394 9.625 15.4897 9.625 15.125C9.625 14.7603 9.76987 14.4106 10.0277 14.1527C10.2856 13.8949 10.6353 13.75 11 13.75C11.3647 13.75 11.7144 13.8949 11.9723 14.1527C12.2301 14.4106 12.375 14.7603 12.375 15.125Z" fill="#FF5101"/>
</svg>
