<svg width="20" height="21" viewBox="0 0 20 21" fill="none" xmlns="http://www.w3.org/2000/svg">
<path d="M16 1C16.7956 1 17.5587 1.31607 18.1213 1.87868C18.6839 2.44129 19 3.20435 19 4V6.143C19 6.477 19 6.644 18.923 6.766C18.8831 6.82944 18.8294 6.88309 18.766 6.923C18.644 7 18.477 7 18.143 7H13M16 1C15.2044 1 14.4413 1.31607 13.8787 1.87868C13.3161 2.44129 13 3.20435 13 4V7M16 1H5C3.114 1 2.172 1 1.586 1.586C1 2.172 1 3.114 1 5V19L4 18L7 19L10 18L13 19V7" stroke="#FF5101" stroke-width="2"/>
<path d="M5 5H9M6 9H5M5 13H8" stroke="#FF5101" stroke-width="2" stroke-linecap="round"/>
</svg>
